G04 #@! TF.GenerationSoftware,KiCad,Pcbnew,8.0.3*
G04 #@! TF.CreationDate,2024-06-26T11:29:34-05:00*
G04 #@! TF.ProjectId,Bald Sense Wing v3,42616c64-2053-4656-9e73-652057696e67,rev?*
G04 #@! TF.SameCoordinates,Original*
G04 #@! TF.FileFunction,Paste,Top*
G04 #@! TF.FilePolarity,Positive*
%FSLAX46Y46*%
G04 Gerber Fmt 4.6, Leading zero omitted, Abs format (unit mm)*
G04 Created by KiCad (PCBNEW 8.0.3) date 2024-06-26 11:29:34*
%MOMM*%
%LPD*%
G01*
G04 APERTURE LIST*
G04 Aperture macros list*
%AMRoundRect*
0 Rectangle with rounded corners*
0 $1 Rounding radius*
0 $2 $3 $4 $5 $6 $7 $8 $9 X,Y pos of 4 corners*
0 Add a 4 corners polygon primitive as box body*
4,1,4,$2,$3,$4,$5,$6,$7,$8,$9,$2,$3,0*
0 Add four circle primitives for the rounded corners*
1,1,$1+$1,$2,$3*
1,1,$1+$1,$4,$5*
1,1,$1+$1,$6,$7*
1,1,$1+$1,$8,$9*
0 Add four rect primitives between the rounded corners*
20,1,$1+$1,$2,$3,$4,$5,0*
20,1,$1+$1,$4,$5,$6,$7,0*
20,1,$1+$1,$6,$7,$8,$9,0*
20,1,$1+$1,$8,$9,$2,$3,0*%
G04 Aperture macros list end*
%ADD10C,0.000100*%
%ADD11C,0.010000*%
%ADD12RoundRect,0.225000X0.225000X0.250000X-0.225000X0.250000X-0.225000X-0.250000X0.225000X-0.250000X0*%
%ADD13RoundRect,0.243750X0.243750X0.456250X-0.243750X0.456250X-0.243750X-0.456250X0.243750X-0.456250X0*%
%ADD14RoundRect,0.135000X-0.135000X-0.185000X0.135000X-0.185000X0.135000X0.185000X-0.135000X0.185000X0*%
%ADD15RoundRect,0.135000X0.135000X0.185000X-0.135000X0.185000X-0.135000X-0.185000X0.135000X-0.185000X0*%
%ADD16RoundRect,0.135000X0.185000X-0.135000X0.185000X0.135000X-0.185000X0.135000X-0.185000X-0.135000X0*%
%ADD17R,0.600000X0.720000*%
%ADD18RoundRect,0.150000X0.150000X-0.825000X0.150000X0.825000X-0.150000X0.825000X-0.150000X-0.825000X0*%
%ADD19RoundRect,0.135000X-0.185000X0.135000X-0.185000X-0.135000X0.185000X-0.135000X0.185000X0.135000X0*%
%ADD20RoundRect,0.225000X-0.250000X0.225000X-0.250000X-0.225000X0.250000X-0.225000X0.250000X0.225000X0*%
%ADD21R,1.750000X0.700000*%
%ADD22R,1.550000X1.000000*%
%ADD23R,1.000000X1.450000*%
%ADD24R,1.500000X1.500000*%
%ADD25R,1.500000X1.300000*%
%ADD26R,1.400000X0.800000*%
%ADD27R,1.500000X0.800000*%
%ADD28C,0.910000*%
%ADD29R,0.900000X0.800000*%
%ADD30R,0.550000X0.250000*%
%ADD31RoundRect,0.150000X-0.512500X-0.150000X0.512500X-0.150000X0.512500X0.150000X-0.512500X0.150000X0*%
%ADD32R,1.050000X0.650000*%
%ADD33RoundRect,0.150000X0.625000X-0.150000X0.625000X0.150000X-0.625000X0.150000X-0.625000X-0.150000X0*%
%ADD34RoundRect,0.250000X0.650000X-0.350000X0.650000X0.350000X-0.650000X0.350000X-0.650000X-0.350000X0*%
G04 APERTURE END LIST*
D10*
X72739780Y-41630311D02*
X72787090Y-41636960D01*
X72833446Y-41648517D01*
X72878340Y-41664857D01*
X72921280Y-41685801D01*
X72961795Y-41711117D01*
X72999443Y-41740531D01*
X73033809Y-41773718D01*
X73064518Y-41810316D01*
X73091234Y-41849923D01*
X73113663Y-41892106D01*
X73131560Y-41936402D01*
X73144728Y-41982326D01*
X73153024Y-42029376D01*
X73156357Y-42077034D01*
X73154689Y-42124780D01*
X73148040Y-42172090D01*
X73136483Y-42218446D01*
X73120143Y-42263340D01*
X73099199Y-42306280D01*
X73073883Y-42346795D01*
X73044469Y-42384443D01*
X73010000Y-42420000D01*
X72900000Y-42520000D01*
X72800000Y-42620000D01*
X72762032Y-42654454D01*
X72723409Y-42682516D01*
X72682064Y-42706386D01*
X72638451Y-42725804D01*
X72593047Y-42740556D01*
X72546349Y-42750482D01*
X72498870Y-42755473D01*
X72451130Y-42755473D01*
X72403651Y-42750482D01*
X72356953Y-42740556D01*
X72311549Y-42725804D01*
X72267936Y-42706386D01*
X72226591Y-42682516D01*
X72187968Y-42654454D01*
X72152490Y-42622510D01*
X72120546Y-42587032D01*
X72092484Y-42548409D01*
X72068614Y-42507064D01*
X72049196Y-42463451D01*
X72034444Y-42418047D01*
X72024518Y-42371349D01*
X72019527Y-42323870D01*
X72019527Y-42276130D01*
X72024518Y-42228651D01*
X72034444Y-42181953D01*
X72049196Y-42136549D01*
X72068614Y-42092936D01*
X72092484Y-42051591D01*
X72120546Y-42012968D01*
X72150000Y-41980000D01*
X72390000Y-41750000D01*
X72425316Y-41720482D01*
X72464923Y-41693766D01*
X72507106Y-41671337D01*
X72551402Y-41653440D01*
X72597326Y-41640272D01*
X72644376Y-41631976D01*
X72692034Y-41628643D01*
X72739780Y-41630311D01*
G36*
X72739780Y-41630311D02*
G01*
X72787090Y-41636960D01*
X72833446Y-41648517D01*
X72878340Y-41664857D01*
X72921280Y-41685801D01*
X72961795Y-41711117D01*
X72999443Y-41740531D01*
X73033809Y-41773718D01*
X73064518Y-41810316D01*
X73091234Y-41849923D01*
X73113663Y-41892106D01*
X73131560Y-41936402D01*
X73144728Y-41982326D01*
X73153024Y-42029376D01*
X73156357Y-42077034D01*
X73154689Y-42124780D01*
X73148040Y-42172090D01*
X73136483Y-42218446D01*
X73120143Y-42263340D01*
X73099199Y-42306280D01*
X73073883Y-42346795D01*
X73044469Y-42384443D01*
X73010000Y-42420000D01*
X72900000Y-42520000D01*
X72800000Y-42620000D01*
X72762032Y-42654454D01*
X72723409Y-42682516D01*
X72682064Y-42706386D01*
X72638451Y-42725804D01*
X72593047Y-42740556D01*
X72546349Y-42750482D01*
X72498870Y-42755473D01*
X72451130Y-42755473D01*
X72403651Y-42750482D01*
X72356953Y-42740556D01*
X72311549Y-42725804D01*
X72267936Y-42706386D01*
X72226591Y-42682516D01*
X72187968Y-42654454D01*
X72152490Y-42622510D01*
X72120546Y-42587032D01*
X72092484Y-42548409D01*
X72068614Y-42507064D01*
X72049196Y-42463451D01*
X72034444Y-42418047D01*
X72024518Y-42371349D01*
X72019527Y-42323870D01*
X72019527Y-42276130D01*
X72024518Y-42228651D01*
X72034444Y-42181953D01*
X72049196Y-42136549D01*
X72068614Y-42092936D01*
X72092484Y-42051591D01*
X72120546Y-42012968D01*
X72150000Y-41980000D01*
X72390000Y-41750000D01*
X72425316Y-41720482D01*
X72464923Y-41693766D01*
X72507106Y-41671337D01*
X72551402Y-41653440D01*
X72597326Y-41640272D01*
X72644376Y-41631976D01*
X72692034Y-41628643D01*
X72739780Y-41630311D01*
G37*
D11*
X73984281Y-37122000D02*
X73083000Y-37122000D01*
X73083000Y-35519722D01*
X73984281Y-35519722D01*
X73984281Y-37122000D01*
G36*
X73984281Y-37122000D02*
G01*
X73083000Y-37122000D01*
X73083000Y-35519722D01*
X73984281Y-35519722D01*
X73984281Y-37122000D01*
G37*
D12*
X70600000Y-42400000D03*
X69050000Y-42400000D03*
D13*
X39497000Y-26670000D03*
X37622000Y-26670000D03*
D14*
X47699200Y-31496000D03*
X48719200Y-31496000D03*
D15*
X48719200Y-32512000D03*
X47699200Y-32512000D03*
D16*
X68453000Y-30736000D03*
X68453000Y-29716000D03*
D17*
X74360000Y-31057000D03*
X74360000Y-32027000D03*
X74360000Y-32997000D03*
X74360000Y-33967000D03*
X72960000Y-33967000D03*
X72960000Y-32997000D03*
X72960000Y-32027000D03*
X72960000Y-31057000D03*
D18*
X59677300Y-35469600D03*
X60947300Y-35469600D03*
X62217300Y-35469600D03*
X63487300Y-35469600D03*
X63487300Y-30519600D03*
X62217300Y-30519600D03*
X60947300Y-30519600D03*
X59677300Y-30519600D03*
D14*
X63091600Y-37896800D03*
X64111600Y-37896800D03*
D15*
X59946000Y-37846000D03*
X58926000Y-37846000D03*
D19*
X36195000Y-26162000D03*
X36195000Y-27182000D03*
D20*
X61518800Y-37807600D03*
X61518800Y-39357600D03*
D21*
X27051000Y-40343000D03*
X27051000Y-39243000D03*
X27051000Y-38143000D03*
X27051000Y-37043000D03*
X27051000Y-35943000D03*
X27051000Y-34843000D03*
X27051000Y-33743000D03*
X27051000Y-32643000D03*
D22*
X37851000Y-42718000D03*
D23*
X36276000Y-31518000D03*
D24*
X27176000Y-42793000D03*
D25*
X27176000Y-31443000D03*
D26*
X35426000Y-43118000D03*
D27*
X34776000Y-31193000D03*
D28*
X74830000Y-42290000D03*
X74830000Y-40640000D03*
X74830000Y-38990000D03*
X72490000Y-38990000D03*
X72490000Y-40640000D03*
D12*
X70675800Y-32359600D03*
X69125800Y-32359600D03*
D29*
X52289200Y-38420000D03*
X52289200Y-40320000D03*
X54289200Y-39370000D03*
D16*
X55930800Y-39600600D03*
X55930800Y-38580600D03*
D29*
X46777400Y-38191400D03*
X46777400Y-40091400D03*
X48777400Y-39141400D03*
D16*
X50500000Y-39600600D03*
X50500000Y-38580600D03*
D14*
X50969100Y-41656000D03*
X51989100Y-41656000D03*
X47750000Y-41452800D03*
X48770000Y-41452800D03*
X54690800Y-41910000D03*
X55710800Y-41910000D03*
D16*
X67310000Y-30736000D03*
X67310000Y-29716000D03*
D20*
X69062600Y-35902600D03*
X69062600Y-37452600D03*
D30*
X74708000Y-37072000D03*
X74708000Y-36572000D03*
X74708000Y-36072000D03*
X74708000Y-35572000D03*
X72358000Y-35572000D03*
X72358000Y-36072000D03*
X72358000Y-36572000D03*
X72358000Y-37072000D03*
D31*
X42702900Y-32868700D03*
X42702900Y-33818700D03*
X42702900Y-34768700D03*
X44977900Y-34768700D03*
X44977900Y-32868700D03*
D16*
X69088000Y-34647600D03*
X69088000Y-33627600D03*
D19*
X67614800Y-32052800D03*
X67614800Y-33072800D03*
D32*
X40046000Y-42926000D03*
X44196000Y-42926000D03*
X40046000Y-45076000D03*
X44196000Y-45076000D03*
D33*
X55528600Y-35180400D03*
X55528600Y-34180400D03*
X55528600Y-33180400D03*
X55528600Y-32180400D03*
D34*
X53003600Y-36480400D03*
X53003600Y-30880400D03*
D14*
X42314400Y-36169600D03*
X43334400Y-36169600D03*
D15*
X45518800Y-36220400D03*
X44498800Y-36220400D03*
M02*
