G04 #@! TF.GenerationSoftware,KiCad,Pcbnew,8.0.3*
G04 #@! TF.CreationDate,2024-06-26T11:29:35-05:00*
G04 #@! TF.ProjectId,Bald Sense Wing v3,42616c64-2053-4656-9e73-652057696e67,rev?*
G04 #@! TF.SameCoordinates,Original*
G04 #@! TF.FileFunction,Legend,Bot*
G04 #@! TF.FilePolarity,Positive*
%FSLAX46Y46*%
G04 Gerber Fmt 4.6, Leading zero omitted, Abs format (unit mm)*
G04 Created by KiCad (PCBNEW 8.0.3) date 2024-06-26 11:29:35*
%MOMM*%
%LPD*%
G01*
G04 APERTURE LIST*
%ADD10C,0.150000*%
%ADD11C,0.125000*%
%ADD12C,0.127000*%
%ADD13C,0.120000*%
%ADD14C,0.010000*%
G04 APERTURE END LIST*
D10*
X58166000Y-33274000D02*
X61214000Y-33274000D01*
X61214000Y-36322000D01*
X58166000Y-36322000D01*
X58166000Y-33274000D01*
G36*
X58166000Y-33274000D02*
G01*
X61214000Y-33274000D01*
X61214000Y-36322000D01*
X58166000Y-36322000D01*
X58166000Y-33274000D01*
G37*
D11*
X42826665Y-43886623D02*
X42659999Y-44386623D01*
X42659999Y-44386623D02*
X42493332Y-43886623D01*
X42326666Y-43886623D02*
X42326666Y-44291385D01*
X42326666Y-44291385D02*
X42302856Y-44339004D01*
X42302856Y-44339004D02*
X42279047Y-44362814D01*
X42279047Y-44362814D02*
X42231428Y-44386623D01*
X42231428Y-44386623D02*
X42136190Y-44386623D01*
X42136190Y-44386623D02*
X42088571Y-44362814D01*
X42088571Y-44362814D02*
X42064761Y-44339004D01*
X42064761Y-44339004D02*
X42040952Y-44291385D01*
X42040952Y-44291385D02*
X42040952Y-43886623D01*
X41826665Y-44362814D02*
X41755237Y-44386623D01*
X41755237Y-44386623D02*
X41636189Y-44386623D01*
X41636189Y-44386623D02*
X41588570Y-44362814D01*
X41588570Y-44362814D02*
X41564761Y-44339004D01*
X41564761Y-44339004D02*
X41540951Y-44291385D01*
X41540951Y-44291385D02*
X41540951Y-44243766D01*
X41540951Y-44243766D02*
X41564761Y-44196147D01*
X41564761Y-44196147D02*
X41588570Y-44172337D01*
X41588570Y-44172337D02*
X41636189Y-44148528D01*
X41636189Y-44148528D02*
X41731427Y-44124718D01*
X41731427Y-44124718D02*
X41779046Y-44100909D01*
X41779046Y-44100909D02*
X41802856Y-44077099D01*
X41802856Y-44077099D02*
X41826665Y-44029480D01*
X41826665Y-44029480D02*
X41826665Y-43981861D01*
X41826665Y-43981861D02*
X41802856Y-43934242D01*
X41802856Y-43934242D02*
X41779046Y-43910433D01*
X41779046Y-43910433D02*
X41731427Y-43886623D01*
X41731427Y-43886623D02*
X41612380Y-43886623D01*
X41612380Y-43886623D02*
X41540951Y-43910433D01*
X41159999Y-44124718D02*
X41088571Y-44148528D01*
X41088571Y-44148528D02*
X41064761Y-44172337D01*
X41064761Y-44172337D02*
X41040952Y-44219956D01*
X41040952Y-44219956D02*
X41040952Y-44291385D01*
X41040952Y-44291385D02*
X41064761Y-44339004D01*
X41064761Y-44339004D02*
X41088571Y-44362814D01*
X41088571Y-44362814D02*
X41136190Y-44386623D01*
X41136190Y-44386623D02*
X41326666Y-44386623D01*
X41326666Y-44386623D02*
X41326666Y-43886623D01*
X41326666Y-43886623D02*
X41159999Y-43886623D01*
X41159999Y-43886623D02*
X41112380Y-43910433D01*
X41112380Y-43910433D02*
X41088571Y-43934242D01*
X41088571Y-43934242D02*
X41064761Y-43981861D01*
X41064761Y-43981861D02*
X41064761Y-44029480D01*
X41064761Y-44029480D02*
X41088571Y-44077099D01*
X41088571Y-44077099D02*
X41112380Y-44100909D01*
X41112380Y-44100909D02*
X41159999Y-44124718D01*
X41159999Y-44124718D02*
X41326666Y-44124718D01*
X42719523Y-45191595D02*
X42719523Y-44691595D01*
X42719523Y-44691595D02*
X42552856Y-45048738D01*
X42552856Y-45048738D02*
X42386190Y-44691595D01*
X42386190Y-44691595D02*
X42386190Y-45191595D01*
X41957618Y-45167786D02*
X42005237Y-45191595D01*
X42005237Y-45191595D02*
X42100475Y-45191595D01*
X42100475Y-45191595D02*
X42148094Y-45167786D01*
X42148094Y-45167786D02*
X42171903Y-45120166D01*
X42171903Y-45120166D02*
X42171903Y-44929690D01*
X42171903Y-44929690D02*
X42148094Y-44882071D01*
X42148094Y-44882071D02*
X42100475Y-44858262D01*
X42100475Y-44858262D02*
X42005237Y-44858262D01*
X42005237Y-44858262D02*
X41957618Y-44882071D01*
X41957618Y-44882071D02*
X41933808Y-44929690D01*
X41933808Y-44929690D02*
X41933808Y-44977309D01*
X41933808Y-44977309D02*
X42171903Y-45024928D01*
X41505237Y-45191595D02*
X41505237Y-44929690D01*
X41505237Y-44929690D02*
X41529047Y-44882071D01*
X41529047Y-44882071D02*
X41576666Y-44858262D01*
X41576666Y-44858262D02*
X41671904Y-44858262D01*
X41671904Y-44858262D02*
X41719523Y-44882071D01*
X41505237Y-45167786D02*
X41552856Y-45191595D01*
X41552856Y-45191595D02*
X41671904Y-45191595D01*
X41671904Y-45191595D02*
X41719523Y-45167786D01*
X41719523Y-45167786D02*
X41743332Y-45120166D01*
X41743332Y-45120166D02*
X41743332Y-45072547D01*
X41743332Y-45072547D02*
X41719523Y-45024928D01*
X41719523Y-45024928D02*
X41671904Y-45001119D01*
X41671904Y-45001119D02*
X41552856Y-45001119D01*
X41552856Y-45001119D02*
X41505237Y-44977309D01*
X41290951Y-45167786D02*
X41243332Y-45191595D01*
X41243332Y-45191595D02*
X41148094Y-45191595D01*
X41148094Y-45191595D02*
X41100475Y-45167786D01*
X41100475Y-45167786D02*
X41076666Y-45120166D01*
X41076666Y-45120166D02*
X41076666Y-45096357D01*
X41076666Y-45096357D02*
X41100475Y-45048738D01*
X41100475Y-45048738D02*
X41148094Y-45024928D01*
X41148094Y-45024928D02*
X41219523Y-45024928D01*
X41219523Y-45024928D02*
X41267142Y-45001119D01*
X41267142Y-45001119D02*
X41290951Y-44953500D01*
X41290951Y-44953500D02*
X41290951Y-44929690D01*
X41290951Y-44929690D02*
X41267142Y-44882071D01*
X41267142Y-44882071D02*
X41219523Y-44858262D01*
X41219523Y-44858262D02*
X41148094Y-44858262D01*
X41148094Y-44858262D02*
X41100475Y-44882071D01*
D12*
X55875876Y-36332045D02*
X55768733Y-36367759D01*
X55768733Y-36367759D02*
X55733019Y-36403473D01*
X55733019Y-36403473D02*
X55697305Y-36474902D01*
X55697305Y-36474902D02*
X55697305Y-36582045D01*
X55697305Y-36582045D02*
X55733019Y-36653473D01*
X55733019Y-36653473D02*
X55768733Y-36689188D01*
X55768733Y-36689188D02*
X55840162Y-36724902D01*
X55840162Y-36724902D02*
X56125876Y-36724902D01*
X56125876Y-36724902D02*
X56125876Y-35974902D01*
X56125876Y-35974902D02*
X55875876Y-35974902D01*
X55875876Y-35974902D02*
X55804448Y-36010616D01*
X55804448Y-36010616D02*
X55768733Y-36046330D01*
X55768733Y-36046330D02*
X55733019Y-36117759D01*
X55733019Y-36117759D02*
X55733019Y-36189188D01*
X55733019Y-36189188D02*
X55768733Y-36260616D01*
X55768733Y-36260616D02*
X55804448Y-36296330D01*
X55804448Y-36296330D02*
X55875876Y-36332045D01*
X55875876Y-36332045D02*
X56125876Y-36332045D01*
X55054448Y-36724902D02*
X55054448Y-36332045D01*
X55054448Y-36332045D02*
X55090162Y-36260616D01*
X55090162Y-36260616D02*
X55161590Y-36224902D01*
X55161590Y-36224902D02*
X55304448Y-36224902D01*
X55304448Y-36224902D02*
X55375876Y-36260616D01*
X55054448Y-36689188D02*
X55125876Y-36724902D01*
X55125876Y-36724902D02*
X55304448Y-36724902D01*
X55304448Y-36724902D02*
X55375876Y-36689188D01*
X55375876Y-36689188D02*
X55411590Y-36617759D01*
X55411590Y-36617759D02*
X55411590Y-36546330D01*
X55411590Y-36546330D02*
X55375876Y-36474902D01*
X55375876Y-36474902D02*
X55304448Y-36439188D01*
X55304448Y-36439188D02*
X55125876Y-36439188D01*
X55125876Y-36439188D02*
X55054448Y-36403473D01*
X54590162Y-36724902D02*
X54661591Y-36689188D01*
X54661591Y-36689188D02*
X54697305Y-36617759D01*
X54697305Y-36617759D02*
X54697305Y-35974902D01*
X53983020Y-36724902D02*
X53983020Y-35974902D01*
X53983020Y-36689188D02*
X54054448Y-36724902D01*
X54054448Y-36724902D02*
X54197305Y-36724902D01*
X54197305Y-36724902D02*
X54268734Y-36689188D01*
X54268734Y-36689188D02*
X54304448Y-36653473D01*
X54304448Y-36653473D02*
X54340162Y-36582045D01*
X54340162Y-36582045D02*
X54340162Y-36367759D01*
X54340162Y-36367759D02*
X54304448Y-36296330D01*
X54304448Y-36296330D02*
X54268734Y-36260616D01*
X54268734Y-36260616D02*
X54197305Y-36224902D01*
X54197305Y-36224902D02*
X54054448Y-36224902D01*
X54054448Y-36224902D02*
X53983020Y-36260616D01*
X53661591Y-36689188D02*
X53554449Y-36724902D01*
X53554449Y-36724902D02*
X53375877Y-36724902D01*
X53375877Y-36724902D02*
X53304449Y-36689188D01*
X53304449Y-36689188D02*
X53268734Y-36653473D01*
X53268734Y-36653473D02*
X53233020Y-36582045D01*
X53233020Y-36582045D02*
X53233020Y-36510616D01*
X53233020Y-36510616D02*
X53268734Y-36439188D01*
X53268734Y-36439188D02*
X53304449Y-36403473D01*
X53304449Y-36403473D02*
X53375877Y-36367759D01*
X53375877Y-36367759D02*
X53518734Y-36332045D01*
X53518734Y-36332045D02*
X53590163Y-36296330D01*
X53590163Y-36296330D02*
X53625877Y-36260616D01*
X53625877Y-36260616D02*
X53661591Y-36189188D01*
X53661591Y-36189188D02*
X53661591Y-36117759D01*
X53661591Y-36117759D02*
X53625877Y-36046330D01*
X53625877Y-36046330D02*
X53590163Y-36010616D01*
X53590163Y-36010616D02*
X53518734Y-35974902D01*
X53518734Y-35974902D02*
X53340163Y-35974902D01*
X53340163Y-35974902D02*
X53233020Y-36010616D01*
X52911591Y-36332045D02*
X52661591Y-36332045D01*
X52554448Y-36724902D02*
X52911591Y-36724902D01*
X52911591Y-36724902D02*
X52911591Y-35974902D01*
X52911591Y-35974902D02*
X52554448Y-35974902D01*
X52233020Y-36724902D02*
X52233020Y-35974902D01*
X52233020Y-35974902D02*
X51804449Y-36724902D01*
X51804449Y-36724902D02*
X51804449Y-35974902D01*
X51483020Y-36689188D02*
X51375878Y-36724902D01*
X51375878Y-36724902D02*
X51197306Y-36724902D01*
X51197306Y-36724902D02*
X51125878Y-36689188D01*
X51125878Y-36689188D02*
X51090163Y-36653473D01*
X51090163Y-36653473D02*
X51054449Y-36582045D01*
X51054449Y-36582045D02*
X51054449Y-36510616D01*
X51054449Y-36510616D02*
X51090163Y-36439188D01*
X51090163Y-36439188D02*
X51125878Y-36403473D01*
X51125878Y-36403473D02*
X51197306Y-36367759D01*
X51197306Y-36367759D02*
X51340163Y-36332045D01*
X51340163Y-36332045D02*
X51411592Y-36296330D01*
X51411592Y-36296330D02*
X51447306Y-36260616D01*
X51447306Y-36260616D02*
X51483020Y-36189188D01*
X51483020Y-36189188D02*
X51483020Y-36117759D01*
X51483020Y-36117759D02*
X51447306Y-36046330D01*
X51447306Y-36046330D02*
X51411592Y-36010616D01*
X51411592Y-36010616D02*
X51340163Y-35974902D01*
X51340163Y-35974902D02*
X51161592Y-35974902D01*
X51161592Y-35974902D02*
X51054449Y-36010616D01*
X50733020Y-36332045D02*
X50483020Y-36332045D01*
X50375877Y-36724902D02*
X50733020Y-36724902D01*
X50733020Y-36724902D02*
X50733020Y-35974902D01*
X50733020Y-35974902D02*
X50375877Y-35974902D01*
X49554449Y-35974902D02*
X49375877Y-36724902D01*
X49375877Y-36724902D02*
X49233020Y-36189188D01*
X49233020Y-36189188D02*
X49090163Y-36724902D01*
X49090163Y-36724902D02*
X48911592Y-35974902D01*
X48625877Y-36724902D02*
X48625877Y-36224902D01*
X48625877Y-35974902D02*
X48661591Y-36010616D01*
X48661591Y-36010616D02*
X48625877Y-36046330D01*
X48625877Y-36046330D02*
X48590163Y-36010616D01*
X48590163Y-36010616D02*
X48625877Y-35974902D01*
X48625877Y-35974902D02*
X48625877Y-36046330D01*
X48268734Y-36224902D02*
X48268734Y-36724902D01*
X48268734Y-36296330D02*
X48233020Y-36260616D01*
X48233020Y-36260616D02*
X48161591Y-36224902D01*
X48161591Y-36224902D02*
X48054448Y-36224902D01*
X48054448Y-36224902D02*
X47983020Y-36260616D01*
X47983020Y-36260616D02*
X47947306Y-36332045D01*
X47947306Y-36332045D02*
X47947306Y-36724902D01*
X47268735Y-36224902D02*
X47268735Y-36832045D01*
X47268735Y-36832045D02*
X47304449Y-36903473D01*
X47304449Y-36903473D02*
X47340163Y-36939188D01*
X47340163Y-36939188D02*
X47411592Y-36974902D01*
X47411592Y-36974902D02*
X47518735Y-36974902D01*
X47518735Y-36974902D02*
X47590163Y-36939188D01*
X47268735Y-36689188D02*
X47340163Y-36724902D01*
X47340163Y-36724902D02*
X47483020Y-36724902D01*
X47483020Y-36724902D02*
X47554449Y-36689188D01*
X47554449Y-36689188D02*
X47590163Y-36653473D01*
X47590163Y-36653473D02*
X47625877Y-36582045D01*
X47625877Y-36582045D02*
X47625877Y-36367759D01*
X47625877Y-36367759D02*
X47590163Y-36296330D01*
X47590163Y-36296330D02*
X47554449Y-36260616D01*
X47554449Y-36260616D02*
X47483020Y-36224902D01*
X47483020Y-36224902D02*
X47340163Y-36224902D01*
X47340163Y-36224902D02*
X47268735Y-36260616D01*
X56125876Y-37432360D02*
X56125876Y-38075217D01*
X56125876Y-38075217D02*
X56161590Y-38146646D01*
X56161590Y-38146646D02*
X56233019Y-38182360D01*
X56233019Y-38182360D02*
X56268733Y-38182360D01*
X56125876Y-37182360D02*
X56161590Y-37218074D01*
X56161590Y-37218074D02*
X56125876Y-37253788D01*
X56125876Y-37253788D02*
X56090162Y-37218074D01*
X56090162Y-37218074D02*
X56125876Y-37182360D01*
X56125876Y-37182360D02*
X56125876Y-37253788D01*
X55447305Y-37932360D02*
X55447305Y-37539503D01*
X55447305Y-37539503D02*
X55483019Y-37468074D01*
X55483019Y-37468074D02*
X55554447Y-37432360D01*
X55554447Y-37432360D02*
X55697305Y-37432360D01*
X55697305Y-37432360D02*
X55768733Y-37468074D01*
X55447305Y-37896646D02*
X55518733Y-37932360D01*
X55518733Y-37932360D02*
X55697305Y-37932360D01*
X55697305Y-37932360D02*
X55768733Y-37896646D01*
X55768733Y-37896646D02*
X55804447Y-37825217D01*
X55804447Y-37825217D02*
X55804447Y-37753788D01*
X55804447Y-37753788D02*
X55768733Y-37682360D01*
X55768733Y-37682360D02*
X55697305Y-37646646D01*
X55697305Y-37646646D02*
X55518733Y-37646646D01*
X55518733Y-37646646D02*
X55447305Y-37610931D01*
X55090162Y-37932360D02*
X55090162Y-37432360D01*
X55090162Y-37503788D02*
X55054448Y-37468074D01*
X55054448Y-37468074D02*
X54983019Y-37432360D01*
X54983019Y-37432360D02*
X54875876Y-37432360D01*
X54875876Y-37432360D02*
X54804448Y-37468074D01*
X54804448Y-37468074D02*
X54768734Y-37539503D01*
X54768734Y-37539503D02*
X54768734Y-37932360D01*
X54768734Y-37539503D02*
X54733019Y-37468074D01*
X54733019Y-37468074D02*
X54661591Y-37432360D01*
X54661591Y-37432360D02*
X54554448Y-37432360D01*
X54554448Y-37432360D02*
X54483019Y-37468074D01*
X54483019Y-37468074D02*
X54447305Y-37539503D01*
X54447305Y-37539503D02*
X54447305Y-37932360D01*
X53804448Y-37896646D02*
X53875876Y-37932360D01*
X53875876Y-37932360D02*
X54018734Y-37932360D01*
X54018734Y-37932360D02*
X54090162Y-37896646D01*
X54090162Y-37896646D02*
X54125876Y-37825217D01*
X54125876Y-37825217D02*
X54125876Y-37539503D01*
X54125876Y-37539503D02*
X54090162Y-37468074D01*
X54090162Y-37468074D02*
X54018734Y-37432360D01*
X54018734Y-37432360D02*
X53875876Y-37432360D01*
X53875876Y-37432360D02*
X53804448Y-37468074D01*
X53804448Y-37468074D02*
X53768734Y-37539503D01*
X53768734Y-37539503D02*
X53768734Y-37610931D01*
X53768734Y-37610931D02*
X54125876Y-37682360D01*
X53483019Y-37896646D02*
X53411591Y-37932360D01*
X53411591Y-37932360D02*
X53268734Y-37932360D01*
X53268734Y-37932360D02*
X53197305Y-37896646D01*
X53197305Y-37896646D02*
X53161591Y-37825217D01*
X53161591Y-37825217D02*
X53161591Y-37789503D01*
X53161591Y-37789503D02*
X53197305Y-37718074D01*
X53197305Y-37718074D02*
X53268734Y-37682360D01*
X53268734Y-37682360D02*
X53375877Y-37682360D01*
X53375877Y-37682360D02*
X53447305Y-37646646D01*
X53447305Y-37646646D02*
X53483019Y-37575217D01*
X53483019Y-37575217D02*
X53483019Y-37539503D01*
X53483019Y-37539503D02*
X53447305Y-37468074D01*
X53447305Y-37468074D02*
X53375877Y-37432360D01*
X53375877Y-37432360D02*
X53268734Y-37432360D01*
X53268734Y-37432360D02*
X53197305Y-37468074D01*
X52375876Y-37575217D02*
X52411591Y-37539503D01*
X52411591Y-37539503D02*
X52483019Y-37503788D01*
X52483019Y-37503788D02*
X52554448Y-37503788D01*
X52554448Y-37503788D02*
X52625876Y-37539503D01*
X52625876Y-37539503D02*
X52661591Y-37575217D01*
X52661591Y-37575217D02*
X52697305Y-37646646D01*
X52697305Y-37646646D02*
X52697305Y-37718074D01*
X52697305Y-37718074D02*
X52661591Y-37789503D01*
X52661591Y-37789503D02*
X52625876Y-37825217D01*
X52625876Y-37825217D02*
X52554448Y-37860931D01*
X52554448Y-37860931D02*
X52483019Y-37860931D01*
X52483019Y-37860931D02*
X52411591Y-37825217D01*
X52411591Y-37825217D02*
X52375876Y-37789503D01*
X52375876Y-37503788D02*
X52375876Y-37789503D01*
X52375876Y-37789503D02*
X52340162Y-37825217D01*
X52340162Y-37825217D02*
X52304448Y-37825217D01*
X52304448Y-37825217D02*
X52233019Y-37789503D01*
X52233019Y-37789503D02*
X52197305Y-37718074D01*
X52197305Y-37718074D02*
X52197305Y-37539503D01*
X52197305Y-37539503D02*
X52268734Y-37432360D01*
X52268734Y-37432360D02*
X52375876Y-37360931D01*
X52375876Y-37360931D02*
X52518734Y-37325217D01*
X52518734Y-37325217D02*
X52661591Y-37360931D01*
X52661591Y-37360931D02*
X52768734Y-37432360D01*
X52768734Y-37432360D02*
X52840162Y-37539503D01*
X52840162Y-37539503D02*
X52875876Y-37682360D01*
X52875876Y-37682360D02*
X52840162Y-37825217D01*
X52840162Y-37825217D02*
X52768734Y-37932360D01*
X52768734Y-37932360D02*
X52661591Y-38003788D01*
X52661591Y-38003788D02*
X52518734Y-38039503D01*
X52518734Y-38039503D02*
X52375876Y-38003788D01*
X52375876Y-38003788D02*
X52268734Y-37932360D01*
X51875876Y-37932360D02*
X51875876Y-37182360D01*
X51875876Y-37468074D02*
X51804448Y-37432360D01*
X51804448Y-37432360D02*
X51661590Y-37432360D01*
X51661590Y-37432360D02*
X51590162Y-37468074D01*
X51590162Y-37468074D02*
X51554448Y-37503788D01*
X51554448Y-37503788D02*
X51518733Y-37575217D01*
X51518733Y-37575217D02*
X51518733Y-37789503D01*
X51518733Y-37789503D02*
X51554448Y-37860931D01*
X51554448Y-37860931D02*
X51590162Y-37896646D01*
X51590162Y-37896646D02*
X51661590Y-37932360D01*
X51661590Y-37932360D02*
X51804448Y-37932360D01*
X51804448Y-37932360D02*
X51875876Y-37896646D01*
X50875877Y-37932360D02*
X50875877Y-37539503D01*
X50875877Y-37539503D02*
X50911591Y-37468074D01*
X50911591Y-37468074D02*
X50983019Y-37432360D01*
X50983019Y-37432360D02*
X51125877Y-37432360D01*
X51125877Y-37432360D02*
X51197305Y-37468074D01*
X50875877Y-37896646D02*
X50947305Y-37932360D01*
X50947305Y-37932360D02*
X51125877Y-37932360D01*
X51125877Y-37932360D02*
X51197305Y-37896646D01*
X51197305Y-37896646D02*
X51233019Y-37825217D01*
X51233019Y-37825217D02*
X51233019Y-37753788D01*
X51233019Y-37753788D02*
X51197305Y-37682360D01*
X51197305Y-37682360D02*
X51125877Y-37646646D01*
X51125877Y-37646646D02*
X50947305Y-37646646D01*
X50947305Y-37646646D02*
X50875877Y-37610931D01*
X50411591Y-37932360D02*
X50483020Y-37896646D01*
X50483020Y-37896646D02*
X50518734Y-37825217D01*
X50518734Y-37825217D02*
X50518734Y-37182360D01*
X49804449Y-37932360D02*
X49804449Y-37182360D01*
X49804449Y-37896646D02*
X49875877Y-37932360D01*
X49875877Y-37932360D02*
X50018734Y-37932360D01*
X50018734Y-37932360D02*
X50090163Y-37896646D01*
X50090163Y-37896646D02*
X50125877Y-37860931D01*
X50125877Y-37860931D02*
X50161591Y-37789503D01*
X50161591Y-37789503D02*
X50161591Y-37575217D01*
X50161591Y-37575217D02*
X50125877Y-37503788D01*
X50125877Y-37503788D02*
X50090163Y-37468074D01*
X50090163Y-37468074D02*
X50018734Y-37432360D01*
X50018734Y-37432360D02*
X49875877Y-37432360D01*
X49875877Y-37432360D02*
X49804449Y-37468074D01*
X49161592Y-37896646D02*
X49233020Y-37932360D01*
X49233020Y-37932360D02*
X49375878Y-37932360D01*
X49375878Y-37932360D02*
X49447306Y-37896646D01*
X49447306Y-37896646D02*
X49483020Y-37825217D01*
X49483020Y-37825217D02*
X49483020Y-37539503D01*
X49483020Y-37539503D02*
X49447306Y-37468074D01*
X49447306Y-37468074D02*
X49375878Y-37432360D01*
X49375878Y-37432360D02*
X49233020Y-37432360D01*
X49233020Y-37432360D02*
X49161592Y-37468074D01*
X49161592Y-37468074D02*
X49125878Y-37539503D01*
X49125878Y-37539503D02*
X49125878Y-37610931D01*
X49125878Y-37610931D02*
X49483020Y-37682360D01*
X48804449Y-37432360D02*
X48804449Y-37932360D01*
X48804449Y-37503788D02*
X48768735Y-37468074D01*
X48768735Y-37468074D02*
X48697306Y-37432360D01*
X48697306Y-37432360D02*
X48590163Y-37432360D01*
X48590163Y-37432360D02*
X48518735Y-37468074D01*
X48518735Y-37468074D02*
X48483021Y-37539503D01*
X48483021Y-37539503D02*
X48483021Y-37932360D01*
X47804450Y-37432360D02*
X47804450Y-38039503D01*
X47804450Y-38039503D02*
X47840164Y-38110931D01*
X47840164Y-38110931D02*
X47875878Y-38146646D01*
X47875878Y-38146646D02*
X47947307Y-38182360D01*
X47947307Y-38182360D02*
X48054450Y-38182360D01*
X48054450Y-38182360D02*
X48125878Y-38146646D01*
X47804450Y-37896646D02*
X47875878Y-37932360D01*
X47875878Y-37932360D02*
X48018735Y-37932360D01*
X48018735Y-37932360D02*
X48090164Y-37896646D01*
X48090164Y-37896646D02*
X48125878Y-37860931D01*
X48125878Y-37860931D02*
X48161592Y-37789503D01*
X48161592Y-37789503D02*
X48161592Y-37575217D01*
X48161592Y-37575217D02*
X48125878Y-37503788D01*
X48125878Y-37503788D02*
X48090164Y-37468074D01*
X48090164Y-37468074D02*
X48018735Y-37432360D01*
X48018735Y-37432360D02*
X47875878Y-37432360D01*
X47875878Y-37432360D02*
X47804450Y-37468074D01*
X47447307Y-37932360D02*
X47447307Y-37432360D01*
X47447307Y-37182360D02*
X47483021Y-37218074D01*
X47483021Y-37218074D02*
X47447307Y-37253788D01*
X47447307Y-37253788D02*
X47411593Y-37218074D01*
X47411593Y-37218074D02*
X47447307Y-37182360D01*
X47447307Y-37182360D02*
X47447307Y-37253788D01*
X47090164Y-37432360D02*
X47090164Y-37932360D01*
X47090164Y-37503788D02*
X47054450Y-37468074D01*
X47054450Y-37468074D02*
X46983021Y-37432360D01*
X46983021Y-37432360D02*
X46875878Y-37432360D01*
X46875878Y-37432360D02*
X46804450Y-37468074D01*
X46804450Y-37468074D02*
X46768736Y-37539503D01*
X46768736Y-37539503D02*
X46768736Y-37932360D01*
X46125879Y-37896646D02*
X46197307Y-37932360D01*
X46197307Y-37932360D02*
X46340165Y-37932360D01*
X46340165Y-37932360D02*
X46411593Y-37896646D01*
X46411593Y-37896646D02*
X46447307Y-37825217D01*
X46447307Y-37825217D02*
X46447307Y-37539503D01*
X46447307Y-37539503D02*
X46411593Y-37468074D01*
X46411593Y-37468074D02*
X46340165Y-37432360D01*
X46340165Y-37432360D02*
X46197307Y-37432360D01*
X46197307Y-37432360D02*
X46125879Y-37468074D01*
X46125879Y-37468074D02*
X46090165Y-37539503D01*
X46090165Y-37539503D02*
X46090165Y-37610931D01*
X46090165Y-37610931D02*
X46447307Y-37682360D01*
X45483022Y-37896646D02*
X45554450Y-37932360D01*
X45554450Y-37932360D02*
X45697308Y-37932360D01*
X45697308Y-37932360D02*
X45768736Y-37896646D01*
X45768736Y-37896646D02*
X45804450Y-37825217D01*
X45804450Y-37825217D02*
X45804450Y-37539503D01*
X45804450Y-37539503D02*
X45768736Y-37468074D01*
X45768736Y-37468074D02*
X45697308Y-37432360D01*
X45697308Y-37432360D02*
X45554450Y-37432360D01*
X45554450Y-37432360D02*
X45483022Y-37468074D01*
X45483022Y-37468074D02*
X45447308Y-37539503D01*
X45447308Y-37539503D02*
X45447308Y-37610931D01*
X45447308Y-37610931D02*
X45804450Y-37682360D01*
X45125879Y-37932360D02*
X45125879Y-37432360D01*
X45125879Y-37575217D02*
X45090165Y-37503788D01*
X45090165Y-37503788D02*
X45054451Y-37468074D01*
X45054451Y-37468074D02*
X44983022Y-37432360D01*
X44983022Y-37432360D02*
X44911593Y-37432360D01*
X44661593Y-37860931D02*
X44625879Y-37896646D01*
X44625879Y-37896646D02*
X44661593Y-37932360D01*
X44661593Y-37932360D02*
X44697307Y-37896646D01*
X44697307Y-37896646D02*
X44661593Y-37860931D01*
X44661593Y-37860931D02*
X44661593Y-37932360D01*
X43983022Y-37896646D02*
X44054450Y-37932360D01*
X44054450Y-37932360D02*
X44197307Y-37932360D01*
X44197307Y-37932360D02*
X44268736Y-37896646D01*
X44268736Y-37896646D02*
X44304450Y-37860931D01*
X44304450Y-37860931D02*
X44340164Y-37789503D01*
X44340164Y-37789503D02*
X44340164Y-37575217D01*
X44340164Y-37575217D02*
X44304450Y-37503788D01*
X44304450Y-37503788D02*
X44268736Y-37468074D01*
X44268736Y-37468074D02*
X44197307Y-37432360D01*
X44197307Y-37432360D02*
X44054450Y-37432360D01*
X44054450Y-37432360D02*
X43983022Y-37468074D01*
X43554450Y-37932360D02*
X43625879Y-37896646D01*
X43625879Y-37896646D02*
X43661593Y-37860931D01*
X43661593Y-37860931D02*
X43697307Y-37789503D01*
X43697307Y-37789503D02*
X43697307Y-37575217D01*
X43697307Y-37575217D02*
X43661593Y-37503788D01*
X43661593Y-37503788D02*
X43625879Y-37468074D01*
X43625879Y-37468074D02*
X43554450Y-37432360D01*
X43554450Y-37432360D02*
X43447307Y-37432360D01*
X43447307Y-37432360D02*
X43375879Y-37468074D01*
X43375879Y-37468074D02*
X43340165Y-37503788D01*
X43340165Y-37503788D02*
X43304450Y-37575217D01*
X43304450Y-37575217D02*
X43304450Y-37789503D01*
X43304450Y-37789503D02*
X43340165Y-37860931D01*
X43340165Y-37860931D02*
X43375879Y-37896646D01*
X43375879Y-37896646D02*
X43447307Y-37932360D01*
X43447307Y-37932360D02*
X43554450Y-37932360D01*
X42983022Y-37932360D02*
X42983022Y-37432360D01*
X42983022Y-37503788D02*
X42947308Y-37468074D01*
X42947308Y-37468074D02*
X42875879Y-37432360D01*
X42875879Y-37432360D02*
X42768736Y-37432360D01*
X42768736Y-37432360D02*
X42697308Y-37468074D01*
X42697308Y-37468074D02*
X42661594Y-37539503D01*
X42661594Y-37539503D02*
X42661594Y-37932360D01*
X42661594Y-37539503D02*
X42625879Y-37468074D01*
X42625879Y-37468074D02*
X42554451Y-37432360D01*
X42554451Y-37432360D02*
X42447308Y-37432360D01*
X42447308Y-37432360D02*
X42375879Y-37468074D01*
X42375879Y-37468074D02*
X42340165Y-37539503D01*
X42340165Y-37539503D02*
X42340165Y-37932360D01*
X55697305Y-39139818D02*
X55947305Y-38782675D01*
X56125876Y-39139818D02*
X56125876Y-38389818D01*
X56125876Y-38389818D02*
X55840162Y-38389818D01*
X55840162Y-38389818D02*
X55768733Y-38425532D01*
X55768733Y-38425532D02*
X55733019Y-38461246D01*
X55733019Y-38461246D02*
X55697305Y-38532675D01*
X55697305Y-38532675D02*
X55697305Y-38639818D01*
X55697305Y-38639818D02*
X55733019Y-38711246D01*
X55733019Y-38711246D02*
X55768733Y-38746961D01*
X55768733Y-38746961D02*
X55840162Y-38782675D01*
X55840162Y-38782675D02*
X56125876Y-38782675D01*
X55090162Y-39104104D02*
X55161590Y-39139818D01*
X55161590Y-39139818D02*
X55304448Y-39139818D01*
X55304448Y-39139818D02*
X55375876Y-39104104D01*
X55375876Y-39104104D02*
X55411590Y-39032675D01*
X55411590Y-39032675D02*
X55411590Y-38746961D01*
X55411590Y-38746961D02*
X55375876Y-38675532D01*
X55375876Y-38675532D02*
X55304448Y-38639818D01*
X55304448Y-38639818D02*
X55161590Y-38639818D01*
X55161590Y-38639818D02*
X55090162Y-38675532D01*
X55090162Y-38675532D02*
X55054448Y-38746961D01*
X55054448Y-38746961D02*
X55054448Y-38818389D01*
X55054448Y-38818389D02*
X55411590Y-38889818D01*
X54804448Y-38639818D02*
X54625876Y-39139818D01*
X54625876Y-39139818D02*
X54447305Y-38639818D01*
X53661590Y-38389818D02*
X53197304Y-38389818D01*
X53197304Y-38389818D02*
X53447304Y-38675532D01*
X53447304Y-38675532D02*
X53340161Y-38675532D01*
X53340161Y-38675532D02*
X53268733Y-38711246D01*
X53268733Y-38711246D02*
X53233018Y-38746961D01*
X53233018Y-38746961D02*
X53197304Y-38818389D01*
X53197304Y-38818389D02*
X53197304Y-38996961D01*
X53197304Y-38996961D02*
X53233018Y-39068389D01*
X53233018Y-39068389D02*
X53268733Y-39104104D01*
X53268733Y-39104104D02*
X53340161Y-39139818D01*
X53340161Y-39139818D02*
X53554447Y-39139818D01*
X53554447Y-39139818D02*
X53625875Y-39104104D01*
X53625875Y-39104104D02*
X53661590Y-39068389D01*
D11*
X67767151Y-42638109D02*
X67481437Y-42638109D01*
X67624294Y-43138109D02*
X67624294Y-42638109D01*
X67362390Y-42638109D02*
X67029057Y-43138109D01*
X67029057Y-42638109D02*
X67362390Y-43138109D01*
X64853333Y-43125409D02*
X65019999Y-42887314D01*
X65139047Y-43125409D02*
X65139047Y-42625409D01*
X65139047Y-42625409D02*
X64948571Y-42625409D01*
X64948571Y-42625409D02*
X64900952Y-42649219D01*
X64900952Y-42649219D02*
X64877142Y-42673028D01*
X64877142Y-42673028D02*
X64853333Y-42720647D01*
X64853333Y-42720647D02*
X64853333Y-42792076D01*
X64853333Y-42792076D02*
X64877142Y-42839695D01*
X64877142Y-42839695D02*
X64900952Y-42863504D01*
X64900952Y-42863504D02*
X64948571Y-42887314D01*
X64948571Y-42887314D02*
X65139047Y-42887314D01*
X64686666Y-42625409D02*
X64353333Y-43125409D01*
X64353333Y-42625409D02*
X64686666Y-43125409D01*
X63041114Y-45284409D02*
X63041114Y-44784409D01*
X63041114Y-44784409D02*
X62874447Y-45141552D01*
X62874447Y-45141552D02*
X62707781Y-44784409D01*
X62707781Y-44784409D02*
X62707781Y-45284409D01*
X62469685Y-45284409D02*
X62469685Y-44784409D01*
X62255399Y-45260600D02*
X62183971Y-45284409D01*
X62183971Y-45284409D02*
X62064923Y-45284409D01*
X62064923Y-45284409D02*
X62017304Y-45260600D01*
X62017304Y-45260600D02*
X61993495Y-45236790D01*
X61993495Y-45236790D02*
X61969685Y-45189171D01*
X61969685Y-45189171D02*
X61969685Y-45141552D01*
X61969685Y-45141552D02*
X61993495Y-45093933D01*
X61993495Y-45093933D02*
X62017304Y-45070123D01*
X62017304Y-45070123D02*
X62064923Y-45046314D01*
X62064923Y-45046314D02*
X62160161Y-45022504D01*
X62160161Y-45022504D02*
X62207780Y-44998695D01*
X62207780Y-44998695D02*
X62231590Y-44974885D01*
X62231590Y-44974885D02*
X62255399Y-44927266D01*
X62255399Y-44927266D02*
X62255399Y-44879647D01*
X62255399Y-44879647D02*
X62231590Y-44832028D01*
X62231590Y-44832028D02*
X62207780Y-44808219D01*
X62207780Y-44808219D02*
X62160161Y-44784409D01*
X62160161Y-44784409D02*
X62041114Y-44784409D01*
X62041114Y-44784409D02*
X61969685Y-44808219D01*
X61660162Y-44784409D02*
X61564924Y-44784409D01*
X61564924Y-44784409D02*
X61517305Y-44808219D01*
X61517305Y-44808219D02*
X61469686Y-44855838D01*
X61469686Y-44855838D02*
X61445876Y-44951076D01*
X61445876Y-44951076D02*
X61445876Y-45117742D01*
X61445876Y-45117742D02*
X61469686Y-45212980D01*
X61469686Y-45212980D02*
X61517305Y-45260600D01*
X61517305Y-45260600D02*
X61564924Y-45284409D01*
X61564924Y-45284409D02*
X61660162Y-45284409D01*
X61660162Y-45284409D02*
X61707781Y-45260600D01*
X61707781Y-45260600D02*
X61755400Y-45212980D01*
X61755400Y-45212980D02*
X61779209Y-45117742D01*
X61779209Y-45117742D02*
X61779209Y-44951076D01*
X61779209Y-44951076D02*
X61755400Y-44855838D01*
X61755400Y-44855838D02*
X61707781Y-44808219D01*
X61707781Y-44808219D02*
X61660162Y-44784409D01*
X60475714Y-45322509D02*
X60475714Y-44822509D01*
X60475714Y-44822509D02*
X60309047Y-45179652D01*
X60309047Y-45179652D02*
X60142381Y-44822509D01*
X60142381Y-44822509D02*
X60142381Y-45322509D01*
X59809047Y-44822509D02*
X59713809Y-44822509D01*
X59713809Y-44822509D02*
X59666190Y-44846319D01*
X59666190Y-44846319D02*
X59618571Y-44893938D01*
X59618571Y-44893938D02*
X59594761Y-44989176D01*
X59594761Y-44989176D02*
X59594761Y-45155842D01*
X59594761Y-45155842D02*
X59618571Y-45251080D01*
X59618571Y-45251080D02*
X59666190Y-45298700D01*
X59666190Y-45298700D02*
X59713809Y-45322509D01*
X59713809Y-45322509D02*
X59809047Y-45322509D01*
X59809047Y-45322509D02*
X59856666Y-45298700D01*
X59856666Y-45298700D02*
X59904285Y-45251080D01*
X59904285Y-45251080D02*
X59928094Y-45155842D01*
X59928094Y-45155842D02*
X59928094Y-44989176D01*
X59928094Y-44989176D02*
X59904285Y-44893938D01*
X59904285Y-44893938D02*
X59856666Y-44846319D01*
X59856666Y-44846319D02*
X59809047Y-44822509D01*
X59404284Y-45298700D02*
X59332856Y-45322509D01*
X59332856Y-45322509D02*
X59213808Y-45322509D01*
X59213808Y-45322509D02*
X59166189Y-45298700D01*
X59166189Y-45298700D02*
X59142380Y-45274890D01*
X59142380Y-45274890D02*
X59118570Y-45227271D01*
X59118570Y-45227271D02*
X59118570Y-45179652D01*
X59118570Y-45179652D02*
X59142380Y-45132033D01*
X59142380Y-45132033D02*
X59166189Y-45108223D01*
X59166189Y-45108223D02*
X59213808Y-45084414D01*
X59213808Y-45084414D02*
X59309046Y-45060604D01*
X59309046Y-45060604D02*
X59356665Y-45036795D01*
X59356665Y-45036795D02*
X59380475Y-45012985D01*
X59380475Y-45012985D02*
X59404284Y-44965366D01*
X59404284Y-44965366D02*
X59404284Y-44917747D01*
X59404284Y-44917747D02*
X59380475Y-44870128D01*
X59380475Y-44870128D02*
X59356665Y-44846319D01*
X59356665Y-44846319D02*
X59309046Y-44822509D01*
X59309046Y-44822509D02*
X59189999Y-44822509D01*
X59189999Y-44822509D02*
X59118570Y-44846319D01*
X58904285Y-45322509D02*
X58904285Y-44822509D01*
X57517456Y-44502514D02*
X57446028Y-44526323D01*
X57446028Y-44526323D02*
X57326980Y-44526323D01*
X57326980Y-44526323D02*
X57279361Y-44502514D01*
X57279361Y-44502514D02*
X57255552Y-44478704D01*
X57255552Y-44478704D02*
X57231742Y-44431085D01*
X57231742Y-44431085D02*
X57231742Y-44383466D01*
X57231742Y-44383466D02*
X57255552Y-44335847D01*
X57255552Y-44335847D02*
X57279361Y-44312037D01*
X57279361Y-44312037D02*
X57326980Y-44288228D01*
X57326980Y-44288228D02*
X57422218Y-44264418D01*
X57422218Y-44264418D02*
X57469837Y-44240609D01*
X57469837Y-44240609D02*
X57493647Y-44216799D01*
X57493647Y-44216799D02*
X57517456Y-44169180D01*
X57517456Y-44169180D02*
X57517456Y-44121561D01*
X57517456Y-44121561D02*
X57493647Y-44073942D01*
X57493647Y-44073942D02*
X57469837Y-44050133D01*
X57469837Y-44050133D02*
X57422218Y-44026323D01*
X57422218Y-44026323D02*
X57303171Y-44026323D01*
X57303171Y-44026323D02*
X57231742Y-44050133D01*
X57017457Y-44526323D02*
X57017457Y-44026323D01*
X57017457Y-44026323D02*
X56898409Y-44026323D01*
X56898409Y-44026323D02*
X56826981Y-44050133D01*
X56826981Y-44050133D02*
X56779362Y-44097752D01*
X56779362Y-44097752D02*
X56755552Y-44145371D01*
X56755552Y-44145371D02*
X56731743Y-44240609D01*
X56731743Y-44240609D02*
X56731743Y-44312037D01*
X56731743Y-44312037D02*
X56755552Y-44407275D01*
X56755552Y-44407275D02*
X56779362Y-44454894D01*
X56779362Y-44454894D02*
X56826981Y-44502514D01*
X56826981Y-44502514D02*
X56898409Y-44526323D01*
X56898409Y-44526323D02*
X57017457Y-44526323D01*
X57422219Y-45283676D02*
X57446028Y-45307486D01*
X57446028Y-45307486D02*
X57517457Y-45331295D01*
X57517457Y-45331295D02*
X57565076Y-45331295D01*
X57565076Y-45331295D02*
X57636504Y-45307486D01*
X57636504Y-45307486D02*
X57684123Y-45259866D01*
X57684123Y-45259866D02*
X57707933Y-45212247D01*
X57707933Y-45212247D02*
X57731742Y-45117009D01*
X57731742Y-45117009D02*
X57731742Y-45045581D01*
X57731742Y-45045581D02*
X57707933Y-44950343D01*
X57707933Y-44950343D02*
X57684123Y-44902724D01*
X57684123Y-44902724D02*
X57636504Y-44855105D01*
X57636504Y-44855105D02*
X57565076Y-44831295D01*
X57565076Y-44831295D02*
X57517457Y-44831295D01*
X57517457Y-44831295D02*
X57446028Y-44855105D01*
X57446028Y-44855105D02*
X57422219Y-44878914D01*
X56969838Y-45331295D02*
X57207933Y-45331295D01*
X57207933Y-45331295D02*
X57207933Y-44831295D01*
X56803171Y-45331295D02*
X56803171Y-44831295D01*
X56517457Y-45331295D02*
X56731742Y-45045581D01*
X56517457Y-44831295D02*
X56803171Y-45117009D01*
X50374441Y-44256466D02*
X50136346Y-44256466D01*
X50422060Y-44399323D02*
X50255394Y-43899323D01*
X50255394Y-43899323D02*
X50088727Y-44399323D01*
X49922061Y-44399323D02*
X49922061Y-43899323D01*
X49922061Y-43899323D02*
X49731585Y-43899323D01*
X49731585Y-43899323D02*
X49683966Y-43923133D01*
X49683966Y-43923133D02*
X49660156Y-43946942D01*
X49660156Y-43946942D02*
X49636347Y-43994561D01*
X49636347Y-43994561D02*
X49636347Y-44065990D01*
X49636347Y-44065990D02*
X49660156Y-44113609D01*
X49660156Y-44113609D02*
X49683966Y-44137418D01*
X49683966Y-44137418D02*
X49731585Y-44161228D01*
X49731585Y-44161228D02*
X49922061Y-44161228D01*
X49422061Y-44399323D02*
X49422061Y-43899323D01*
X49422061Y-43899323D02*
X49303013Y-43899323D01*
X49303013Y-43899323D02*
X49231585Y-43923133D01*
X49231585Y-43923133D02*
X49183966Y-43970752D01*
X49183966Y-43970752D02*
X49160156Y-44018371D01*
X49160156Y-44018371D02*
X49136347Y-44113609D01*
X49136347Y-44113609D02*
X49136347Y-44185037D01*
X49136347Y-44185037D02*
X49160156Y-44280275D01*
X49160156Y-44280275D02*
X49183966Y-44327894D01*
X49183966Y-44327894D02*
X49231585Y-44375514D01*
X49231585Y-44375514D02*
X49303013Y-44399323D01*
X49303013Y-44399323D02*
X49422061Y-44399323D01*
X48945870Y-44375514D02*
X48874442Y-44399323D01*
X48874442Y-44399323D02*
X48755394Y-44399323D01*
X48755394Y-44399323D02*
X48707775Y-44375514D01*
X48707775Y-44375514D02*
X48683966Y-44351704D01*
X48683966Y-44351704D02*
X48660156Y-44304085D01*
X48660156Y-44304085D02*
X48660156Y-44256466D01*
X48660156Y-44256466D02*
X48683966Y-44208847D01*
X48683966Y-44208847D02*
X48707775Y-44185037D01*
X48707775Y-44185037D02*
X48755394Y-44161228D01*
X48755394Y-44161228D02*
X48850632Y-44137418D01*
X48850632Y-44137418D02*
X48898251Y-44113609D01*
X48898251Y-44113609D02*
X48922061Y-44089799D01*
X48922061Y-44089799D02*
X48945870Y-44042180D01*
X48945870Y-44042180D02*
X48945870Y-43994561D01*
X48945870Y-43994561D02*
X48922061Y-43946942D01*
X48922061Y-43946942D02*
X48898251Y-43923133D01*
X48898251Y-43923133D02*
X48850632Y-43899323D01*
X48850632Y-43899323D02*
X48731585Y-43899323D01*
X48731585Y-43899323D02*
X48660156Y-43923133D01*
X49969680Y-45204295D02*
X49969680Y-44704295D01*
X49731585Y-45204295D02*
X49731585Y-44704295D01*
X49731585Y-44704295D02*
X49445871Y-45204295D01*
X49445871Y-45204295D02*
X49445871Y-44704295D01*
X49279203Y-44704295D02*
X48993489Y-44704295D01*
X49136346Y-45204295D02*
X49136346Y-44704295D01*
X47991589Y-44099318D02*
X47920161Y-44123128D01*
X47920161Y-44123128D02*
X47896351Y-44146937D01*
X47896351Y-44146937D02*
X47872542Y-44194556D01*
X47872542Y-44194556D02*
X47872542Y-44265985D01*
X47872542Y-44265985D02*
X47896351Y-44313604D01*
X47896351Y-44313604D02*
X47920161Y-44337414D01*
X47920161Y-44337414D02*
X47967780Y-44361223D01*
X47967780Y-44361223D02*
X48158256Y-44361223D01*
X48158256Y-44361223D02*
X48158256Y-43861223D01*
X48158256Y-43861223D02*
X47991589Y-43861223D01*
X47991589Y-43861223D02*
X47943970Y-43885033D01*
X47943970Y-43885033D02*
X47920161Y-43908842D01*
X47920161Y-43908842D02*
X47896351Y-43956461D01*
X47896351Y-43956461D02*
X47896351Y-44004080D01*
X47896351Y-44004080D02*
X47920161Y-44051699D01*
X47920161Y-44051699D02*
X47943970Y-44075509D01*
X47943970Y-44075509D02*
X47991589Y-44099318D01*
X47991589Y-44099318D02*
X48158256Y-44099318D01*
X47443970Y-44361223D02*
X47443970Y-44099318D01*
X47443970Y-44099318D02*
X47467780Y-44051699D01*
X47467780Y-44051699D02*
X47515399Y-44027890D01*
X47515399Y-44027890D02*
X47610637Y-44027890D01*
X47610637Y-44027890D02*
X47658256Y-44051699D01*
X47443970Y-44337414D02*
X47491589Y-44361223D01*
X47491589Y-44361223D02*
X47610637Y-44361223D01*
X47610637Y-44361223D02*
X47658256Y-44337414D01*
X47658256Y-44337414D02*
X47682065Y-44289794D01*
X47682065Y-44289794D02*
X47682065Y-44242175D01*
X47682065Y-44242175D02*
X47658256Y-44194556D01*
X47658256Y-44194556D02*
X47610637Y-44170747D01*
X47610637Y-44170747D02*
X47491589Y-44170747D01*
X47491589Y-44170747D02*
X47443970Y-44146937D01*
X47277303Y-44027890D02*
X47086827Y-44027890D01*
X47205875Y-43861223D02*
X47205875Y-44289794D01*
X47205875Y-44289794D02*
X47182065Y-44337414D01*
X47182065Y-44337414D02*
X47134446Y-44361223D01*
X47134446Y-44361223D02*
X47086827Y-44361223D01*
X46539209Y-44099318D02*
X46372542Y-44099318D01*
X46301114Y-44361223D02*
X46539209Y-44361223D01*
X46539209Y-44361223D02*
X46539209Y-43861223D01*
X46539209Y-43861223D02*
X46301114Y-43861223D01*
X46086828Y-44027890D02*
X46086828Y-44361223D01*
X46086828Y-44075509D02*
X46063018Y-44051699D01*
X46063018Y-44051699D02*
X46015399Y-44027890D01*
X46015399Y-44027890D02*
X45943971Y-44027890D01*
X45943971Y-44027890D02*
X45896352Y-44051699D01*
X45896352Y-44051699D02*
X45872542Y-44099318D01*
X45872542Y-44099318D02*
X45872542Y-44361223D01*
X47824923Y-45166195D02*
X47824923Y-44666195D01*
X47824923Y-44666195D02*
X47658256Y-45023338D01*
X47658256Y-45023338D02*
X47491590Y-44666195D01*
X47491590Y-44666195D02*
X47491590Y-45166195D01*
X47063018Y-45142386D02*
X47110637Y-45166195D01*
X47110637Y-45166195D02*
X47205875Y-45166195D01*
X47205875Y-45166195D02*
X47253494Y-45142386D01*
X47253494Y-45142386D02*
X47277303Y-45094766D01*
X47277303Y-45094766D02*
X47277303Y-44904290D01*
X47277303Y-44904290D02*
X47253494Y-44856671D01*
X47253494Y-44856671D02*
X47205875Y-44832862D01*
X47205875Y-44832862D02*
X47110637Y-44832862D01*
X47110637Y-44832862D02*
X47063018Y-44856671D01*
X47063018Y-44856671D02*
X47039208Y-44904290D01*
X47039208Y-44904290D02*
X47039208Y-44951909D01*
X47039208Y-44951909D02*
X47277303Y-44999528D01*
X46610637Y-45166195D02*
X46610637Y-44904290D01*
X46610637Y-44904290D02*
X46634447Y-44856671D01*
X46634447Y-44856671D02*
X46682066Y-44832862D01*
X46682066Y-44832862D02*
X46777304Y-44832862D01*
X46777304Y-44832862D02*
X46824923Y-44856671D01*
X46610637Y-45142386D02*
X46658256Y-45166195D01*
X46658256Y-45166195D02*
X46777304Y-45166195D01*
X46777304Y-45166195D02*
X46824923Y-45142386D01*
X46824923Y-45142386D02*
X46848732Y-45094766D01*
X46848732Y-45094766D02*
X46848732Y-45047147D01*
X46848732Y-45047147D02*
X46824923Y-44999528D01*
X46824923Y-44999528D02*
X46777304Y-44975719D01*
X46777304Y-44975719D02*
X46658256Y-44975719D01*
X46658256Y-44975719D02*
X46610637Y-44951909D01*
X46396351Y-45142386D02*
X46348732Y-45166195D01*
X46348732Y-45166195D02*
X46253494Y-45166195D01*
X46253494Y-45166195D02*
X46205875Y-45142386D01*
X46205875Y-45142386D02*
X46182066Y-45094766D01*
X46182066Y-45094766D02*
X46182066Y-45070957D01*
X46182066Y-45070957D02*
X46205875Y-45023338D01*
X46205875Y-45023338D02*
X46253494Y-44999528D01*
X46253494Y-44999528D02*
X46324923Y-44999528D01*
X46324923Y-44999528D02*
X46372542Y-44975719D01*
X46372542Y-44975719D02*
X46396351Y-44928100D01*
X46396351Y-44928100D02*
X46396351Y-44904290D01*
X46396351Y-44904290D02*
X46372542Y-44856671D01*
X46372542Y-44856671D02*
X46324923Y-44832862D01*
X46324923Y-44832862D02*
X46253494Y-44832862D01*
X46253494Y-44832862D02*
X46205875Y-44856671D01*
X39763652Y-44846319D02*
X39811271Y-44822509D01*
X39811271Y-44822509D02*
X39882700Y-44822509D01*
X39882700Y-44822509D02*
X39954128Y-44846319D01*
X39954128Y-44846319D02*
X40001747Y-44893938D01*
X40001747Y-44893938D02*
X40025557Y-44941557D01*
X40025557Y-44941557D02*
X40049366Y-45036795D01*
X40049366Y-45036795D02*
X40049366Y-45108223D01*
X40049366Y-45108223D02*
X40025557Y-45203461D01*
X40025557Y-45203461D02*
X40001747Y-45251080D01*
X40001747Y-45251080D02*
X39954128Y-45298700D01*
X39954128Y-45298700D02*
X39882700Y-45322509D01*
X39882700Y-45322509D02*
X39835081Y-45322509D01*
X39835081Y-45322509D02*
X39763652Y-45298700D01*
X39763652Y-45298700D02*
X39739843Y-45274890D01*
X39739843Y-45274890D02*
X39739843Y-45108223D01*
X39739843Y-45108223D02*
X39835081Y-45108223D01*
X39525557Y-45322509D02*
X39525557Y-44822509D01*
X39525557Y-44822509D02*
X39239843Y-45322509D01*
X39239843Y-45322509D02*
X39239843Y-44822509D01*
X39001747Y-45322509D02*
X39001747Y-44822509D01*
X39001747Y-44822509D02*
X38882699Y-44822509D01*
X38882699Y-44822509D02*
X38811271Y-44846319D01*
X38811271Y-44846319D02*
X38763652Y-44893938D01*
X38763652Y-44893938D02*
X38739842Y-44941557D01*
X38739842Y-44941557D02*
X38716033Y-45036795D01*
X38716033Y-45036795D02*
X38716033Y-45108223D01*
X38716033Y-45108223D02*
X38739842Y-45203461D01*
X38739842Y-45203461D02*
X38763652Y-45251080D01*
X38763652Y-45251080D02*
X38811271Y-45298700D01*
X38811271Y-45298700D02*
X38882699Y-45322509D01*
X38882699Y-45322509D02*
X39001747Y-45322509D01*
X42718727Y-28287109D02*
X42552061Y-28787109D01*
X42552061Y-28787109D02*
X42385394Y-28287109D01*
X42052061Y-28525204D02*
X41980633Y-28549014D01*
X41980633Y-28549014D02*
X41956823Y-28572823D01*
X41956823Y-28572823D02*
X41933014Y-28620442D01*
X41933014Y-28620442D02*
X41933014Y-28691871D01*
X41933014Y-28691871D02*
X41956823Y-28739490D01*
X41956823Y-28739490D02*
X41980633Y-28763300D01*
X41980633Y-28763300D02*
X42028252Y-28787109D01*
X42028252Y-28787109D02*
X42218728Y-28787109D01*
X42218728Y-28787109D02*
X42218728Y-28287109D01*
X42218728Y-28287109D02*
X42052061Y-28287109D01*
X42052061Y-28287109D02*
X42004442Y-28310919D01*
X42004442Y-28310919D02*
X41980633Y-28334728D01*
X41980633Y-28334728D02*
X41956823Y-28382347D01*
X41956823Y-28382347D02*
X41956823Y-28429966D01*
X41956823Y-28429966D02*
X41980633Y-28477585D01*
X41980633Y-28477585D02*
X42004442Y-28501395D01*
X42004442Y-28501395D02*
X42052061Y-28525204D01*
X42052061Y-28525204D02*
X42218728Y-28525204D01*
X41742537Y-28644252D02*
X41504442Y-28644252D01*
X41790156Y-28787109D02*
X41623490Y-28287109D01*
X41623490Y-28287109D02*
X41456823Y-28787109D01*
X41361585Y-28287109D02*
X41075871Y-28287109D01*
X41218728Y-28787109D02*
X41218728Y-28287109D01*
X44819047Y-28563304D02*
X44652380Y-28563304D01*
X44580952Y-28825209D02*
X44819047Y-28825209D01*
X44819047Y-28825209D02*
X44819047Y-28325209D01*
X44819047Y-28325209D02*
X44580952Y-28325209D01*
X44366666Y-28825209D02*
X44366666Y-28325209D01*
X44366666Y-28325209D02*
X44080952Y-28825209D01*
X44080952Y-28825209D02*
X44080952Y-28325209D01*
X47881265Y-28299809D02*
X47714599Y-28799809D01*
X47714599Y-28799809D02*
X47547932Y-28299809D01*
X47381266Y-28299809D02*
X47381266Y-28704571D01*
X47381266Y-28704571D02*
X47357456Y-28752190D01*
X47357456Y-28752190D02*
X47333647Y-28776000D01*
X47333647Y-28776000D02*
X47286028Y-28799809D01*
X47286028Y-28799809D02*
X47190790Y-28799809D01*
X47190790Y-28799809D02*
X47143171Y-28776000D01*
X47143171Y-28776000D02*
X47119361Y-28752190D01*
X47119361Y-28752190D02*
X47095552Y-28704571D01*
X47095552Y-28704571D02*
X47095552Y-28299809D01*
X46881265Y-28776000D02*
X46809837Y-28799809D01*
X46809837Y-28799809D02*
X46690789Y-28799809D01*
X46690789Y-28799809D02*
X46643170Y-28776000D01*
X46643170Y-28776000D02*
X46619361Y-28752190D01*
X46619361Y-28752190D02*
X46595551Y-28704571D01*
X46595551Y-28704571D02*
X46595551Y-28656952D01*
X46595551Y-28656952D02*
X46619361Y-28609333D01*
X46619361Y-28609333D02*
X46643170Y-28585523D01*
X46643170Y-28585523D02*
X46690789Y-28561714D01*
X46690789Y-28561714D02*
X46786027Y-28537904D01*
X46786027Y-28537904D02*
X46833646Y-28514095D01*
X46833646Y-28514095D02*
X46857456Y-28490285D01*
X46857456Y-28490285D02*
X46881265Y-28442666D01*
X46881265Y-28442666D02*
X46881265Y-28395047D01*
X46881265Y-28395047D02*
X46857456Y-28347428D01*
X46857456Y-28347428D02*
X46833646Y-28323619D01*
X46833646Y-28323619D02*
X46786027Y-28299809D01*
X46786027Y-28299809D02*
X46666980Y-28299809D01*
X46666980Y-28299809D02*
X46595551Y-28323619D01*
X46214599Y-28537904D02*
X46143171Y-28561714D01*
X46143171Y-28561714D02*
X46119361Y-28585523D01*
X46119361Y-28585523D02*
X46095552Y-28633142D01*
X46095552Y-28633142D02*
X46095552Y-28704571D01*
X46095552Y-28704571D02*
X46119361Y-28752190D01*
X46119361Y-28752190D02*
X46143171Y-28776000D01*
X46143171Y-28776000D02*
X46190790Y-28799809D01*
X46190790Y-28799809D02*
X46381266Y-28799809D01*
X46381266Y-28799809D02*
X46381266Y-28299809D01*
X46381266Y-28299809D02*
X46214599Y-28299809D01*
X46214599Y-28299809D02*
X46166980Y-28323619D01*
X46166980Y-28323619D02*
X46143171Y-28347428D01*
X46143171Y-28347428D02*
X46119361Y-28395047D01*
X46119361Y-28395047D02*
X46119361Y-28442666D01*
X46119361Y-28442666D02*
X46143171Y-28490285D01*
X46143171Y-28490285D02*
X46166980Y-28514095D01*
X46166980Y-28514095D02*
X46214599Y-28537904D01*
X46214599Y-28537904D02*
X46381266Y-28537904D01*
X50303014Y-28265623D02*
X50183966Y-28765623D01*
X50183966Y-28765623D02*
X50088728Y-28408480D01*
X50088728Y-28408480D02*
X49993490Y-28765623D01*
X49993490Y-28765623D02*
X49874443Y-28265623D01*
X49683966Y-28765623D02*
X49683966Y-28432290D01*
X49683966Y-28265623D02*
X49707775Y-28289433D01*
X49707775Y-28289433D02*
X49683966Y-28313242D01*
X49683966Y-28313242D02*
X49660156Y-28289433D01*
X49660156Y-28289433D02*
X49683966Y-28265623D01*
X49683966Y-28265623D02*
X49683966Y-28313242D01*
X49445871Y-28432290D02*
X49445871Y-28765623D01*
X49445871Y-28479909D02*
X49422061Y-28456099D01*
X49422061Y-28456099D02*
X49374442Y-28432290D01*
X49374442Y-28432290D02*
X49303014Y-28432290D01*
X49303014Y-28432290D02*
X49255395Y-28456099D01*
X49255395Y-28456099D02*
X49231585Y-28503718D01*
X49231585Y-28503718D02*
X49231585Y-28765623D01*
X48779204Y-28432290D02*
X48779204Y-28837052D01*
X48779204Y-28837052D02*
X48803014Y-28884671D01*
X48803014Y-28884671D02*
X48826823Y-28908480D01*
X48826823Y-28908480D02*
X48874442Y-28932290D01*
X48874442Y-28932290D02*
X48945871Y-28932290D01*
X48945871Y-28932290D02*
X48993490Y-28908480D01*
X48779204Y-28741814D02*
X48826823Y-28765623D01*
X48826823Y-28765623D02*
X48922061Y-28765623D01*
X48922061Y-28765623D02*
X48969680Y-28741814D01*
X48969680Y-28741814D02*
X48993490Y-28718004D01*
X48993490Y-28718004D02*
X49017299Y-28670385D01*
X49017299Y-28670385D02*
X49017299Y-28527528D01*
X49017299Y-28527528D02*
X48993490Y-28479909D01*
X48993490Y-28479909D02*
X48969680Y-28456099D01*
X48969680Y-28456099D02*
X48922061Y-28432290D01*
X48922061Y-28432290D02*
X48826823Y-28432290D01*
X48826823Y-28432290D02*
X48779204Y-28456099D01*
X49850633Y-29308690D02*
X49683966Y-29308690D01*
X49612538Y-29570595D02*
X49850633Y-29570595D01*
X49850633Y-29570595D02*
X49850633Y-29070595D01*
X49850633Y-29070595D02*
X49612538Y-29070595D01*
X49398252Y-29237262D02*
X49398252Y-29570595D01*
X49398252Y-29284881D02*
X49374442Y-29261071D01*
X49374442Y-29261071D02*
X49326823Y-29237262D01*
X49326823Y-29237262D02*
X49255395Y-29237262D01*
X49255395Y-29237262D02*
X49207776Y-29261071D01*
X49207776Y-29261071D02*
X49183966Y-29308690D01*
X49183966Y-29308690D02*
X49183966Y-29570595D01*
X52652537Y-28754514D02*
X52581109Y-28778323D01*
X52581109Y-28778323D02*
X52462061Y-28778323D01*
X52462061Y-28778323D02*
X52414442Y-28754514D01*
X52414442Y-28754514D02*
X52390633Y-28730704D01*
X52390633Y-28730704D02*
X52366823Y-28683085D01*
X52366823Y-28683085D02*
X52366823Y-28635466D01*
X52366823Y-28635466D02*
X52390633Y-28587847D01*
X52390633Y-28587847D02*
X52414442Y-28564037D01*
X52414442Y-28564037D02*
X52462061Y-28540228D01*
X52462061Y-28540228D02*
X52557299Y-28516418D01*
X52557299Y-28516418D02*
X52604918Y-28492609D01*
X52604918Y-28492609D02*
X52628728Y-28468799D01*
X52628728Y-28468799D02*
X52652537Y-28421180D01*
X52652537Y-28421180D02*
X52652537Y-28373561D01*
X52652537Y-28373561D02*
X52628728Y-28325942D01*
X52628728Y-28325942D02*
X52604918Y-28302133D01*
X52604918Y-28302133D02*
X52557299Y-28278323D01*
X52557299Y-28278323D02*
X52438252Y-28278323D01*
X52438252Y-28278323D02*
X52366823Y-28302133D01*
X52152538Y-28778323D02*
X52152538Y-28278323D01*
X52152538Y-28516418D02*
X51866824Y-28516418D01*
X51866824Y-28778323D02*
X51866824Y-28278323D01*
X51700156Y-28278323D02*
X51414442Y-28278323D01*
X51557299Y-28778323D02*
X51557299Y-28278323D01*
X53045394Y-29440438D02*
X52807299Y-29440438D01*
X53093013Y-29583295D02*
X52926347Y-29083295D01*
X52926347Y-29083295D02*
X52759680Y-29583295D01*
X52354919Y-29583295D02*
X52593014Y-29583295D01*
X52593014Y-29583295D02*
X52593014Y-29083295D01*
X52188252Y-29321390D02*
X52021585Y-29321390D01*
X51950157Y-29583295D02*
X52188252Y-29583295D01*
X52188252Y-29583295D02*
X52188252Y-29083295D01*
X52188252Y-29083295D02*
X51950157Y-29083295D01*
X51450157Y-29583295D02*
X51616823Y-29345200D01*
X51735871Y-29583295D02*
X51735871Y-29083295D01*
X51735871Y-29083295D02*
X51545395Y-29083295D01*
X51545395Y-29083295D02*
X51497776Y-29107105D01*
X51497776Y-29107105D02*
X51473966Y-29130914D01*
X51473966Y-29130914D02*
X51450157Y-29178533D01*
X51450157Y-29178533D02*
X51450157Y-29249962D01*
X51450157Y-29249962D02*
X51473966Y-29297581D01*
X51473966Y-29297581D02*
X51497776Y-29321390D01*
X51497776Y-29321390D02*
X51545395Y-29345200D01*
X51545395Y-29345200D02*
X51735871Y-29345200D01*
X51307299Y-29083295D02*
X51021585Y-29083295D01*
X51164442Y-29583295D02*
X51164442Y-29083295D01*
X55263966Y-28778323D02*
X55263966Y-28278323D01*
X55263966Y-28278323D02*
X55073490Y-28278323D01*
X55073490Y-28278323D02*
X55025871Y-28302133D01*
X55025871Y-28302133D02*
X55002061Y-28325942D01*
X55002061Y-28325942D02*
X54978252Y-28373561D01*
X54978252Y-28373561D02*
X54978252Y-28444990D01*
X54978252Y-28444990D02*
X55002061Y-28492609D01*
X55002061Y-28492609D02*
X55025871Y-28516418D01*
X55025871Y-28516418D02*
X55073490Y-28540228D01*
X55073490Y-28540228D02*
X55263966Y-28540228D01*
X54763966Y-28778323D02*
X54763966Y-28278323D01*
X54763966Y-28278323D02*
X54644918Y-28278323D01*
X54644918Y-28278323D02*
X54573490Y-28302133D01*
X54573490Y-28302133D02*
X54525871Y-28349752D01*
X54525871Y-28349752D02*
X54502061Y-28397371D01*
X54502061Y-28397371D02*
X54478252Y-28492609D01*
X54478252Y-28492609D02*
X54478252Y-28564037D01*
X54478252Y-28564037D02*
X54502061Y-28659275D01*
X54502061Y-28659275D02*
X54525871Y-28706894D01*
X54525871Y-28706894D02*
X54573490Y-28754514D01*
X54573490Y-28754514D02*
X54644918Y-28778323D01*
X54644918Y-28778323D02*
X54763966Y-28778323D01*
X54263966Y-28778323D02*
X54263966Y-28278323D01*
X54263966Y-28278323D02*
X54097299Y-28635466D01*
X54097299Y-28635466D02*
X53930633Y-28278323D01*
X53930633Y-28278323D02*
X53930633Y-28778323D01*
X55347299Y-29583295D02*
X55347299Y-29083295D01*
X55347299Y-29083295D02*
X55228251Y-29083295D01*
X55228251Y-29083295D02*
X55156823Y-29107105D01*
X55156823Y-29107105D02*
X55109204Y-29154724D01*
X55109204Y-29154724D02*
X55085394Y-29202343D01*
X55085394Y-29202343D02*
X55061585Y-29297581D01*
X55061585Y-29297581D02*
X55061585Y-29369009D01*
X55061585Y-29369009D02*
X55085394Y-29464247D01*
X55085394Y-29464247D02*
X55109204Y-29511866D01*
X55109204Y-29511866D02*
X55156823Y-29559486D01*
X55156823Y-29559486D02*
X55228251Y-29583295D01*
X55228251Y-29583295D02*
X55347299Y-29583295D01*
X54871108Y-29440438D02*
X54633013Y-29440438D01*
X54918727Y-29583295D02*
X54752061Y-29083295D01*
X54752061Y-29083295D02*
X54585394Y-29583295D01*
X54490156Y-29083295D02*
X54204442Y-29083295D01*
X54347299Y-29583295D02*
X54347299Y-29083295D01*
X54061585Y-29440438D02*
X53823490Y-29440438D01*
X54109204Y-29583295D02*
X53942538Y-29083295D01*
X53942538Y-29083295D02*
X53775871Y-29583295D01*
X57816666Y-28778323D02*
X57816666Y-28278323D01*
X57816666Y-28278323D02*
X57626190Y-28278323D01*
X57626190Y-28278323D02*
X57578571Y-28302133D01*
X57578571Y-28302133D02*
X57554761Y-28325942D01*
X57554761Y-28325942D02*
X57530952Y-28373561D01*
X57530952Y-28373561D02*
X57530952Y-28444990D01*
X57530952Y-28444990D02*
X57554761Y-28492609D01*
X57554761Y-28492609D02*
X57578571Y-28516418D01*
X57578571Y-28516418D02*
X57626190Y-28540228D01*
X57626190Y-28540228D02*
X57816666Y-28540228D01*
X57316666Y-28778323D02*
X57316666Y-28278323D01*
X57316666Y-28278323D02*
X57197618Y-28278323D01*
X57197618Y-28278323D02*
X57126190Y-28302133D01*
X57126190Y-28302133D02*
X57078571Y-28349752D01*
X57078571Y-28349752D02*
X57054761Y-28397371D01*
X57054761Y-28397371D02*
X57030952Y-28492609D01*
X57030952Y-28492609D02*
X57030952Y-28564037D01*
X57030952Y-28564037D02*
X57054761Y-28659275D01*
X57054761Y-28659275D02*
X57078571Y-28706894D01*
X57078571Y-28706894D02*
X57126190Y-28754514D01*
X57126190Y-28754514D02*
X57197618Y-28778323D01*
X57197618Y-28778323D02*
X57316666Y-28778323D01*
X56816666Y-28778323D02*
X56816666Y-28278323D01*
X56816666Y-28278323D02*
X56649999Y-28635466D01*
X56649999Y-28635466D02*
X56483333Y-28278323D01*
X56483333Y-28278323D02*
X56483333Y-28778323D01*
X57447619Y-29535676D02*
X57471428Y-29559486D01*
X57471428Y-29559486D02*
X57542857Y-29583295D01*
X57542857Y-29583295D02*
X57590476Y-29583295D01*
X57590476Y-29583295D02*
X57661904Y-29559486D01*
X57661904Y-29559486D02*
X57709523Y-29511866D01*
X57709523Y-29511866D02*
X57733333Y-29464247D01*
X57733333Y-29464247D02*
X57757142Y-29369009D01*
X57757142Y-29369009D02*
X57757142Y-29297581D01*
X57757142Y-29297581D02*
X57733333Y-29202343D01*
X57733333Y-29202343D02*
X57709523Y-29154724D01*
X57709523Y-29154724D02*
X57661904Y-29107105D01*
X57661904Y-29107105D02*
X57590476Y-29083295D01*
X57590476Y-29083295D02*
X57542857Y-29083295D01*
X57542857Y-29083295D02*
X57471428Y-29107105D01*
X57471428Y-29107105D02*
X57447619Y-29130914D01*
X56995238Y-29583295D02*
X57233333Y-29583295D01*
X57233333Y-29583295D02*
X57233333Y-29083295D01*
X56828571Y-29583295D02*
X56828571Y-29083295D01*
X56542857Y-29583295D02*
X56757142Y-29297581D01*
X56542857Y-29083295D02*
X56828571Y-29369009D01*
X60344761Y-28325209D02*
X60035237Y-28325209D01*
X60035237Y-28325209D02*
X60201904Y-28515685D01*
X60201904Y-28515685D02*
X60130475Y-28515685D01*
X60130475Y-28515685D02*
X60082856Y-28539495D01*
X60082856Y-28539495D02*
X60059047Y-28563304D01*
X60059047Y-28563304D02*
X60035237Y-28610923D01*
X60035237Y-28610923D02*
X60035237Y-28729971D01*
X60035237Y-28729971D02*
X60059047Y-28777590D01*
X60059047Y-28777590D02*
X60082856Y-28801400D01*
X60082856Y-28801400D02*
X60130475Y-28825209D01*
X60130475Y-28825209D02*
X60273332Y-28825209D01*
X60273332Y-28825209D02*
X60320951Y-28801400D01*
X60320951Y-28801400D02*
X60344761Y-28777590D01*
X59844761Y-28372828D02*
X59820952Y-28349019D01*
X59820952Y-28349019D02*
X59773333Y-28325209D01*
X59773333Y-28325209D02*
X59654285Y-28325209D01*
X59654285Y-28325209D02*
X59606666Y-28349019D01*
X59606666Y-28349019D02*
X59582857Y-28372828D01*
X59582857Y-28372828D02*
X59559047Y-28420447D01*
X59559047Y-28420447D02*
X59559047Y-28468066D01*
X59559047Y-28468066D02*
X59582857Y-28539495D01*
X59582857Y-28539495D02*
X59868571Y-28825209D01*
X59868571Y-28825209D02*
X59559047Y-28825209D01*
X59344762Y-28825209D02*
X59344762Y-28325209D01*
X59059048Y-28825209D02*
X59273333Y-28539495D01*
X59059048Y-28325209D02*
X59344762Y-28610923D01*
X63170475Y-28774409D02*
X63170475Y-28274409D01*
X63170475Y-28274409D02*
X63051427Y-28274409D01*
X63051427Y-28274409D02*
X62979999Y-28298219D01*
X62979999Y-28298219D02*
X62932380Y-28345838D01*
X62932380Y-28345838D02*
X62908570Y-28393457D01*
X62908570Y-28393457D02*
X62884761Y-28488695D01*
X62884761Y-28488695D02*
X62884761Y-28560123D01*
X62884761Y-28560123D02*
X62908570Y-28655361D01*
X62908570Y-28655361D02*
X62932380Y-28702980D01*
X62932380Y-28702980D02*
X62979999Y-28750600D01*
X62979999Y-28750600D02*
X63051427Y-28774409D01*
X63051427Y-28774409D02*
X63170475Y-28774409D01*
X62694284Y-28750600D02*
X62622856Y-28774409D01*
X62622856Y-28774409D02*
X62503808Y-28774409D01*
X62503808Y-28774409D02*
X62456189Y-28750600D01*
X62456189Y-28750600D02*
X62432380Y-28726790D01*
X62432380Y-28726790D02*
X62408570Y-28679171D01*
X62408570Y-28679171D02*
X62408570Y-28631552D01*
X62408570Y-28631552D02*
X62432380Y-28583933D01*
X62432380Y-28583933D02*
X62456189Y-28560123D01*
X62456189Y-28560123D02*
X62503808Y-28536314D01*
X62503808Y-28536314D02*
X62599046Y-28512504D01*
X62599046Y-28512504D02*
X62646665Y-28488695D01*
X62646665Y-28488695D02*
X62670475Y-28464885D01*
X62670475Y-28464885D02*
X62694284Y-28417266D01*
X62694284Y-28417266D02*
X62694284Y-28369647D01*
X62694284Y-28369647D02*
X62670475Y-28322028D01*
X62670475Y-28322028D02*
X62646665Y-28298219D01*
X62646665Y-28298219D02*
X62599046Y-28274409D01*
X62599046Y-28274409D02*
X62479999Y-28274409D01*
X62479999Y-28274409D02*
X62408570Y-28298219D01*
X62194285Y-28774409D02*
X62194285Y-28274409D01*
X61956190Y-28774409D02*
X61956190Y-28274409D01*
X61956190Y-28274409D02*
X61670476Y-28774409D01*
X61670476Y-28774409D02*
X61670476Y-28274409D01*
X61503808Y-28274409D02*
X61218094Y-28274409D01*
X61360951Y-28774409D02*
X61360951Y-28274409D01*
X65817618Y-28774409D02*
X65817618Y-28274409D01*
X65817618Y-28274409D02*
X65698570Y-28274409D01*
X65698570Y-28274409D02*
X65627142Y-28298219D01*
X65627142Y-28298219D02*
X65579523Y-28345838D01*
X65579523Y-28345838D02*
X65555713Y-28393457D01*
X65555713Y-28393457D02*
X65531904Y-28488695D01*
X65531904Y-28488695D02*
X65531904Y-28560123D01*
X65531904Y-28560123D02*
X65555713Y-28655361D01*
X65555713Y-28655361D02*
X65579523Y-28702980D01*
X65579523Y-28702980D02*
X65627142Y-28750600D01*
X65627142Y-28750600D02*
X65698570Y-28774409D01*
X65698570Y-28774409D02*
X65817618Y-28774409D01*
X65341427Y-28750600D02*
X65269999Y-28774409D01*
X65269999Y-28774409D02*
X65150951Y-28774409D01*
X65150951Y-28774409D02*
X65103332Y-28750600D01*
X65103332Y-28750600D02*
X65079523Y-28726790D01*
X65079523Y-28726790D02*
X65055713Y-28679171D01*
X65055713Y-28679171D02*
X65055713Y-28631552D01*
X65055713Y-28631552D02*
X65079523Y-28583933D01*
X65079523Y-28583933D02*
X65103332Y-28560123D01*
X65103332Y-28560123D02*
X65150951Y-28536314D01*
X65150951Y-28536314D02*
X65246189Y-28512504D01*
X65246189Y-28512504D02*
X65293808Y-28488695D01*
X65293808Y-28488695D02*
X65317618Y-28464885D01*
X65317618Y-28464885D02*
X65341427Y-28417266D01*
X65341427Y-28417266D02*
X65341427Y-28369647D01*
X65341427Y-28369647D02*
X65317618Y-28322028D01*
X65317618Y-28322028D02*
X65293808Y-28298219D01*
X65293808Y-28298219D02*
X65246189Y-28274409D01*
X65246189Y-28274409D02*
X65127142Y-28274409D01*
X65127142Y-28274409D02*
X65055713Y-28298219D01*
X64555714Y-28774409D02*
X64722380Y-28536314D01*
X64841428Y-28774409D02*
X64841428Y-28274409D01*
X64841428Y-28274409D02*
X64650952Y-28274409D01*
X64650952Y-28274409D02*
X64603333Y-28298219D01*
X64603333Y-28298219D02*
X64579523Y-28322028D01*
X64579523Y-28322028D02*
X64555714Y-28369647D01*
X64555714Y-28369647D02*
X64555714Y-28441076D01*
X64555714Y-28441076D02*
X64579523Y-28488695D01*
X64579523Y-28488695D02*
X64603333Y-28512504D01*
X64603333Y-28512504D02*
X64650952Y-28536314D01*
X64650952Y-28536314D02*
X64841428Y-28536314D01*
X64365237Y-28750600D02*
X64293809Y-28774409D01*
X64293809Y-28774409D02*
X64174761Y-28774409D01*
X64174761Y-28774409D02*
X64127142Y-28750600D01*
X64127142Y-28750600D02*
X64103333Y-28726790D01*
X64103333Y-28726790D02*
X64079523Y-28679171D01*
X64079523Y-28679171D02*
X64079523Y-28631552D01*
X64079523Y-28631552D02*
X64103333Y-28583933D01*
X64103333Y-28583933D02*
X64127142Y-28560123D01*
X64127142Y-28560123D02*
X64174761Y-28536314D01*
X64174761Y-28536314D02*
X64269999Y-28512504D01*
X64269999Y-28512504D02*
X64317618Y-28488695D01*
X64317618Y-28488695D02*
X64341428Y-28464885D01*
X64341428Y-28464885D02*
X64365237Y-28417266D01*
X64365237Y-28417266D02*
X64365237Y-28369647D01*
X64365237Y-28369647D02*
X64341428Y-28322028D01*
X64341428Y-28322028D02*
X64317618Y-28298219D01*
X64317618Y-28298219D02*
X64269999Y-28274409D01*
X64269999Y-28274409D02*
X64150952Y-28274409D01*
X64150952Y-28274409D02*
X64079523Y-28298219D01*
X63936666Y-28274409D02*
X63650952Y-28274409D01*
X63793809Y-28774409D02*
X63793809Y-28274409D01*
X67879837Y-28788700D02*
X67808409Y-28812509D01*
X67808409Y-28812509D02*
X67689361Y-28812509D01*
X67689361Y-28812509D02*
X67641742Y-28788700D01*
X67641742Y-28788700D02*
X67617933Y-28764890D01*
X67617933Y-28764890D02*
X67594123Y-28717271D01*
X67594123Y-28717271D02*
X67594123Y-28669652D01*
X67594123Y-28669652D02*
X67617933Y-28622033D01*
X67617933Y-28622033D02*
X67641742Y-28598223D01*
X67641742Y-28598223D02*
X67689361Y-28574414D01*
X67689361Y-28574414D02*
X67784599Y-28550604D01*
X67784599Y-28550604D02*
X67832218Y-28526795D01*
X67832218Y-28526795D02*
X67856028Y-28502985D01*
X67856028Y-28502985D02*
X67879837Y-28455366D01*
X67879837Y-28455366D02*
X67879837Y-28407747D01*
X67879837Y-28407747D02*
X67856028Y-28360128D01*
X67856028Y-28360128D02*
X67832218Y-28336319D01*
X67832218Y-28336319D02*
X67784599Y-28312509D01*
X67784599Y-28312509D02*
X67665552Y-28312509D01*
X67665552Y-28312509D02*
X67594123Y-28336319D01*
X67094124Y-28764890D02*
X67117933Y-28788700D01*
X67117933Y-28788700D02*
X67189362Y-28812509D01*
X67189362Y-28812509D02*
X67236981Y-28812509D01*
X67236981Y-28812509D02*
X67308409Y-28788700D01*
X67308409Y-28788700D02*
X67356028Y-28741080D01*
X67356028Y-28741080D02*
X67379838Y-28693461D01*
X67379838Y-28693461D02*
X67403647Y-28598223D01*
X67403647Y-28598223D02*
X67403647Y-28526795D01*
X67403647Y-28526795D02*
X67379838Y-28431557D01*
X67379838Y-28431557D02*
X67356028Y-28383938D01*
X67356028Y-28383938D02*
X67308409Y-28336319D01*
X67308409Y-28336319D02*
X67236981Y-28312509D01*
X67236981Y-28312509D02*
X67189362Y-28312509D01*
X67189362Y-28312509D02*
X67117933Y-28336319D01*
X67117933Y-28336319D02*
X67094124Y-28360128D01*
X66641743Y-28812509D02*
X66879838Y-28812509D01*
X66879838Y-28812509D02*
X66879838Y-28312509D01*
X70419041Y-28776000D02*
X70347613Y-28799809D01*
X70347613Y-28799809D02*
X70228565Y-28799809D01*
X70228565Y-28799809D02*
X70180946Y-28776000D01*
X70180946Y-28776000D02*
X70157137Y-28752190D01*
X70157137Y-28752190D02*
X70133327Y-28704571D01*
X70133327Y-28704571D02*
X70133327Y-28656952D01*
X70133327Y-28656952D02*
X70157137Y-28609333D01*
X70157137Y-28609333D02*
X70180946Y-28585523D01*
X70180946Y-28585523D02*
X70228565Y-28561714D01*
X70228565Y-28561714D02*
X70323803Y-28537904D01*
X70323803Y-28537904D02*
X70371422Y-28514095D01*
X70371422Y-28514095D02*
X70395232Y-28490285D01*
X70395232Y-28490285D02*
X70419041Y-28442666D01*
X70419041Y-28442666D02*
X70419041Y-28395047D01*
X70419041Y-28395047D02*
X70395232Y-28347428D01*
X70395232Y-28347428D02*
X70371422Y-28323619D01*
X70371422Y-28323619D02*
X70323803Y-28299809D01*
X70323803Y-28299809D02*
X70204756Y-28299809D01*
X70204756Y-28299809D02*
X70133327Y-28323619D01*
X69919042Y-28799809D02*
X69919042Y-28299809D01*
X69919042Y-28299809D02*
X69799994Y-28299809D01*
X69799994Y-28299809D02*
X69728566Y-28323619D01*
X69728566Y-28323619D02*
X69680947Y-28371238D01*
X69680947Y-28371238D02*
X69657137Y-28418857D01*
X69657137Y-28418857D02*
X69633328Y-28514095D01*
X69633328Y-28514095D02*
X69633328Y-28585523D01*
X69633328Y-28585523D02*
X69657137Y-28680761D01*
X69657137Y-28680761D02*
X69680947Y-28728380D01*
X69680947Y-28728380D02*
X69728566Y-28776000D01*
X69728566Y-28776000D02*
X69799994Y-28799809D01*
X69799994Y-28799809D02*
X69919042Y-28799809D01*
X69442851Y-28656952D02*
X69204756Y-28656952D01*
X69490470Y-28799809D02*
X69323804Y-28299809D01*
X69323804Y-28299809D02*
X69157137Y-28799809D01*
X68445528Y-35483474D02*
X68469337Y-35554902D01*
X68469337Y-35554902D02*
X68469337Y-35673950D01*
X68469337Y-35673950D02*
X68445528Y-35721569D01*
X68445528Y-35721569D02*
X68421718Y-35745378D01*
X68421718Y-35745378D02*
X68374099Y-35769188D01*
X68374099Y-35769188D02*
X68326480Y-35769188D01*
X68326480Y-35769188D02*
X68278861Y-35745378D01*
X68278861Y-35745378D02*
X68255051Y-35721569D01*
X68255051Y-35721569D02*
X68231242Y-35673950D01*
X68231242Y-35673950D02*
X68207432Y-35578712D01*
X68207432Y-35578712D02*
X68183623Y-35531093D01*
X68183623Y-35531093D02*
X68159813Y-35507283D01*
X68159813Y-35507283D02*
X68112194Y-35483474D01*
X68112194Y-35483474D02*
X68064575Y-35483474D01*
X68064575Y-35483474D02*
X68016956Y-35507283D01*
X68016956Y-35507283D02*
X67993147Y-35531093D01*
X67993147Y-35531093D02*
X67969337Y-35578712D01*
X67969337Y-35578712D02*
X67969337Y-35697759D01*
X67969337Y-35697759D02*
X67993147Y-35769188D01*
X68469337Y-35983473D02*
X67969337Y-35983473D01*
X68207432Y-35983473D02*
X68207432Y-36269187D01*
X68469337Y-36269187D02*
X67969337Y-36269187D01*
X67969337Y-36435855D02*
X67969337Y-36721569D01*
X68469337Y-36578712D02*
X67969337Y-36578712D01*
X67969337Y-36840616D02*
X67969337Y-37150140D01*
X67969337Y-37150140D02*
X68159813Y-36983473D01*
X68159813Y-36983473D02*
X68159813Y-37054902D01*
X68159813Y-37054902D02*
X68183623Y-37102521D01*
X68183623Y-37102521D02*
X68207432Y-37126330D01*
X68207432Y-37126330D02*
X68255051Y-37150140D01*
X68255051Y-37150140D02*
X68374099Y-37150140D01*
X68374099Y-37150140D02*
X68421718Y-37126330D01*
X68421718Y-37126330D02*
X68445528Y-37102521D01*
X68445528Y-37102521D02*
X68469337Y-37054902D01*
X68469337Y-37054902D02*
X68469337Y-36912045D01*
X68469337Y-36912045D02*
X68445528Y-36864426D01*
X68445528Y-36864426D02*
X68421718Y-36840616D01*
X67969337Y-37459663D02*
X67969337Y-37507282D01*
X67969337Y-37507282D02*
X67993147Y-37554901D01*
X67993147Y-37554901D02*
X68016956Y-37578711D01*
X68016956Y-37578711D02*
X68064575Y-37602520D01*
X68064575Y-37602520D02*
X68159813Y-37626330D01*
X68159813Y-37626330D02*
X68278861Y-37626330D01*
X68278861Y-37626330D02*
X68374099Y-37602520D01*
X68374099Y-37602520D02*
X68421718Y-37578711D01*
X68421718Y-37578711D02*
X68445528Y-37554901D01*
X68445528Y-37554901D02*
X68469337Y-37507282D01*
X68469337Y-37507282D02*
X68469337Y-37459663D01*
X68469337Y-37459663D02*
X68445528Y-37412044D01*
X68445528Y-37412044D02*
X68421718Y-37388235D01*
X68421718Y-37388235D02*
X68374099Y-37364425D01*
X68374099Y-37364425D02*
X68278861Y-37340616D01*
X68278861Y-37340616D02*
X68159813Y-37340616D01*
X68159813Y-37340616D02*
X68064575Y-37364425D01*
X68064575Y-37364425D02*
X68016956Y-37388235D01*
X68016956Y-37388235D02*
X67993147Y-37412044D01*
X67993147Y-37412044D02*
X67969337Y-37459663D01*
X69131452Y-35483474D02*
X69131452Y-35721569D01*
X69274309Y-35435855D02*
X68774309Y-35602521D01*
X68774309Y-35602521D02*
X69274309Y-35769188D01*
X69274309Y-36007283D02*
X69250500Y-35959664D01*
X69250500Y-35959664D02*
X69202880Y-35935854D01*
X69202880Y-35935854D02*
X68774309Y-35935854D01*
X69250500Y-36388235D02*
X69274309Y-36340616D01*
X69274309Y-36340616D02*
X69274309Y-36245378D01*
X69274309Y-36245378D02*
X69250500Y-36197759D01*
X69250500Y-36197759D02*
X69202880Y-36173950D01*
X69202880Y-36173950D02*
X69012404Y-36173950D01*
X69012404Y-36173950D02*
X68964785Y-36197759D01*
X68964785Y-36197759D02*
X68940976Y-36245378D01*
X68940976Y-36245378D02*
X68940976Y-36340616D01*
X68940976Y-36340616D02*
X68964785Y-36388235D01*
X68964785Y-36388235D02*
X69012404Y-36412045D01*
X69012404Y-36412045D02*
X69060023Y-36412045D01*
X69060023Y-36412045D02*
X69107642Y-36173950D01*
X69274309Y-36626330D02*
X68940976Y-36626330D01*
X69036214Y-36626330D02*
X68988595Y-36650140D01*
X68988595Y-36650140D02*
X68964785Y-36673949D01*
X68964785Y-36673949D02*
X68940976Y-36721568D01*
X68940976Y-36721568D02*
X68940976Y-36769187D01*
X68940976Y-36864426D02*
X68940976Y-37054902D01*
X68774309Y-36935854D02*
X69202880Y-36935854D01*
X69202880Y-36935854D02*
X69250500Y-36959664D01*
X69250500Y-36959664D02*
X69274309Y-37007283D01*
X69274309Y-37007283D02*
X69274309Y-37054902D01*
X70353952Y-43150809D02*
X70353952Y-42650809D01*
X70353952Y-42650809D02*
X70068238Y-43150809D01*
X70068238Y-43150809D02*
X70068238Y-42650809D01*
X69544428Y-43103190D02*
X69568237Y-43127000D01*
X69568237Y-43127000D02*
X69639666Y-43150809D01*
X69639666Y-43150809D02*
X69687285Y-43150809D01*
X69687285Y-43150809D02*
X69758713Y-43127000D01*
X69758713Y-43127000D02*
X69806332Y-43079380D01*
X69806332Y-43079380D02*
X69830142Y-43031761D01*
X69830142Y-43031761D02*
X69853951Y-42936523D01*
X69853951Y-42936523D02*
X69853951Y-42865095D01*
X69853951Y-42865095D02*
X69830142Y-42769857D01*
X69830142Y-42769857D02*
X69806332Y-42722238D01*
X69806332Y-42722238D02*
X69758713Y-42674619D01*
X69758713Y-42674619D02*
X69687285Y-42650809D01*
X69687285Y-42650809D02*
X69639666Y-42650809D01*
X69639666Y-42650809D02*
X69568237Y-42674619D01*
X69568237Y-42674619D02*
X69544428Y-42698428D01*
X69068237Y-43150809D02*
X69353951Y-43150809D01*
X69211094Y-43150809D02*
X69211094Y-42650809D01*
X69211094Y-42650809D02*
X69258713Y-42722238D01*
X69258713Y-42722238D02*
X69306332Y-42769857D01*
X69306332Y-42769857D02*
X69353951Y-42793666D01*
X55002856Y-44362814D02*
X54931428Y-44386623D01*
X54931428Y-44386623D02*
X54812380Y-44386623D01*
X54812380Y-44386623D02*
X54764761Y-44362814D01*
X54764761Y-44362814D02*
X54740952Y-44339004D01*
X54740952Y-44339004D02*
X54717142Y-44291385D01*
X54717142Y-44291385D02*
X54717142Y-44243766D01*
X54717142Y-44243766D02*
X54740952Y-44196147D01*
X54740952Y-44196147D02*
X54764761Y-44172337D01*
X54764761Y-44172337D02*
X54812380Y-44148528D01*
X54812380Y-44148528D02*
X54907618Y-44124718D01*
X54907618Y-44124718D02*
X54955237Y-44100909D01*
X54955237Y-44100909D02*
X54979047Y-44077099D01*
X54979047Y-44077099D02*
X55002856Y-44029480D01*
X55002856Y-44029480D02*
X55002856Y-43981861D01*
X55002856Y-43981861D02*
X54979047Y-43934242D01*
X54979047Y-43934242D02*
X54955237Y-43910433D01*
X54955237Y-43910433D02*
X54907618Y-43886623D01*
X54907618Y-43886623D02*
X54788571Y-43886623D01*
X54788571Y-43886623D02*
X54717142Y-43910433D01*
X54502857Y-44386623D02*
X54502857Y-43886623D01*
X54502857Y-43886623D02*
X54383809Y-43886623D01*
X54383809Y-43886623D02*
X54312381Y-43910433D01*
X54312381Y-43910433D02*
X54264762Y-43958052D01*
X54264762Y-43958052D02*
X54240952Y-44005671D01*
X54240952Y-44005671D02*
X54217143Y-44100909D01*
X54217143Y-44100909D02*
X54217143Y-44172337D01*
X54217143Y-44172337D02*
X54240952Y-44267575D01*
X54240952Y-44267575D02*
X54264762Y-44315194D01*
X54264762Y-44315194D02*
X54312381Y-44362814D01*
X54312381Y-44362814D02*
X54383809Y-44386623D01*
X54383809Y-44386623D02*
X54502857Y-44386623D01*
X54693333Y-45143976D02*
X54717142Y-45167786D01*
X54717142Y-45167786D02*
X54788571Y-45191595D01*
X54788571Y-45191595D02*
X54836190Y-45191595D01*
X54836190Y-45191595D02*
X54907618Y-45167786D01*
X54907618Y-45167786D02*
X54955237Y-45120166D01*
X54955237Y-45120166D02*
X54979047Y-45072547D01*
X54979047Y-45072547D02*
X55002856Y-44977309D01*
X55002856Y-44977309D02*
X55002856Y-44905881D01*
X55002856Y-44905881D02*
X54979047Y-44810643D01*
X54979047Y-44810643D02*
X54955237Y-44763024D01*
X54955237Y-44763024D02*
X54907618Y-44715405D01*
X54907618Y-44715405D02*
X54836190Y-44691595D01*
X54836190Y-44691595D02*
X54788571Y-44691595D01*
X54788571Y-44691595D02*
X54717142Y-44715405D01*
X54717142Y-44715405D02*
X54693333Y-44739214D01*
X54502856Y-45167786D02*
X54431428Y-45191595D01*
X54431428Y-45191595D02*
X54312380Y-45191595D01*
X54312380Y-45191595D02*
X54264761Y-45167786D01*
X54264761Y-45167786D02*
X54240952Y-45143976D01*
X54240952Y-45143976D02*
X54217142Y-45096357D01*
X54217142Y-45096357D02*
X54217142Y-45048738D01*
X54217142Y-45048738D02*
X54240952Y-45001119D01*
X54240952Y-45001119D02*
X54264761Y-44977309D01*
X54264761Y-44977309D02*
X54312380Y-44953500D01*
X54312380Y-44953500D02*
X54407618Y-44929690D01*
X54407618Y-44929690D02*
X54455237Y-44905881D01*
X54455237Y-44905881D02*
X54479047Y-44882071D01*
X54479047Y-44882071D02*
X54502856Y-44834452D01*
X54502856Y-44834452D02*
X54502856Y-44786833D01*
X54502856Y-44786833D02*
X54479047Y-44739214D01*
X54479047Y-44739214D02*
X54455237Y-44715405D01*
X54455237Y-44715405D02*
X54407618Y-44691595D01*
X54407618Y-44691595D02*
X54288571Y-44691595D01*
X54288571Y-44691595D02*
X54217142Y-44715405D01*
X57626189Y-41216418D02*
X57554761Y-41240228D01*
X57554761Y-41240228D02*
X57530951Y-41264037D01*
X57530951Y-41264037D02*
X57507142Y-41311656D01*
X57507142Y-41311656D02*
X57507142Y-41383085D01*
X57507142Y-41383085D02*
X57530951Y-41430704D01*
X57530951Y-41430704D02*
X57554761Y-41454514D01*
X57554761Y-41454514D02*
X57602380Y-41478323D01*
X57602380Y-41478323D02*
X57792856Y-41478323D01*
X57792856Y-41478323D02*
X57792856Y-40978323D01*
X57792856Y-40978323D02*
X57626189Y-40978323D01*
X57626189Y-40978323D02*
X57578570Y-41002133D01*
X57578570Y-41002133D02*
X57554761Y-41025942D01*
X57554761Y-41025942D02*
X57530951Y-41073561D01*
X57530951Y-41073561D02*
X57530951Y-41121180D01*
X57530951Y-41121180D02*
X57554761Y-41168799D01*
X57554761Y-41168799D02*
X57578570Y-41192609D01*
X57578570Y-41192609D02*
X57626189Y-41216418D01*
X57626189Y-41216418D02*
X57792856Y-41216418D01*
X57078570Y-41478323D02*
X57078570Y-41216418D01*
X57078570Y-41216418D02*
X57102380Y-41168799D01*
X57102380Y-41168799D02*
X57149999Y-41144990D01*
X57149999Y-41144990D02*
X57245237Y-41144990D01*
X57245237Y-41144990D02*
X57292856Y-41168799D01*
X57078570Y-41454514D02*
X57126189Y-41478323D01*
X57126189Y-41478323D02*
X57245237Y-41478323D01*
X57245237Y-41478323D02*
X57292856Y-41454514D01*
X57292856Y-41454514D02*
X57316665Y-41406894D01*
X57316665Y-41406894D02*
X57316665Y-41359275D01*
X57316665Y-41359275D02*
X57292856Y-41311656D01*
X57292856Y-41311656D02*
X57245237Y-41287847D01*
X57245237Y-41287847D02*
X57126189Y-41287847D01*
X57126189Y-41287847D02*
X57078570Y-41264037D01*
X56911903Y-41144990D02*
X56721427Y-41144990D01*
X56840475Y-40978323D02*
X56840475Y-41406894D01*
X56840475Y-41406894D02*
X56816665Y-41454514D01*
X56816665Y-41454514D02*
X56769046Y-41478323D01*
X56769046Y-41478323D02*
X56721427Y-41478323D01*
X56626189Y-41144990D02*
X56435713Y-41144990D01*
X56554761Y-40978323D02*
X56554761Y-41406894D01*
X56554761Y-41406894D02*
X56530951Y-41454514D01*
X56530951Y-41454514D02*
X56483332Y-41478323D01*
X56483332Y-41478323D02*
X56435713Y-41478323D01*
X57959523Y-42283295D02*
X57959523Y-41783295D01*
X57959523Y-41783295D02*
X57792856Y-42140438D01*
X57792856Y-42140438D02*
X57626190Y-41783295D01*
X57626190Y-41783295D02*
X57626190Y-42283295D01*
X57197618Y-42259486D02*
X57245237Y-42283295D01*
X57245237Y-42283295D02*
X57340475Y-42283295D01*
X57340475Y-42283295D02*
X57388094Y-42259486D01*
X57388094Y-42259486D02*
X57411903Y-42211866D01*
X57411903Y-42211866D02*
X57411903Y-42021390D01*
X57411903Y-42021390D02*
X57388094Y-41973771D01*
X57388094Y-41973771D02*
X57340475Y-41949962D01*
X57340475Y-41949962D02*
X57245237Y-41949962D01*
X57245237Y-41949962D02*
X57197618Y-41973771D01*
X57197618Y-41973771D02*
X57173808Y-42021390D01*
X57173808Y-42021390D02*
X57173808Y-42069009D01*
X57173808Y-42069009D02*
X57411903Y-42116628D01*
X56745237Y-42283295D02*
X56745237Y-42021390D01*
X56745237Y-42021390D02*
X56769047Y-41973771D01*
X56769047Y-41973771D02*
X56816666Y-41949962D01*
X56816666Y-41949962D02*
X56911904Y-41949962D01*
X56911904Y-41949962D02*
X56959523Y-41973771D01*
X56745237Y-42259486D02*
X56792856Y-42283295D01*
X56792856Y-42283295D02*
X56911904Y-42283295D01*
X56911904Y-42283295D02*
X56959523Y-42259486D01*
X56959523Y-42259486D02*
X56983332Y-42211866D01*
X56983332Y-42211866D02*
X56983332Y-42164247D01*
X56983332Y-42164247D02*
X56959523Y-42116628D01*
X56959523Y-42116628D02*
X56911904Y-42092819D01*
X56911904Y-42092819D02*
X56792856Y-42092819D01*
X56792856Y-42092819D02*
X56745237Y-42069009D01*
X56530951Y-42259486D02*
X56483332Y-42283295D01*
X56483332Y-42283295D02*
X56388094Y-42283295D01*
X56388094Y-42283295D02*
X56340475Y-42259486D01*
X56340475Y-42259486D02*
X56316666Y-42211866D01*
X56316666Y-42211866D02*
X56316666Y-42188057D01*
X56316666Y-42188057D02*
X56340475Y-42140438D01*
X56340475Y-42140438D02*
X56388094Y-42116628D01*
X56388094Y-42116628D02*
X56459523Y-42116628D01*
X56459523Y-42116628D02*
X56507142Y-42092819D01*
X56507142Y-42092819D02*
X56530951Y-42045200D01*
X56530951Y-42045200D02*
X56530951Y-42021390D01*
X56530951Y-42021390D02*
X56507142Y-41973771D01*
X56507142Y-41973771D02*
X56459523Y-41949962D01*
X56459523Y-41949962D02*
X56388094Y-41949962D01*
X56388094Y-41949962D02*
X56340475Y-41973771D01*
X44926189Y-44124718D02*
X44854761Y-44148528D01*
X44854761Y-44148528D02*
X44830951Y-44172337D01*
X44830951Y-44172337D02*
X44807142Y-44219956D01*
X44807142Y-44219956D02*
X44807142Y-44291385D01*
X44807142Y-44291385D02*
X44830951Y-44339004D01*
X44830951Y-44339004D02*
X44854761Y-44362814D01*
X44854761Y-44362814D02*
X44902380Y-44386623D01*
X44902380Y-44386623D02*
X45092856Y-44386623D01*
X45092856Y-44386623D02*
X45092856Y-43886623D01*
X45092856Y-43886623D02*
X44926189Y-43886623D01*
X44926189Y-43886623D02*
X44878570Y-43910433D01*
X44878570Y-43910433D02*
X44854761Y-43934242D01*
X44854761Y-43934242D02*
X44830951Y-43981861D01*
X44830951Y-43981861D02*
X44830951Y-44029480D01*
X44830951Y-44029480D02*
X44854761Y-44077099D01*
X44854761Y-44077099D02*
X44878570Y-44100909D01*
X44878570Y-44100909D02*
X44926189Y-44124718D01*
X44926189Y-44124718D02*
X45092856Y-44124718D01*
X44378570Y-44386623D02*
X44378570Y-44124718D01*
X44378570Y-44124718D02*
X44402380Y-44077099D01*
X44402380Y-44077099D02*
X44449999Y-44053290D01*
X44449999Y-44053290D02*
X44545237Y-44053290D01*
X44545237Y-44053290D02*
X44592856Y-44077099D01*
X44378570Y-44362814D02*
X44426189Y-44386623D01*
X44426189Y-44386623D02*
X44545237Y-44386623D01*
X44545237Y-44386623D02*
X44592856Y-44362814D01*
X44592856Y-44362814D02*
X44616665Y-44315194D01*
X44616665Y-44315194D02*
X44616665Y-44267575D01*
X44616665Y-44267575D02*
X44592856Y-44219956D01*
X44592856Y-44219956D02*
X44545237Y-44196147D01*
X44545237Y-44196147D02*
X44426189Y-44196147D01*
X44426189Y-44196147D02*
X44378570Y-44172337D01*
X44211903Y-44053290D02*
X44021427Y-44053290D01*
X44140475Y-43886623D02*
X44140475Y-44315194D01*
X44140475Y-44315194D02*
X44116665Y-44362814D01*
X44116665Y-44362814D02*
X44069046Y-44386623D01*
X44069046Y-44386623D02*
X44021427Y-44386623D01*
X43926189Y-44053290D02*
X43735713Y-44053290D01*
X43854761Y-43886623D02*
X43854761Y-44315194D01*
X43854761Y-44315194D02*
X43830951Y-44362814D01*
X43830951Y-44362814D02*
X43783332Y-44386623D01*
X43783332Y-44386623D02*
X43735713Y-44386623D01*
X45259523Y-45191595D02*
X45259523Y-44691595D01*
X45259523Y-44691595D02*
X45092856Y-45048738D01*
X45092856Y-45048738D02*
X44926190Y-44691595D01*
X44926190Y-44691595D02*
X44926190Y-45191595D01*
X44497618Y-45167786D02*
X44545237Y-45191595D01*
X44545237Y-45191595D02*
X44640475Y-45191595D01*
X44640475Y-45191595D02*
X44688094Y-45167786D01*
X44688094Y-45167786D02*
X44711903Y-45120166D01*
X44711903Y-45120166D02*
X44711903Y-44929690D01*
X44711903Y-44929690D02*
X44688094Y-44882071D01*
X44688094Y-44882071D02*
X44640475Y-44858262D01*
X44640475Y-44858262D02*
X44545237Y-44858262D01*
X44545237Y-44858262D02*
X44497618Y-44882071D01*
X44497618Y-44882071D02*
X44473808Y-44929690D01*
X44473808Y-44929690D02*
X44473808Y-44977309D01*
X44473808Y-44977309D02*
X44711903Y-45024928D01*
X44045237Y-45191595D02*
X44045237Y-44929690D01*
X44045237Y-44929690D02*
X44069047Y-44882071D01*
X44069047Y-44882071D02*
X44116666Y-44858262D01*
X44116666Y-44858262D02*
X44211904Y-44858262D01*
X44211904Y-44858262D02*
X44259523Y-44882071D01*
X44045237Y-45167786D02*
X44092856Y-45191595D01*
X44092856Y-45191595D02*
X44211904Y-45191595D01*
X44211904Y-45191595D02*
X44259523Y-45167786D01*
X44259523Y-45167786D02*
X44283332Y-45120166D01*
X44283332Y-45120166D02*
X44283332Y-45072547D01*
X44283332Y-45072547D02*
X44259523Y-45024928D01*
X44259523Y-45024928D02*
X44211904Y-45001119D01*
X44211904Y-45001119D02*
X44092856Y-45001119D01*
X44092856Y-45001119D02*
X44045237Y-44977309D01*
X43830951Y-45167786D02*
X43783332Y-45191595D01*
X43783332Y-45191595D02*
X43688094Y-45191595D01*
X43688094Y-45191595D02*
X43640475Y-45167786D01*
X43640475Y-45167786D02*
X43616666Y-45120166D01*
X43616666Y-45120166D02*
X43616666Y-45096357D01*
X43616666Y-45096357D02*
X43640475Y-45048738D01*
X43640475Y-45048738D02*
X43688094Y-45024928D01*
X43688094Y-45024928D02*
X43759523Y-45024928D01*
X43759523Y-45024928D02*
X43807142Y-45001119D01*
X43807142Y-45001119D02*
X43830951Y-44953500D01*
X43830951Y-44953500D02*
X43830951Y-44929690D01*
X43830951Y-44929690D02*
X43807142Y-44882071D01*
X43807142Y-44882071D02*
X43759523Y-44858262D01*
X43759523Y-44858262D02*
X43688094Y-44858262D01*
X43688094Y-44858262D02*
X43640475Y-44882071D01*
X71246952Y-39626619D02*
X71294571Y-39602809D01*
X71294571Y-39602809D02*
X71366000Y-39602809D01*
X71366000Y-39602809D02*
X71437428Y-39626619D01*
X71437428Y-39626619D02*
X71485047Y-39674238D01*
X71485047Y-39674238D02*
X71508857Y-39721857D01*
X71508857Y-39721857D02*
X71532666Y-39817095D01*
X71532666Y-39817095D02*
X71532666Y-39888523D01*
X71532666Y-39888523D02*
X71508857Y-39983761D01*
X71508857Y-39983761D02*
X71485047Y-40031380D01*
X71485047Y-40031380D02*
X71437428Y-40079000D01*
X71437428Y-40079000D02*
X71366000Y-40102809D01*
X71366000Y-40102809D02*
X71318381Y-40102809D01*
X71318381Y-40102809D02*
X71246952Y-40079000D01*
X71246952Y-40079000D02*
X71223143Y-40055190D01*
X71223143Y-40055190D02*
X71223143Y-39888523D01*
X71223143Y-39888523D02*
X71318381Y-39888523D01*
X71008857Y-40102809D02*
X71008857Y-39602809D01*
X71008857Y-39602809D02*
X70723143Y-40102809D01*
X70723143Y-40102809D02*
X70723143Y-39602809D01*
X70485047Y-40102809D02*
X70485047Y-39602809D01*
X70485047Y-39602809D02*
X70365999Y-39602809D01*
X70365999Y-39602809D02*
X70294571Y-39626619D01*
X70294571Y-39626619D02*
X70246952Y-39674238D01*
X70246952Y-39674238D02*
X70223142Y-39721857D01*
X70223142Y-39721857D02*
X70199333Y-39817095D01*
X70199333Y-39817095D02*
X70199333Y-39888523D01*
X70199333Y-39888523D02*
X70223142Y-39983761D01*
X70223142Y-39983761D02*
X70246952Y-40031380D01*
X70246952Y-40031380D02*
X70294571Y-40079000D01*
X70294571Y-40079000D02*
X70365999Y-40102809D01*
X70365999Y-40102809D02*
X70485047Y-40102809D01*
X59089309Y-38078623D02*
X59089309Y-37840528D01*
X59089309Y-37840528D02*
X58589309Y-37840528D01*
X59089309Y-38245290D02*
X58755976Y-38245290D01*
X58589309Y-38245290D02*
X58613119Y-38221481D01*
X58613119Y-38221481D02*
X58636928Y-38245290D01*
X58636928Y-38245290D02*
X58613119Y-38269100D01*
X58613119Y-38269100D02*
X58589309Y-38245290D01*
X58589309Y-38245290D02*
X58636928Y-38245290D01*
X59089309Y-38483385D02*
X58589309Y-38483385D01*
X58589309Y-38483385D02*
X58589309Y-38673861D01*
X58589309Y-38673861D02*
X58613119Y-38721480D01*
X58613119Y-38721480D02*
X58636928Y-38745290D01*
X58636928Y-38745290D02*
X58684547Y-38769099D01*
X58684547Y-38769099D02*
X58755976Y-38769099D01*
X58755976Y-38769099D02*
X58803595Y-38745290D01*
X58803595Y-38745290D02*
X58827404Y-38721480D01*
X58827404Y-38721480D02*
X58851214Y-38673861D01*
X58851214Y-38673861D02*
X58851214Y-38483385D01*
X59089309Y-39054814D02*
X59065500Y-39007195D01*
X59065500Y-39007195D02*
X59041690Y-38983385D01*
X59041690Y-38983385D02*
X58994071Y-38959576D01*
X58994071Y-38959576D02*
X58851214Y-38959576D01*
X58851214Y-38959576D02*
X58803595Y-38983385D01*
X58803595Y-38983385D02*
X58779785Y-39007195D01*
X58779785Y-39007195D02*
X58755976Y-39054814D01*
X58755976Y-39054814D02*
X58755976Y-39126242D01*
X58755976Y-39126242D02*
X58779785Y-39173861D01*
X58779785Y-39173861D02*
X58803595Y-39197671D01*
X58803595Y-39197671D02*
X58851214Y-39221480D01*
X58851214Y-39221480D02*
X58994071Y-39221480D01*
X58994071Y-39221480D02*
X59041690Y-39197671D01*
X59041690Y-39197671D02*
X59065500Y-39173861D01*
X59065500Y-39173861D02*
X59089309Y-39126242D01*
X59089309Y-39126242D02*
X59089309Y-39054814D01*
X52462856Y-44362814D02*
X52391428Y-44386623D01*
X52391428Y-44386623D02*
X52272380Y-44386623D01*
X52272380Y-44386623D02*
X52224761Y-44362814D01*
X52224761Y-44362814D02*
X52200952Y-44339004D01*
X52200952Y-44339004D02*
X52177142Y-44291385D01*
X52177142Y-44291385D02*
X52177142Y-44243766D01*
X52177142Y-44243766D02*
X52200952Y-44196147D01*
X52200952Y-44196147D02*
X52224761Y-44172337D01*
X52224761Y-44172337D02*
X52272380Y-44148528D01*
X52272380Y-44148528D02*
X52367618Y-44124718D01*
X52367618Y-44124718D02*
X52415237Y-44100909D01*
X52415237Y-44100909D02*
X52439047Y-44077099D01*
X52439047Y-44077099D02*
X52462856Y-44029480D01*
X52462856Y-44029480D02*
X52462856Y-43981861D01*
X52462856Y-43981861D02*
X52439047Y-43934242D01*
X52439047Y-43934242D02*
X52415237Y-43910433D01*
X52415237Y-43910433D02*
X52367618Y-43886623D01*
X52367618Y-43886623D02*
X52248571Y-43886623D01*
X52248571Y-43886623D02*
X52177142Y-43910433D01*
X51962857Y-44386623D02*
X51962857Y-43886623D01*
X51962857Y-43886623D02*
X51843809Y-43886623D01*
X51843809Y-43886623D02*
X51772381Y-43910433D01*
X51772381Y-43910433D02*
X51724762Y-43958052D01*
X51724762Y-43958052D02*
X51700952Y-44005671D01*
X51700952Y-44005671D02*
X51677143Y-44100909D01*
X51677143Y-44100909D02*
X51677143Y-44172337D01*
X51677143Y-44172337D02*
X51700952Y-44267575D01*
X51700952Y-44267575D02*
X51724762Y-44315194D01*
X51724762Y-44315194D02*
X51772381Y-44362814D01*
X51772381Y-44362814D02*
X51843809Y-44386623D01*
X51843809Y-44386623D02*
X51962857Y-44386623D01*
X52165238Y-45143976D02*
X52189047Y-45167786D01*
X52189047Y-45167786D02*
X52260476Y-45191595D01*
X52260476Y-45191595D02*
X52308095Y-45191595D01*
X52308095Y-45191595D02*
X52379523Y-45167786D01*
X52379523Y-45167786D02*
X52427142Y-45120166D01*
X52427142Y-45120166D02*
X52450952Y-45072547D01*
X52450952Y-45072547D02*
X52474761Y-44977309D01*
X52474761Y-44977309D02*
X52474761Y-44905881D01*
X52474761Y-44905881D02*
X52450952Y-44810643D01*
X52450952Y-44810643D02*
X52427142Y-44763024D01*
X52427142Y-44763024D02*
X52379523Y-44715405D01*
X52379523Y-44715405D02*
X52308095Y-44691595D01*
X52308095Y-44691595D02*
X52260476Y-44691595D01*
X52260476Y-44691595D02*
X52189047Y-44715405D01*
X52189047Y-44715405D02*
X52165238Y-44739214D01*
X51950952Y-45191595D02*
X51950952Y-44691595D01*
X51950952Y-44691595D02*
X51831904Y-44691595D01*
X51831904Y-44691595D02*
X51760476Y-44715405D01*
X51760476Y-44715405D02*
X51712857Y-44763024D01*
X51712857Y-44763024D02*
X51689047Y-44810643D01*
X51689047Y-44810643D02*
X51665238Y-44905881D01*
X51665238Y-44905881D02*
X51665238Y-44977309D01*
X51665238Y-44977309D02*
X51689047Y-45072547D01*
X51689047Y-45072547D02*
X51712857Y-45120166D01*
X51712857Y-45120166D02*
X51760476Y-45167786D01*
X51760476Y-45167786D02*
X51831904Y-45191595D01*
X51831904Y-45191595D02*
X51950952Y-45191595D01*
X66889237Y-41380809D02*
X66579713Y-41380809D01*
X66579713Y-41380809D02*
X66746380Y-41571285D01*
X66746380Y-41571285D02*
X66674951Y-41571285D01*
X66674951Y-41571285D02*
X66627332Y-41595095D01*
X66627332Y-41595095D02*
X66603523Y-41618904D01*
X66603523Y-41618904D02*
X66579713Y-41666523D01*
X66579713Y-41666523D02*
X66579713Y-41785571D01*
X66579713Y-41785571D02*
X66603523Y-41833190D01*
X66603523Y-41833190D02*
X66627332Y-41857000D01*
X66627332Y-41857000D02*
X66674951Y-41880809D01*
X66674951Y-41880809D02*
X66817808Y-41880809D01*
X66817808Y-41880809D02*
X66865427Y-41857000D01*
X66865427Y-41857000D02*
X66889237Y-41833190D01*
X66413047Y-41547476D02*
X66293999Y-41880809D01*
X66293999Y-41880809D02*
X66174952Y-41547476D01*
X66032095Y-41380809D02*
X65722571Y-41380809D01*
X65722571Y-41380809D02*
X65889238Y-41571285D01*
X65889238Y-41571285D02*
X65817809Y-41571285D01*
X65817809Y-41571285D02*
X65770190Y-41595095D01*
X65770190Y-41595095D02*
X65746381Y-41618904D01*
X65746381Y-41618904D02*
X65722571Y-41666523D01*
X65722571Y-41666523D02*
X65722571Y-41785571D01*
X65722571Y-41785571D02*
X65746381Y-41833190D01*
X65746381Y-41833190D02*
X65770190Y-41857000D01*
X65770190Y-41857000D02*
X65817809Y-41880809D01*
X65817809Y-41880809D02*
X65960666Y-41880809D01*
X65960666Y-41880809D02*
X66008285Y-41857000D01*
X66008285Y-41857000D02*
X66032095Y-41833190D01*
X64528090Y-38051633D02*
X64551900Y-38027824D01*
X64551900Y-38027824D02*
X64575709Y-37956395D01*
X64575709Y-37956395D02*
X64575709Y-37908776D01*
X64575709Y-37908776D02*
X64551900Y-37837348D01*
X64551900Y-37837348D02*
X64504280Y-37789729D01*
X64504280Y-37789729D02*
X64456661Y-37765919D01*
X64456661Y-37765919D02*
X64361423Y-37742110D01*
X64361423Y-37742110D02*
X64289995Y-37742110D01*
X64289995Y-37742110D02*
X64194757Y-37765919D01*
X64194757Y-37765919D02*
X64147138Y-37789729D01*
X64147138Y-37789729D02*
X64099519Y-37837348D01*
X64099519Y-37837348D02*
X64075709Y-37908776D01*
X64075709Y-37908776D02*
X64075709Y-37956395D01*
X64075709Y-37956395D02*
X64099519Y-38027824D01*
X64099519Y-38027824D02*
X64123328Y-38051633D01*
X64575709Y-38337348D02*
X64551900Y-38289729D01*
X64551900Y-38289729D02*
X64528090Y-38265919D01*
X64528090Y-38265919D02*
X64480471Y-38242110D01*
X64480471Y-38242110D02*
X64337614Y-38242110D01*
X64337614Y-38242110D02*
X64289995Y-38265919D01*
X64289995Y-38265919D02*
X64266185Y-38289729D01*
X64266185Y-38289729D02*
X64242376Y-38337348D01*
X64242376Y-38337348D02*
X64242376Y-38408776D01*
X64242376Y-38408776D02*
X64266185Y-38456395D01*
X64266185Y-38456395D02*
X64289995Y-38480205D01*
X64289995Y-38480205D02*
X64337614Y-38504014D01*
X64337614Y-38504014D02*
X64480471Y-38504014D01*
X64480471Y-38504014D02*
X64528090Y-38480205D01*
X64528090Y-38480205D02*
X64551900Y-38456395D01*
X64551900Y-38456395D02*
X64575709Y-38408776D01*
X64575709Y-38408776D02*
X64575709Y-38337348D01*
X64575709Y-38718300D02*
X64242376Y-38718300D01*
X64075709Y-38718300D02*
X64099519Y-38694491D01*
X64099519Y-38694491D02*
X64123328Y-38718300D01*
X64123328Y-38718300D02*
X64099519Y-38742110D01*
X64099519Y-38742110D02*
X64075709Y-38718300D01*
X64075709Y-38718300D02*
X64123328Y-38718300D01*
X64242376Y-38956395D02*
X64575709Y-38956395D01*
X64289995Y-38956395D02*
X64266185Y-38980205D01*
X64266185Y-38980205D02*
X64242376Y-39027824D01*
X64242376Y-39027824D02*
X64242376Y-39099252D01*
X64242376Y-39099252D02*
X64266185Y-39146871D01*
X64266185Y-39146871D02*
X64313804Y-39170681D01*
X64313804Y-39170681D02*
X64575709Y-39170681D01*
X66488709Y-33784433D02*
X66845852Y-33784433D01*
X66845852Y-33784433D02*
X66917280Y-33760624D01*
X66917280Y-33760624D02*
X66964900Y-33713005D01*
X66964900Y-33713005D02*
X66988709Y-33641576D01*
X66988709Y-33641576D02*
X66988709Y-33593957D01*
X66988709Y-34022528D02*
X66488709Y-34022528D01*
X66488709Y-34022528D02*
X66488709Y-34213004D01*
X66488709Y-34213004D02*
X66512519Y-34260623D01*
X66512519Y-34260623D02*
X66536328Y-34284433D01*
X66536328Y-34284433D02*
X66583947Y-34308242D01*
X66583947Y-34308242D02*
X66655376Y-34308242D01*
X66655376Y-34308242D02*
X66702995Y-34284433D01*
X66702995Y-34284433D02*
X66726804Y-34260623D01*
X66726804Y-34260623D02*
X66750614Y-34213004D01*
X66750614Y-34213004D02*
X66750614Y-34022528D01*
X66488709Y-34474909D02*
X66488709Y-34784433D01*
X66488709Y-34784433D02*
X66679185Y-34617766D01*
X66679185Y-34617766D02*
X66679185Y-34689195D01*
X66679185Y-34689195D02*
X66702995Y-34736814D01*
X66702995Y-34736814D02*
X66726804Y-34760623D01*
X66726804Y-34760623D02*
X66774423Y-34784433D01*
X66774423Y-34784433D02*
X66893471Y-34784433D01*
X66893471Y-34784433D02*
X66941090Y-34760623D01*
X66941090Y-34760623D02*
X66964900Y-34736814D01*
X66964900Y-34736814D02*
X66988709Y-34689195D01*
X66988709Y-34689195D02*
X66988709Y-34546338D01*
X66988709Y-34546338D02*
X66964900Y-34498719D01*
X66964900Y-34498719D02*
X66941090Y-34474909D01*
X42634904Y-35027443D02*
X42658714Y-35098871D01*
X42658714Y-35098871D02*
X42682523Y-35122681D01*
X42682523Y-35122681D02*
X42730142Y-35146490D01*
X42730142Y-35146490D02*
X42801571Y-35146490D01*
X42801571Y-35146490D02*
X42849190Y-35122681D01*
X42849190Y-35122681D02*
X42873000Y-35098871D01*
X42873000Y-35098871D02*
X42896809Y-35051252D01*
X42896809Y-35051252D02*
X42896809Y-34860776D01*
X42896809Y-34860776D02*
X42396809Y-34860776D01*
X42396809Y-34860776D02*
X42396809Y-35027443D01*
X42396809Y-35027443D02*
X42420619Y-35075062D01*
X42420619Y-35075062D02*
X42444428Y-35098871D01*
X42444428Y-35098871D02*
X42492047Y-35122681D01*
X42492047Y-35122681D02*
X42539666Y-35122681D01*
X42539666Y-35122681D02*
X42587285Y-35098871D01*
X42587285Y-35098871D02*
X42611095Y-35075062D01*
X42611095Y-35075062D02*
X42634904Y-35027443D01*
X42634904Y-35027443D02*
X42634904Y-34860776D01*
X42396809Y-35289348D02*
X42396809Y-35575062D01*
X42896809Y-35432205D02*
X42396809Y-35432205D01*
X42896809Y-36003633D02*
X42896809Y-35717919D01*
X42896809Y-35860776D02*
X42396809Y-35860776D01*
X42396809Y-35860776D02*
X42468238Y-35813157D01*
X42468238Y-35813157D02*
X42515857Y-35765538D01*
X42515857Y-35765538D02*
X42539666Y-35717919D01*
D12*
X32873791Y-42900382D02*
X32873791Y-43967619D01*
X33407409Y-43434000D02*
X32340172Y-43434000D01*
D11*
X62646666Y-36808809D02*
X62646666Y-37165952D01*
X62646666Y-37165952D02*
X62670475Y-37237380D01*
X62670475Y-37237380D02*
X62718094Y-37285000D01*
X62718094Y-37285000D02*
X62789523Y-37308809D01*
X62789523Y-37308809D02*
X62837142Y-37308809D01*
X62408571Y-37308809D02*
X62408571Y-36808809D01*
X62408571Y-36808809D02*
X62218095Y-36808809D01*
X62218095Y-36808809D02*
X62170476Y-36832619D01*
X62170476Y-36832619D02*
X62146666Y-36856428D01*
X62146666Y-36856428D02*
X62122857Y-36904047D01*
X62122857Y-36904047D02*
X62122857Y-36975476D01*
X62122857Y-36975476D02*
X62146666Y-37023095D01*
X62146666Y-37023095D02*
X62170476Y-37046904D01*
X62170476Y-37046904D02*
X62218095Y-37070714D01*
X62218095Y-37070714D02*
X62408571Y-37070714D01*
X61694285Y-36808809D02*
X61789523Y-36808809D01*
X61789523Y-36808809D02*
X61837142Y-36832619D01*
X61837142Y-36832619D02*
X61860952Y-36856428D01*
X61860952Y-36856428D02*
X61908571Y-36927857D01*
X61908571Y-36927857D02*
X61932380Y-37023095D01*
X61932380Y-37023095D02*
X61932380Y-37213571D01*
X61932380Y-37213571D02*
X61908571Y-37261190D01*
X61908571Y-37261190D02*
X61884761Y-37285000D01*
X61884761Y-37285000D02*
X61837142Y-37308809D01*
X61837142Y-37308809D02*
X61741904Y-37308809D01*
X61741904Y-37308809D02*
X61694285Y-37285000D01*
X61694285Y-37285000D02*
X61670476Y-37261190D01*
X61670476Y-37261190D02*
X61646666Y-37213571D01*
X61646666Y-37213571D02*
X61646666Y-37094523D01*
X61646666Y-37094523D02*
X61670476Y-37046904D01*
X61670476Y-37046904D02*
X61694285Y-37023095D01*
X61694285Y-37023095D02*
X61741904Y-36999285D01*
X61741904Y-36999285D02*
X61837142Y-36999285D01*
X61837142Y-36999285D02*
X61884761Y-37023095D01*
X61884761Y-37023095D02*
X61908571Y-37046904D01*
X61908571Y-37046904D02*
X61932380Y-37094523D01*
X64305331Y-40356809D02*
X64471997Y-40118714D01*
X64591045Y-40356809D02*
X64591045Y-39856809D01*
X64591045Y-39856809D02*
X64400569Y-39856809D01*
X64400569Y-39856809D02*
X64352950Y-39880619D01*
X64352950Y-39880619D02*
X64329140Y-39904428D01*
X64329140Y-39904428D02*
X64305331Y-39952047D01*
X64305331Y-39952047D02*
X64305331Y-40023476D01*
X64305331Y-40023476D02*
X64329140Y-40071095D01*
X64329140Y-40071095D02*
X64352950Y-40094904D01*
X64352950Y-40094904D02*
X64400569Y-40118714D01*
X64400569Y-40118714D02*
X64591045Y-40118714D01*
X64162473Y-39856809D02*
X63876759Y-39856809D01*
X64019616Y-40356809D02*
X64019616Y-39856809D01*
X63424379Y-40309190D02*
X63448188Y-40333000D01*
X63448188Y-40333000D02*
X63519617Y-40356809D01*
X63519617Y-40356809D02*
X63567236Y-40356809D01*
X63567236Y-40356809D02*
X63638664Y-40333000D01*
X63638664Y-40333000D02*
X63686283Y-40285380D01*
X63686283Y-40285380D02*
X63710093Y-40237761D01*
X63710093Y-40237761D02*
X63733902Y-40142523D01*
X63733902Y-40142523D02*
X63733902Y-40071095D01*
X63733902Y-40071095D02*
X63710093Y-39975857D01*
X63710093Y-39975857D02*
X63686283Y-39928238D01*
X63686283Y-39928238D02*
X63638664Y-39880619D01*
X63638664Y-39880619D02*
X63567236Y-39856809D01*
X63567236Y-39856809D02*
X63519617Y-39856809D01*
X63519617Y-39856809D02*
X63448188Y-39880619D01*
X63448188Y-39880619D02*
X63424379Y-39904428D01*
X62662474Y-40094904D02*
X62591046Y-40118714D01*
X62591046Y-40118714D02*
X62567236Y-40142523D01*
X62567236Y-40142523D02*
X62543427Y-40190142D01*
X62543427Y-40190142D02*
X62543427Y-40261571D01*
X62543427Y-40261571D02*
X62567236Y-40309190D01*
X62567236Y-40309190D02*
X62591046Y-40333000D01*
X62591046Y-40333000D02*
X62638665Y-40356809D01*
X62638665Y-40356809D02*
X62829141Y-40356809D01*
X62829141Y-40356809D02*
X62829141Y-39856809D01*
X62829141Y-39856809D02*
X62662474Y-39856809D01*
X62662474Y-39856809D02*
X62614855Y-39880619D01*
X62614855Y-39880619D02*
X62591046Y-39904428D01*
X62591046Y-39904428D02*
X62567236Y-39952047D01*
X62567236Y-39952047D02*
X62567236Y-39999666D01*
X62567236Y-39999666D02*
X62591046Y-40047285D01*
X62591046Y-40047285D02*
X62614855Y-40071095D01*
X62614855Y-40071095D02*
X62662474Y-40094904D01*
X62662474Y-40094904D02*
X62829141Y-40094904D01*
X62114855Y-40356809D02*
X62114855Y-40094904D01*
X62114855Y-40094904D02*
X62138665Y-40047285D01*
X62138665Y-40047285D02*
X62186284Y-40023476D01*
X62186284Y-40023476D02*
X62281522Y-40023476D01*
X62281522Y-40023476D02*
X62329141Y-40047285D01*
X62114855Y-40333000D02*
X62162474Y-40356809D01*
X62162474Y-40356809D02*
X62281522Y-40356809D01*
X62281522Y-40356809D02*
X62329141Y-40333000D01*
X62329141Y-40333000D02*
X62352950Y-40285380D01*
X62352950Y-40285380D02*
X62352950Y-40237761D01*
X62352950Y-40237761D02*
X62329141Y-40190142D01*
X62329141Y-40190142D02*
X62281522Y-40166333D01*
X62281522Y-40166333D02*
X62162474Y-40166333D01*
X62162474Y-40166333D02*
X62114855Y-40142523D01*
X61948188Y-40023476D02*
X61757712Y-40023476D01*
X61876760Y-39856809D02*
X61876760Y-40285380D01*
X61876760Y-40285380D02*
X61852950Y-40333000D01*
X61852950Y-40333000D02*
X61805331Y-40356809D01*
X61805331Y-40356809D02*
X61757712Y-40356809D01*
X61662474Y-40023476D02*
X61471998Y-40023476D01*
X61591046Y-39856809D02*
X61591046Y-40285380D01*
X61591046Y-40285380D02*
X61567236Y-40333000D01*
X61567236Y-40333000D02*
X61519617Y-40356809D01*
X61519617Y-40356809D02*
X61471998Y-40356809D01*
X60948189Y-40333000D02*
X60876761Y-40356809D01*
X60876761Y-40356809D02*
X60757713Y-40356809D01*
X60757713Y-40356809D02*
X60710094Y-40333000D01*
X60710094Y-40333000D02*
X60686285Y-40309190D01*
X60686285Y-40309190D02*
X60662475Y-40261571D01*
X60662475Y-40261571D02*
X60662475Y-40213952D01*
X60662475Y-40213952D02*
X60686285Y-40166333D01*
X60686285Y-40166333D02*
X60710094Y-40142523D01*
X60710094Y-40142523D02*
X60757713Y-40118714D01*
X60757713Y-40118714D02*
X60852951Y-40094904D01*
X60852951Y-40094904D02*
X60900570Y-40071095D01*
X60900570Y-40071095D02*
X60924380Y-40047285D01*
X60924380Y-40047285D02*
X60948189Y-39999666D01*
X60948189Y-39999666D02*
X60948189Y-39952047D01*
X60948189Y-39952047D02*
X60924380Y-39904428D01*
X60924380Y-39904428D02*
X60900570Y-39880619D01*
X60900570Y-39880619D02*
X60852951Y-39856809D01*
X60852951Y-39856809D02*
X60733904Y-39856809D01*
X60733904Y-39856809D02*
X60662475Y-39880619D01*
X60257714Y-40333000D02*
X60305333Y-40356809D01*
X60305333Y-40356809D02*
X60400571Y-40356809D01*
X60400571Y-40356809D02*
X60448190Y-40333000D01*
X60448190Y-40333000D02*
X60471999Y-40285380D01*
X60471999Y-40285380D02*
X60471999Y-40094904D01*
X60471999Y-40094904D02*
X60448190Y-40047285D01*
X60448190Y-40047285D02*
X60400571Y-40023476D01*
X60400571Y-40023476D02*
X60305333Y-40023476D01*
X60305333Y-40023476D02*
X60257714Y-40047285D01*
X60257714Y-40047285D02*
X60233904Y-40094904D01*
X60233904Y-40094904D02*
X60233904Y-40142523D01*
X60233904Y-40142523D02*
X60471999Y-40190142D01*
X59948190Y-40356809D02*
X59995809Y-40333000D01*
X59995809Y-40333000D02*
X60019619Y-40285380D01*
X60019619Y-40285380D02*
X60019619Y-39856809D01*
X59567238Y-40333000D02*
X59614857Y-40356809D01*
X59614857Y-40356809D02*
X59710095Y-40356809D01*
X59710095Y-40356809D02*
X59757714Y-40333000D01*
X59757714Y-40333000D02*
X59781523Y-40285380D01*
X59781523Y-40285380D02*
X59781523Y-40094904D01*
X59781523Y-40094904D02*
X59757714Y-40047285D01*
X59757714Y-40047285D02*
X59710095Y-40023476D01*
X59710095Y-40023476D02*
X59614857Y-40023476D01*
X59614857Y-40023476D02*
X59567238Y-40047285D01*
X59567238Y-40047285D02*
X59543428Y-40094904D01*
X59543428Y-40094904D02*
X59543428Y-40142523D01*
X59543428Y-40142523D02*
X59781523Y-40190142D01*
X59114857Y-40333000D02*
X59162476Y-40356809D01*
X59162476Y-40356809D02*
X59257714Y-40356809D01*
X59257714Y-40356809D02*
X59305333Y-40333000D01*
X59305333Y-40333000D02*
X59329143Y-40309190D01*
X59329143Y-40309190D02*
X59352952Y-40261571D01*
X59352952Y-40261571D02*
X59352952Y-40118714D01*
X59352952Y-40118714D02*
X59329143Y-40071095D01*
X59329143Y-40071095D02*
X59305333Y-40047285D01*
X59305333Y-40047285D02*
X59257714Y-40023476D01*
X59257714Y-40023476D02*
X59162476Y-40023476D01*
X59162476Y-40023476D02*
X59114857Y-40047285D01*
X58972000Y-40023476D02*
X58781524Y-40023476D01*
X58900572Y-39856809D02*
X58900572Y-40285380D01*
X58900572Y-40285380D02*
X58876762Y-40333000D01*
X58876762Y-40333000D02*
X58829143Y-40356809D01*
X58829143Y-40356809D02*
X58781524Y-40356809D01*
D13*
X30420000Y-48320000D02*
X30420000Y-45660000D01*
X68580000Y-45660000D02*
X30420000Y-45660000D01*
X68580000Y-48320000D02*
X30420000Y-48320000D01*
X68580000Y-48320000D02*
X68580000Y-45660000D01*
X69850000Y-48320000D02*
X71180000Y-48320000D01*
X71180000Y-48320000D02*
X71180000Y-46990000D01*
X40580000Y-28000000D02*
X40580000Y-25340000D01*
X68580000Y-25340000D02*
X40580000Y-25340000D01*
X68580000Y-28000000D02*
X40580000Y-28000000D01*
X68580000Y-28000000D02*
X68580000Y-25340000D01*
X69850000Y-28000000D02*
X71180000Y-28000000D01*
X71180000Y-28000000D02*
X71180000Y-26670000D01*
X28954000Y-35876620D02*
X28954000Y-36157780D01*
X29974000Y-35876620D02*
X29974000Y-36157780D01*
X65725800Y-35939500D02*
X65725800Y-37339500D01*
X66425800Y-38039500D02*
X67025800Y-38039500D01*
X67025800Y-35239500D02*
X66425800Y-35239500D01*
X67725800Y-37339500D02*
X67725800Y-35939500D01*
X65725800Y-35939500D02*
G75*
G02*
X66425800Y-35239500I699999J1D01*
G01*
X66425800Y-38039500D02*
G75*
G02*
X65725800Y-37339500I0J700000D01*
G01*
X67025800Y-35239500D02*
G75*
G02*
X67725800Y-35939500I1J-699999D01*
G01*
X67725800Y-37339500D02*
G75*
G02*
X67025800Y-38039500I-700000J0D01*
G01*
D12*
X30735800Y-29593400D02*
X30735800Y-41323400D01*
X30735800Y-41323400D02*
X34195800Y-41323400D01*
X34195800Y-29593400D02*
X30735800Y-29593400D01*
X38295800Y-41323400D02*
X41505800Y-41323400D01*
X41505800Y-29593400D02*
X38295800Y-29593400D01*
X41505800Y-41323400D02*
X41505800Y-29593400D01*
D13*
X59545000Y-38206400D02*
X59545000Y-38806400D01*
X60195000Y-39506400D02*
X62995000Y-39506400D01*
X62995000Y-37506400D02*
X60195000Y-37506400D01*
X63645000Y-38806400D02*
X63645000Y-38206400D01*
X59545000Y-38206400D02*
G75*
G02*
X60245000Y-37506400I699999J1D01*
G01*
X60245000Y-39506400D02*
G75*
G02*
X59545000Y-38806400I-1J699999D01*
G01*
X62945000Y-37506400D02*
G75*
G02*
X63645000Y-38206400I0J-700000D01*
G01*
X63645000Y-38806400D02*
G75*
G02*
X62945000Y-39506400I-700000J0D01*
G01*
D14*
X71223228Y-37877545D02*
X71254054Y-37887168D01*
X71292016Y-37903163D01*
X71310396Y-37911759D01*
X71323661Y-37913313D01*
X71326595Y-37901398D01*
X71326598Y-37901061D01*
X71332809Y-37889687D01*
X71354231Y-37883856D01*
X71395753Y-37882214D01*
X71464912Y-37882214D01*
X71464912Y-38485779D01*
X71326595Y-38485779D01*
X71326595Y-38069627D01*
X71292210Y-38037761D01*
X71281468Y-38028704D01*
X71249470Y-38013230D01*
X71210065Y-38012610D01*
X71156412Y-38026264D01*
X71138325Y-38027129D01*
X71117108Y-38013883D01*
X71088868Y-37982400D01*
X71075169Y-37964985D01*
X71058968Y-37940397D01*
X71056471Y-37924745D01*
X71065542Y-37911541D01*
X71093389Y-37894845D01*
X71136640Y-37881630D01*
X71183564Y-37875078D01*
X71223228Y-37877545D01*
G36*
X71223228Y-37877545D02*
G01*
X71254054Y-37887168D01*
X71292016Y-37903163D01*
X71310396Y-37911759D01*
X71323661Y-37913313D01*
X71326595Y-37901398D01*
X71326598Y-37901061D01*
X71332809Y-37889687D01*
X71354231Y-37883856D01*
X71395753Y-37882214D01*
X71464912Y-37882214D01*
X71464912Y-38485779D01*
X71326595Y-38485779D01*
X71326595Y-38069627D01*
X71292210Y-38037761D01*
X71281468Y-38028704D01*
X71249470Y-38013230D01*
X71210065Y-38012610D01*
X71156412Y-38026264D01*
X71138325Y-38027129D01*
X71117108Y-38013883D01*
X71088868Y-37982400D01*
X71075169Y-37964985D01*
X71058968Y-37940397D01*
X71056471Y-37924745D01*
X71065542Y-37911541D01*
X71093389Y-37894845D01*
X71136640Y-37881630D01*
X71183564Y-37875078D01*
X71223228Y-37877545D01*
G37*
X71406365Y-38833565D02*
X71444355Y-38851345D01*
X71477486Y-38877406D01*
X71477486Y-38851345D01*
X71478311Y-38841449D01*
X71485993Y-38830958D01*
X71506767Y-38826325D01*
X71546644Y-38825283D01*
X71615803Y-38825283D01*
X71615803Y-39441422D01*
X71477486Y-39441422D01*
X71477486Y-39240826D01*
X71477469Y-39229310D01*
X71476289Y-39148358D01*
X71473394Y-39082417D01*
X71468988Y-39034858D01*
X71463281Y-39009052D01*
X71458040Y-38999310D01*
X71425776Y-38968756D01*
X71381830Y-38955231D01*
X71333843Y-38961541D01*
X71322073Y-38965817D01*
X71296998Y-38973376D01*
X71279862Y-38971028D01*
X71262618Y-38955664D01*
X71237224Y-38924171D01*
X71196036Y-38872168D01*
X71224986Y-38848725D01*
X71252505Y-38834615D01*
X71300845Y-38825086D01*
X71355330Y-38824774D01*
X71406365Y-38833565D01*
G36*
X71406365Y-38833565D02*
G01*
X71444355Y-38851345D01*
X71477486Y-38877406D01*
X71477486Y-38851345D01*
X71478311Y-38841449D01*
X71485993Y-38830958D01*
X71506767Y-38826325D01*
X71546644Y-38825283D01*
X71615803Y-38825283D01*
X71615803Y-39441422D01*
X71477486Y-39441422D01*
X71477486Y-39240826D01*
X71477469Y-39229310D01*
X71476289Y-39148358D01*
X71473394Y-39082417D01*
X71468988Y-39034858D01*
X71463281Y-39009052D01*
X71458040Y-38999310D01*
X71425776Y-38968756D01*
X71381830Y-38955231D01*
X71333843Y-38961541D01*
X71322073Y-38965817D01*
X71296998Y-38973376D01*
X71279862Y-38971028D01*
X71262618Y-38955664D01*
X71237224Y-38924171D01*
X71196036Y-38872168D01*
X71224986Y-38848725D01*
X71252505Y-38834615D01*
X71300845Y-38825086D01*
X71355330Y-38824774D01*
X71406365Y-38833565D01*
G37*
X74030060Y-39441422D02*
X73904318Y-39441422D01*
X73904318Y-39247340D01*
X73904178Y-39202194D01*
X73902749Y-39127423D01*
X73899129Y-39072067D01*
X73892534Y-39032302D01*
X73882179Y-39004300D01*
X73867278Y-38984235D01*
X73847046Y-38968281D01*
X73824959Y-38956392D01*
X73798805Y-38953021D01*
X73761608Y-38960517D01*
X73749655Y-38963638D01*
X73719818Y-38968335D01*
X73698483Y-38961605D01*
X73673755Y-38940777D01*
X73669063Y-38936247D01*
X73643120Y-38908226D01*
X73626391Y-38885443D01*
X73624096Y-38879955D01*
X73628643Y-38859688D01*
X73651702Y-38843484D01*
X73688095Y-38832113D01*
X73732644Y-38826340D01*
X73780172Y-38826934D01*
X73825500Y-38834663D01*
X73863451Y-38850294D01*
X73875481Y-38857593D01*
X73895732Y-38868276D01*
X73903229Y-38865830D01*
X73904318Y-38850247D01*
X73904573Y-38844653D01*
X73910639Y-38832260D01*
X73929456Y-38826620D01*
X73967189Y-38825283D01*
X74030060Y-38825283D01*
X74030060Y-39441422D01*
G36*
X74030060Y-39441422D02*
G01*
X73904318Y-39441422D01*
X73904318Y-39247340D01*
X73904178Y-39202194D01*
X73902749Y-39127423D01*
X73899129Y-39072067D01*
X73892534Y-39032302D01*
X73882179Y-39004300D01*
X73867278Y-38984235D01*
X73847046Y-38968281D01*
X73824959Y-38956392D01*
X73798805Y-38953021D01*
X73761608Y-38960517D01*
X73749655Y-38963638D01*
X73719818Y-38968335D01*
X73698483Y-38961605D01*
X73673755Y-38940777D01*
X73669063Y-38936247D01*
X73643120Y-38908226D01*
X73626391Y-38885443D01*
X73624096Y-38879955D01*
X73628643Y-38859688D01*
X73651702Y-38843484D01*
X73688095Y-38832113D01*
X73732644Y-38826340D01*
X73780172Y-38826934D01*
X73825500Y-38834663D01*
X73863451Y-38850294D01*
X73875481Y-38857593D01*
X73895732Y-38868276D01*
X73903229Y-38865830D01*
X73904318Y-38850247D01*
X73904573Y-38844653D01*
X73910639Y-38832260D01*
X73929456Y-38826620D01*
X73967189Y-38825283D01*
X74030060Y-38825283D01*
X74030060Y-39441422D01*
G37*
X71716397Y-38077942D02*
X71717457Y-38165994D01*
X71721609Y-38237110D01*
X71730021Y-38288799D01*
X71743857Y-38323960D01*
X71764282Y-38345489D01*
X71792464Y-38356282D01*
X71829565Y-38359236D01*
X71864990Y-38356600D01*
X71893600Y-38346279D01*
X71914396Y-38325372D01*
X71928542Y-38290981D01*
X71937203Y-38240210D01*
X71941545Y-38170163D01*
X71942733Y-38077942D01*
X71942733Y-37882214D01*
X72068476Y-37882214D01*
X72068476Y-38118178D01*
X72068260Y-38181161D01*
X72066584Y-38262607D01*
X72062377Y-38324721D01*
X72054621Y-38371058D01*
X72042296Y-38405173D01*
X72024385Y-38430622D01*
X71999867Y-38450962D01*
X71967723Y-38469747D01*
X71900225Y-38493528D01*
X71829781Y-38495080D01*
X71763364Y-38473180D01*
X71734386Y-38458983D01*
X71720009Y-38456861D01*
X71716397Y-38466893D01*
X71710399Y-38478156D01*
X71688930Y-38484089D01*
X71647238Y-38485779D01*
X71578080Y-38485779D01*
X71578080Y-37882214D01*
X71716397Y-37882214D01*
X71716397Y-38077942D01*
G36*
X71716397Y-38077942D02*
G01*
X71717457Y-38165994D01*
X71721609Y-38237110D01*
X71730021Y-38288799D01*
X71743857Y-38323960D01*
X71764282Y-38345489D01*
X71792464Y-38356282D01*
X71829565Y-38359236D01*
X71864990Y-38356600D01*
X71893600Y-38346279D01*
X71914396Y-38325372D01*
X71928542Y-38290981D01*
X71937203Y-38240210D01*
X71941545Y-38170163D01*
X71942733Y-38077942D01*
X71942733Y-37882214D01*
X72068476Y-37882214D01*
X72068476Y-38118178D01*
X72068260Y-38181161D01*
X72066584Y-38262607D01*
X72062377Y-38324721D01*
X72054621Y-38371058D01*
X72042296Y-38405173D01*
X72024385Y-38430622D01*
X71999867Y-38450962D01*
X71967723Y-38469747D01*
X71900225Y-38493528D01*
X71829781Y-38495080D01*
X71763364Y-38473180D01*
X71734386Y-38458983D01*
X71720009Y-38456861D01*
X71716397Y-38466893D01*
X71710399Y-38478156D01*
X71688930Y-38484089D01*
X71647238Y-38485779D01*
X71578080Y-38485779D01*
X71578080Y-37882214D01*
X71716397Y-37882214D01*
X71716397Y-38077942D01*
G37*
X73818705Y-37881024D02*
X73876026Y-37899034D01*
X73901299Y-37911274D01*
X73914010Y-37912538D01*
X73916892Y-37901398D01*
X73916895Y-37901061D01*
X73923106Y-37889687D01*
X73944528Y-37883856D01*
X73986050Y-37882214D01*
X74055209Y-37882214D01*
X74055209Y-38485779D01*
X73916892Y-38485779D01*
X73916892Y-38277732D01*
X73916797Y-38207479D01*
X73916151Y-38149770D01*
X73914420Y-38109387D01*
X73911074Y-38082215D01*
X73905581Y-38064140D01*
X73897410Y-38051047D01*
X73886028Y-38038821D01*
X73870524Y-38025817D01*
X73825943Y-38008345D01*
X73779147Y-38013473D01*
X73736280Y-38041107D01*
X73724027Y-38053968D01*
X73715232Y-38066984D01*
X73709333Y-38084306D01*
X73705751Y-38110101D01*
X73703909Y-38148539D01*
X73703228Y-38203789D01*
X73703130Y-38280018D01*
X73703130Y-38485779D01*
X73564813Y-38485779D01*
X73565089Y-38262585D01*
X73565108Y-38252644D01*
X73566307Y-38157706D01*
X73569991Y-38083958D01*
X73577106Y-38027814D01*
X73588600Y-37985687D01*
X73605418Y-37953991D01*
X73628509Y-37929141D01*
X73658817Y-37907550D01*
X73690112Y-37892602D01*
X73753137Y-37879021D01*
X73818705Y-37881024D01*
G36*
X73818705Y-37881024D02*
G01*
X73876026Y-37899034D01*
X73901299Y-37911274D01*
X73914010Y-37912538D01*
X73916892Y-37901398D01*
X73916895Y-37901061D01*
X73923106Y-37889687D01*
X73944528Y-37883856D01*
X73986050Y-37882214D01*
X74055209Y-37882214D01*
X74055209Y-38485779D01*
X73916892Y-38485779D01*
X73916892Y-38277732D01*
X73916797Y-38207479D01*
X73916151Y-38149770D01*
X73914420Y-38109387D01*
X73911074Y-38082215D01*
X73905581Y-38064140D01*
X73897410Y-38051047D01*
X73886028Y-38038821D01*
X73870524Y-38025817D01*
X73825943Y-38008345D01*
X73779147Y-38013473D01*
X73736280Y-38041107D01*
X73724027Y-38053968D01*
X73715232Y-38066984D01*
X73709333Y-38084306D01*
X73705751Y-38110101D01*
X73703909Y-38148539D01*
X73703228Y-38203789D01*
X73703130Y-38280018D01*
X73703130Y-38485779D01*
X73564813Y-38485779D01*
X73565089Y-38262585D01*
X73565108Y-38252644D01*
X73566307Y-38157706D01*
X73569991Y-38083958D01*
X73577106Y-38027814D01*
X73588600Y-37985687D01*
X73605418Y-37953991D01*
X73628509Y-37929141D01*
X73658817Y-37907550D01*
X73690112Y-37892602D01*
X73753137Y-37879021D01*
X73818705Y-37881024D01*
G37*
X70869509Y-37885093D02*
X70938121Y-37911824D01*
X70996148Y-37955951D01*
X71039007Y-38016558D01*
X71041901Y-38022737D01*
X71060276Y-38083009D01*
X71069457Y-38155007D01*
X71069385Y-38229969D01*
X71060001Y-38299136D01*
X71041249Y-38353749D01*
X71018095Y-38391812D01*
X70967130Y-38445735D01*
X70903406Y-38480011D01*
X70848885Y-38493872D01*
X70765867Y-38495385D01*
X70686426Y-38474482D01*
X70615979Y-38432064D01*
X70570384Y-38394480D01*
X70611451Y-38352110D01*
X70637396Y-38327009D01*
X70660864Y-38313034D01*
X70682624Y-38316111D01*
X70710456Y-38334887D01*
X70721554Y-38342238D01*
X70768437Y-38357283D01*
X70822324Y-38357273D01*
X70872775Y-38341768D01*
X70891772Y-38329316D01*
X70919637Y-38292546D01*
X70933606Y-38238539D01*
X70934505Y-38164931D01*
X70934503Y-38164889D01*
X70924109Y-38099033D01*
X70901214Y-38053372D01*
X70863539Y-38025128D01*
X70808808Y-38011520D01*
X70774341Y-38009690D01*
X70744226Y-38017184D01*
X70713340Y-38038895D01*
X70673372Y-38072526D01*
X70622756Y-38031850D01*
X70604263Y-38016267D01*
X70581165Y-37993940D01*
X70572139Y-37980783D01*
X70575336Y-37974853D01*
X70593746Y-37956648D01*
X70623073Y-37933495D01*
X70646020Y-37918430D01*
X70718874Y-37887480D01*
X70794899Y-37876673D01*
X70869509Y-37885093D01*
G36*
X70869509Y-37885093D02*
G01*
X70938121Y-37911824D01*
X70996148Y-37955951D01*
X71039007Y-38016558D01*
X71041901Y-38022737D01*
X71060276Y-38083009D01*
X71069457Y-38155007D01*
X71069385Y-38229969D01*
X71060001Y-38299136D01*
X71041249Y-38353749D01*
X71018095Y-38391812D01*
X70967130Y-38445735D01*
X70903406Y-38480011D01*
X70848885Y-38493872D01*
X70765867Y-38495385D01*
X70686426Y-38474482D01*
X70615979Y-38432064D01*
X70570384Y-38394480D01*
X70611451Y-38352110D01*
X70637396Y-38327009D01*
X70660864Y-38313034D01*
X70682624Y-38316111D01*
X70710456Y-38334887D01*
X70721554Y-38342238D01*
X70768437Y-38357283D01*
X70822324Y-38357273D01*
X70872775Y-38341768D01*
X70891772Y-38329316D01*
X70919637Y-38292546D01*
X70933606Y-38238539D01*
X70934505Y-38164931D01*
X70934503Y-38164889D01*
X70924109Y-38099033D01*
X70901214Y-38053372D01*
X70863539Y-38025128D01*
X70808808Y-38011520D01*
X70774341Y-38009690D01*
X70744226Y-38017184D01*
X70713340Y-38038895D01*
X70673372Y-38072526D01*
X70622756Y-38031850D01*
X70604263Y-38016267D01*
X70581165Y-37993940D01*
X70572139Y-37980783D01*
X70575336Y-37974853D01*
X70593746Y-37956648D01*
X70623073Y-37933495D01*
X70646020Y-37918430D01*
X70718874Y-37887480D01*
X70794899Y-37876673D01*
X70869509Y-37885093D01*
G37*
X72668957Y-38227371D02*
X72665449Y-38267165D01*
X72649944Y-38343138D01*
X72622210Y-38401111D01*
X72579998Y-38444900D01*
X72521060Y-38478322D01*
X72498176Y-38486276D01*
X72438912Y-38496201D01*
X72376547Y-38495931D01*
X72323923Y-38485030D01*
X72322889Y-38484634D01*
X72280481Y-38459687D01*
X72237637Y-38421068D01*
X72202086Y-38376906D01*
X72181559Y-38335327D01*
X72175474Y-38304934D01*
X72170264Y-38248029D01*
X72169391Y-38197305D01*
X72296076Y-38197305D01*
X72303649Y-38258145D01*
X72321441Y-38308138D01*
X72348396Y-38340804D01*
X72358613Y-38346412D01*
X72397573Y-38356607D01*
X72442636Y-38358704D01*
X72480548Y-38351620D01*
X72495344Y-38341461D01*
X72516114Y-38305934D01*
X72529183Y-38250332D01*
X72533724Y-38177366D01*
X72533651Y-38156362D01*
X72532074Y-38113803D01*
X72526828Y-38086039D01*
X72515823Y-38065525D01*
X72496968Y-38044712D01*
X72461089Y-38019487D01*
X72414380Y-38009173D01*
X72369251Y-38018996D01*
X72331780Y-38047405D01*
X72308043Y-38092853D01*
X72299775Y-38132097D01*
X72296076Y-38197305D01*
X72169391Y-38197305D01*
X72169149Y-38183221D01*
X72171944Y-38118716D01*
X72178466Y-38062721D01*
X72188532Y-38023442D01*
X72211977Y-37978972D01*
X72261737Y-37924292D01*
X72325338Y-37889655D01*
X72400890Y-37875945D01*
X72486499Y-37884048D01*
X72500744Y-37887499D01*
X72567082Y-37917264D01*
X72617071Y-37966130D01*
X72650712Y-38034101D01*
X72668006Y-38121180D01*
X72668510Y-38177366D01*
X72668957Y-38227371D01*
G36*
X72668957Y-38227371D02*
G01*
X72665449Y-38267165D01*
X72649944Y-38343138D01*
X72622210Y-38401111D01*
X72579998Y-38444900D01*
X72521060Y-38478322D01*
X72498176Y-38486276D01*
X72438912Y-38496201D01*
X72376547Y-38495931D01*
X72323923Y-38485030D01*
X72322889Y-38484634D01*
X72280481Y-38459687D01*
X72237637Y-38421068D01*
X72202086Y-38376906D01*
X72181559Y-38335327D01*
X72175474Y-38304934D01*
X72170264Y-38248029D01*
X72169391Y-38197305D01*
X72296076Y-38197305D01*
X72303649Y-38258145D01*
X72321441Y-38308138D01*
X72348396Y-38340804D01*
X72358613Y-38346412D01*
X72397573Y-38356607D01*
X72442636Y-38358704D01*
X72480548Y-38351620D01*
X72495344Y-38341461D01*
X72516114Y-38305934D01*
X72529183Y-38250332D01*
X72533724Y-38177366D01*
X72533651Y-38156362D01*
X72532074Y-38113803D01*
X72526828Y-38086039D01*
X72515823Y-38065525D01*
X72496968Y-38044712D01*
X72461089Y-38019487D01*
X72414380Y-38009173D01*
X72369251Y-38018996D01*
X72331780Y-38047405D01*
X72308043Y-38092853D01*
X72299775Y-38132097D01*
X72296076Y-38197305D01*
X72169391Y-38197305D01*
X72169149Y-38183221D01*
X72171944Y-38118716D01*
X72178466Y-38062721D01*
X72188532Y-38023442D01*
X72211977Y-37978972D01*
X72261737Y-37924292D01*
X72325338Y-37889655D01*
X72400890Y-37875945D01*
X72486499Y-37884048D01*
X72500744Y-37887499D01*
X72567082Y-37917264D01*
X72617071Y-37966130D01*
X72650712Y-38034101D01*
X72668006Y-38121180D01*
X72668510Y-38177366D01*
X72668957Y-38227371D01*
G37*
X72769097Y-39022730D02*
X72786097Y-39073450D01*
X72806207Y-39129597D01*
X72822999Y-39172132D01*
X72835086Y-39197590D01*
X72841080Y-39202503D01*
X72842526Y-39198230D01*
X72850354Y-39172022D01*
X72862823Y-39128249D01*
X72878547Y-39071811D01*
X72896143Y-39007610D01*
X72944014Y-38831571D01*
X73017107Y-38827752D01*
X73023277Y-38827446D01*
X73062692Y-38827041D01*
X73081633Y-38831087D01*
X73084045Y-38840326D01*
X73080998Y-38849349D01*
X73070974Y-38880232D01*
X73055280Y-38929144D01*
X73035034Y-38992587D01*
X73011356Y-39067062D01*
X72985363Y-39149071D01*
X72892836Y-39441422D01*
X72777093Y-39441422D01*
X72722557Y-39255952D01*
X72712486Y-39221894D01*
X72693875Y-39159978D01*
X72677972Y-39108387D01*
X72666209Y-39071730D01*
X72660018Y-39054618D01*
X72658254Y-39053341D01*
X72649671Y-39064379D01*
X72637416Y-39093569D01*
X72623526Y-39136350D01*
X72622792Y-39138863D01*
X72604196Y-39202000D01*
X72582918Y-39273489D01*
X72563421Y-39338334D01*
X72531805Y-39442722D01*
X72473502Y-39438928D01*
X72415198Y-39435135D01*
X72361198Y-39265382D01*
X72337490Y-39190793D01*
X72310933Y-39107139D01*
X72285504Y-39026942D01*
X72264454Y-38960457D01*
X72221709Y-38825283D01*
X72364712Y-38825283D01*
X72399374Y-38954170D01*
X72408588Y-38988225D01*
X72426015Y-39051715D01*
X72442154Y-39109474D01*
X72454422Y-39152214D01*
X72474809Y-39221373D01*
X72604845Y-38831571D01*
X72654576Y-38827837D01*
X72704306Y-38824104D01*
X72769097Y-39022730D01*
G36*
X72769097Y-39022730D02*
G01*
X72786097Y-39073450D01*
X72806207Y-39129597D01*
X72822999Y-39172132D01*
X72835086Y-39197590D01*
X72841080Y-39202503D01*
X72842526Y-39198230D01*
X72850354Y-39172022D01*
X72862823Y-39128249D01*
X72878547Y-39071811D01*
X72896143Y-39007610D01*
X72944014Y-38831571D01*
X73017107Y-38827752D01*
X73023277Y-38827446D01*
X73062692Y-38827041D01*
X73081633Y-38831087D01*
X73084045Y-38840326D01*
X73080998Y-38849349D01*
X73070974Y-38880232D01*
X73055280Y-38929144D01*
X73035034Y-38992587D01*
X73011356Y-39067062D01*
X72985363Y-39149071D01*
X72892836Y-39441422D01*
X72777093Y-39441422D01*
X72722557Y-39255952D01*
X72712486Y-39221894D01*
X72693875Y-39159978D01*
X72677972Y-39108387D01*
X72666209Y-39071730D01*
X72660018Y-39054618D01*
X72658254Y-39053341D01*
X72649671Y-39064379D01*
X72637416Y-39093569D01*
X72623526Y-39136350D01*
X72622792Y-39138863D01*
X72604196Y-39202000D01*
X72582918Y-39273489D01*
X72563421Y-39338334D01*
X72531805Y-39442722D01*
X72473502Y-39438928D01*
X72415198Y-39435135D01*
X72361198Y-39265382D01*
X72337490Y-39190793D01*
X72310933Y-39107139D01*
X72285504Y-39026942D01*
X72264454Y-38960457D01*
X72221709Y-38825283D01*
X72364712Y-38825283D01*
X72399374Y-38954170D01*
X72408588Y-38988225D01*
X72426015Y-39051715D01*
X72442154Y-39109474D01*
X72454422Y-39152214D01*
X72474809Y-39221373D01*
X72604845Y-38831571D01*
X72654576Y-38827837D01*
X72704306Y-38824104D01*
X72769097Y-39022730D01*
G37*
X73626861Y-39180413D02*
X73625267Y-39234171D01*
X73622062Y-39271618D01*
X73621513Y-39275050D01*
X73599938Y-39336435D01*
X73560538Y-39388477D01*
X73508852Y-39423735D01*
X73453348Y-39438329D01*
X73385077Y-39437197D01*
X73322273Y-39417629D01*
X73305915Y-39409371D01*
X73284879Y-39400523D01*
X73276874Y-39403276D01*
X73275605Y-39417629D01*
X73275022Y-39424786D01*
X73267494Y-39435372D01*
X73246588Y-39440245D01*
X73206446Y-39441422D01*
X73137288Y-39441422D01*
X73137288Y-39139530D01*
X73275605Y-39139530D01*
X73276596Y-39191830D01*
X73280619Y-39226650D01*
X73289208Y-39250505D01*
X73303897Y-39270495D01*
X73342684Y-39300218D01*
X73388074Y-39310182D01*
X73432089Y-39297860D01*
X73469160Y-39263488D01*
X73478959Y-39238335D01*
X73486197Y-39193794D01*
X73489379Y-39139755D01*
X73488377Y-39084328D01*
X73483061Y-39035622D01*
X73473304Y-39001748D01*
X73470187Y-38996193D01*
X73440138Y-38968274D01*
X73399415Y-38955906D01*
X73355679Y-38958783D01*
X73316591Y-38976600D01*
X73289810Y-39009052D01*
X73288703Y-39011781D01*
X73282063Y-39042234D01*
X73277378Y-39087739D01*
X73275605Y-39139530D01*
X73137288Y-39139530D01*
X73137288Y-38586373D01*
X73275605Y-38586373D01*
X73275605Y-38879478D01*
X73301224Y-38856293D01*
X73325892Y-38841882D01*
X73372580Y-38829836D01*
X73427156Y-38825954D01*
X73480454Y-38830720D01*
X73523307Y-38844614D01*
X73553978Y-38864379D01*
X73585571Y-38898049D01*
X73606833Y-38943330D01*
X73619614Y-39004581D01*
X73625764Y-39086163D01*
X73626668Y-39119140D01*
X73626733Y-39139755D01*
X73626861Y-39180413D01*
G36*
X73626861Y-39180413D02*
G01*
X73625267Y-39234171D01*
X73622062Y-39271618D01*
X73621513Y-39275050D01*
X73599938Y-39336435D01*
X73560538Y-39388477D01*
X73508852Y-39423735D01*
X73453348Y-39438329D01*
X73385077Y-39437197D01*
X73322273Y-39417629D01*
X73305915Y-39409371D01*
X73284879Y-39400523D01*
X73276874Y-39403276D01*
X73275605Y-39417629D01*
X73275022Y-39424786D01*
X73267494Y-39435372D01*
X73246588Y-39440245D01*
X73206446Y-39441422D01*
X73137288Y-39441422D01*
X73137288Y-39139530D01*
X73275605Y-39139530D01*
X73276596Y-39191830D01*
X73280619Y-39226650D01*
X73289208Y-39250505D01*
X73303897Y-39270495D01*
X73342684Y-39300218D01*
X73388074Y-39310182D01*
X73432089Y-39297860D01*
X73469160Y-39263488D01*
X73478959Y-39238335D01*
X73486197Y-39193794D01*
X73489379Y-39139755D01*
X73488377Y-39084328D01*
X73483061Y-39035622D01*
X73473304Y-39001748D01*
X73470187Y-38996193D01*
X73440138Y-38968274D01*
X73399415Y-38955906D01*
X73355679Y-38958783D01*
X73316591Y-38976600D01*
X73289810Y-39009052D01*
X73288703Y-39011781D01*
X73282063Y-39042234D01*
X73277378Y-39087739D01*
X73275605Y-39139530D01*
X73137288Y-39139530D01*
X73137288Y-38586373D01*
X73275605Y-38586373D01*
X73275605Y-38879478D01*
X73301224Y-38856293D01*
X73325892Y-38841882D01*
X73372580Y-38829836D01*
X73427156Y-38825954D01*
X73480454Y-38830720D01*
X73523307Y-38844614D01*
X73553978Y-38864379D01*
X73585571Y-38898049D01*
X73606833Y-38943330D01*
X73619614Y-39004581D01*
X73625764Y-39086163D01*
X73626668Y-39119140D01*
X73626733Y-39139755D01*
X73626861Y-39180413D01*
G37*
X75801097Y-38218531D02*
X75799473Y-38257910D01*
X75795788Y-38305932D01*
X75789510Y-38339968D01*
X75779144Y-38366938D01*
X75763192Y-38393758D01*
X75762512Y-38394775D01*
X75723232Y-38438229D01*
X75675172Y-38471372D01*
X75619285Y-38491039D01*
X75545766Y-38497424D01*
X75473709Y-38484868D01*
X75409301Y-38454611D01*
X75358727Y-38407894D01*
X75344208Y-38385821D01*
X75317093Y-38317202D01*
X75303646Y-38232539D01*
X75303876Y-38211123D01*
X75439020Y-38211123D01*
X75439274Y-38251174D01*
X75443521Y-38277913D01*
X75453196Y-38298459D01*
X75469738Y-38319931D01*
X75492693Y-38341239D01*
X75538605Y-38360253D01*
X75587902Y-38356722D01*
X75635017Y-38330294D01*
X75648307Y-38317672D01*
X75662497Y-38296065D01*
X75670366Y-38265694D01*
X75674826Y-38218370D01*
X75676055Y-38182819D01*
X75669324Y-38110220D01*
X75648667Y-38058242D01*
X75613994Y-38026599D01*
X75573349Y-38011447D01*
X75524877Y-38012723D01*
X75479945Y-38038303D01*
X75469203Y-38048042D01*
X75455648Y-38065080D01*
X75447605Y-38087372D01*
X75443143Y-38121547D01*
X75440328Y-38174238D01*
X75439020Y-38211123D01*
X75303876Y-38211123D01*
X75304683Y-38135951D01*
X75306007Y-38122251D01*
X75324474Y-38034508D01*
X75358640Y-37966393D01*
X75408579Y-37917831D01*
X75474361Y-37888748D01*
X75556061Y-37879071D01*
X75586928Y-37879979D01*
X75650228Y-37891093D01*
X75701989Y-37917621D01*
X75750247Y-37963036D01*
X75757965Y-37972151D01*
X75778781Y-38002848D01*
X75792462Y-38037607D01*
X75800048Y-38081656D01*
X75802579Y-38140221D01*
X75801772Y-38182819D01*
X75801097Y-38218531D01*
G36*
X75801097Y-38218531D02*
G01*
X75799473Y-38257910D01*
X75795788Y-38305932D01*
X75789510Y-38339968D01*
X75779144Y-38366938D01*
X75763192Y-38393758D01*
X75762512Y-38394775D01*
X75723232Y-38438229D01*
X75675172Y-38471372D01*
X75619285Y-38491039D01*
X75545766Y-38497424D01*
X75473709Y-38484868D01*
X75409301Y-38454611D01*
X75358727Y-38407894D01*
X75344208Y-38385821D01*
X75317093Y-38317202D01*
X75303646Y-38232539D01*
X75303876Y-38211123D01*
X75439020Y-38211123D01*
X75439274Y-38251174D01*
X75443521Y-38277913D01*
X75453196Y-38298459D01*
X75469738Y-38319931D01*
X75492693Y-38341239D01*
X75538605Y-38360253D01*
X75587902Y-38356722D01*
X75635017Y-38330294D01*
X75648307Y-38317672D01*
X75662497Y-38296065D01*
X75670366Y-38265694D01*
X75674826Y-38218370D01*
X75676055Y-38182819D01*
X75669324Y-38110220D01*
X75648667Y-38058242D01*
X75613994Y-38026599D01*
X75573349Y-38011447D01*
X75524877Y-38012723D01*
X75479945Y-38038303D01*
X75469203Y-38048042D01*
X75455648Y-38065080D01*
X75447605Y-38087372D01*
X75443143Y-38121547D01*
X75440328Y-38174238D01*
X75439020Y-38211123D01*
X75303876Y-38211123D01*
X75304683Y-38135951D01*
X75306007Y-38122251D01*
X75324474Y-38034508D01*
X75358640Y-37966393D01*
X75408579Y-37917831D01*
X75474361Y-37888748D01*
X75556061Y-37879071D01*
X75586928Y-37879979D01*
X75650228Y-37891093D01*
X75701989Y-37917621D01*
X75750247Y-37963036D01*
X75757965Y-37972151D01*
X75778781Y-38002848D01*
X75792462Y-38037607D01*
X75800048Y-38081656D01*
X75802579Y-38140221D01*
X75801772Y-38182819D01*
X75801097Y-38218531D01*
G37*
X70555544Y-38143478D02*
X70553925Y-38239721D01*
X70553715Y-38241614D01*
X70535635Y-38329925D01*
X70502970Y-38398586D01*
X70454701Y-38449106D01*
X70389813Y-38482993D01*
X70377901Y-38486868D01*
X70304071Y-38498288D01*
X70227714Y-38491920D01*
X70156726Y-38469163D01*
X70099004Y-38431419D01*
X70055767Y-38391472D01*
X70101725Y-38355132D01*
X70147683Y-38318793D01*
X70203069Y-38345701D01*
X70267156Y-38367505D01*
X70323732Y-38368158D01*
X70370020Y-38348125D01*
X70403330Y-38307915D01*
X70415271Y-38283822D01*
X70421937Y-38263230D01*
X70418080Y-38249320D01*
X70400775Y-38240781D01*
X70367097Y-38236304D01*
X70314121Y-38234578D01*
X70238922Y-38234293D01*
X70056595Y-38234293D01*
X70056595Y-38147092D01*
X70057957Y-38108810D01*
X70186334Y-38108810D01*
X70192499Y-38115851D01*
X70210754Y-38119516D01*
X70245452Y-38120906D01*
X70300946Y-38121125D01*
X70330703Y-38120776D01*
X70377662Y-38118467D01*
X70409516Y-38114422D01*
X70421248Y-38109142D01*
X70418246Y-38089662D01*
X70397088Y-38052386D01*
X70361831Y-38021764D01*
X70319799Y-38003268D01*
X70278320Y-38002373D01*
X70247097Y-38017204D01*
X70211718Y-38050955D01*
X70189222Y-38092833D01*
X70187905Y-38097290D01*
X70186334Y-38108810D01*
X70057957Y-38108810D01*
X70058236Y-38100971D01*
X70063055Y-38055340D01*
X70069940Y-38024493D01*
X70074959Y-38012717D01*
X70111490Y-37960267D01*
X70164275Y-37916521D01*
X70226004Y-37887879D01*
X70258202Y-37880057D01*
X70334920Y-37876496D01*
X70403279Y-37894609D01*
X70461399Y-37932379D01*
X70507402Y-37987791D01*
X70539410Y-38058829D01*
X70549000Y-38109142D01*
X70555544Y-38143478D01*
G36*
X70555544Y-38143478D02*
G01*
X70553925Y-38239721D01*
X70553715Y-38241614D01*
X70535635Y-38329925D01*
X70502970Y-38398586D01*
X70454701Y-38449106D01*
X70389813Y-38482993D01*
X70377901Y-38486868D01*
X70304071Y-38498288D01*
X70227714Y-38491920D01*
X70156726Y-38469163D01*
X70099004Y-38431419D01*
X70055767Y-38391472D01*
X70101725Y-38355132D01*
X70147683Y-38318793D01*
X70203069Y-38345701D01*
X70267156Y-38367505D01*
X70323732Y-38368158D01*
X70370020Y-38348125D01*
X70403330Y-38307915D01*
X70415271Y-38283822D01*
X70421937Y-38263230D01*
X70418080Y-38249320D01*
X70400775Y-38240781D01*
X70367097Y-38236304D01*
X70314121Y-38234578D01*
X70238922Y-38234293D01*
X70056595Y-38234293D01*
X70056595Y-38147092D01*
X70057957Y-38108810D01*
X70186334Y-38108810D01*
X70192499Y-38115851D01*
X70210754Y-38119516D01*
X70245452Y-38120906D01*
X70300946Y-38121125D01*
X70330703Y-38120776D01*
X70377662Y-38118467D01*
X70409516Y-38114422D01*
X70421248Y-38109142D01*
X70418246Y-38089662D01*
X70397088Y-38052386D01*
X70361831Y-38021764D01*
X70319799Y-38003268D01*
X70278320Y-38002373D01*
X70247097Y-38017204D01*
X70211718Y-38050955D01*
X70189222Y-38092833D01*
X70187905Y-38097290D01*
X70186334Y-38108810D01*
X70057957Y-38108810D01*
X70058236Y-38100971D01*
X70063055Y-38055340D01*
X70069940Y-38024493D01*
X70074959Y-38012717D01*
X70111490Y-37960267D01*
X70164275Y-37916521D01*
X70226004Y-37887879D01*
X70258202Y-37880057D01*
X70334920Y-37876496D01*
X70403279Y-37894609D01*
X70461399Y-37932379D01*
X70507402Y-37987791D01*
X70539410Y-38058829D01*
X70549000Y-38109142D01*
X70555544Y-38143478D01*
G37*
X73034974Y-37881807D02*
X73107595Y-37900008D01*
X73160646Y-37933744D01*
X73194429Y-37983242D01*
X73209247Y-38048726D01*
X73206247Y-38111420D01*
X73184593Y-38164299D01*
X73143067Y-38203396D01*
X73080836Y-38229473D01*
X72997069Y-38243295D01*
X72942640Y-38250540D01*
X72892960Y-38266215D01*
X72867311Y-38288914D01*
X72865762Y-38318598D01*
X72876084Y-38337107D01*
X72908051Y-38359043D01*
X72953495Y-38369418D01*
X73006749Y-38367999D01*
X73062148Y-38354552D01*
X73114028Y-38328843D01*
X73165753Y-38294613D01*
X73211248Y-38340649D01*
X73256743Y-38386684D01*
X73219021Y-38417476D01*
X73204353Y-38428174D01*
X73163083Y-38452480D01*
X73118427Y-38473425D01*
X73083084Y-38485445D01*
X73031334Y-38494152D01*
X72967535Y-38494267D01*
X72889300Y-38484681D01*
X72818822Y-38460383D01*
X72768936Y-38421788D01*
X72739523Y-38368798D01*
X72730465Y-38301318D01*
X72737021Y-38241954D01*
X72758070Y-38193352D01*
X72795964Y-38158546D01*
X72853104Y-38135398D01*
X72931885Y-38121770D01*
X72940934Y-38120783D01*
X72989985Y-38114492D01*
X73029775Y-38107909D01*
X73052412Y-38102308D01*
X73059966Y-38097797D01*
X73072737Y-38074541D01*
X73070663Y-38044771D01*
X73053595Y-38018927D01*
X73044633Y-38013291D01*
X73007288Y-38004260D01*
X72959050Y-38004867D01*
X72908750Y-38014478D01*
X72865215Y-38032458D01*
X72819472Y-38059447D01*
X72783990Y-38017984D01*
X72775380Y-38007450D01*
X72755983Y-37979232D01*
X72747997Y-37960108D01*
X72756383Y-37948381D01*
X72782326Y-37930076D01*
X72819788Y-37910377D01*
X72825066Y-37907970D01*
X72874466Y-37889082D01*
X72922083Y-37880052D01*
X72981172Y-37878239D01*
X73034974Y-37881807D01*
G36*
X73034974Y-37881807D02*
G01*
X73107595Y-37900008D01*
X73160646Y-37933744D01*
X73194429Y-37983242D01*
X73209247Y-38048726D01*
X73206247Y-38111420D01*
X73184593Y-38164299D01*
X73143067Y-38203396D01*
X73080836Y-38229473D01*
X72997069Y-38243295D01*
X72942640Y-38250540D01*
X72892960Y-38266215D01*
X72867311Y-38288914D01*
X72865762Y-38318598D01*
X72876084Y-38337107D01*
X72908051Y-38359043D01*
X72953495Y-38369418D01*
X73006749Y-38367999D01*
X73062148Y-38354552D01*
X73114028Y-38328843D01*
X73165753Y-38294613D01*
X73211248Y-38340649D01*
X73256743Y-38386684D01*
X73219021Y-38417476D01*
X73204353Y-38428174D01*
X73163083Y-38452480D01*
X73118427Y-38473425D01*
X73083084Y-38485445D01*
X73031334Y-38494152D01*
X72967535Y-38494267D01*
X72889300Y-38484681D01*
X72818822Y-38460383D01*
X72768936Y-38421788D01*
X72739523Y-38368798D01*
X72730465Y-38301318D01*
X72737021Y-38241954D01*
X72758070Y-38193352D01*
X72795964Y-38158546D01*
X72853104Y-38135398D01*
X72931885Y-38121770D01*
X72940934Y-38120783D01*
X72989985Y-38114492D01*
X73029775Y-38107909D01*
X73052412Y-38102308D01*
X73059966Y-38097797D01*
X73072737Y-38074541D01*
X73070663Y-38044771D01*
X73053595Y-38018927D01*
X73044633Y-38013291D01*
X73007288Y-38004260D01*
X72959050Y-38004867D01*
X72908750Y-38014478D01*
X72865215Y-38032458D01*
X72819472Y-38059447D01*
X72783990Y-38017984D01*
X72775380Y-38007450D01*
X72755983Y-37979232D01*
X72747997Y-37960108D01*
X72756383Y-37948381D01*
X72782326Y-37930076D01*
X72819788Y-37910377D01*
X72825066Y-37907970D01*
X72874466Y-37889082D01*
X72922083Y-37880052D01*
X72981172Y-37878239D01*
X73034974Y-37881807D01*
G37*
X71200453Y-39133353D02*
X71198818Y-39180292D01*
X71183927Y-39270059D01*
X71153285Y-39340645D01*
X71106624Y-39392552D01*
X71043674Y-39426286D01*
X71023335Y-39432247D01*
X70950712Y-39440571D01*
X70874028Y-39433546D01*
X70804763Y-39411865D01*
X70780362Y-39399559D01*
X70745375Y-39378479D01*
X70724172Y-39361134D01*
X70721042Y-39357171D01*
X70715185Y-39342677D01*
X70723624Y-39326921D01*
X70749321Y-39303060D01*
X70761722Y-39292672D01*
X70786152Y-39273663D01*
X70798961Y-39265893D01*
X70802630Y-39266694D01*
X70823661Y-39275345D01*
X70855060Y-39290531D01*
X70865297Y-39295526D01*
X70925690Y-39314075D01*
X70978157Y-39309294D01*
X71024165Y-39281100D01*
X71029519Y-39275891D01*
X71055113Y-39243259D01*
X71069737Y-39211942D01*
X71077836Y-39177363D01*
X70697882Y-39177363D01*
X70697952Y-39111348D01*
X70697992Y-39104782D01*
X70703122Y-39051818D01*
X70836199Y-39051818D01*
X70837770Y-39062803D01*
X70845838Y-39070373D01*
X70865067Y-39074575D01*
X70900119Y-39076383D01*
X70955654Y-39076769D01*
X70986529Y-39076368D01*
X71032102Y-39074029D01*
X71063448Y-39070065D01*
X71075110Y-39065013D01*
X71065164Y-39023427D01*
X71036047Y-38984613D01*
X70994052Y-38957686D01*
X70945540Y-38948372D01*
X70909823Y-38958872D01*
X70874120Y-38984540D01*
X70846979Y-39017981D01*
X70836199Y-39051818D01*
X70703122Y-39051818D01*
X70705858Y-39023565D01*
X70728755Y-38957495D01*
X70768707Y-38900540D01*
X70793079Y-38876448D01*
X70843415Y-38844197D01*
X70903519Y-38828570D01*
X70979438Y-38827471D01*
X71016110Y-38831779D01*
X71083803Y-38854149D01*
X71135630Y-38894863D01*
X71172045Y-38954549D01*
X71193501Y-39033836D01*
X71195679Y-39065013D01*
X71200453Y-39133353D01*
G36*
X71200453Y-39133353D02*
G01*
X71198818Y-39180292D01*
X71183927Y-39270059D01*
X71153285Y-39340645D01*
X71106624Y-39392552D01*
X71043674Y-39426286D01*
X71023335Y-39432247D01*
X70950712Y-39440571D01*
X70874028Y-39433546D01*
X70804763Y-39411865D01*
X70780362Y-39399559D01*
X70745375Y-39378479D01*
X70724172Y-39361134D01*
X70721042Y-39357171D01*
X70715185Y-39342677D01*
X70723624Y-39326921D01*
X70749321Y-39303060D01*
X70761722Y-39292672D01*
X70786152Y-39273663D01*
X70798961Y-39265893D01*
X70802630Y-39266694D01*
X70823661Y-39275345D01*
X70855060Y-39290531D01*
X70865297Y-39295526D01*
X70925690Y-39314075D01*
X70978157Y-39309294D01*
X71024165Y-39281100D01*
X71029519Y-39275891D01*
X71055113Y-39243259D01*
X71069737Y-39211942D01*
X71077836Y-39177363D01*
X70697882Y-39177363D01*
X70697952Y-39111348D01*
X70697992Y-39104782D01*
X70703122Y-39051818D01*
X70836199Y-39051818D01*
X70837770Y-39062803D01*
X70845838Y-39070373D01*
X70865067Y-39074575D01*
X70900119Y-39076383D01*
X70955654Y-39076769D01*
X70986529Y-39076368D01*
X71032102Y-39074029D01*
X71063448Y-39070065D01*
X71075110Y-39065013D01*
X71065164Y-39023427D01*
X71036047Y-38984613D01*
X70994052Y-38957686D01*
X70945540Y-38948372D01*
X70909823Y-38958872D01*
X70874120Y-38984540D01*
X70846979Y-39017981D01*
X70836199Y-39051818D01*
X70703122Y-39051818D01*
X70705858Y-39023565D01*
X70728755Y-38957495D01*
X70768707Y-38900540D01*
X70793079Y-38876448D01*
X70843415Y-38844197D01*
X70903519Y-38828570D01*
X70979438Y-38827471D01*
X71016110Y-38831779D01*
X71083803Y-38854149D01*
X71135630Y-38894863D01*
X71172045Y-38954549D01*
X71193501Y-39033836D01*
X71195679Y-39065013D01*
X71200453Y-39133353D01*
G37*
X74643122Y-38108461D02*
X74647521Y-38196536D01*
X74646422Y-38234971D01*
X74634026Y-38318967D01*
X74606708Y-38385195D01*
X74563041Y-38436384D01*
X74501595Y-38475263D01*
X74441988Y-38493412D01*
X74367210Y-38496884D01*
X74291764Y-38483530D01*
X74224466Y-38454025D01*
X74199528Y-38437612D01*
X74172051Y-38416573D01*
X74159514Y-38402729D01*
X74160224Y-38397017D01*
X74174258Y-38377555D01*
X74200633Y-38353976D01*
X74246340Y-38319113D01*
X74299899Y-38345862D01*
X74314382Y-38352482D01*
X74357016Y-38366873D01*
X74392749Y-38372610D01*
X74419098Y-38367882D01*
X74460447Y-38345114D01*
X74495204Y-38309770D01*
X74515083Y-38268873D01*
X74523183Y-38234293D01*
X74143229Y-38234293D01*
X74143299Y-38168279D01*
X74143874Y-38147357D01*
X74148072Y-38102462D01*
X74281545Y-38102462D01*
X74281790Y-38105034D01*
X74288704Y-38113043D01*
X74308241Y-38117964D01*
X74344567Y-38120443D01*
X74401848Y-38121125D01*
X74420675Y-38121117D01*
X74469570Y-38120665D01*
X74498963Y-38118713D01*
X74513215Y-38114158D01*
X74516682Y-38105899D01*
X74513725Y-38092833D01*
X74513273Y-38091352D01*
X74487799Y-38045885D01*
X74447639Y-38014581D01*
X74399751Y-38002927D01*
X74382049Y-38003859D01*
X74349194Y-38015008D01*
X74317675Y-38043363D01*
X74309185Y-38053389D01*
X74289436Y-38082023D01*
X74281545Y-38102462D01*
X74148072Y-38102462D01*
X74148612Y-38096691D01*
X74156559Y-38054766D01*
X74165268Y-38031296D01*
X74195890Y-37980246D01*
X74236899Y-37933883D01*
X74280268Y-37902114D01*
X74292799Y-37896214D01*
X74365761Y-37876646D01*
X74440268Y-37878709D01*
X74510317Y-37901531D01*
X74569907Y-37944239D01*
X74602138Y-37983625D01*
X74628492Y-38039110D01*
X74642582Y-38105899D01*
X74643122Y-38108461D01*
G36*
X74643122Y-38108461D02*
G01*
X74647521Y-38196536D01*
X74646422Y-38234971D01*
X74634026Y-38318967D01*
X74606708Y-38385195D01*
X74563041Y-38436384D01*
X74501595Y-38475263D01*
X74441988Y-38493412D01*
X74367210Y-38496884D01*
X74291764Y-38483530D01*
X74224466Y-38454025D01*
X74199528Y-38437612D01*
X74172051Y-38416573D01*
X74159514Y-38402729D01*
X74160224Y-38397017D01*
X74174258Y-38377555D01*
X74200633Y-38353976D01*
X74246340Y-38319113D01*
X74299899Y-38345862D01*
X74314382Y-38352482D01*
X74357016Y-38366873D01*
X74392749Y-38372610D01*
X74419098Y-38367882D01*
X74460447Y-38345114D01*
X74495204Y-38309770D01*
X74515083Y-38268873D01*
X74523183Y-38234293D01*
X74143229Y-38234293D01*
X74143299Y-38168279D01*
X74143874Y-38147357D01*
X74148072Y-38102462D01*
X74281545Y-38102462D01*
X74281790Y-38105034D01*
X74288704Y-38113043D01*
X74308241Y-38117964D01*
X74344567Y-38120443D01*
X74401848Y-38121125D01*
X74420675Y-38121117D01*
X74469570Y-38120665D01*
X74498963Y-38118713D01*
X74513215Y-38114158D01*
X74516682Y-38105899D01*
X74513725Y-38092833D01*
X74513273Y-38091352D01*
X74487799Y-38045885D01*
X74447639Y-38014581D01*
X74399751Y-38002927D01*
X74382049Y-38003859D01*
X74349194Y-38015008D01*
X74317675Y-38043363D01*
X74309185Y-38053389D01*
X74289436Y-38082023D01*
X74281545Y-38102462D01*
X74148072Y-38102462D01*
X74148612Y-38096691D01*
X74156559Y-38054766D01*
X74165268Y-38031296D01*
X74195890Y-37980246D01*
X74236899Y-37933883D01*
X74280268Y-37902114D01*
X74292799Y-37896214D01*
X74365761Y-37876646D01*
X74440268Y-37878709D01*
X74510317Y-37901531D01*
X74569907Y-37944239D01*
X74602138Y-37983625D01*
X74628492Y-38039110D01*
X74642582Y-38105899D01*
X74643122Y-38108461D01*
G37*
X72225513Y-39275933D02*
X72210344Y-39333019D01*
X72177377Y-39381855D01*
X72127370Y-39416986D01*
X72122462Y-39419121D01*
X72067746Y-39434503D01*
X72006093Y-39440499D01*
X71947476Y-39436833D01*
X71901867Y-39423229D01*
X71883649Y-39414354D01*
X71870279Y-39412237D01*
X71867288Y-39423306D01*
X71861624Y-39433542D01*
X71839707Y-39439638D01*
X71797168Y-39441422D01*
X71727048Y-39441422D01*
X71731153Y-39199368D01*
X71731592Y-39177363D01*
X71867288Y-39177363D01*
X71867288Y-39221373D01*
X71872024Y-39254266D01*
X71892436Y-39290531D01*
X71899971Y-39297197D01*
X71930853Y-39311220D01*
X71977313Y-39314828D01*
X72005190Y-39313419D01*
X72057355Y-39302804D01*
X72089687Y-39283025D01*
X72100592Y-39255424D01*
X72088474Y-39221343D01*
X72081404Y-39212424D01*
X72049824Y-39192418D01*
X71999844Y-39180995D01*
X71928587Y-39177363D01*
X71867288Y-39177363D01*
X71731592Y-39177363D01*
X71732269Y-39143394D01*
X71735206Y-39059596D01*
X71740158Y-38995520D01*
X71748102Y-38947673D01*
X71760017Y-38912562D01*
X71776880Y-38886693D01*
X71799672Y-38866574D01*
X71829369Y-38848710D01*
X71844689Y-38841890D01*
X71897689Y-38829017D01*
X71961613Y-38823695D01*
X72027702Y-38825827D01*
X72087199Y-38835314D01*
X72131347Y-38852061D01*
X72146704Y-38861785D01*
X72182060Y-38890605D01*
X72194026Y-38914737D01*
X72191120Y-38919400D01*
X72173009Y-38935688D01*
X72143772Y-38957417D01*
X72128825Y-38967587D01*
X72103370Y-38981997D01*
X72086828Y-38983373D01*
X72071470Y-38973427D01*
X72033194Y-38953284D01*
X71981690Y-38945000D01*
X71929057Y-38951342D01*
X71928061Y-38951630D01*
X71890938Y-38967758D01*
X71872563Y-38993005D01*
X71867480Y-39034758D01*
X71867288Y-39074479D01*
X71998523Y-39078768D01*
X72019431Y-39079473D01*
X72072143Y-39081926D01*
X72107481Y-39085780D01*
X72131367Y-39092478D01*
X72149724Y-39103464D01*
X72168476Y-39120180D01*
X72199437Y-39158844D01*
X72222129Y-39216056D01*
X72224354Y-39255424D01*
X72225513Y-39275933D01*
G36*
X72225513Y-39275933D02*
G01*
X72210344Y-39333019D01*
X72177377Y-39381855D01*
X72127370Y-39416986D01*
X72122462Y-39419121D01*
X72067746Y-39434503D01*
X72006093Y-39440499D01*
X71947476Y-39436833D01*
X71901867Y-39423229D01*
X71883649Y-39414354D01*
X71870279Y-39412237D01*
X71867288Y-39423306D01*
X71861624Y-39433542D01*
X71839707Y-39439638D01*
X71797168Y-39441422D01*
X71727048Y-39441422D01*
X71731153Y-39199368D01*
X71731592Y-39177363D01*
X71867288Y-39177363D01*
X71867288Y-39221373D01*
X71872024Y-39254266D01*
X71892436Y-39290531D01*
X71899971Y-39297197D01*
X71930853Y-39311220D01*
X71977313Y-39314828D01*
X72005190Y-39313419D01*
X72057355Y-39302804D01*
X72089687Y-39283025D01*
X72100592Y-39255424D01*
X72088474Y-39221343D01*
X72081404Y-39212424D01*
X72049824Y-39192418D01*
X71999844Y-39180995D01*
X71928587Y-39177363D01*
X71867288Y-39177363D01*
X71731592Y-39177363D01*
X71732269Y-39143394D01*
X71735206Y-39059596D01*
X71740158Y-38995520D01*
X71748102Y-38947673D01*
X71760017Y-38912562D01*
X71776880Y-38886693D01*
X71799672Y-38866574D01*
X71829369Y-38848710D01*
X71844689Y-38841890D01*
X71897689Y-38829017D01*
X71961613Y-38823695D01*
X72027702Y-38825827D01*
X72087199Y-38835314D01*
X72131347Y-38852061D01*
X72146704Y-38861785D01*
X72182060Y-38890605D01*
X72194026Y-38914737D01*
X72191120Y-38919400D01*
X72173009Y-38935688D01*
X72143772Y-38957417D01*
X72128825Y-38967587D01*
X72103370Y-38981997D01*
X72086828Y-38983373D01*
X72071470Y-38973427D01*
X72033194Y-38953284D01*
X71981690Y-38945000D01*
X71929057Y-38951342D01*
X71928061Y-38951630D01*
X71890938Y-38967758D01*
X71872563Y-38993005D01*
X71867480Y-39034758D01*
X71867288Y-39074479D01*
X71998523Y-39078768D01*
X72019431Y-39079473D01*
X72072143Y-39081926D01*
X72107481Y-39085780D01*
X72131367Y-39092478D01*
X72149724Y-39103464D01*
X72168476Y-39120180D01*
X72199437Y-39158844D01*
X72222129Y-39216056D01*
X72224354Y-39255424D01*
X72225513Y-39275933D01*
G37*
X74643399Y-39273823D02*
X74643257Y-39275482D01*
X74627935Y-39340079D01*
X74593853Y-39388663D01*
X74539318Y-39423672D01*
X74511136Y-39432189D01*
X74462864Y-39438828D01*
X74410078Y-39440413D01*
X74362453Y-39436760D01*
X74329666Y-39427683D01*
X74309752Y-39420413D01*
X74290255Y-39427683D01*
X74283123Y-39431895D01*
X74254657Y-39438726D01*
X74216159Y-39441422D01*
X74155803Y-39441422D01*
X74155803Y-39198084D01*
X74155807Y-39177363D01*
X74294120Y-39177363D01*
X74294120Y-39225711D01*
X74298768Y-39262504D01*
X74317115Y-39294869D01*
X74327614Y-39301874D01*
X74365088Y-39312791D01*
X74411873Y-39315517D01*
X74457752Y-39309979D01*
X74492510Y-39296105D01*
X74509826Y-39277761D01*
X74520456Y-39245166D01*
X74511029Y-39219329D01*
X74479864Y-39196863D01*
X74429767Y-39182450D01*
X74363682Y-39177363D01*
X74294120Y-39177363D01*
X74155807Y-39177363D01*
X74155807Y-39177040D01*
X74156037Y-39097722D01*
X74156897Y-39038754D01*
X74158779Y-38996216D01*
X74162074Y-38966192D01*
X74167173Y-38944763D01*
X74174466Y-38928011D01*
X74184346Y-38912019D01*
X74216123Y-38874548D01*
X74261155Y-38845939D01*
X74320310Y-38830155D01*
X74398261Y-38825303D01*
X74400795Y-38825308D01*
X74454980Y-38827755D01*
X74503480Y-38833856D01*
X74536578Y-38842409D01*
X74545652Y-38846696D01*
X74574533Y-38864848D01*
X74600668Y-38886422D01*
X74617864Y-38905836D01*
X74619925Y-38917509D01*
X74615903Y-38920663D01*
X74572076Y-38954339D01*
X74542771Y-38974200D01*
X74523394Y-38982213D01*
X74509353Y-38980346D01*
X74496057Y-38970565D01*
X74471518Y-38958356D01*
X74430164Y-38950215D01*
X74383426Y-38948103D01*
X74341134Y-38952400D01*
X74313117Y-38963487D01*
X74311643Y-38964836D01*
X74299053Y-38990181D01*
X74294120Y-39028011D01*
X74294120Y-39076769D01*
X74410431Y-39076816D01*
X74463860Y-39077661D01*
X74508835Y-39081340D01*
X74541007Y-39088909D01*
X74566999Y-39101408D01*
X74573048Y-39105247D01*
X74616810Y-39147445D01*
X74640087Y-39203247D01*
X74642055Y-39245166D01*
X74643399Y-39273823D01*
G36*
X74643399Y-39273823D02*
G01*
X74643257Y-39275482D01*
X74627935Y-39340079D01*
X74593853Y-39388663D01*
X74539318Y-39423672D01*
X74511136Y-39432189D01*
X74462864Y-39438828D01*
X74410078Y-39440413D01*
X74362453Y-39436760D01*
X74329666Y-39427683D01*
X74309752Y-39420413D01*
X74290255Y-39427683D01*
X74283123Y-39431895D01*
X74254657Y-39438726D01*
X74216159Y-39441422D01*
X74155803Y-39441422D01*
X74155803Y-39198084D01*
X74155807Y-39177363D01*
X74294120Y-39177363D01*
X74294120Y-39225711D01*
X74298768Y-39262504D01*
X74317115Y-39294869D01*
X74327614Y-39301874D01*
X74365088Y-39312791D01*
X74411873Y-39315517D01*
X74457752Y-39309979D01*
X74492510Y-39296105D01*
X74509826Y-39277761D01*
X74520456Y-39245166D01*
X74511029Y-39219329D01*
X74479864Y-39196863D01*
X74429767Y-39182450D01*
X74363682Y-39177363D01*
X74294120Y-39177363D01*
X74155807Y-39177363D01*
X74155807Y-39177040D01*
X74156037Y-39097722D01*
X74156897Y-39038754D01*
X74158779Y-38996216D01*
X74162074Y-38966192D01*
X74167173Y-38944763D01*
X74174466Y-38928011D01*
X74184346Y-38912019D01*
X74216123Y-38874548D01*
X74261155Y-38845939D01*
X74320310Y-38830155D01*
X74398261Y-38825303D01*
X74400795Y-38825308D01*
X74454980Y-38827755D01*
X74503480Y-38833856D01*
X74536578Y-38842409D01*
X74545652Y-38846696D01*
X74574533Y-38864848D01*
X74600668Y-38886422D01*
X74617864Y-38905836D01*
X74619925Y-38917509D01*
X74615903Y-38920663D01*
X74572076Y-38954339D01*
X74542771Y-38974200D01*
X74523394Y-38982213D01*
X74509353Y-38980346D01*
X74496057Y-38970565D01*
X74471518Y-38958356D01*
X74430164Y-38950215D01*
X74383426Y-38948103D01*
X74341134Y-38952400D01*
X74313117Y-38963487D01*
X74311643Y-38964836D01*
X74299053Y-38990181D01*
X74294120Y-39028011D01*
X74294120Y-39076769D01*
X74410431Y-39076816D01*
X74463860Y-39077661D01*
X74508835Y-39081340D01*
X74541007Y-39088909D01*
X74566999Y-39101408D01*
X74573048Y-39105247D01*
X74616810Y-39147445D01*
X74640087Y-39203247D01*
X74642055Y-39245166D01*
X74643399Y-39273823D01*
G37*
X75212040Y-39442736D02*
X75146026Y-39438936D01*
X75080011Y-39435135D01*
X75076872Y-39233947D01*
X75075944Y-39185025D01*
X75073308Y-39111526D01*
X75068783Y-39057591D01*
X75061538Y-39019595D01*
X75050742Y-38993913D01*
X75035562Y-38976920D01*
X75015166Y-38964989D01*
X74976897Y-38952805D01*
X74938838Y-38957540D01*
X74898649Y-38983579D01*
X74859961Y-39016133D01*
X74859961Y-39441422D01*
X74721644Y-39441422D01*
X74721644Y-39210776D01*
X74721777Y-39138482D01*
X74722513Y-39074241D01*
X74724281Y-39027218D01*
X74727511Y-38993148D01*
X74732630Y-38967770D01*
X74740067Y-38946821D01*
X74750250Y-38926036D01*
X74752664Y-38921624D01*
X74784775Y-38878647D01*
X74822356Y-38848613D01*
X74867664Y-38832843D01*
X74927661Y-38825822D01*
X74987743Y-38829625D01*
X75036625Y-38844468D01*
X75073724Y-38863652D01*
X75073724Y-38448459D01*
X75022892Y-38474954D01*
X75001658Y-38484580D01*
X74934636Y-38498192D01*
X74868030Y-38488784D01*
X74806287Y-38457505D01*
X74753857Y-38405502D01*
X74745643Y-38393280D01*
X74737749Y-38375363D01*
X74732600Y-38351004D01*
X74729627Y-38315527D01*
X74728261Y-38264256D01*
X74728015Y-38210836D01*
X74860849Y-38210836D01*
X74860961Y-38255449D01*
X74864372Y-38285201D01*
X74872037Y-38306435D01*
X74884914Y-38325496D01*
X74901271Y-38343217D01*
X74927429Y-38356628D01*
X74966842Y-38360036D01*
X75001659Y-38357071D01*
X75036120Y-38342231D01*
X75058315Y-38312169D01*
X75070197Y-38263854D01*
X75073724Y-38194250D01*
X75072812Y-38157224D01*
X75063709Y-38087328D01*
X75044928Y-38040064D01*
X75016576Y-38015768D01*
X74987940Y-38008932D01*
X74938070Y-38012137D01*
X74895933Y-38031980D01*
X74885849Y-38041080D01*
X74875163Y-38056823D01*
X74868556Y-38080258D01*
X74864632Y-38117204D01*
X74861997Y-38173480D01*
X74860849Y-38210836D01*
X74728015Y-38210836D01*
X74727931Y-38192517D01*
X74728044Y-38159784D01*
X74729972Y-38083644D01*
X74735340Y-38026766D01*
X74745506Y-37984849D01*
X74761825Y-37953596D01*
X74785653Y-37928706D01*
X74818347Y-37905882D01*
X74844859Y-37892784D01*
X74907715Y-37878339D01*
X74973969Y-37880307D01*
X75032857Y-37899033D01*
X75058130Y-37911273D01*
X75070842Y-37912538D01*
X75073724Y-37901398D01*
X75073726Y-37901061D01*
X75079938Y-37889687D01*
X75101360Y-37883856D01*
X75142882Y-37882214D01*
X75212040Y-37882214D01*
X75212040Y-38194250D01*
X75212040Y-39442736D01*
G36*
X75212040Y-39442736D02*
G01*
X75146026Y-39438936D01*
X75080011Y-39435135D01*
X75076872Y-39233947D01*
X75075944Y-39185025D01*
X75073308Y-39111526D01*
X75068783Y-39057591D01*
X75061538Y-39019595D01*
X75050742Y-38993913D01*
X75035562Y-38976920D01*
X75015166Y-38964989D01*
X74976897Y-38952805D01*
X74938838Y-38957540D01*
X74898649Y-38983579D01*
X74859961Y-39016133D01*
X74859961Y-39441422D01*
X74721644Y-39441422D01*
X74721644Y-39210776D01*
X74721777Y-39138482D01*
X74722513Y-39074241D01*
X74724281Y-39027218D01*
X74727511Y-38993148D01*
X74732630Y-38967770D01*
X74740067Y-38946821D01*
X74750250Y-38926036D01*
X74752664Y-38921624D01*
X74784775Y-38878647D01*
X74822356Y-38848613D01*
X74867664Y-38832843D01*
X74927661Y-38825822D01*
X74987743Y-38829625D01*
X75036625Y-38844468D01*
X75073724Y-38863652D01*
X75073724Y-38448459D01*
X75022892Y-38474954D01*
X75001658Y-38484580D01*
X74934636Y-38498192D01*
X74868030Y-38488784D01*
X74806287Y-38457505D01*
X74753857Y-38405502D01*
X74745643Y-38393280D01*
X74737749Y-38375363D01*
X74732600Y-38351004D01*
X74729627Y-38315527D01*
X74728261Y-38264256D01*
X74728015Y-38210836D01*
X74860849Y-38210836D01*
X74860961Y-38255449D01*
X74864372Y-38285201D01*
X74872037Y-38306435D01*
X74884914Y-38325496D01*
X74901271Y-38343217D01*
X74927429Y-38356628D01*
X74966842Y-38360036D01*
X75001659Y-38357071D01*
X75036120Y-38342231D01*
X75058315Y-38312169D01*
X75070197Y-38263854D01*
X75073724Y-38194250D01*
X75072812Y-38157224D01*
X75063709Y-38087328D01*
X75044928Y-38040064D01*
X75016576Y-38015768D01*
X74987940Y-38008932D01*
X74938070Y-38012137D01*
X74895933Y-38031980D01*
X74885849Y-38041080D01*
X74875163Y-38056823D01*
X74868556Y-38080258D01*
X74864632Y-38117204D01*
X74861997Y-38173480D01*
X74860849Y-38210836D01*
X74728015Y-38210836D01*
X74727931Y-38192517D01*
X74728044Y-38159784D01*
X74729972Y-38083644D01*
X74735340Y-38026766D01*
X74745506Y-37984849D01*
X74761825Y-37953596D01*
X74785653Y-37928706D01*
X74818347Y-37905882D01*
X74844859Y-37892784D01*
X74907715Y-37878339D01*
X74973969Y-37880307D01*
X75032857Y-37899033D01*
X75058130Y-37911273D01*
X75070842Y-37912538D01*
X75073724Y-37901398D01*
X75073726Y-37901061D01*
X75079938Y-37889687D01*
X75101360Y-37883856D01*
X75142882Y-37882214D01*
X75212040Y-37882214D01*
X75212040Y-38194250D01*
X75212040Y-39442736D01*
G37*
X73300489Y-33713618D02*
X73357337Y-34015170D01*
X73567101Y-34101641D01*
X73776864Y-34188112D01*
X74028510Y-34016995D01*
X74078316Y-33983261D01*
X74144344Y-33938981D01*
X74201510Y-33901161D01*
X74246844Y-33871742D01*
X74277380Y-33852667D01*
X74290146Y-33845878D01*
X74297987Y-33850706D01*
X74321425Y-33870939D01*
X74356894Y-33904143D01*
X74401389Y-33947270D01*
X74451905Y-33997270D01*
X74505436Y-34051095D01*
X74558977Y-34105695D01*
X74609523Y-34158023D01*
X74654068Y-34205028D01*
X74689607Y-34243663D01*
X74713134Y-34270878D01*
X74721644Y-34283624D01*
X74719665Y-34289100D01*
X74705957Y-34313527D01*
X74680925Y-34353729D01*
X74646599Y-34406552D01*
X74605007Y-34468847D01*
X74558179Y-34537462D01*
X74532480Y-34574883D01*
X74488273Y-34640032D01*
X74450372Y-34696889D01*
X74420798Y-34742370D01*
X74401572Y-34773393D01*
X74394714Y-34786874D01*
X74394826Y-34787621D01*
X74400876Y-34804710D01*
X74414754Y-34839606D01*
X74434527Y-34887751D01*
X74458260Y-34944586D01*
X74484018Y-35005553D01*
X74509866Y-35066092D01*
X74533871Y-35121647D01*
X74554098Y-35167657D01*
X74568611Y-35199565D01*
X74575477Y-35212812D01*
X74579539Y-35213987D01*
X74604221Y-35219287D01*
X74648211Y-35228067D01*
X74707987Y-35239640D01*
X74780029Y-35253321D01*
X74860816Y-35268423D01*
X74903394Y-35276430D01*
X74981545Y-35291707D01*
X75049875Y-35305815D01*
X75104651Y-35317945D01*
X75142137Y-35327286D01*
X75158600Y-35333027D01*
X75161557Y-35338719D01*
X75166462Y-35366530D01*
X75170316Y-35412850D01*
X75173121Y-35473320D01*
X75174881Y-35543583D01*
X75175599Y-35619280D01*
X75175277Y-35696053D01*
X75173919Y-35769544D01*
X75171528Y-35835394D01*
X75168106Y-35889245D01*
X75163656Y-35926738D01*
X75158182Y-35943516D01*
X75154860Y-35945409D01*
X75130087Y-35953526D01*
X75087111Y-35964266D01*
X75030902Y-35976453D01*
X74966425Y-35988910D01*
X74944670Y-35992877D01*
X74844193Y-36011329D01*
X74765226Y-36026159D01*
X74705034Y-36037980D01*
X74660878Y-36047409D01*
X74630020Y-36055060D01*
X74609725Y-36061548D01*
X74597254Y-36067488D01*
X74589871Y-36073494D01*
X74589013Y-36074502D01*
X74576938Y-36095519D01*
X74559071Y-36133976D01*
X74537142Y-36185361D01*
X74512884Y-36245163D01*
X74488027Y-36308870D01*
X74464305Y-36371971D01*
X74443447Y-36429955D01*
X74427187Y-36478309D01*
X74417256Y-36512522D01*
X74415385Y-36528083D01*
X74416636Y-36530102D01*
X74429586Y-36549628D01*
X74453940Y-36585642D01*
X74487440Y-36634828D01*
X74527827Y-36693867D01*
X74572845Y-36759442D01*
X74585200Y-36777484D01*
X74628645Y-36842199D01*
X74666191Y-36900076D01*
X74695694Y-36947682D01*
X74715014Y-36981585D01*
X74722005Y-36998352D01*
X74720498Y-37002761D01*
X74704795Y-37024482D01*
X74673814Y-37059954D01*
X74629773Y-37106788D01*
X74574890Y-37162596D01*
X74511386Y-37224992D01*
X74475088Y-37259917D01*
X74417695Y-37314311D01*
X74367461Y-37360902D01*
X74327084Y-37397236D01*
X74299261Y-37420861D01*
X74286690Y-37429324D01*
X74278052Y-37426187D01*
X74251460Y-37411347D01*
X74212841Y-37387077D01*
X74167234Y-37356452D01*
X74134807Y-37334103D01*
X74070070Y-37289722D01*
X74000986Y-37242587D01*
X73937887Y-37199755D01*
X73814278Y-37116147D01*
X73710517Y-37172250D01*
X73686084Y-37185199D01*
X73641652Y-37207349D01*
X73607291Y-37222641D01*
X73588928Y-37228343D01*
X73582918Y-37221021D01*
X73567995Y-37193141D01*
X73545952Y-37147175D01*
X73518017Y-37086041D01*
X73485417Y-37012655D01*
X73449376Y-36929935D01*
X73411123Y-36840797D01*
X73371883Y-36748159D01*
X73332883Y-36654937D01*
X73295349Y-36564050D01*
X73260509Y-36478414D01*
X73229588Y-36400945D01*
X73203814Y-36334562D01*
X73184411Y-36282182D01*
X73172608Y-36246721D01*
X73169631Y-36231096D01*
X73169832Y-36230639D01*
X73183701Y-36216195D01*
X73212711Y-36193574D01*
X73250872Y-36167464D01*
X73262917Y-36159492D01*
X73354569Y-36083856D01*
X73430423Y-35993769D01*
X73488681Y-35892981D01*
X73527548Y-35785240D01*
X73545228Y-35674297D01*
X73539926Y-35563903D01*
X73518447Y-35465715D01*
X73479882Y-35366566D01*
X73423662Y-35278112D01*
X73346510Y-35194087D01*
X73316195Y-35167245D01*
X73218194Y-35101110D01*
X73112327Y-35056570D01*
X73001661Y-35033225D01*
X72889264Y-35030678D01*
X72778205Y-35048529D01*
X72671551Y-35086380D01*
X72572370Y-35143832D01*
X72483731Y-35220487D01*
X72408700Y-35315945D01*
X72394275Y-35339585D01*
X72345243Y-35447634D01*
X72319203Y-35560148D01*
X72315472Y-35674214D01*
X72333368Y-35786918D01*
X72372209Y-35895345D01*
X72431314Y-35996582D01*
X72510000Y-36087714D01*
X72607585Y-36165828D01*
X72610754Y-36167933D01*
X72648511Y-36194540D01*
X72676809Y-36217161D01*
X72689734Y-36231096D01*
X72688103Y-36242021D01*
X72677964Y-36273831D01*
X72659984Y-36323134D01*
X72635392Y-36387013D01*
X72605411Y-36462548D01*
X72571270Y-36546823D01*
X72534192Y-36636920D01*
X72495406Y-36729921D01*
X72456136Y-36822908D01*
X72417609Y-36912964D01*
X72381050Y-36997171D01*
X72347686Y-37072610D01*
X72318743Y-37136365D01*
X72295446Y-37185517D01*
X72279023Y-37217149D01*
X72270698Y-37228343D01*
X72263774Y-37226827D01*
X72236577Y-37215931D01*
X72196380Y-37196828D01*
X72149109Y-37172250D01*
X72045348Y-37116147D01*
X71921739Y-37199755D01*
X71885220Y-37224513D01*
X71817294Y-37270771D01*
X71749575Y-37317103D01*
X71692391Y-37356452D01*
X71660832Y-37377897D01*
X71619814Y-37404539D01*
X71589401Y-37422778D01*
X71574546Y-37429541D01*
X71568165Y-37426670D01*
X71545096Y-37409085D01*
X71509533Y-37378123D01*
X71464571Y-37336831D01*
X71413306Y-37288253D01*
X71358833Y-37235435D01*
X71304248Y-37181423D01*
X71252647Y-37129261D01*
X71207124Y-37081996D01*
X71170775Y-37042672D01*
X71146695Y-37014336D01*
X71137981Y-37000032D01*
X71138483Y-36997311D01*
X71148855Y-36975160D01*
X71171012Y-36936835D01*
X71202812Y-36885800D01*
X71242116Y-36825514D01*
X71286781Y-36759442D01*
X71299307Y-36741217D01*
X71343293Y-36677085D01*
X71382037Y-36620389D01*
X71413282Y-36574444D01*
X71434769Y-36542570D01*
X71444240Y-36528083D01*
X71444473Y-36527462D01*
X71441678Y-36509739D01*
X71431003Y-36473835D01*
X71414181Y-36424262D01*
X71392943Y-36365532D01*
X71369021Y-36302156D01*
X71344146Y-36238646D01*
X71320050Y-36179513D01*
X71298465Y-36129269D01*
X71281123Y-36092426D01*
X71269755Y-36073494D01*
X71268616Y-36072319D01*
X71260476Y-36066373D01*
X71246729Y-36060376D01*
X71224637Y-36053714D01*
X71191463Y-36045773D01*
X71144470Y-36035937D01*
X71080920Y-36023591D01*
X70998076Y-36008120D01*
X70893200Y-35988910D01*
X70871448Y-35984867D01*
X70809136Y-35972369D01*
X70756719Y-35960527D01*
X70719166Y-35950517D01*
X70701443Y-35943516D01*
X70698478Y-35937675D01*
X70693535Y-35909616D01*
X70689618Y-35863100D01*
X70686729Y-35802486D01*
X70684873Y-35732132D01*
X70684052Y-35656396D01*
X70684268Y-35579637D01*
X70685526Y-35506212D01*
X70687828Y-35440480D01*
X70691176Y-35386800D01*
X70695574Y-35349530D01*
X70701026Y-35333027D01*
X70706591Y-35330589D01*
X70734278Y-35322905D01*
X70781079Y-35312036D01*
X70843257Y-35298792D01*
X70917079Y-35283984D01*
X70998810Y-35268423D01*
X71043436Y-35260109D01*
X71119924Y-35245692D01*
X71185760Y-35233067D01*
X71237423Y-35222921D01*
X71271393Y-35215941D01*
X71284148Y-35212812D01*
X71284628Y-35212168D01*
X71292751Y-35195781D01*
X71308237Y-35161452D01*
X71329150Y-35113736D01*
X71353555Y-35057186D01*
X71379516Y-34996358D01*
X71405097Y-34935806D01*
X71428362Y-34880085D01*
X71447377Y-34833750D01*
X71460205Y-34801355D01*
X71464912Y-34787455D01*
X71462836Y-34782565D01*
X71449020Y-34759292D01*
X71423960Y-34720119D01*
X71389668Y-34668120D01*
X71348159Y-34606368D01*
X71301446Y-34537936D01*
X71275818Y-34500460D01*
X71231590Y-34434756D01*
X71193670Y-34377092D01*
X71164080Y-34330614D01*
X71144843Y-34298465D01*
X71137981Y-34283790D01*
X71142749Y-34275830D01*
X71162693Y-34252046D01*
X71195413Y-34216051D01*
X71237905Y-34170895D01*
X71287165Y-34119628D01*
X71340191Y-34065301D01*
X71393977Y-34010964D01*
X71445521Y-33959667D01*
X71491820Y-33914459D01*
X71529869Y-33878392D01*
X71556665Y-33854514D01*
X71569205Y-33845878D01*
X71576166Y-33849236D01*
X71601727Y-33864810D01*
X71642974Y-33891315D01*
X71696937Y-33926810D01*
X71760642Y-33969350D01*
X71831116Y-34016995D01*
X72082762Y-34188112D01*
X72502288Y-34015170D01*
X72559136Y-33713618D01*
X72615985Y-33412066D01*
X73243640Y-33412066D01*
X73300489Y-33713618D01*
G36*
X73300489Y-33713618D02*
G01*
X73357337Y-34015170D01*
X73567101Y-34101641D01*
X73776864Y-34188112D01*
X74028510Y-34016995D01*
X74078316Y-33983261D01*
X74144344Y-33938981D01*
X74201510Y-33901161D01*
X74246844Y-33871742D01*
X74277380Y-33852667D01*
X74290146Y-33845878D01*
X74297987Y-33850706D01*
X74321425Y-33870939D01*
X74356894Y-33904143D01*
X74401389Y-33947270D01*
X74451905Y-33997270D01*
X74505436Y-34051095D01*
X74558977Y-34105695D01*
X74609523Y-34158023D01*
X74654068Y-34205028D01*
X74689607Y-34243663D01*
X74713134Y-34270878D01*
X74721644Y-34283624D01*
X74719665Y-34289100D01*
X74705957Y-34313527D01*
X74680925Y-34353729D01*
X74646599Y-34406552D01*
X74605007Y-34468847D01*
X74558179Y-34537462D01*
X74532480Y-34574883D01*
X74488273Y-34640032D01*
X74450372Y-34696889D01*
X74420798Y-34742370D01*
X74401572Y-34773393D01*
X74394714Y-34786874D01*
X74394826Y-34787621D01*
X74400876Y-34804710D01*
X74414754Y-34839606D01*
X74434527Y-34887751D01*
X74458260Y-34944586D01*
X74484018Y-35005553D01*
X74509866Y-35066092D01*
X74533871Y-35121647D01*
X74554098Y-35167657D01*
X74568611Y-35199565D01*
X74575477Y-35212812D01*
X74579539Y-35213987D01*
X74604221Y-35219287D01*
X74648211Y-35228067D01*
X74707987Y-35239640D01*
X74780029Y-35253321D01*
X74860816Y-35268423D01*
X74903394Y-35276430D01*
X74981545Y-35291707D01*
X75049875Y-35305815D01*
X75104651Y-35317945D01*
X75142137Y-35327286D01*
X75158600Y-35333027D01*
X75161557Y-35338719D01*
X75166462Y-35366530D01*
X75170316Y-35412850D01*
X75173121Y-35473320D01*
X75174881Y-35543583D01*
X75175599Y-35619280D01*
X75175277Y-35696053D01*
X75173919Y-35769544D01*
X75171528Y-35835394D01*
X75168106Y-35889245D01*
X75163656Y-35926738D01*
X75158182Y-35943516D01*
X75154860Y-35945409D01*
X75130087Y-35953526D01*
X75087111Y-35964266D01*
X75030902Y-35976453D01*
X74966425Y-35988910D01*
X74944670Y-35992877D01*
X74844193Y-36011329D01*
X74765226Y-36026159D01*
X74705034Y-36037980D01*
X74660878Y-36047409D01*
X74630020Y-36055060D01*
X74609725Y-36061548D01*
X74597254Y-36067488D01*
X74589871Y-36073494D01*
X74589013Y-36074502D01*
X74576938Y-36095519D01*
X74559071Y-36133976D01*
X74537142Y-36185361D01*
X74512884Y-36245163D01*
X74488027Y-36308870D01*
X74464305Y-36371971D01*
X74443447Y-36429955D01*
X74427187Y-36478309D01*
X74417256Y-36512522D01*
X74415385Y-36528083D01*
X74416636Y-36530102D01*
X74429586Y-36549628D01*
X74453940Y-36585642D01*
X74487440Y-36634828D01*
X74527827Y-36693867D01*
X74572845Y-36759442D01*
X74585200Y-36777484D01*
X74628645Y-36842199D01*
X74666191Y-36900076D01*
X74695694Y-36947682D01*
X74715014Y-36981585D01*
X74722005Y-36998352D01*
X74720498Y-37002761D01*
X74704795Y-37024482D01*
X74673814Y-37059954D01*
X74629773Y-37106788D01*
X74574890Y-37162596D01*
X74511386Y-37224992D01*
X74475088Y-37259917D01*
X74417695Y-37314311D01*
X74367461Y-37360902D01*
X74327084Y-37397236D01*
X74299261Y-37420861D01*
X74286690Y-37429324D01*
X74278052Y-37426187D01*
X74251460Y-37411347D01*
X74212841Y-37387077D01*
X74167234Y-37356452D01*
X74134807Y-37334103D01*
X74070070Y-37289722D01*
X74000986Y-37242587D01*
X73937887Y-37199755D01*
X73814278Y-37116147D01*
X73710517Y-37172250D01*
X73686084Y-37185199D01*
X73641652Y-37207349D01*
X73607291Y-37222641D01*
X73588928Y-37228343D01*
X73582918Y-37221021D01*
X73567995Y-37193141D01*
X73545952Y-37147175D01*
X73518017Y-37086041D01*
X73485417Y-37012655D01*
X73449376Y-36929935D01*
X73411123Y-36840797D01*
X73371883Y-36748159D01*
X73332883Y-36654937D01*
X73295349Y-36564050D01*
X73260509Y-36478414D01*
X73229588Y-36400945D01*
X73203814Y-36334562D01*
X73184411Y-36282182D01*
X73172608Y-36246721D01*
X73169631Y-36231096D01*
X73169832Y-36230639D01*
X73183701Y-36216195D01*
X73212711Y-36193574D01*
X73250872Y-36167464D01*
X73262917Y-36159492D01*
X73354569Y-36083856D01*
X73430423Y-35993769D01*
X73488681Y-35892981D01*
X73527548Y-35785240D01*
X73545228Y-35674297D01*
X73539926Y-35563903D01*
X73518447Y-35465715D01*
X73479882Y-35366566D01*
X73423662Y-35278112D01*
X73346510Y-35194087D01*
X73316195Y-35167245D01*
X73218194Y-35101110D01*
X73112327Y-35056570D01*
X73001661Y-35033225D01*
X72889264Y-35030678D01*
X72778205Y-35048529D01*
X72671551Y-35086380D01*
X72572370Y-35143832D01*
X72483731Y-35220487D01*
X72408700Y-35315945D01*
X72394275Y-35339585D01*
X72345243Y-35447634D01*
X72319203Y-35560148D01*
X72315472Y-35674214D01*
X72333368Y-35786918D01*
X72372209Y-35895345D01*
X72431314Y-35996582D01*
X72510000Y-36087714D01*
X72607585Y-36165828D01*
X72610754Y-36167933D01*
X72648511Y-36194540D01*
X72676809Y-36217161D01*
X72689734Y-36231096D01*
X72688103Y-36242021D01*
X72677964Y-36273831D01*
X72659984Y-36323134D01*
X72635392Y-36387013D01*
X72605411Y-36462548D01*
X72571270Y-36546823D01*
X72534192Y-36636920D01*
X72495406Y-36729921D01*
X72456136Y-36822908D01*
X72417609Y-36912964D01*
X72381050Y-36997171D01*
X72347686Y-37072610D01*
X72318743Y-37136365D01*
X72295446Y-37185517D01*
X72279023Y-37217149D01*
X72270698Y-37228343D01*
X72263774Y-37226827D01*
X72236577Y-37215931D01*
X72196380Y-37196828D01*
X72149109Y-37172250D01*
X72045348Y-37116147D01*
X71921739Y-37199755D01*
X71885220Y-37224513D01*
X71817294Y-37270771D01*
X71749575Y-37317103D01*
X71692391Y-37356452D01*
X71660832Y-37377897D01*
X71619814Y-37404539D01*
X71589401Y-37422778D01*
X71574546Y-37429541D01*
X71568165Y-37426670D01*
X71545096Y-37409085D01*
X71509533Y-37378123D01*
X71464571Y-37336831D01*
X71413306Y-37288253D01*
X71358833Y-37235435D01*
X71304248Y-37181423D01*
X71252647Y-37129261D01*
X71207124Y-37081996D01*
X71170775Y-37042672D01*
X71146695Y-37014336D01*
X71137981Y-37000032D01*
X71138483Y-36997311D01*
X71148855Y-36975160D01*
X71171012Y-36936835D01*
X71202812Y-36885800D01*
X71242116Y-36825514D01*
X71286781Y-36759442D01*
X71299307Y-36741217D01*
X71343293Y-36677085D01*
X71382037Y-36620389D01*
X71413282Y-36574444D01*
X71434769Y-36542570D01*
X71444240Y-36528083D01*
X71444473Y-36527462D01*
X71441678Y-36509739D01*
X71431003Y-36473835D01*
X71414181Y-36424262D01*
X71392943Y-36365532D01*
X71369021Y-36302156D01*
X71344146Y-36238646D01*
X71320050Y-36179513D01*
X71298465Y-36129269D01*
X71281123Y-36092426D01*
X71269755Y-36073494D01*
X71268616Y-36072319D01*
X71260476Y-36066373D01*
X71246729Y-36060376D01*
X71224637Y-36053714D01*
X71191463Y-36045773D01*
X71144470Y-36035937D01*
X71080920Y-36023591D01*
X70998076Y-36008120D01*
X70893200Y-35988910D01*
X70871448Y-35984867D01*
X70809136Y-35972369D01*
X70756719Y-35960527D01*
X70719166Y-35950517D01*
X70701443Y-35943516D01*
X70698478Y-35937675D01*
X70693535Y-35909616D01*
X70689618Y-35863100D01*
X70686729Y-35802486D01*
X70684873Y-35732132D01*
X70684052Y-35656396D01*
X70684268Y-35579637D01*
X70685526Y-35506212D01*
X70687828Y-35440480D01*
X70691176Y-35386800D01*
X70695574Y-35349530D01*
X70701026Y-35333027D01*
X70706591Y-35330589D01*
X70734278Y-35322905D01*
X70781079Y-35312036D01*
X70843257Y-35298792D01*
X70917079Y-35283984D01*
X70998810Y-35268423D01*
X71043436Y-35260109D01*
X71119924Y-35245692D01*
X71185760Y-35233067D01*
X71237423Y-35222921D01*
X71271393Y-35215941D01*
X71284148Y-35212812D01*
X71284628Y-35212168D01*
X71292751Y-35195781D01*
X71308237Y-35161452D01*
X71329150Y-35113736D01*
X71353555Y-35057186D01*
X71379516Y-34996358D01*
X71405097Y-34935806D01*
X71428362Y-34880085D01*
X71447377Y-34833750D01*
X71460205Y-34801355D01*
X71464912Y-34787455D01*
X71462836Y-34782565D01*
X71449020Y-34759292D01*
X71423960Y-34720119D01*
X71389668Y-34668120D01*
X71348159Y-34606368D01*
X71301446Y-34537936D01*
X71275818Y-34500460D01*
X71231590Y-34434756D01*
X71193670Y-34377092D01*
X71164080Y-34330614D01*
X71144843Y-34298465D01*
X71137981Y-34283790D01*
X71142749Y-34275830D01*
X71162693Y-34252046D01*
X71195413Y-34216051D01*
X71237905Y-34170895D01*
X71287165Y-34119628D01*
X71340191Y-34065301D01*
X71393977Y-34010964D01*
X71445521Y-33959667D01*
X71491820Y-33914459D01*
X71529869Y-33878392D01*
X71556665Y-33854514D01*
X71569205Y-33845878D01*
X71576166Y-33849236D01*
X71601727Y-33864810D01*
X71642974Y-33891315D01*
X71696937Y-33926810D01*
X71760642Y-33969350D01*
X71831116Y-34016995D01*
X72082762Y-34188112D01*
X72502288Y-34015170D01*
X72559136Y-33713618D01*
X72615985Y-33412066D01*
X73243640Y-33412066D01*
X73300489Y-33713618D01*
G37*
D13*
X65798000Y-40305000D02*
X65798000Y-39705000D01*
X66448000Y-39005000D02*
X69248000Y-39005000D01*
X68748000Y-41505000D02*
X69048000Y-41205000D01*
X68748000Y-41505000D02*
X69348000Y-41505000D01*
X69248000Y-41005000D02*
X66448000Y-41005000D01*
X69348000Y-41505000D02*
X69048000Y-41205000D01*
X69898000Y-39705000D02*
X69898000Y-40305000D01*
X65798000Y-39705000D02*
G75*
G02*
X66498000Y-39005000I700000J0D01*
G01*
X66498000Y-41005000D02*
G75*
G02*
X65798000Y-40305000I0J700000D01*
G01*
X69198000Y-39005000D02*
G75*
G02*
X69898000Y-39705000I1J-699999D01*
G01*
X69898000Y-40305000D02*
G75*
G02*
X69198000Y-41005000I-699999J-1D01*
G01*
X61530000Y-42734000D02*
X62930000Y-42734000D01*
X61530000Y-44134000D02*
X61530000Y-42734000D01*
X62930000Y-42734000D02*
X62930000Y-44134000D01*
X62930000Y-44134000D02*
X61530000Y-44134000D01*
X69099200Y-43394400D02*
X70499200Y-43394400D01*
X69099200Y-44794400D02*
X69099200Y-43394400D01*
X70499200Y-43394400D02*
X70499200Y-44794400D01*
X70499200Y-44794400D02*
X69099200Y-44794400D01*
X56450000Y-38974800D02*
X57850000Y-38974800D01*
X56450000Y-40374800D02*
X56450000Y-38974800D01*
X57850000Y-38974800D02*
X57850000Y-40374800D01*
X57850000Y-40374800D02*
X56450000Y-40374800D01*
X58990000Y-42734000D02*
X60390000Y-42734000D01*
X58990000Y-44134000D02*
X58990000Y-42734000D01*
X60390000Y-42734000D02*
X60390000Y-44134000D01*
X60390000Y-44134000D02*
X58990000Y-44134000D01*
X66610000Y-43394400D02*
X68010000Y-43394400D01*
X66610000Y-44794400D02*
X66610000Y-43394400D01*
X68010000Y-43394400D02*
X68010000Y-44794400D01*
X68010000Y-44794400D02*
X66610000Y-44794400D01*
X64070000Y-43394400D02*
X65470000Y-43394400D01*
X64070000Y-44794400D02*
X64070000Y-43394400D01*
X65470000Y-43394400D02*
X65470000Y-44794400D01*
X65470000Y-44794400D02*
X64070000Y-44794400D01*
X52640000Y-43242000D02*
X54040000Y-43242000D01*
X52640000Y-44642000D02*
X52640000Y-43242000D01*
X54040000Y-43242000D02*
X54040000Y-44642000D01*
X54040000Y-44642000D02*
X52640000Y-44642000D01*
X52640000Y-31302000D02*
X54040000Y-31302000D01*
X52640000Y-32702000D02*
X52640000Y-31302000D01*
X54040000Y-31302000D02*
X54040000Y-32702000D01*
X54040000Y-32702000D02*
X52640000Y-32702000D01*
X42226000Y-38924000D02*
X43626000Y-38924000D01*
X42226000Y-40324000D02*
X42226000Y-38924000D01*
X43626000Y-38924000D02*
X43626000Y-40324000D01*
X43626000Y-40324000D02*
X42226000Y-40324000D01*
X52640000Y-33336000D02*
X54040000Y-33336000D01*
X52640000Y-34736000D02*
X52640000Y-33336000D01*
X54040000Y-33336000D02*
X54040000Y-34736000D01*
X54040000Y-34736000D02*
X52640000Y-34736000D01*
X55434000Y-42480000D02*
X56834000Y-42480000D01*
X55434000Y-43880000D02*
X55434000Y-42480000D01*
X56834000Y-42480000D02*
X56834000Y-43880000D01*
X56834000Y-43880000D02*
X55434000Y-43880000D01*
X58990000Y-34098000D02*
X60390000Y-34098000D01*
X58990000Y-35498000D02*
X58990000Y-34098000D01*
X60390000Y-34098000D02*
X60390000Y-35498000D01*
X60390000Y-35498000D02*
X58990000Y-35498000D01*
M02*
