G04 #@! TF.GenerationSoftware,KiCad,Pcbnew,8.0.3*
G04 #@! TF.CreationDate,2024-06-26T11:29:35-05:00*
G04 #@! TF.ProjectId,Bald Sense Wing v3,42616c64-2053-4656-9e73-652057696e67,rev?*
G04 #@! TF.SameCoordinates,Original*
G04 #@! TF.FileFunction,Soldermask,Bot*
G04 #@! TF.FilePolarity,Negative*
%FSLAX46Y46*%
G04 Gerber Fmt 4.6, Leading zero omitted, Abs format (unit mm)*
G04 Created by KiCad (PCBNEW 8.0.3) date 2024-06-26 11:29:35*
%MOMM*%
%LPD*%
G01*
G04 APERTURE LIST*
G04 APERTURE END LIST*
G36*
X40239517Y-46092882D02*
G01*
X40256062Y-46103938D01*
X40267118Y-46120483D01*
X40271000Y-46140000D01*
X40271000Y-47840000D01*
X40267118Y-47859517D01*
X40256062Y-47876062D01*
X40239517Y-47887118D01*
X40220000Y-47891000D01*
X38520000Y-47891000D01*
X38500483Y-47887118D01*
X38483938Y-47876062D01*
X38472882Y-47859517D01*
X38469000Y-47840000D01*
X38469000Y-46140000D01*
X38472882Y-46120483D01*
X38483938Y-46103938D01*
X38500483Y-46092882D01*
X38520000Y-46089000D01*
X40220000Y-46089000D01*
X40239517Y-46092882D01*
G37*
G36*
X31796378Y-46093936D02*
G01*
X31844180Y-46093936D01*
X31885458Y-46102710D01*
X31925704Y-46106674D01*
X31976264Y-46122011D01*
X32028424Y-46133098D01*
X32061800Y-46147957D01*
X32094654Y-46157924D01*
X32146864Y-46185830D01*
X32200500Y-46209711D01*
X32225436Y-46227828D01*
X32250365Y-46241153D01*
X32301218Y-46282887D01*
X32352887Y-46320427D01*
X32369662Y-46339058D01*
X32386842Y-46353157D01*
X32433006Y-46409409D01*
X32478924Y-46460405D01*
X32488570Y-46477113D01*
X32498846Y-46489634D01*
X32536859Y-46560752D01*
X32573104Y-46623530D01*
X32577273Y-46636361D01*
X32582075Y-46645345D01*
X32608545Y-46732607D01*
X32631311Y-46802672D01*
X32632112Y-46810297D01*
X32633325Y-46814295D01*
X32645132Y-46934173D01*
X32651000Y-46990000D01*
X32645131Y-47045831D01*
X32633325Y-47165704D01*
X32632112Y-47169700D01*
X32631311Y-47177328D01*
X32608541Y-47247406D01*
X32582075Y-47334654D01*
X32577274Y-47343635D01*
X32573104Y-47356470D01*
X32536852Y-47419259D01*
X32498846Y-47490365D01*
X32488572Y-47502883D01*
X32478924Y-47519595D01*
X32432997Y-47570601D01*
X32386842Y-47626842D01*
X32369666Y-47640937D01*
X32352887Y-47659573D01*
X32301208Y-47697119D01*
X32250365Y-47738846D01*
X32225441Y-47752167D01*
X32200500Y-47770289D01*
X32146853Y-47794174D01*
X32094654Y-47822075D01*
X32061807Y-47832038D01*
X32028424Y-47846902D01*
X31976253Y-47857991D01*
X31925704Y-47873325D01*
X31885467Y-47877288D01*
X31844180Y-47886064D01*
X31796368Y-47886064D01*
X31750000Y-47890631D01*
X31703632Y-47886064D01*
X31655820Y-47886064D01*
X31614532Y-47877288D01*
X31574295Y-47873325D01*
X31523743Y-47857990D01*
X31471576Y-47846902D01*
X31438195Y-47832039D01*
X31405345Y-47822075D01*
X31353140Y-47794171D01*
X31299500Y-47770289D01*
X31274561Y-47752169D01*
X31249634Y-47738846D01*
X31198782Y-47697113D01*
X31147113Y-47659573D01*
X31130336Y-47640940D01*
X31113157Y-47626842D01*
X31066990Y-47570588D01*
X31021076Y-47519595D01*
X31011429Y-47502887D01*
X31001153Y-47490365D01*
X30963134Y-47419236D01*
X30926896Y-47356470D01*
X30922727Y-47343640D01*
X30917924Y-47334654D01*
X30891443Y-47247360D01*
X30868689Y-47177328D01*
X30867887Y-47169705D01*
X30866674Y-47165704D01*
X30854852Y-47045679D01*
X30849000Y-46990000D01*
X30854851Y-46934324D01*
X30866674Y-46814295D01*
X30867888Y-46810292D01*
X30868689Y-46802672D01*
X30891439Y-46732653D01*
X30917924Y-46645345D01*
X30922728Y-46636356D01*
X30926896Y-46623530D01*
X30963126Y-46560776D01*
X31001153Y-46489634D01*
X31011431Y-46477109D01*
X31021076Y-46460405D01*
X31066981Y-46409421D01*
X31113157Y-46353157D01*
X31130340Y-46339055D01*
X31147113Y-46320427D01*
X31198772Y-46282894D01*
X31249634Y-46241153D01*
X31274566Y-46227826D01*
X31299500Y-46209711D01*
X31353129Y-46185833D01*
X31405345Y-46157924D01*
X31438202Y-46147957D01*
X31471576Y-46133098D01*
X31523732Y-46122011D01*
X31574295Y-46106674D01*
X31614541Y-46102709D01*
X31655820Y-46093936D01*
X31703622Y-46093936D01*
X31750000Y-46089368D01*
X31796378Y-46093936D01*
G37*
G36*
X34336378Y-46093936D02*
G01*
X34384180Y-46093936D01*
X34425458Y-46102710D01*
X34465704Y-46106674D01*
X34516264Y-46122011D01*
X34568424Y-46133098D01*
X34601800Y-46147957D01*
X34634654Y-46157924D01*
X34686864Y-46185830D01*
X34740500Y-46209711D01*
X34765436Y-46227828D01*
X34790365Y-46241153D01*
X34841218Y-46282887D01*
X34892887Y-46320427D01*
X34909662Y-46339058D01*
X34926842Y-46353157D01*
X34973006Y-46409409D01*
X35018924Y-46460405D01*
X35028570Y-46477113D01*
X35038846Y-46489634D01*
X35076859Y-46560752D01*
X35113104Y-46623530D01*
X35117273Y-46636361D01*
X35122075Y-46645345D01*
X35148545Y-46732607D01*
X35171311Y-46802672D01*
X35172112Y-46810297D01*
X35173325Y-46814295D01*
X35185132Y-46934173D01*
X35191000Y-46990000D01*
X35185131Y-47045831D01*
X35173325Y-47165704D01*
X35172112Y-47169700D01*
X35171311Y-47177328D01*
X35148541Y-47247406D01*
X35122075Y-47334654D01*
X35117274Y-47343635D01*
X35113104Y-47356470D01*
X35076852Y-47419259D01*
X35038846Y-47490365D01*
X35028572Y-47502883D01*
X35018924Y-47519595D01*
X34972997Y-47570601D01*
X34926842Y-47626842D01*
X34909666Y-47640937D01*
X34892887Y-47659573D01*
X34841208Y-47697119D01*
X34790365Y-47738846D01*
X34765441Y-47752167D01*
X34740500Y-47770289D01*
X34686853Y-47794174D01*
X34634654Y-47822075D01*
X34601807Y-47832038D01*
X34568424Y-47846902D01*
X34516253Y-47857991D01*
X34465704Y-47873325D01*
X34425467Y-47877288D01*
X34384180Y-47886064D01*
X34336368Y-47886064D01*
X34290000Y-47890631D01*
X34243632Y-47886064D01*
X34195820Y-47886064D01*
X34154532Y-47877288D01*
X34114295Y-47873325D01*
X34063743Y-47857990D01*
X34011576Y-47846902D01*
X33978195Y-47832039D01*
X33945345Y-47822075D01*
X33893140Y-47794171D01*
X33839500Y-47770289D01*
X33814561Y-47752169D01*
X33789634Y-47738846D01*
X33738782Y-47697113D01*
X33687113Y-47659573D01*
X33670336Y-47640940D01*
X33653157Y-47626842D01*
X33606990Y-47570588D01*
X33561076Y-47519595D01*
X33551429Y-47502887D01*
X33541153Y-47490365D01*
X33503134Y-47419236D01*
X33466896Y-47356470D01*
X33462727Y-47343640D01*
X33457924Y-47334654D01*
X33431443Y-47247360D01*
X33408689Y-47177328D01*
X33407887Y-47169705D01*
X33406674Y-47165704D01*
X33394852Y-47045679D01*
X33389000Y-46990000D01*
X33394851Y-46934324D01*
X33406674Y-46814295D01*
X33407888Y-46810292D01*
X33408689Y-46802672D01*
X33431439Y-46732653D01*
X33457924Y-46645345D01*
X33462728Y-46636356D01*
X33466896Y-46623530D01*
X33503126Y-46560776D01*
X33541153Y-46489634D01*
X33551431Y-46477109D01*
X33561076Y-46460405D01*
X33606981Y-46409421D01*
X33653157Y-46353157D01*
X33670340Y-46339055D01*
X33687113Y-46320427D01*
X33738772Y-46282894D01*
X33789634Y-46241153D01*
X33814566Y-46227826D01*
X33839500Y-46209711D01*
X33893129Y-46185833D01*
X33945345Y-46157924D01*
X33978202Y-46147957D01*
X34011576Y-46133098D01*
X34063732Y-46122011D01*
X34114295Y-46106674D01*
X34154541Y-46102709D01*
X34195820Y-46093936D01*
X34243622Y-46093936D01*
X34290000Y-46089368D01*
X34336378Y-46093936D01*
G37*
G36*
X36876378Y-46093936D02*
G01*
X36924180Y-46093936D01*
X36965458Y-46102710D01*
X37005704Y-46106674D01*
X37056264Y-46122011D01*
X37108424Y-46133098D01*
X37141800Y-46147957D01*
X37174654Y-46157924D01*
X37226864Y-46185830D01*
X37280500Y-46209711D01*
X37305436Y-46227828D01*
X37330365Y-46241153D01*
X37381218Y-46282887D01*
X37432887Y-46320427D01*
X37449662Y-46339058D01*
X37466842Y-46353157D01*
X37513006Y-46409409D01*
X37558924Y-46460405D01*
X37568570Y-46477113D01*
X37578846Y-46489634D01*
X37616859Y-46560752D01*
X37653104Y-46623530D01*
X37657273Y-46636361D01*
X37662075Y-46645345D01*
X37688545Y-46732607D01*
X37711311Y-46802672D01*
X37712112Y-46810297D01*
X37713325Y-46814295D01*
X37725132Y-46934173D01*
X37731000Y-46990000D01*
X37725131Y-47045831D01*
X37713325Y-47165704D01*
X37712112Y-47169700D01*
X37711311Y-47177328D01*
X37688541Y-47247406D01*
X37662075Y-47334654D01*
X37657274Y-47343635D01*
X37653104Y-47356470D01*
X37616852Y-47419259D01*
X37578846Y-47490365D01*
X37568572Y-47502883D01*
X37558924Y-47519595D01*
X37512997Y-47570601D01*
X37466842Y-47626842D01*
X37449666Y-47640937D01*
X37432887Y-47659573D01*
X37381208Y-47697119D01*
X37330365Y-47738846D01*
X37305441Y-47752167D01*
X37280500Y-47770289D01*
X37226853Y-47794174D01*
X37174654Y-47822075D01*
X37141807Y-47832038D01*
X37108424Y-47846902D01*
X37056253Y-47857991D01*
X37005704Y-47873325D01*
X36965467Y-47877288D01*
X36924180Y-47886064D01*
X36876368Y-47886064D01*
X36830000Y-47890631D01*
X36783632Y-47886064D01*
X36735820Y-47886064D01*
X36694532Y-47877288D01*
X36654295Y-47873325D01*
X36603743Y-47857990D01*
X36551576Y-47846902D01*
X36518195Y-47832039D01*
X36485345Y-47822075D01*
X36433140Y-47794171D01*
X36379500Y-47770289D01*
X36354561Y-47752169D01*
X36329634Y-47738846D01*
X36278782Y-47697113D01*
X36227113Y-47659573D01*
X36210336Y-47640940D01*
X36193157Y-47626842D01*
X36146990Y-47570588D01*
X36101076Y-47519595D01*
X36091429Y-47502887D01*
X36081153Y-47490365D01*
X36043134Y-47419236D01*
X36006896Y-47356470D01*
X36002727Y-47343640D01*
X35997924Y-47334654D01*
X35971443Y-47247360D01*
X35948689Y-47177328D01*
X35947887Y-47169705D01*
X35946674Y-47165704D01*
X35934852Y-47045679D01*
X35929000Y-46990000D01*
X35934851Y-46934324D01*
X35946674Y-46814295D01*
X35947888Y-46810292D01*
X35948689Y-46802672D01*
X35971439Y-46732653D01*
X35997924Y-46645345D01*
X36002728Y-46636356D01*
X36006896Y-46623530D01*
X36043126Y-46560776D01*
X36081153Y-46489634D01*
X36091431Y-46477109D01*
X36101076Y-46460405D01*
X36146981Y-46409421D01*
X36193157Y-46353157D01*
X36210340Y-46339055D01*
X36227113Y-46320427D01*
X36278772Y-46282894D01*
X36329634Y-46241153D01*
X36354566Y-46227826D01*
X36379500Y-46209711D01*
X36433129Y-46185833D01*
X36485345Y-46157924D01*
X36518202Y-46147957D01*
X36551576Y-46133098D01*
X36603732Y-46122011D01*
X36654295Y-46106674D01*
X36694541Y-46102709D01*
X36735820Y-46093936D01*
X36783622Y-46093936D01*
X36830000Y-46089368D01*
X36876378Y-46093936D01*
G37*
G36*
X41956378Y-46093936D02*
G01*
X42004180Y-46093936D01*
X42045458Y-46102710D01*
X42085704Y-46106674D01*
X42136264Y-46122011D01*
X42188424Y-46133098D01*
X42221800Y-46147957D01*
X42254654Y-46157924D01*
X42306864Y-46185830D01*
X42360500Y-46209711D01*
X42385436Y-46227828D01*
X42410365Y-46241153D01*
X42461218Y-46282887D01*
X42512887Y-46320427D01*
X42529662Y-46339058D01*
X42546842Y-46353157D01*
X42593006Y-46409409D01*
X42638924Y-46460405D01*
X42648570Y-46477113D01*
X42658846Y-46489634D01*
X42696859Y-46560752D01*
X42733104Y-46623530D01*
X42737273Y-46636361D01*
X42742075Y-46645345D01*
X42768545Y-46732607D01*
X42791311Y-46802672D01*
X42792112Y-46810297D01*
X42793325Y-46814295D01*
X42805132Y-46934173D01*
X42811000Y-46990000D01*
X42805131Y-47045831D01*
X42793325Y-47165704D01*
X42792112Y-47169700D01*
X42791311Y-47177328D01*
X42768541Y-47247406D01*
X42742075Y-47334654D01*
X42737274Y-47343635D01*
X42733104Y-47356470D01*
X42696852Y-47419259D01*
X42658846Y-47490365D01*
X42648572Y-47502883D01*
X42638924Y-47519595D01*
X42592997Y-47570601D01*
X42546842Y-47626842D01*
X42529666Y-47640937D01*
X42512887Y-47659573D01*
X42461208Y-47697119D01*
X42410365Y-47738846D01*
X42385441Y-47752167D01*
X42360500Y-47770289D01*
X42306853Y-47794174D01*
X42254654Y-47822075D01*
X42221807Y-47832038D01*
X42188424Y-47846902D01*
X42136253Y-47857991D01*
X42085704Y-47873325D01*
X42045467Y-47877288D01*
X42004180Y-47886064D01*
X41956368Y-47886064D01*
X41910000Y-47890631D01*
X41863632Y-47886064D01*
X41815820Y-47886064D01*
X41774532Y-47877288D01*
X41734295Y-47873325D01*
X41683743Y-47857990D01*
X41631576Y-47846902D01*
X41598195Y-47832039D01*
X41565345Y-47822075D01*
X41513140Y-47794171D01*
X41459500Y-47770289D01*
X41434561Y-47752169D01*
X41409634Y-47738846D01*
X41358782Y-47697113D01*
X41307113Y-47659573D01*
X41290336Y-47640940D01*
X41273157Y-47626842D01*
X41226990Y-47570588D01*
X41181076Y-47519595D01*
X41171429Y-47502887D01*
X41161153Y-47490365D01*
X41123134Y-47419236D01*
X41086896Y-47356470D01*
X41082727Y-47343640D01*
X41077924Y-47334654D01*
X41051443Y-47247360D01*
X41028689Y-47177328D01*
X41027887Y-47169705D01*
X41026674Y-47165704D01*
X41014852Y-47045679D01*
X41009000Y-46990000D01*
X41014851Y-46934324D01*
X41026674Y-46814295D01*
X41027888Y-46810292D01*
X41028689Y-46802672D01*
X41051439Y-46732653D01*
X41077924Y-46645345D01*
X41082728Y-46636356D01*
X41086896Y-46623530D01*
X41123126Y-46560776D01*
X41161153Y-46489634D01*
X41171431Y-46477109D01*
X41181076Y-46460405D01*
X41226981Y-46409421D01*
X41273157Y-46353157D01*
X41290340Y-46339055D01*
X41307113Y-46320427D01*
X41358772Y-46282894D01*
X41409634Y-46241153D01*
X41434566Y-46227826D01*
X41459500Y-46209711D01*
X41513129Y-46185833D01*
X41565345Y-46157924D01*
X41598202Y-46147957D01*
X41631576Y-46133098D01*
X41683732Y-46122011D01*
X41734295Y-46106674D01*
X41774541Y-46102709D01*
X41815820Y-46093936D01*
X41863622Y-46093936D01*
X41910000Y-46089368D01*
X41956378Y-46093936D01*
G37*
G36*
X44496378Y-46093936D02*
G01*
X44544180Y-46093936D01*
X44585458Y-46102710D01*
X44625704Y-46106674D01*
X44676264Y-46122011D01*
X44728424Y-46133098D01*
X44761800Y-46147957D01*
X44794654Y-46157924D01*
X44846864Y-46185830D01*
X44900500Y-46209711D01*
X44925436Y-46227828D01*
X44950365Y-46241153D01*
X45001218Y-46282887D01*
X45052887Y-46320427D01*
X45069662Y-46339058D01*
X45086842Y-46353157D01*
X45133006Y-46409409D01*
X45178924Y-46460405D01*
X45188570Y-46477113D01*
X45198846Y-46489634D01*
X45236859Y-46560752D01*
X45273104Y-46623530D01*
X45277273Y-46636361D01*
X45282075Y-46645345D01*
X45308545Y-46732607D01*
X45331311Y-46802672D01*
X45332112Y-46810297D01*
X45333325Y-46814295D01*
X45345132Y-46934173D01*
X45351000Y-46990000D01*
X45345131Y-47045831D01*
X45333325Y-47165704D01*
X45332112Y-47169700D01*
X45331311Y-47177328D01*
X45308541Y-47247406D01*
X45282075Y-47334654D01*
X45277274Y-47343635D01*
X45273104Y-47356470D01*
X45236852Y-47419259D01*
X45198846Y-47490365D01*
X45188572Y-47502883D01*
X45178924Y-47519595D01*
X45132997Y-47570601D01*
X45086842Y-47626842D01*
X45069666Y-47640937D01*
X45052887Y-47659573D01*
X45001208Y-47697119D01*
X44950365Y-47738846D01*
X44925441Y-47752167D01*
X44900500Y-47770289D01*
X44846853Y-47794174D01*
X44794654Y-47822075D01*
X44761807Y-47832038D01*
X44728424Y-47846902D01*
X44676253Y-47857991D01*
X44625704Y-47873325D01*
X44585467Y-47877288D01*
X44544180Y-47886064D01*
X44496368Y-47886064D01*
X44450000Y-47890631D01*
X44403632Y-47886064D01*
X44355820Y-47886064D01*
X44314532Y-47877288D01*
X44274295Y-47873325D01*
X44223743Y-47857990D01*
X44171576Y-47846902D01*
X44138195Y-47832039D01*
X44105345Y-47822075D01*
X44053140Y-47794171D01*
X43999500Y-47770289D01*
X43974561Y-47752169D01*
X43949634Y-47738846D01*
X43898782Y-47697113D01*
X43847113Y-47659573D01*
X43830336Y-47640940D01*
X43813157Y-47626842D01*
X43766990Y-47570588D01*
X43721076Y-47519595D01*
X43711429Y-47502887D01*
X43701153Y-47490365D01*
X43663134Y-47419236D01*
X43626896Y-47356470D01*
X43622727Y-47343640D01*
X43617924Y-47334654D01*
X43591443Y-47247360D01*
X43568689Y-47177328D01*
X43567887Y-47169705D01*
X43566674Y-47165704D01*
X43554852Y-47045679D01*
X43549000Y-46990000D01*
X43554851Y-46934324D01*
X43566674Y-46814295D01*
X43567888Y-46810292D01*
X43568689Y-46802672D01*
X43591439Y-46732653D01*
X43617924Y-46645345D01*
X43622728Y-46636356D01*
X43626896Y-46623530D01*
X43663126Y-46560776D01*
X43701153Y-46489634D01*
X43711431Y-46477109D01*
X43721076Y-46460405D01*
X43766981Y-46409421D01*
X43813157Y-46353157D01*
X43830340Y-46339055D01*
X43847113Y-46320427D01*
X43898772Y-46282894D01*
X43949634Y-46241153D01*
X43974566Y-46227826D01*
X43999500Y-46209711D01*
X44053129Y-46185833D01*
X44105345Y-46157924D01*
X44138202Y-46147957D01*
X44171576Y-46133098D01*
X44223732Y-46122011D01*
X44274295Y-46106674D01*
X44314541Y-46102709D01*
X44355820Y-46093936D01*
X44403622Y-46093936D01*
X44450000Y-46089368D01*
X44496378Y-46093936D01*
G37*
G36*
X47036378Y-46093936D02*
G01*
X47084180Y-46093936D01*
X47125458Y-46102710D01*
X47165704Y-46106674D01*
X47216264Y-46122011D01*
X47268424Y-46133098D01*
X47301800Y-46147957D01*
X47334654Y-46157924D01*
X47386864Y-46185830D01*
X47440500Y-46209711D01*
X47465436Y-46227828D01*
X47490365Y-46241153D01*
X47541218Y-46282887D01*
X47592887Y-46320427D01*
X47609662Y-46339058D01*
X47626842Y-46353157D01*
X47673006Y-46409409D01*
X47718924Y-46460405D01*
X47728570Y-46477113D01*
X47738846Y-46489634D01*
X47776859Y-46560752D01*
X47813104Y-46623530D01*
X47817273Y-46636361D01*
X47822075Y-46645345D01*
X47848545Y-46732607D01*
X47871311Y-46802672D01*
X47872112Y-46810297D01*
X47873325Y-46814295D01*
X47885132Y-46934173D01*
X47891000Y-46990000D01*
X47885131Y-47045831D01*
X47873325Y-47165704D01*
X47872112Y-47169700D01*
X47871311Y-47177328D01*
X47848541Y-47247406D01*
X47822075Y-47334654D01*
X47817274Y-47343635D01*
X47813104Y-47356470D01*
X47776852Y-47419259D01*
X47738846Y-47490365D01*
X47728572Y-47502883D01*
X47718924Y-47519595D01*
X47672997Y-47570601D01*
X47626842Y-47626842D01*
X47609666Y-47640937D01*
X47592887Y-47659573D01*
X47541208Y-47697119D01*
X47490365Y-47738846D01*
X47465441Y-47752167D01*
X47440500Y-47770289D01*
X47386853Y-47794174D01*
X47334654Y-47822075D01*
X47301807Y-47832038D01*
X47268424Y-47846902D01*
X47216253Y-47857991D01*
X47165704Y-47873325D01*
X47125467Y-47877288D01*
X47084180Y-47886064D01*
X47036368Y-47886064D01*
X46990000Y-47890631D01*
X46943632Y-47886064D01*
X46895820Y-47886064D01*
X46854532Y-47877288D01*
X46814295Y-47873325D01*
X46763743Y-47857990D01*
X46711576Y-47846902D01*
X46678195Y-47832039D01*
X46645345Y-47822075D01*
X46593140Y-47794171D01*
X46539500Y-47770289D01*
X46514561Y-47752169D01*
X46489634Y-47738846D01*
X46438782Y-47697113D01*
X46387113Y-47659573D01*
X46370336Y-47640940D01*
X46353157Y-47626842D01*
X46306990Y-47570588D01*
X46261076Y-47519595D01*
X46251429Y-47502887D01*
X46241153Y-47490365D01*
X46203134Y-47419236D01*
X46166896Y-47356470D01*
X46162727Y-47343640D01*
X46157924Y-47334654D01*
X46131443Y-47247360D01*
X46108689Y-47177328D01*
X46107887Y-47169705D01*
X46106674Y-47165704D01*
X46094852Y-47045679D01*
X46089000Y-46990000D01*
X46094851Y-46934324D01*
X46106674Y-46814295D01*
X46107888Y-46810292D01*
X46108689Y-46802672D01*
X46131439Y-46732653D01*
X46157924Y-46645345D01*
X46162728Y-46636356D01*
X46166896Y-46623530D01*
X46203126Y-46560776D01*
X46241153Y-46489634D01*
X46251431Y-46477109D01*
X46261076Y-46460405D01*
X46306981Y-46409421D01*
X46353157Y-46353157D01*
X46370340Y-46339055D01*
X46387113Y-46320427D01*
X46438772Y-46282894D01*
X46489634Y-46241153D01*
X46514566Y-46227826D01*
X46539500Y-46209711D01*
X46593129Y-46185833D01*
X46645345Y-46157924D01*
X46678202Y-46147957D01*
X46711576Y-46133098D01*
X46763732Y-46122011D01*
X46814295Y-46106674D01*
X46854541Y-46102709D01*
X46895820Y-46093936D01*
X46943622Y-46093936D01*
X46990000Y-46089368D01*
X47036378Y-46093936D01*
G37*
G36*
X49576378Y-46093936D02*
G01*
X49624180Y-46093936D01*
X49665458Y-46102710D01*
X49705704Y-46106674D01*
X49756264Y-46122011D01*
X49808424Y-46133098D01*
X49841800Y-46147957D01*
X49874654Y-46157924D01*
X49926864Y-46185830D01*
X49980500Y-46209711D01*
X50005436Y-46227828D01*
X50030365Y-46241153D01*
X50081218Y-46282887D01*
X50132887Y-46320427D01*
X50149662Y-46339058D01*
X50166842Y-46353157D01*
X50213006Y-46409409D01*
X50258924Y-46460405D01*
X50268570Y-46477113D01*
X50278846Y-46489634D01*
X50316859Y-46560752D01*
X50353104Y-46623530D01*
X50357273Y-46636361D01*
X50362075Y-46645345D01*
X50388545Y-46732607D01*
X50411311Y-46802672D01*
X50412112Y-46810297D01*
X50413325Y-46814295D01*
X50425132Y-46934173D01*
X50431000Y-46990000D01*
X50425131Y-47045831D01*
X50413325Y-47165704D01*
X50412112Y-47169700D01*
X50411311Y-47177328D01*
X50388541Y-47247406D01*
X50362075Y-47334654D01*
X50357274Y-47343635D01*
X50353104Y-47356470D01*
X50316852Y-47419259D01*
X50278846Y-47490365D01*
X50268572Y-47502883D01*
X50258924Y-47519595D01*
X50212997Y-47570601D01*
X50166842Y-47626842D01*
X50149666Y-47640937D01*
X50132887Y-47659573D01*
X50081208Y-47697119D01*
X50030365Y-47738846D01*
X50005441Y-47752167D01*
X49980500Y-47770289D01*
X49926853Y-47794174D01*
X49874654Y-47822075D01*
X49841807Y-47832038D01*
X49808424Y-47846902D01*
X49756253Y-47857991D01*
X49705704Y-47873325D01*
X49665467Y-47877288D01*
X49624180Y-47886064D01*
X49576368Y-47886064D01*
X49530000Y-47890631D01*
X49483632Y-47886064D01*
X49435820Y-47886064D01*
X49394532Y-47877288D01*
X49354295Y-47873325D01*
X49303743Y-47857990D01*
X49251576Y-47846902D01*
X49218195Y-47832039D01*
X49185345Y-47822075D01*
X49133140Y-47794171D01*
X49079500Y-47770289D01*
X49054561Y-47752169D01*
X49029634Y-47738846D01*
X48978782Y-47697113D01*
X48927113Y-47659573D01*
X48910336Y-47640940D01*
X48893157Y-47626842D01*
X48846990Y-47570588D01*
X48801076Y-47519595D01*
X48791429Y-47502887D01*
X48781153Y-47490365D01*
X48743134Y-47419236D01*
X48706896Y-47356470D01*
X48702727Y-47343640D01*
X48697924Y-47334654D01*
X48671443Y-47247360D01*
X48648689Y-47177328D01*
X48647887Y-47169705D01*
X48646674Y-47165704D01*
X48634852Y-47045679D01*
X48629000Y-46990000D01*
X48634851Y-46934324D01*
X48646674Y-46814295D01*
X48647888Y-46810292D01*
X48648689Y-46802672D01*
X48671439Y-46732653D01*
X48697924Y-46645345D01*
X48702728Y-46636356D01*
X48706896Y-46623530D01*
X48743126Y-46560776D01*
X48781153Y-46489634D01*
X48791431Y-46477109D01*
X48801076Y-46460405D01*
X48846981Y-46409421D01*
X48893157Y-46353157D01*
X48910340Y-46339055D01*
X48927113Y-46320427D01*
X48978772Y-46282894D01*
X49029634Y-46241153D01*
X49054566Y-46227826D01*
X49079500Y-46209711D01*
X49133129Y-46185833D01*
X49185345Y-46157924D01*
X49218202Y-46147957D01*
X49251576Y-46133098D01*
X49303732Y-46122011D01*
X49354295Y-46106674D01*
X49394541Y-46102709D01*
X49435820Y-46093936D01*
X49483622Y-46093936D01*
X49530000Y-46089368D01*
X49576378Y-46093936D01*
G37*
G36*
X52116378Y-46093936D02*
G01*
X52164180Y-46093936D01*
X52205458Y-46102710D01*
X52245704Y-46106674D01*
X52296264Y-46122011D01*
X52348424Y-46133098D01*
X52381800Y-46147957D01*
X52414654Y-46157924D01*
X52466864Y-46185830D01*
X52520500Y-46209711D01*
X52545436Y-46227828D01*
X52570365Y-46241153D01*
X52621218Y-46282887D01*
X52672887Y-46320427D01*
X52689662Y-46339058D01*
X52706842Y-46353157D01*
X52753006Y-46409409D01*
X52798924Y-46460405D01*
X52808570Y-46477113D01*
X52818846Y-46489634D01*
X52856859Y-46560752D01*
X52893104Y-46623530D01*
X52897273Y-46636361D01*
X52902075Y-46645345D01*
X52928545Y-46732607D01*
X52951311Y-46802672D01*
X52952112Y-46810297D01*
X52953325Y-46814295D01*
X52965132Y-46934173D01*
X52971000Y-46990000D01*
X52965131Y-47045831D01*
X52953325Y-47165704D01*
X52952112Y-47169700D01*
X52951311Y-47177328D01*
X52928541Y-47247406D01*
X52902075Y-47334654D01*
X52897274Y-47343635D01*
X52893104Y-47356470D01*
X52856852Y-47419259D01*
X52818846Y-47490365D01*
X52808572Y-47502883D01*
X52798924Y-47519595D01*
X52752997Y-47570601D01*
X52706842Y-47626842D01*
X52689666Y-47640937D01*
X52672887Y-47659573D01*
X52621208Y-47697119D01*
X52570365Y-47738846D01*
X52545441Y-47752167D01*
X52520500Y-47770289D01*
X52466853Y-47794174D01*
X52414654Y-47822075D01*
X52381807Y-47832038D01*
X52348424Y-47846902D01*
X52296253Y-47857991D01*
X52245704Y-47873325D01*
X52205467Y-47877288D01*
X52164180Y-47886064D01*
X52116368Y-47886064D01*
X52070000Y-47890631D01*
X52023632Y-47886064D01*
X51975820Y-47886064D01*
X51934532Y-47877288D01*
X51894295Y-47873325D01*
X51843743Y-47857990D01*
X51791576Y-47846902D01*
X51758195Y-47832039D01*
X51725345Y-47822075D01*
X51673140Y-47794171D01*
X51619500Y-47770289D01*
X51594561Y-47752169D01*
X51569634Y-47738846D01*
X51518782Y-47697113D01*
X51467113Y-47659573D01*
X51450336Y-47640940D01*
X51433157Y-47626842D01*
X51386990Y-47570588D01*
X51341076Y-47519595D01*
X51331429Y-47502887D01*
X51321153Y-47490365D01*
X51283134Y-47419236D01*
X51246896Y-47356470D01*
X51242727Y-47343640D01*
X51237924Y-47334654D01*
X51211443Y-47247360D01*
X51188689Y-47177328D01*
X51187887Y-47169705D01*
X51186674Y-47165704D01*
X51174852Y-47045679D01*
X51169000Y-46990000D01*
X51174851Y-46934324D01*
X51186674Y-46814295D01*
X51187888Y-46810292D01*
X51188689Y-46802672D01*
X51211439Y-46732653D01*
X51237924Y-46645345D01*
X51242728Y-46636356D01*
X51246896Y-46623530D01*
X51283126Y-46560776D01*
X51321153Y-46489634D01*
X51331431Y-46477109D01*
X51341076Y-46460405D01*
X51386981Y-46409421D01*
X51433157Y-46353157D01*
X51450340Y-46339055D01*
X51467113Y-46320427D01*
X51518772Y-46282894D01*
X51569634Y-46241153D01*
X51594566Y-46227826D01*
X51619500Y-46209711D01*
X51673129Y-46185833D01*
X51725345Y-46157924D01*
X51758202Y-46147957D01*
X51791576Y-46133098D01*
X51843732Y-46122011D01*
X51894295Y-46106674D01*
X51934541Y-46102709D01*
X51975820Y-46093936D01*
X52023622Y-46093936D01*
X52070000Y-46089368D01*
X52116378Y-46093936D01*
G37*
G36*
X54656378Y-46093936D02*
G01*
X54704180Y-46093936D01*
X54745458Y-46102710D01*
X54785704Y-46106674D01*
X54836264Y-46122011D01*
X54888424Y-46133098D01*
X54921800Y-46147957D01*
X54954654Y-46157924D01*
X55006864Y-46185830D01*
X55060500Y-46209711D01*
X55085436Y-46227828D01*
X55110365Y-46241153D01*
X55161218Y-46282887D01*
X55212887Y-46320427D01*
X55229662Y-46339058D01*
X55246842Y-46353157D01*
X55293006Y-46409409D01*
X55338924Y-46460405D01*
X55348570Y-46477113D01*
X55358846Y-46489634D01*
X55396859Y-46560752D01*
X55433104Y-46623530D01*
X55437273Y-46636361D01*
X55442075Y-46645345D01*
X55468545Y-46732607D01*
X55491311Y-46802672D01*
X55492112Y-46810297D01*
X55493325Y-46814295D01*
X55505132Y-46934173D01*
X55511000Y-46990000D01*
X55505131Y-47045831D01*
X55493325Y-47165704D01*
X55492112Y-47169700D01*
X55491311Y-47177328D01*
X55468541Y-47247406D01*
X55442075Y-47334654D01*
X55437274Y-47343635D01*
X55433104Y-47356470D01*
X55396852Y-47419259D01*
X55358846Y-47490365D01*
X55348572Y-47502883D01*
X55338924Y-47519595D01*
X55292997Y-47570601D01*
X55246842Y-47626842D01*
X55229666Y-47640937D01*
X55212887Y-47659573D01*
X55161208Y-47697119D01*
X55110365Y-47738846D01*
X55085441Y-47752167D01*
X55060500Y-47770289D01*
X55006853Y-47794174D01*
X54954654Y-47822075D01*
X54921807Y-47832038D01*
X54888424Y-47846902D01*
X54836253Y-47857991D01*
X54785704Y-47873325D01*
X54745467Y-47877288D01*
X54704180Y-47886064D01*
X54656368Y-47886064D01*
X54610000Y-47890631D01*
X54563632Y-47886064D01*
X54515820Y-47886064D01*
X54474532Y-47877288D01*
X54434295Y-47873325D01*
X54383743Y-47857990D01*
X54331576Y-47846902D01*
X54298195Y-47832039D01*
X54265345Y-47822075D01*
X54213140Y-47794171D01*
X54159500Y-47770289D01*
X54134561Y-47752169D01*
X54109634Y-47738846D01*
X54058782Y-47697113D01*
X54007113Y-47659573D01*
X53990336Y-47640940D01*
X53973157Y-47626842D01*
X53926990Y-47570588D01*
X53881076Y-47519595D01*
X53871429Y-47502887D01*
X53861153Y-47490365D01*
X53823134Y-47419236D01*
X53786896Y-47356470D01*
X53782727Y-47343640D01*
X53777924Y-47334654D01*
X53751443Y-47247360D01*
X53728689Y-47177328D01*
X53727887Y-47169705D01*
X53726674Y-47165704D01*
X53714852Y-47045679D01*
X53709000Y-46990000D01*
X53714851Y-46934324D01*
X53726674Y-46814295D01*
X53727888Y-46810292D01*
X53728689Y-46802672D01*
X53751439Y-46732653D01*
X53777924Y-46645345D01*
X53782728Y-46636356D01*
X53786896Y-46623530D01*
X53823126Y-46560776D01*
X53861153Y-46489634D01*
X53871431Y-46477109D01*
X53881076Y-46460405D01*
X53926981Y-46409421D01*
X53973157Y-46353157D01*
X53990340Y-46339055D01*
X54007113Y-46320427D01*
X54058772Y-46282894D01*
X54109634Y-46241153D01*
X54134566Y-46227826D01*
X54159500Y-46209711D01*
X54213129Y-46185833D01*
X54265345Y-46157924D01*
X54298202Y-46147957D01*
X54331576Y-46133098D01*
X54383732Y-46122011D01*
X54434295Y-46106674D01*
X54474541Y-46102709D01*
X54515820Y-46093936D01*
X54563622Y-46093936D01*
X54610000Y-46089368D01*
X54656378Y-46093936D01*
G37*
G36*
X57196378Y-46093936D02*
G01*
X57244180Y-46093936D01*
X57285458Y-46102710D01*
X57325704Y-46106674D01*
X57376264Y-46122011D01*
X57428424Y-46133098D01*
X57461800Y-46147957D01*
X57494654Y-46157924D01*
X57546864Y-46185830D01*
X57600500Y-46209711D01*
X57625436Y-46227828D01*
X57650365Y-46241153D01*
X57701218Y-46282887D01*
X57752887Y-46320427D01*
X57769662Y-46339058D01*
X57786842Y-46353157D01*
X57833006Y-46409409D01*
X57878924Y-46460405D01*
X57888570Y-46477113D01*
X57898846Y-46489634D01*
X57936859Y-46560752D01*
X57973104Y-46623530D01*
X57977273Y-46636361D01*
X57982075Y-46645345D01*
X58008545Y-46732607D01*
X58031311Y-46802672D01*
X58032112Y-46810297D01*
X58033325Y-46814295D01*
X58045132Y-46934173D01*
X58051000Y-46990000D01*
X58045131Y-47045831D01*
X58033325Y-47165704D01*
X58032112Y-47169700D01*
X58031311Y-47177328D01*
X58008541Y-47247406D01*
X57982075Y-47334654D01*
X57977274Y-47343635D01*
X57973104Y-47356470D01*
X57936852Y-47419259D01*
X57898846Y-47490365D01*
X57888572Y-47502883D01*
X57878924Y-47519595D01*
X57832997Y-47570601D01*
X57786842Y-47626842D01*
X57769666Y-47640937D01*
X57752887Y-47659573D01*
X57701208Y-47697119D01*
X57650365Y-47738846D01*
X57625441Y-47752167D01*
X57600500Y-47770289D01*
X57546853Y-47794174D01*
X57494654Y-47822075D01*
X57461807Y-47832038D01*
X57428424Y-47846902D01*
X57376253Y-47857991D01*
X57325704Y-47873325D01*
X57285467Y-47877288D01*
X57244180Y-47886064D01*
X57196368Y-47886064D01*
X57150000Y-47890631D01*
X57103632Y-47886064D01*
X57055820Y-47886064D01*
X57014532Y-47877288D01*
X56974295Y-47873325D01*
X56923743Y-47857990D01*
X56871576Y-47846902D01*
X56838195Y-47832039D01*
X56805345Y-47822075D01*
X56753140Y-47794171D01*
X56699500Y-47770289D01*
X56674561Y-47752169D01*
X56649634Y-47738846D01*
X56598782Y-47697113D01*
X56547113Y-47659573D01*
X56530336Y-47640940D01*
X56513157Y-47626842D01*
X56466990Y-47570588D01*
X56421076Y-47519595D01*
X56411429Y-47502887D01*
X56401153Y-47490365D01*
X56363134Y-47419236D01*
X56326896Y-47356470D01*
X56322727Y-47343640D01*
X56317924Y-47334654D01*
X56291443Y-47247360D01*
X56268689Y-47177328D01*
X56267887Y-47169705D01*
X56266674Y-47165704D01*
X56254852Y-47045679D01*
X56249000Y-46990000D01*
X56254851Y-46934324D01*
X56266674Y-46814295D01*
X56267888Y-46810292D01*
X56268689Y-46802672D01*
X56291439Y-46732653D01*
X56317924Y-46645345D01*
X56322728Y-46636356D01*
X56326896Y-46623530D01*
X56363126Y-46560776D01*
X56401153Y-46489634D01*
X56411431Y-46477109D01*
X56421076Y-46460405D01*
X56466981Y-46409421D01*
X56513157Y-46353157D01*
X56530340Y-46339055D01*
X56547113Y-46320427D01*
X56598772Y-46282894D01*
X56649634Y-46241153D01*
X56674566Y-46227826D01*
X56699500Y-46209711D01*
X56753129Y-46185833D01*
X56805345Y-46157924D01*
X56838202Y-46147957D01*
X56871576Y-46133098D01*
X56923732Y-46122011D01*
X56974295Y-46106674D01*
X57014541Y-46102709D01*
X57055820Y-46093936D01*
X57103622Y-46093936D01*
X57150000Y-46089368D01*
X57196378Y-46093936D01*
G37*
G36*
X59736378Y-46093936D02*
G01*
X59784180Y-46093936D01*
X59825458Y-46102710D01*
X59865704Y-46106674D01*
X59916264Y-46122011D01*
X59968424Y-46133098D01*
X60001800Y-46147957D01*
X60034654Y-46157924D01*
X60086864Y-46185830D01*
X60140500Y-46209711D01*
X60165436Y-46227828D01*
X60190365Y-46241153D01*
X60241218Y-46282887D01*
X60292887Y-46320427D01*
X60309662Y-46339058D01*
X60326842Y-46353157D01*
X60373006Y-46409409D01*
X60418924Y-46460405D01*
X60428570Y-46477113D01*
X60438846Y-46489634D01*
X60476859Y-46560752D01*
X60513104Y-46623530D01*
X60517273Y-46636361D01*
X60522075Y-46645345D01*
X60548545Y-46732607D01*
X60571311Y-46802672D01*
X60572112Y-46810297D01*
X60573325Y-46814295D01*
X60585132Y-46934173D01*
X60591000Y-46990000D01*
X60585131Y-47045831D01*
X60573325Y-47165704D01*
X60572112Y-47169700D01*
X60571311Y-47177328D01*
X60548541Y-47247406D01*
X60522075Y-47334654D01*
X60517274Y-47343635D01*
X60513104Y-47356470D01*
X60476852Y-47419259D01*
X60438846Y-47490365D01*
X60428572Y-47502883D01*
X60418924Y-47519595D01*
X60372997Y-47570601D01*
X60326842Y-47626842D01*
X60309666Y-47640937D01*
X60292887Y-47659573D01*
X60241208Y-47697119D01*
X60190365Y-47738846D01*
X60165441Y-47752167D01*
X60140500Y-47770289D01*
X60086853Y-47794174D01*
X60034654Y-47822075D01*
X60001807Y-47832038D01*
X59968424Y-47846902D01*
X59916253Y-47857991D01*
X59865704Y-47873325D01*
X59825467Y-47877288D01*
X59784180Y-47886064D01*
X59736368Y-47886064D01*
X59690000Y-47890631D01*
X59643632Y-47886064D01*
X59595820Y-47886064D01*
X59554532Y-47877288D01*
X59514295Y-47873325D01*
X59463743Y-47857990D01*
X59411576Y-47846902D01*
X59378195Y-47832039D01*
X59345345Y-47822075D01*
X59293140Y-47794171D01*
X59239500Y-47770289D01*
X59214561Y-47752169D01*
X59189634Y-47738846D01*
X59138782Y-47697113D01*
X59087113Y-47659573D01*
X59070336Y-47640940D01*
X59053157Y-47626842D01*
X59006990Y-47570588D01*
X58961076Y-47519595D01*
X58951429Y-47502887D01*
X58941153Y-47490365D01*
X58903134Y-47419236D01*
X58866896Y-47356470D01*
X58862727Y-47343640D01*
X58857924Y-47334654D01*
X58831443Y-47247360D01*
X58808689Y-47177328D01*
X58807887Y-47169705D01*
X58806674Y-47165704D01*
X58794852Y-47045679D01*
X58789000Y-46990000D01*
X58794851Y-46934324D01*
X58806674Y-46814295D01*
X58807888Y-46810292D01*
X58808689Y-46802672D01*
X58831439Y-46732653D01*
X58857924Y-46645345D01*
X58862728Y-46636356D01*
X58866896Y-46623530D01*
X58903126Y-46560776D01*
X58941153Y-46489634D01*
X58951431Y-46477109D01*
X58961076Y-46460405D01*
X59006981Y-46409421D01*
X59053157Y-46353157D01*
X59070340Y-46339055D01*
X59087113Y-46320427D01*
X59138772Y-46282894D01*
X59189634Y-46241153D01*
X59214566Y-46227826D01*
X59239500Y-46209711D01*
X59293129Y-46185833D01*
X59345345Y-46157924D01*
X59378202Y-46147957D01*
X59411576Y-46133098D01*
X59463732Y-46122011D01*
X59514295Y-46106674D01*
X59554541Y-46102709D01*
X59595820Y-46093936D01*
X59643622Y-46093936D01*
X59690000Y-46089368D01*
X59736378Y-46093936D01*
G37*
G36*
X62276378Y-46093936D02*
G01*
X62324180Y-46093936D01*
X62365458Y-46102710D01*
X62405704Y-46106674D01*
X62456264Y-46122011D01*
X62508424Y-46133098D01*
X62541800Y-46147957D01*
X62574654Y-46157924D01*
X62626864Y-46185830D01*
X62680500Y-46209711D01*
X62705436Y-46227828D01*
X62730365Y-46241153D01*
X62781218Y-46282887D01*
X62832887Y-46320427D01*
X62849662Y-46339058D01*
X62866842Y-46353157D01*
X62913006Y-46409409D01*
X62958924Y-46460405D01*
X62968570Y-46477113D01*
X62978846Y-46489634D01*
X63016859Y-46560752D01*
X63053104Y-46623530D01*
X63057273Y-46636361D01*
X63062075Y-46645345D01*
X63088545Y-46732607D01*
X63111311Y-46802672D01*
X63112112Y-46810297D01*
X63113325Y-46814295D01*
X63125132Y-46934173D01*
X63131000Y-46990000D01*
X63125131Y-47045831D01*
X63113325Y-47165704D01*
X63112112Y-47169700D01*
X63111311Y-47177328D01*
X63088541Y-47247406D01*
X63062075Y-47334654D01*
X63057274Y-47343635D01*
X63053104Y-47356470D01*
X63016852Y-47419259D01*
X62978846Y-47490365D01*
X62968572Y-47502883D01*
X62958924Y-47519595D01*
X62912997Y-47570601D01*
X62866842Y-47626842D01*
X62849666Y-47640937D01*
X62832887Y-47659573D01*
X62781208Y-47697119D01*
X62730365Y-47738846D01*
X62705441Y-47752167D01*
X62680500Y-47770289D01*
X62626853Y-47794174D01*
X62574654Y-47822075D01*
X62541807Y-47832038D01*
X62508424Y-47846902D01*
X62456253Y-47857991D01*
X62405704Y-47873325D01*
X62365467Y-47877288D01*
X62324180Y-47886064D01*
X62276368Y-47886064D01*
X62230000Y-47890631D01*
X62183632Y-47886064D01*
X62135820Y-47886064D01*
X62094532Y-47877288D01*
X62054295Y-47873325D01*
X62003743Y-47857990D01*
X61951576Y-47846902D01*
X61918195Y-47832039D01*
X61885345Y-47822075D01*
X61833140Y-47794171D01*
X61779500Y-47770289D01*
X61754561Y-47752169D01*
X61729634Y-47738846D01*
X61678782Y-47697113D01*
X61627113Y-47659573D01*
X61610336Y-47640940D01*
X61593157Y-47626842D01*
X61546990Y-47570588D01*
X61501076Y-47519595D01*
X61491429Y-47502887D01*
X61481153Y-47490365D01*
X61443134Y-47419236D01*
X61406896Y-47356470D01*
X61402727Y-47343640D01*
X61397924Y-47334654D01*
X61371443Y-47247360D01*
X61348689Y-47177328D01*
X61347887Y-47169705D01*
X61346674Y-47165704D01*
X61334852Y-47045679D01*
X61329000Y-46990000D01*
X61334851Y-46934324D01*
X61346674Y-46814295D01*
X61347888Y-46810292D01*
X61348689Y-46802672D01*
X61371439Y-46732653D01*
X61397924Y-46645345D01*
X61402728Y-46636356D01*
X61406896Y-46623530D01*
X61443126Y-46560776D01*
X61481153Y-46489634D01*
X61491431Y-46477109D01*
X61501076Y-46460405D01*
X61546981Y-46409421D01*
X61593157Y-46353157D01*
X61610340Y-46339055D01*
X61627113Y-46320427D01*
X61678772Y-46282894D01*
X61729634Y-46241153D01*
X61754566Y-46227826D01*
X61779500Y-46209711D01*
X61833129Y-46185833D01*
X61885345Y-46157924D01*
X61918202Y-46147957D01*
X61951576Y-46133098D01*
X62003732Y-46122011D01*
X62054295Y-46106674D01*
X62094541Y-46102709D01*
X62135820Y-46093936D01*
X62183622Y-46093936D01*
X62230000Y-46089368D01*
X62276378Y-46093936D01*
G37*
G36*
X64816378Y-46093936D02*
G01*
X64864180Y-46093936D01*
X64905458Y-46102710D01*
X64945704Y-46106674D01*
X64996264Y-46122011D01*
X65048424Y-46133098D01*
X65081800Y-46147957D01*
X65114654Y-46157924D01*
X65166864Y-46185830D01*
X65220500Y-46209711D01*
X65245436Y-46227828D01*
X65270365Y-46241153D01*
X65321218Y-46282887D01*
X65372887Y-46320427D01*
X65389662Y-46339058D01*
X65406842Y-46353157D01*
X65453006Y-46409409D01*
X65498924Y-46460405D01*
X65508570Y-46477113D01*
X65518846Y-46489634D01*
X65556859Y-46560752D01*
X65593104Y-46623530D01*
X65597273Y-46636361D01*
X65602075Y-46645345D01*
X65628545Y-46732607D01*
X65651311Y-46802672D01*
X65652112Y-46810297D01*
X65653325Y-46814295D01*
X65665132Y-46934173D01*
X65671000Y-46990000D01*
X65665131Y-47045831D01*
X65653325Y-47165704D01*
X65652112Y-47169700D01*
X65651311Y-47177328D01*
X65628541Y-47247406D01*
X65602075Y-47334654D01*
X65597274Y-47343635D01*
X65593104Y-47356470D01*
X65556852Y-47419259D01*
X65518846Y-47490365D01*
X65508572Y-47502883D01*
X65498924Y-47519595D01*
X65452997Y-47570601D01*
X65406842Y-47626842D01*
X65389666Y-47640937D01*
X65372887Y-47659573D01*
X65321208Y-47697119D01*
X65270365Y-47738846D01*
X65245441Y-47752167D01*
X65220500Y-47770289D01*
X65166853Y-47794174D01*
X65114654Y-47822075D01*
X65081807Y-47832038D01*
X65048424Y-47846902D01*
X64996253Y-47857991D01*
X64945704Y-47873325D01*
X64905467Y-47877288D01*
X64864180Y-47886064D01*
X64816368Y-47886064D01*
X64770000Y-47890631D01*
X64723632Y-47886064D01*
X64675820Y-47886064D01*
X64634532Y-47877288D01*
X64594295Y-47873325D01*
X64543743Y-47857990D01*
X64491576Y-47846902D01*
X64458195Y-47832039D01*
X64425345Y-47822075D01*
X64373140Y-47794171D01*
X64319500Y-47770289D01*
X64294561Y-47752169D01*
X64269634Y-47738846D01*
X64218782Y-47697113D01*
X64167113Y-47659573D01*
X64150336Y-47640940D01*
X64133157Y-47626842D01*
X64086990Y-47570588D01*
X64041076Y-47519595D01*
X64031429Y-47502887D01*
X64021153Y-47490365D01*
X63983134Y-47419236D01*
X63946896Y-47356470D01*
X63942727Y-47343640D01*
X63937924Y-47334654D01*
X63911443Y-47247360D01*
X63888689Y-47177328D01*
X63887887Y-47169705D01*
X63886674Y-47165704D01*
X63874852Y-47045679D01*
X63869000Y-46990000D01*
X63874851Y-46934324D01*
X63886674Y-46814295D01*
X63887888Y-46810292D01*
X63888689Y-46802672D01*
X63911439Y-46732653D01*
X63937924Y-46645345D01*
X63942728Y-46636356D01*
X63946896Y-46623530D01*
X63983126Y-46560776D01*
X64021153Y-46489634D01*
X64031431Y-46477109D01*
X64041076Y-46460405D01*
X64086981Y-46409421D01*
X64133157Y-46353157D01*
X64150340Y-46339055D01*
X64167113Y-46320427D01*
X64218772Y-46282894D01*
X64269634Y-46241153D01*
X64294566Y-46227826D01*
X64319500Y-46209711D01*
X64373129Y-46185833D01*
X64425345Y-46157924D01*
X64458202Y-46147957D01*
X64491576Y-46133098D01*
X64543732Y-46122011D01*
X64594295Y-46106674D01*
X64634541Y-46102709D01*
X64675820Y-46093936D01*
X64723622Y-46093936D01*
X64770000Y-46089368D01*
X64816378Y-46093936D01*
G37*
G36*
X67356378Y-46093936D02*
G01*
X67404180Y-46093936D01*
X67445458Y-46102710D01*
X67485704Y-46106674D01*
X67536264Y-46122011D01*
X67588424Y-46133098D01*
X67621800Y-46147957D01*
X67654654Y-46157924D01*
X67706864Y-46185830D01*
X67760500Y-46209711D01*
X67785436Y-46227828D01*
X67810365Y-46241153D01*
X67861218Y-46282887D01*
X67912887Y-46320427D01*
X67929662Y-46339058D01*
X67946842Y-46353157D01*
X67993006Y-46409409D01*
X68038924Y-46460405D01*
X68048570Y-46477113D01*
X68058846Y-46489634D01*
X68096859Y-46560752D01*
X68133104Y-46623530D01*
X68137273Y-46636361D01*
X68142075Y-46645345D01*
X68168545Y-46732607D01*
X68191311Y-46802672D01*
X68192112Y-46810297D01*
X68193325Y-46814295D01*
X68205132Y-46934173D01*
X68211000Y-46990000D01*
X68205131Y-47045831D01*
X68193325Y-47165704D01*
X68192112Y-47169700D01*
X68191311Y-47177328D01*
X68168541Y-47247406D01*
X68142075Y-47334654D01*
X68137274Y-47343635D01*
X68133104Y-47356470D01*
X68096852Y-47419259D01*
X68058846Y-47490365D01*
X68048572Y-47502883D01*
X68038924Y-47519595D01*
X67992997Y-47570601D01*
X67946842Y-47626842D01*
X67929666Y-47640937D01*
X67912887Y-47659573D01*
X67861208Y-47697119D01*
X67810365Y-47738846D01*
X67785441Y-47752167D01*
X67760500Y-47770289D01*
X67706853Y-47794174D01*
X67654654Y-47822075D01*
X67621807Y-47832038D01*
X67588424Y-47846902D01*
X67536253Y-47857991D01*
X67485704Y-47873325D01*
X67445467Y-47877288D01*
X67404180Y-47886064D01*
X67356368Y-47886064D01*
X67310000Y-47890631D01*
X67263632Y-47886064D01*
X67215820Y-47886064D01*
X67174532Y-47877288D01*
X67134295Y-47873325D01*
X67083743Y-47857990D01*
X67031576Y-47846902D01*
X66998195Y-47832039D01*
X66965345Y-47822075D01*
X66913140Y-47794171D01*
X66859500Y-47770289D01*
X66834561Y-47752169D01*
X66809634Y-47738846D01*
X66758782Y-47697113D01*
X66707113Y-47659573D01*
X66690336Y-47640940D01*
X66673157Y-47626842D01*
X66626990Y-47570588D01*
X66581076Y-47519595D01*
X66571429Y-47502887D01*
X66561153Y-47490365D01*
X66523134Y-47419236D01*
X66486896Y-47356470D01*
X66482727Y-47343640D01*
X66477924Y-47334654D01*
X66451443Y-47247360D01*
X66428689Y-47177328D01*
X66427887Y-47169705D01*
X66426674Y-47165704D01*
X66414852Y-47045679D01*
X66409000Y-46990000D01*
X66414851Y-46934324D01*
X66426674Y-46814295D01*
X66427888Y-46810292D01*
X66428689Y-46802672D01*
X66451439Y-46732653D01*
X66477924Y-46645345D01*
X66482728Y-46636356D01*
X66486896Y-46623530D01*
X66523126Y-46560776D01*
X66561153Y-46489634D01*
X66571431Y-46477109D01*
X66581076Y-46460405D01*
X66626981Y-46409421D01*
X66673157Y-46353157D01*
X66690340Y-46339055D01*
X66707113Y-46320427D01*
X66758772Y-46282894D01*
X66809634Y-46241153D01*
X66834566Y-46227826D01*
X66859500Y-46209711D01*
X66913129Y-46185833D01*
X66965345Y-46157924D01*
X66998202Y-46147957D01*
X67031576Y-46133098D01*
X67083732Y-46122011D01*
X67134295Y-46106674D01*
X67174541Y-46102709D01*
X67215820Y-46093936D01*
X67263622Y-46093936D01*
X67310000Y-46089368D01*
X67356378Y-46093936D01*
G37*
G36*
X69896378Y-46093936D02*
G01*
X69944180Y-46093936D01*
X69985458Y-46102710D01*
X70025704Y-46106674D01*
X70076264Y-46122011D01*
X70128424Y-46133098D01*
X70161800Y-46147957D01*
X70194654Y-46157924D01*
X70246864Y-46185830D01*
X70300500Y-46209711D01*
X70325436Y-46227828D01*
X70350365Y-46241153D01*
X70401218Y-46282887D01*
X70452887Y-46320427D01*
X70469662Y-46339058D01*
X70486842Y-46353157D01*
X70533006Y-46409409D01*
X70578924Y-46460405D01*
X70588570Y-46477113D01*
X70598846Y-46489634D01*
X70636859Y-46560752D01*
X70673104Y-46623530D01*
X70677273Y-46636361D01*
X70682075Y-46645345D01*
X70708545Y-46732607D01*
X70731311Y-46802672D01*
X70732112Y-46810297D01*
X70733325Y-46814295D01*
X70745132Y-46934173D01*
X70751000Y-46990000D01*
X70745131Y-47045831D01*
X70733325Y-47165704D01*
X70732112Y-47169700D01*
X70731311Y-47177328D01*
X70708541Y-47247406D01*
X70682075Y-47334654D01*
X70677274Y-47343635D01*
X70673104Y-47356470D01*
X70636852Y-47419259D01*
X70598846Y-47490365D01*
X70588572Y-47502883D01*
X70578924Y-47519595D01*
X70532997Y-47570601D01*
X70486842Y-47626842D01*
X70469666Y-47640937D01*
X70452887Y-47659573D01*
X70401208Y-47697119D01*
X70350365Y-47738846D01*
X70325441Y-47752167D01*
X70300500Y-47770289D01*
X70246853Y-47794174D01*
X70194654Y-47822075D01*
X70161807Y-47832038D01*
X70128424Y-47846902D01*
X70076253Y-47857991D01*
X70025704Y-47873325D01*
X69985467Y-47877288D01*
X69944180Y-47886064D01*
X69896368Y-47886064D01*
X69850000Y-47890631D01*
X69803632Y-47886064D01*
X69755820Y-47886064D01*
X69714532Y-47877288D01*
X69674295Y-47873325D01*
X69623743Y-47857990D01*
X69571576Y-47846902D01*
X69538195Y-47832039D01*
X69505345Y-47822075D01*
X69453140Y-47794171D01*
X69399500Y-47770289D01*
X69374561Y-47752169D01*
X69349634Y-47738846D01*
X69298782Y-47697113D01*
X69247113Y-47659573D01*
X69230336Y-47640940D01*
X69213157Y-47626842D01*
X69166990Y-47570588D01*
X69121076Y-47519595D01*
X69111429Y-47502887D01*
X69101153Y-47490365D01*
X69063134Y-47419236D01*
X69026896Y-47356470D01*
X69022727Y-47343640D01*
X69017924Y-47334654D01*
X68991443Y-47247360D01*
X68968689Y-47177328D01*
X68967887Y-47169705D01*
X68966674Y-47165704D01*
X68954852Y-47045679D01*
X68949000Y-46990000D01*
X68954851Y-46934324D01*
X68966674Y-46814295D01*
X68967888Y-46810292D01*
X68968689Y-46802672D01*
X68991439Y-46732653D01*
X69017924Y-46645345D01*
X69022728Y-46636356D01*
X69026896Y-46623530D01*
X69063126Y-46560776D01*
X69101153Y-46489634D01*
X69111431Y-46477109D01*
X69121076Y-46460405D01*
X69166981Y-46409421D01*
X69213157Y-46353157D01*
X69230340Y-46339055D01*
X69247113Y-46320427D01*
X69298772Y-46282894D01*
X69349634Y-46241153D01*
X69374566Y-46227826D01*
X69399500Y-46209711D01*
X69453129Y-46185833D01*
X69505345Y-46157924D01*
X69538202Y-46147957D01*
X69571576Y-46133098D01*
X69623732Y-46122011D01*
X69674295Y-46106674D01*
X69714541Y-46102709D01*
X69755820Y-46093936D01*
X69803622Y-46093936D01*
X69850000Y-46089368D01*
X69896378Y-46093936D01*
G37*
G36*
X28283925Y-44361870D02*
G01*
X28502775Y-44437002D01*
X28706274Y-44547130D01*
X28888871Y-44689251D01*
X29045586Y-44859488D01*
X29172143Y-45053198D01*
X29265090Y-45265096D01*
X29321892Y-45489403D01*
X29341000Y-45720000D01*
X29321892Y-45950597D01*
X29265090Y-46174904D01*
X29172143Y-46386802D01*
X29045586Y-46580512D01*
X28888871Y-46750749D01*
X28706274Y-46892870D01*
X28502775Y-47002998D01*
X28283925Y-47078130D01*
X28055694Y-47116215D01*
X27824306Y-47116215D01*
X27596075Y-47078130D01*
X27377225Y-47002998D01*
X27173726Y-46892870D01*
X26991129Y-46750749D01*
X26834414Y-46580512D01*
X26707857Y-46386802D01*
X26614910Y-46174904D01*
X26558108Y-45950597D01*
X26539000Y-45720000D01*
X26558108Y-45489403D01*
X26614910Y-45265096D01*
X26707857Y-45053198D01*
X26834414Y-44859488D01*
X26991129Y-44689251D01*
X27173726Y-44547130D01*
X27377225Y-44437002D01*
X27596075Y-44361870D01*
X27824306Y-44323785D01*
X28055694Y-44323785D01*
X28283925Y-44361870D01*
G37*
G36*
X73713767Y-44423704D02*
G01*
X73767412Y-44423704D01*
X73826535Y-44433569D01*
X73885916Y-44438765D01*
X73932547Y-44451260D01*
X73979315Y-44459064D01*
X74042052Y-44480601D01*
X74104968Y-44497460D01*
X74143507Y-44515431D01*
X74182499Y-44528817D01*
X74246561Y-44563486D01*
X74310500Y-44593301D01*
X74340600Y-44614377D01*
X74371436Y-44631065D01*
X74434202Y-44679918D01*
X74496267Y-44723376D01*
X74518141Y-44745250D01*
X74540968Y-44763017D01*
X74599611Y-44826720D01*
X74656624Y-44883733D01*
X74671013Y-44904282D01*
X74686465Y-44921068D01*
X74738015Y-44999972D01*
X74786699Y-45069500D01*
X74794825Y-45086927D01*
X74803964Y-45100915D01*
X74845448Y-45195489D01*
X74882540Y-45275032D01*
X74885993Y-45287921D01*
X74890262Y-45297652D01*
X74918844Y-45410520D01*
X74941235Y-45494084D01*
X74941884Y-45501503D01*
X74942998Y-45505902D01*
X74956048Y-45663400D01*
X74961000Y-45720000D01*
X74956047Y-45776604D01*
X74942998Y-45934097D01*
X74941884Y-45938495D01*
X74941235Y-45945916D01*
X74918839Y-46029496D01*
X74890262Y-46142347D01*
X74885994Y-46152075D01*
X74882540Y-46164968D01*
X74845441Y-46244526D01*
X74803964Y-46339084D01*
X74794827Y-46353069D01*
X74786699Y-46370500D01*
X74738005Y-46440041D01*
X74686465Y-46518931D01*
X74671016Y-46535712D01*
X74656624Y-46556267D01*
X74599600Y-46613290D01*
X74540968Y-46676982D01*
X74518145Y-46694745D01*
X74496267Y-46716624D01*
X74434189Y-46760090D01*
X74371436Y-46808934D01*
X74340607Y-46825617D01*
X74310500Y-46846699D01*
X74246548Y-46876520D01*
X74182499Y-46911182D01*
X74143515Y-46924564D01*
X74104968Y-46942540D01*
X74042039Y-46959401D01*
X73979315Y-46980935D01*
X73932555Y-46988737D01*
X73885916Y-47001235D01*
X73826532Y-47006430D01*
X73767412Y-47016296D01*
X73713767Y-47016296D01*
X73660000Y-47021000D01*
X73606233Y-47016296D01*
X73552588Y-47016296D01*
X73493466Y-47006430D01*
X73434084Y-47001235D01*
X73387445Y-46988738D01*
X73340684Y-46980935D01*
X73277955Y-46959400D01*
X73215032Y-46942540D01*
X73176487Y-46924566D01*
X73137500Y-46911182D01*
X73073444Y-46876516D01*
X73009500Y-46846699D01*
X72979396Y-46825620D01*
X72948563Y-46808934D01*
X72885800Y-46760083D01*
X72823733Y-46716624D01*
X72801857Y-46694748D01*
X72779031Y-46676982D01*
X72720387Y-46613278D01*
X72663376Y-46556267D01*
X72648987Y-46535717D01*
X72633534Y-46518931D01*
X72581979Y-46440020D01*
X72533301Y-46370500D01*
X72525175Y-46353074D01*
X72516035Y-46339084D01*
X72474541Y-46244490D01*
X72437460Y-46164968D01*
X72434007Y-46152081D01*
X72429737Y-46142347D01*
X72401142Y-46029428D01*
X72378765Y-45945916D01*
X72378116Y-45938501D01*
X72377001Y-45934097D01*
X72363933Y-45776388D01*
X72359000Y-45720000D01*
X72363932Y-45663616D01*
X72377001Y-45505902D01*
X72378116Y-45501497D01*
X72378765Y-45494084D01*
X72401137Y-45410588D01*
X72429737Y-45297652D01*
X72434007Y-45287915D01*
X72437460Y-45275032D01*
X72474534Y-45195525D01*
X72516035Y-45100915D01*
X72525176Y-45086922D01*
X72533301Y-45069500D01*
X72581969Y-44999993D01*
X72633534Y-44921068D01*
X72648990Y-44904278D01*
X72663376Y-44883733D01*
X72720375Y-44826733D01*
X72779031Y-44763017D01*
X72801862Y-44745246D01*
X72823733Y-44723376D01*
X72885787Y-44679925D01*
X72948563Y-44631065D01*
X72979402Y-44614375D01*
X73009500Y-44593301D01*
X73073431Y-44563489D01*
X73137500Y-44528817D01*
X73176495Y-44515429D01*
X73215032Y-44497460D01*
X73277942Y-44480603D01*
X73340684Y-44459064D01*
X73387453Y-44451259D01*
X73434084Y-44438765D01*
X73493463Y-44433569D01*
X73552588Y-44423704D01*
X73606233Y-44423704D01*
X73660000Y-44419000D01*
X73713767Y-44423704D01*
G37*
G36*
X37865317Y-41506282D02*
G01*
X37881862Y-41517338D01*
X37892918Y-41533883D01*
X37896800Y-41553400D01*
X37896800Y-44753400D01*
X37892918Y-44772917D01*
X37881862Y-44789462D01*
X37865317Y-44800518D01*
X37845800Y-44804400D01*
X34645800Y-44804400D01*
X34626283Y-44800518D01*
X34609738Y-44789462D01*
X34598682Y-44772917D01*
X34594800Y-44753400D01*
X34594800Y-41553400D01*
X34598682Y-41533883D01*
X34609738Y-41517338D01*
X34626283Y-41506282D01*
X34645800Y-41502400D01*
X37845800Y-41502400D01*
X37865317Y-41506282D01*
G37*
G36*
X65289517Y-43547282D02*
G01*
X65306062Y-43558338D01*
X65317118Y-43574883D01*
X65321000Y-43594400D01*
X65321000Y-44594400D01*
X65317118Y-44613917D01*
X65306062Y-44630462D01*
X65289517Y-44641518D01*
X65270000Y-44645400D01*
X64270000Y-44645400D01*
X64250483Y-44641518D01*
X64233938Y-44630462D01*
X64222882Y-44613917D01*
X64219000Y-44594400D01*
X64219000Y-43594400D01*
X64222882Y-43574883D01*
X64233938Y-43558338D01*
X64250483Y-43547282D01*
X64270000Y-43543400D01*
X65270000Y-43543400D01*
X65289517Y-43547282D01*
G37*
G36*
X67829517Y-43547282D02*
G01*
X67846062Y-43558338D01*
X67857118Y-43574883D01*
X67861000Y-43594400D01*
X67861000Y-44594400D01*
X67857118Y-44613917D01*
X67846062Y-44630462D01*
X67829517Y-44641518D01*
X67810000Y-44645400D01*
X66810000Y-44645400D01*
X66790483Y-44641518D01*
X66773938Y-44630462D01*
X66762882Y-44613917D01*
X66759000Y-44594400D01*
X66759000Y-43594400D01*
X66762882Y-43574883D01*
X66773938Y-43558338D01*
X66790483Y-43547282D01*
X66810000Y-43543400D01*
X67810000Y-43543400D01*
X67829517Y-43547282D01*
G37*
G36*
X70318717Y-43547282D02*
G01*
X70335262Y-43558338D01*
X70346318Y-43574883D01*
X70350200Y-43594400D01*
X70350200Y-44594400D01*
X70346318Y-44613917D01*
X70335262Y-44630462D01*
X70318717Y-44641518D01*
X70299200Y-44645400D01*
X69299200Y-44645400D01*
X69279683Y-44641518D01*
X69263138Y-44630462D01*
X69252082Y-44613917D01*
X69248200Y-44594400D01*
X69248200Y-43594400D01*
X69252082Y-43574883D01*
X69263138Y-43558338D01*
X69279683Y-43547282D01*
X69299200Y-43543400D01*
X70299200Y-43543400D01*
X70318717Y-43547282D01*
G37*
G36*
X53859517Y-43394882D02*
G01*
X53876062Y-43405938D01*
X53887118Y-43422483D01*
X53891000Y-43442000D01*
X53891000Y-44442000D01*
X53887118Y-44461517D01*
X53876062Y-44478062D01*
X53859517Y-44489118D01*
X53840000Y-44493000D01*
X52840000Y-44493000D01*
X52820483Y-44489118D01*
X52803938Y-44478062D01*
X52792882Y-44461517D01*
X52789000Y-44442000D01*
X52789000Y-43442000D01*
X52792882Y-43422483D01*
X52803938Y-43405938D01*
X52820483Y-43394882D01*
X52840000Y-43391000D01*
X53840000Y-43391000D01*
X53859517Y-43394882D01*
G37*
G36*
X60209517Y-42886882D02*
G01*
X60226062Y-42897938D01*
X60237118Y-42914483D01*
X60241000Y-42934000D01*
X60241000Y-43934000D01*
X60237118Y-43953517D01*
X60226062Y-43970062D01*
X60209517Y-43981118D01*
X60190000Y-43985000D01*
X59190000Y-43985000D01*
X59170483Y-43981118D01*
X59153938Y-43970062D01*
X59142882Y-43953517D01*
X59139000Y-43934000D01*
X59139000Y-42934000D01*
X59142882Y-42914483D01*
X59153938Y-42897938D01*
X59170483Y-42886882D01*
X59190000Y-42883000D01*
X60190000Y-42883000D01*
X60209517Y-42886882D01*
G37*
G36*
X62749517Y-42886882D02*
G01*
X62766062Y-42897938D01*
X62777118Y-42914483D01*
X62781000Y-42934000D01*
X62781000Y-43934000D01*
X62777118Y-43953517D01*
X62766062Y-43970062D01*
X62749517Y-43981118D01*
X62730000Y-43985000D01*
X61730000Y-43985000D01*
X61710483Y-43981118D01*
X61693938Y-43970062D01*
X61682882Y-43953517D01*
X61679000Y-43934000D01*
X61679000Y-42934000D01*
X61682882Y-42914483D01*
X61693938Y-42897938D01*
X61710483Y-42886882D01*
X61730000Y-42883000D01*
X62730000Y-42883000D01*
X62749517Y-42886882D01*
G37*
G36*
X56653517Y-42632882D02*
G01*
X56670062Y-42643938D01*
X56681118Y-42660483D01*
X56685000Y-42680000D01*
X56685000Y-43680000D01*
X56681118Y-43699517D01*
X56670062Y-43716062D01*
X56653517Y-43727118D01*
X56634000Y-43731000D01*
X55634000Y-43731000D01*
X55614483Y-43727118D01*
X55597938Y-43716062D01*
X55586882Y-43699517D01*
X55583000Y-43680000D01*
X55583000Y-42680000D01*
X55586882Y-42660483D01*
X55597938Y-42643938D01*
X55614483Y-42632882D01*
X55634000Y-42629000D01*
X56634000Y-42629000D01*
X56653517Y-42632882D01*
G37*
G36*
X67124672Y-39210048D02*
G01*
X67126535Y-39210595D01*
X67126838Y-39210945D01*
X67137598Y-39215402D01*
X67143915Y-39230653D01*
X67147927Y-39235283D01*
X67150243Y-39245930D01*
X67154000Y-39255000D01*
X67154000Y-39263199D01*
X67164003Y-39309181D01*
X67287933Y-39308077D01*
X67297000Y-39262499D01*
X67297000Y-39255000D01*
X67300882Y-39235483D01*
X67311938Y-39218938D01*
X67328483Y-39207882D01*
X67348000Y-39204000D01*
X68348000Y-39204000D01*
X68367517Y-39207882D01*
X68384062Y-39218938D01*
X68395118Y-39235483D01*
X68399000Y-39255000D01*
X68399000Y-39262512D01*
X68408320Y-39309377D01*
X68527684Y-39314709D01*
X68542000Y-39265953D01*
X68542000Y-39255000D01*
X68553047Y-39228329D01*
X68553595Y-39226464D01*
X68553945Y-39226159D01*
X68558402Y-39215402D01*
X68573650Y-39209085D01*
X68578285Y-39205070D01*
X68588942Y-39202751D01*
X68598000Y-39199000D01*
X69148000Y-39199000D01*
X69160286Y-39204089D01*
X69213710Y-39204089D01*
X69219157Y-39204089D01*
X69234934Y-39206357D01*
X69240161Y-39207891D01*
X69240162Y-39207892D01*
X69277781Y-39218938D01*
X69371485Y-39246452D01*
X69385984Y-39253074D01*
X69505706Y-39330015D01*
X69517752Y-39340453D01*
X69610949Y-39448008D01*
X69619566Y-39461417D01*
X69621829Y-39466372D01*
X69621830Y-39466374D01*
X69676421Y-39585911D01*
X69676423Y-39585917D01*
X69678685Y-39590871D01*
X69683176Y-39606164D01*
X69703430Y-39747030D01*
X69704000Y-39755000D01*
X69704000Y-40255000D01*
X69703430Y-40262970D01*
X69683176Y-40403836D01*
X69678685Y-40419129D01*
X69676422Y-40424083D01*
X69676421Y-40424088D01*
X69635143Y-40514472D01*
X69619566Y-40548583D01*
X69610949Y-40561992D01*
X69517752Y-40669547D01*
X69505706Y-40679985D01*
X69385984Y-40756926D01*
X69371485Y-40763548D01*
X69234934Y-40803643D01*
X69219157Y-40805911D01*
X69213710Y-40805911D01*
X69167309Y-40805911D01*
X69159186Y-40806784D01*
X69157063Y-40807245D01*
X69148000Y-40811000D01*
X69139805Y-40811000D01*
X68608955Y-40811000D01*
X68598000Y-40811000D01*
X68571321Y-40799949D01*
X68569464Y-40799404D01*
X68569161Y-40799054D01*
X68558402Y-40794598D01*
X68552085Y-40779347D01*
X68548070Y-40774714D01*
X68545751Y-40764057D01*
X68542000Y-40755000D01*
X68542000Y-40746811D01*
X68531994Y-40700816D01*
X68408062Y-40701924D01*
X68399000Y-40747488D01*
X68399000Y-40755000D01*
X68395118Y-40774517D01*
X68384062Y-40791062D01*
X68367517Y-40802118D01*
X68348000Y-40806000D01*
X67348000Y-40806000D01*
X67328483Y-40802118D01*
X67311938Y-40791062D01*
X67300882Y-40774517D01*
X67297000Y-40755000D01*
X67297000Y-40747494D01*
X67287677Y-40700621D01*
X67168313Y-40695291D01*
X67154000Y-40744038D01*
X67154000Y-40755000D01*
X67142945Y-40781687D01*
X67142403Y-40783536D01*
X67142055Y-40783837D01*
X67137598Y-40794598D01*
X67122345Y-40800915D01*
X67117714Y-40804929D01*
X67107061Y-40807246D01*
X67098000Y-40811000D01*
X67089809Y-40811000D01*
X66558956Y-40811000D01*
X66548000Y-40811000D01*
X66535714Y-40805911D01*
X66482290Y-40805911D01*
X66476843Y-40805911D01*
X66461066Y-40803643D01*
X66324515Y-40763548D01*
X66310016Y-40756926D01*
X66190294Y-40679985D01*
X66178248Y-40669547D01*
X66085051Y-40561992D01*
X66076434Y-40548583D01*
X66074171Y-40543629D01*
X66074169Y-40543625D01*
X66019578Y-40424088D01*
X66019574Y-40424077D01*
X66017315Y-40419129D01*
X66012824Y-40403836D01*
X65992570Y-40262970D01*
X65992000Y-40255000D01*
X65992000Y-39755000D01*
X65992570Y-39747030D01*
X66012824Y-39606164D01*
X66017315Y-39590871D01*
X66019574Y-39585924D01*
X66019578Y-39585911D01*
X66074169Y-39466374D01*
X66074173Y-39466367D01*
X66076434Y-39461417D01*
X66085051Y-39448008D01*
X66088615Y-39443894D01*
X66088619Y-39443889D01*
X66174679Y-39344571D01*
X66174681Y-39344568D01*
X66178248Y-39340453D01*
X66190294Y-39330015D01*
X66222712Y-39309181D01*
X66305433Y-39256019D01*
X66305434Y-39256018D01*
X66310016Y-39253074D01*
X66324515Y-39246452D01*
X66329742Y-39244916D01*
X66329745Y-39244916D01*
X66455837Y-39207892D01*
X66455839Y-39207891D01*
X66461066Y-39206357D01*
X66476843Y-39204089D01*
X66528691Y-39204089D01*
X66536814Y-39203216D01*
X66538936Y-39202754D01*
X66548000Y-39199000D01*
X67098000Y-39199000D01*
X67124672Y-39210048D01*
G37*
G36*
X57669517Y-39127682D02*
G01*
X57686062Y-39138738D01*
X57697118Y-39155283D01*
X57701000Y-39174800D01*
X57701000Y-40174800D01*
X57697118Y-40194317D01*
X57686062Y-40210862D01*
X57669517Y-40221918D01*
X57650000Y-40225800D01*
X56650000Y-40225800D01*
X56630483Y-40221918D01*
X56613938Y-40210862D01*
X56602882Y-40194317D01*
X56599000Y-40174800D01*
X56599000Y-39174800D01*
X56602882Y-39155283D01*
X56613938Y-39138738D01*
X56630483Y-39127682D01*
X56650000Y-39123800D01*
X57650000Y-39123800D01*
X57669517Y-39127682D01*
G37*
G36*
X43445517Y-39076882D02*
G01*
X43462062Y-39087938D01*
X43473118Y-39104483D01*
X43477000Y-39124000D01*
X43477000Y-40124000D01*
X43473118Y-40143517D01*
X43462062Y-40160062D01*
X43445517Y-40171118D01*
X43426000Y-40175000D01*
X42426000Y-40175000D01*
X42406483Y-40171118D01*
X42389938Y-40160062D01*
X42378882Y-40143517D01*
X42375000Y-40124000D01*
X42375000Y-39124000D01*
X42378882Y-39104483D01*
X42389938Y-39087938D01*
X42406483Y-39076882D01*
X42426000Y-39073000D01*
X43426000Y-39073000D01*
X43445517Y-39076882D01*
G37*
G36*
X36649239Y-31362220D02*
G01*
X37048792Y-31421488D01*
X37440612Y-31519634D01*
X37820925Y-31655712D01*
X38186069Y-31828412D01*
X38532527Y-32036071D01*
X38856963Y-32276689D01*
X39156252Y-32547948D01*
X39427511Y-32847237D01*
X39668129Y-33171673D01*
X39875788Y-33518131D01*
X40048488Y-33883275D01*
X40184566Y-34263588D01*
X40282712Y-34655408D01*
X40341980Y-35054961D01*
X40361800Y-35458400D01*
X40341980Y-35861839D01*
X40282712Y-36261392D01*
X40184566Y-36653212D01*
X40048488Y-37033525D01*
X39875788Y-37398669D01*
X39668129Y-37745127D01*
X39427511Y-38069563D01*
X39156252Y-38368852D01*
X38856963Y-38640111D01*
X38532527Y-38880729D01*
X38186069Y-39088388D01*
X37820925Y-39261088D01*
X37440612Y-39397166D01*
X37048792Y-39495312D01*
X36649239Y-39554580D01*
X36245800Y-39574400D01*
X35842361Y-39554580D01*
X35442808Y-39495312D01*
X35050988Y-39397166D01*
X34670675Y-39261088D01*
X34305531Y-39088388D01*
X33959073Y-38880729D01*
X33634637Y-38640111D01*
X33335348Y-38368852D01*
X33064089Y-38069563D01*
X32823471Y-37745127D01*
X32615812Y-37398669D01*
X32443112Y-37033525D01*
X32307034Y-36653212D01*
X32208888Y-36261392D01*
X32149620Y-35861839D01*
X32129800Y-35458400D01*
X32149620Y-35054961D01*
X32208888Y-34655408D01*
X32307034Y-34263588D01*
X32443112Y-33883275D01*
X32615812Y-33518131D01*
X32823471Y-33171673D01*
X33064089Y-32847237D01*
X33335348Y-32547948D01*
X33634637Y-32276689D01*
X33959073Y-32036071D01*
X34305531Y-31828412D01*
X34670675Y-31655712D01*
X35050988Y-31519634D01*
X35442808Y-31421488D01*
X35842361Y-31362220D01*
X36245800Y-31342400D01*
X36649239Y-31362220D01*
G37*
G36*
X60871672Y-37711448D02*
G01*
X60873535Y-37711995D01*
X60873838Y-37712345D01*
X60884598Y-37716802D01*
X60890915Y-37732053D01*
X60894927Y-37736683D01*
X60897243Y-37747330D01*
X60901000Y-37756400D01*
X60901000Y-37764599D01*
X60911003Y-37810581D01*
X61034933Y-37809477D01*
X61044000Y-37763899D01*
X61044000Y-37756400D01*
X61047882Y-37736883D01*
X61058938Y-37720338D01*
X61075483Y-37709282D01*
X61095000Y-37705400D01*
X62095000Y-37705400D01*
X62114517Y-37709282D01*
X62131062Y-37720338D01*
X62142118Y-37736883D01*
X62146000Y-37756400D01*
X62146000Y-37763912D01*
X62155320Y-37810777D01*
X62274684Y-37816109D01*
X62289000Y-37767353D01*
X62289000Y-37756400D01*
X62300047Y-37729729D01*
X62300595Y-37727864D01*
X62300945Y-37727559D01*
X62305402Y-37716802D01*
X62320650Y-37710485D01*
X62325285Y-37706470D01*
X62335942Y-37704151D01*
X62345000Y-37700400D01*
X62895000Y-37700400D01*
X62907286Y-37705489D01*
X62960710Y-37705489D01*
X62966157Y-37705489D01*
X62981934Y-37707757D01*
X62987161Y-37709291D01*
X62987162Y-37709292D01*
X63109205Y-37745127D01*
X63118485Y-37747852D01*
X63132984Y-37754474D01*
X63252706Y-37831415D01*
X63264752Y-37841853D01*
X63357949Y-37949408D01*
X63366566Y-37962817D01*
X63368829Y-37967772D01*
X63368830Y-37967774D01*
X63423421Y-38087311D01*
X63423423Y-38087317D01*
X63425685Y-38092271D01*
X63430176Y-38107564D01*
X63450430Y-38248430D01*
X63451000Y-38256400D01*
X63451000Y-38756400D01*
X63450430Y-38764370D01*
X63430176Y-38905236D01*
X63425685Y-38920529D01*
X63423422Y-38925483D01*
X63423421Y-38925488D01*
X63382143Y-39015872D01*
X63366566Y-39049983D01*
X63357949Y-39063392D01*
X63264752Y-39170947D01*
X63252706Y-39181385D01*
X63132984Y-39258326D01*
X63118485Y-39264948D01*
X62981934Y-39305043D01*
X62966157Y-39307311D01*
X62960710Y-39307311D01*
X62914309Y-39307311D01*
X62906186Y-39308184D01*
X62904063Y-39308645D01*
X62895000Y-39312400D01*
X62886805Y-39312400D01*
X62355955Y-39312400D01*
X62345000Y-39312400D01*
X62318321Y-39301349D01*
X62316464Y-39300804D01*
X62316161Y-39300454D01*
X62305402Y-39295998D01*
X62299085Y-39280747D01*
X62295070Y-39276114D01*
X62292751Y-39265457D01*
X62289000Y-39256400D01*
X62289000Y-39248211D01*
X62278994Y-39202216D01*
X62155062Y-39203324D01*
X62146000Y-39248888D01*
X62146000Y-39256400D01*
X62142118Y-39275917D01*
X62131062Y-39292462D01*
X62114517Y-39303518D01*
X62095000Y-39307400D01*
X61095000Y-39307400D01*
X61075483Y-39303518D01*
X61058938Y-39292462D01*
X61047882Y-39275917D01*
X61044000Y-39256400D01*
X61044000Y-39248894D01*
X61034677Y-39202021D01*
X60915313Y-39196691D01*
X60901000Y-39245438D01*
X60901000Y-39256400D01*
X60889945Y-39283087D01*
X60889403Y-39284936D01*
X60889055Y-39285237D01*
X60884598Y-39295998D01*
X60869345Y-39302315D01*
X60864714Y-39306329D01*
X60854061Y-39308646D01*
X60845000Y-39312400D01*
X60836809Y-39312400D01*
X60305956Y-39312400D01*
X60295000Y-39312400D01*
X60282714Y-39307311D01*
X60229290Y-39307311D01*
X60223843Y-39307311D01*
X60208066Y-39305043D01*
X60071515Y-39264948D01*
X60057016Y-39258326D01*
X59937294Y-39181385D01*
X59925248Y-39170947D01*
X59868150Y-39105053D01*
X59835619Y-39067510D01*
X59835618Y-39067508D01*
X59832051Y-39063392D01*
X59823434Y-39049983D01*
X59821171Y-39045029D01*
X59821169Y-39045025D01*
X59766578Y-38925488D01*
X59766574Y-38925477D01*
X59764315Y-38920529D01*
X59759824Y-38905236D01*
X59739570Y-38764370D01*
X59739000Y-38756400D01*
X59739000Y-38256400D01*
X59739570Y-38248430D01*
X59759824Y-38107564D01*
X59764315Y-38092271D01*
X59766574Y-38087324D01*
X59766578Y-38087311D01*
X59821169Y-37967774D01*
X59821173Y-37967767D01*
X59823434Y-37962817D01*
X59832051Y-37949408D01*
X59835615Y-37945294D01*
X59835619Y-37945289D01*
X59921679Y-37845971D01*
X59921681Y-37845968D01*
X59925248Y-37841853D01*
X59937294Y-37831415D01*
X59971430Y-37809477D01*
X60052433Y-37757419D01*
X60052434Y-37757418D01*
X60057016Y-37754474D01*
X60071515Y-37747852D01*
X60076742Y-37746316D01*
X60076745Y-37746316D01*
X60202837Y-37709292D01*
X60202839Y-37709291D01*
X60208066Y-37707757D01*
X60223843Y-37705489D01*
X60275691Y-37705489D01*
X60283814Y-37704616D01*
X60285936Y-37704154D01*
X60295000Y-37700400D01*
X60845000Y-37700400D01*
X60871672Y-37711448D01*
G37*
G36*
X67502472Y-36744548D02*
G01*
X67504335Y-36745095D01*
X67504638Y-36745445D01*
X67515398Y-36749902D01*
X67521714Y-36765152D01*
X67525729Y-36769785D01*
X67528046Y-36780439D01*
X67531800Y-36789500D01*
X67531800Y-37289500D01*
X67526711Y-37301785D01*
X67526711Y-37360657D01*
X67524443Y-37376434D01*
X67484348Y-37512985D01*
X67477726Y-37527484D01*
X67400785Y-37647206D01*
X67390347Y-37659252D01*
X67282792Y-37752449D01*
X67269383Y-37761066D01*
X67264423Y-37763330D01*
X67264425Y-37763330D01*
X67144888Y-37817921D01*
X67144883Y-37817922D01*
X67139929Y-37820185D01*
X67124636Y-37824676D01*
X66983770Y-37844930D01*
X66975800Y-37845500D01*
X66973074Y-37845500D01*
X66478526Y-37845500D01*
X66475800Y-37845500D01*
X66467830Y-37844930D01*
X66326964Y-37824676D01*
X66311671Y-37820185D01*
X66306717Y-37817923D01*
X66306711Y-37817921D01*
X66187174Y-37763330D01*
X66187172Y-37763329D01*
X66182217Y-37761066D01*
X66168808Y-37752449D01*
X66061253Y-37659252D01*
X66050815Y-37647206D01*
X65973874Y-37527484D01*
X65967252Y-37512985D01*
X65927157Y-37376434D01*
X65924889Y-37360657D01*
X65924889Y-37308807D01*
X65924016Y-37300685D01*
X65923554Y-37298562D01*
X65919800Y-37289500D01*
X65919800Y-36789500D01*
X65930847Y-36762829D01*
X65931395Y-36760964D01*
X65931745Y-36760659D01*
X65936202Y-36749902D01*
X65951450Y-36743585D01*
X65956085Y-36739570D01*
X65966742Y-36737251D01*
X65975800Y-36733500D01*
X67475800Y-36733500D01*
X67502472Y-36744548D01*
G37*
G36*
X29729122Y-36294207D02*
G01*
X29791725Y-36303329D01*
X29803213Y-36308945D01*
X29819621Y-36312209D01*
X29846148Y-36329934D01*
X29873765Y-36343435D01*
X29888691Y-36358361D01*
X29909161Y-36372039D01*
X29922838Y-36392508D01*
X29937764Y-36407434D01*
X29951263Y-36435049D01*
X29968991Y-36461579D01*
X29972254Y-36477987D01*
X29977870Y-36489474D01*
X29986988Y-36552061D01*
X29990000Y-36567200D01*
X29990000Y-37017200D01*
X29986988Y-37032341D01*
X29977870Y-37094925D01*
X29972255Y-37106410D01*
X29968991Y-37122821D01*
X29951262Y-37149353D01*
X29937764Y-37176965D01*
X29922840Y-37191888D01*
X29909161Y-37212361D01*
X29888688Y-37226040D01*
X29873765Y-37240964D01*
X29846153Y-37254462D01*
X29819621Y-37272191D01*
X29803210Y-37275455D01*
X29791725Y-37281070D01*
X29729141Y-37290188D01*
X29714000Y-37293200D01*
X29214000Y-37293200D01*
X29198861Y-37290188D01*
X29136274Y-37281070D01*
X29124787Y-37275454D01*
X29108379Y-37272191D01*
X29081849Y-37254463D01*
X29054234Y-37240964D01*
X29039308Y-37226038D01*
X29018839Y-37212361D01*
X29005161Y-37191891D01*
X28990235Y-37176965D01*
X28976734Y-37149348D01*
X28959009Y-37122821D01*
X28955745Y-37106413D01*
X28950129Y-37094925D01*
X28941007Y-37032322D01*
X28938000Y-37017200D01*
X28938000Y-36567200D01*
X28941007Y-36552080D01*
X28950129Y-36489474D01*
X28955745Y-36477984D01*
X28959009Y-36461579D01*
X28976732Y-36435054D01*
X28990235Y-36407434D01*
X29005163Y-36392505D01*
X29018839Y-36372039D01*
X29039305Y-36358363D01*
X29054234Y-36343435D01*
X29081854Y-36329932D01*
X29108379Y-36312209D01*
X29124784Y-36308945D01*
X29136274Y-36303329D01*
X29198880Y-36294207D01*
X29214000Y-36291200D01*
X29714000Y-36291200D01*
X29729122Y-36294207D01*
G37*
G36*
X66983770Y-35434070D02*
G01*
X66986467Y-35434457D01*
X66986470Y-35434458D01*
X67119239Y-35453548D01*
X67124636Y-35454324D01*
X67139929Y-35458815D01*
X67144877Y-35461074D01*
X67144888Y-35461078D01*
X67264425Y-35515669D01*
X67264429Y-35515671D01*
X67269383Y-35517934D01*
X67282792Y-35526551D01*
X67390347Y-35619748D01*
X67400785Y-35631794D01*
X67477726Y-35751516D01*
X67484348Y-35766015D01*
X67524443Y-35902566D01*
X67526711Y-35918343D01*
X67526711Y-35923789D01*
X67526711Y-35970191D01*
X67527584Y-35978314D01*
X67528045Y-35980436D01*
X67531800Y-35989500D01*
X67531800Y-36489500D01*
X67520748Y-36516180D01*
X67520204Y-36518035D01*
X67519855Y-36518337D01*
X67515398Y-36529098D01*
X67500145Y-36535415D01*
X67495514Y-36539429D01*
X67484861Y-36541746D01*
X67475800Y-36545500D01*
X67467609Y-36545500D01*
X65986755Y-36545500D01*
X65975800Y-36545500D01*
X65949121Y-36534449D01*
X65947264Y-36533904D01*
X65946961Y-36533554D01*
X65936202Y-36529098D01*
X65929885Y-36513847D01*
X65925870Y-36509214D01*
X65923552Y-36498558D01*
X65919800Y-36489500D01*
X65919800Y-35989500D01*
X65924889Y-35977214D01*
X65924889Y-35918343D01*
X65927157Y-35902566D01*
X65939116Y-35861839D01*
X65965716Y-35771245D01*
X65965716Y-35771242D01*
X65967252Y-35766015D01*
X65973874Y-35751516D01*
X66012789Y-35690964D01*
X66047869Y-35636378D01*
X66047869Y-35636377D01*
X66050815Y-35631794D01*
X66061253Y-35619748D01*
X66065368Y-35616181D01*
X66065371Y-35616179D01*
X66164689Y-35530119D01*
X66164694Y-35530115D01*
X66168808Y-35526551D01*
X66182217Y-35517934D01*
X66187167Y-35515673D01*
X66187174Y-35515669D01*
X66306711Y-35461078D01*
X66306724Y-35461074D01*
X66311671Y-35458815D01*
X66326964Y-35454324D01*
X66332358Y-35453548D01*
X66332360Y-35453548D01*
X66465129Y-35434458D01*
X66465133Y-35434457D01*
X66467830Y-35434070D01*
X66475800Y-35433500D01*
X66975800Y-35433500D01*
X66983770Y-35434070D01*
G37*
G36*
X29729122Y-34744207D02*
G01*
X29791725Y-34753329D01*
X29803213Y-34758945D01*
X29819621Y-34762209D01*
X29846148Y-34779934D01*
X29873765Y-34793435D01*
X29888691Y-34808361D01*
X29909161Y-34822039D01*
X29922838Y-34842508D01*
X29937764Y-34857434D01*
X29951263Y-34885049D01*
X29968991Y-34911579D01*
X29972254Y-34927987D01*
X29977870Y-34939474D01*
X29986988Y-35002061D01*
X29990000Y-35017200D01*
X29990000Y-35467200D01*
X29986988Y-35482341D01*
X29977870Y-35544925D01*
X29972255Y-35556410D01*
X29968991Y-35572821D01*
X29951262Y-35599353D01*
X29937764Y-35626965D01*
X29922840Y-35641888D01*
X29909161Y-35662361D01*
X29888688Y-35676040D01*
X29873765Y-35690964D01*
X29846153Y-35704462D01*
X29819621Y-35722191D01*
X29803210Y-35725455D01*
X29791725Y-35731070D01*
X29729141Y-35740188D01*
X29714000Y-35743200D01*
X29214000Y-35743200D01*
X29198861Y-35740188D01*
X29136274Y-35731070D01*
X29124787Y-35725454D01*
X29108379Y-35722191D01*
X29081849Y-35704463D01*
X29054234Y-35690964D01*
X29039308Y-35676038D01*
X29018839Y-35662361D01*
X29005161Y-35641891D01*
X28990235Y-35626965D01*
X28976734Y-35599348D01*
X28959009Y-35572821D01*
X28955745Y-35556413D01*
X28950129Y-35544925D01*
X28941007Y-35482322D01*
X28938000Y-35467200D01*
X28938000Y-35017200D01*
X28941007Y-35002080D01*
X28950129Y-34939474D01*
X28955745Y-34927984D01*
X28959009Y-34911579D01*
X28976732Y-34885054D01*
X28990235Y-34857434D01*
X29005163Y-34842505D01*
X29018839Y-34822039D01*
X29039305Y-34808363D01*
X29054234Y-34793435D01*
X29081854Y-34779932D01*
X29108379Y-34762209D01*
X29124784Y-34758945D01*
X29136274Y-34753329D01*
X29198880Y-34744207D01*
X29214000Y-34741200D01*
X29714000Y-34741200D01*
X29729122Y-34744207D01*
G37*
G36*
X60209517Y-34250882D02*
G01*
X60226062Y-34261938D01*
X60237118Y-34278483D01*
X60241000Y-34298000D01*
X60241000Y-35298000D01*
X60237118Y-35317517D01*
X60226062Y-35334062D01*
X60209517Y-35345118D01*
X60190000Y-35349000D01*
X59190000Y-35349000D01*
X59170483Y-35345118D01*
X59153938Y-35334062D01*
X59142882Y-35317517D01*
X59139000Y-35298000D01*
X59139000Y-34298000D01*
X59142882Y-34278483D01*
X59153938Y-34261938D01*
X59170483Y-34250882D01*
X59190000Y-34247000D01*
X60190000Y-34247000D01*
X60209517Y-34250882D01*
G37*
G36*
X53859517Y-33488882D02*
G01*
X53876062Y-33499938D01*
X53887118Y-33516483D01*
X53891000Y-33536000D01*
X53891000Y-34536000D01*
X53887118Y-34555517D01*
X53876062Y-34572062D01*
X53859517Y-34583118D01*
X53840000Y-34587000D01*
X52840000Y-34587000D01*
X52820483Y-34583118D01*
X52803938Y-34572062D01*
X52792882Y-34555517D01*
X52789000Y-34536000D01*
X52789000Y-33536000D01*
X52792882Y-33516483D01*
X52803938Y-33499938D01*
X52820483Y-33488882D01*
X52840000Y-33485000D01*
X53840000Y-33485000D01*
X53859517Y-33488882D01*
G37*
G36*
X53859517Y-31454882D02*
G01*
X53876062Y-31465938D01*
X53887118Y-31482483D01*
X53891000Y-31502000D01*
X53891000Y-32502000D01*
X53887118Y-32521517D01*
X53876062Y-32538062D01*
X53859517Y-32549118D01*
X53840000Y-32553000D01*
X52840000Y-32553000D01*
X52820483Y-32549118D01*
X52803938Y-32538062D01*
X52792882Y-32521517D01*
X52789000Y-32502000D01*
X52789000Y-31502000D01*
X52792882Y-31482483D01*
X52803938Y-31465938D01*
X52820483Y-31454882D01*
X52840000Y-31451000D01*
X53840000Y-31451000D01*
X53859517Y-31454882D01*
G37*
G36*
X37865317Y-26116282D02*
G01*
X37881862Y-26127338D01*
X37892918Y-26143883D01*
X37896800Y-26163400D01*
X37896800Y-29363400D01*
X37892918Y-29382917D01*
X37881862Y-29399462D01*
X37865317Y-29410518D01*
X37845800Y-29414400D01*
X34645800Y-29414400D01*
X34626283Y-29410518D01*
X34609738Y-29399462D01*
X34598682Y-29382917D01*
X34594800Y-29363400D01*
X34594800Y-26163400D01*
X34598682Y-26143883D01*
X34609738Y-26127338D01*
X34626283Y-26116282D01*
X34645800Y-26112400D01*
X37845800Y-26112400D01*
X37865317Y-26116282D01*
G37*
G36*
X28283925Y-26581870D02*
G01*
X28502775Y-26657002D01*
X28706274Y-26767130D01*
X28888871Y-26909251D01*
X29045586Y-27079488D01*
X29172143Y-27273198D01*
X29265090Y-27485096D01*
X29321892Y-27709403D01*
X29341000Y-27940000D01*
X29321892Y-28170597D01*
X29265090Y-28394904D01*
X29172143Y-28606802D01*
X29045586Y-28800512D01*
X28888871Y-28970749D01*
X28706274Y-29112870D01*
X28502775Y-29222998D01*
X28283925Y-29298130D01*
X28055694Y-29336215D01*
X27824306Y-29336215D01*
X27596075Y-29298130D01*
X27377225Y-29222998D01*
X27173726Y-29112870D01*
X26991129Y-28970749D01*
X26834414Y-28800512D01*
X26707857Y-28606802D01*
X26614910Y-28394904D01*
X26558108Y-28170597D01*
X26539000Y-27940000D01*
X26558108Y-27709403D01*
X26614910Y-27485096D01*
X26707857Y-27273198D01*
X26834414Y-27079488D01*
X26991129Y-26909251D01*
X27173726Y-26767130D01*
X27377225Y-26657002D01*
X27596075Y-26581870D01*
X27824306Y-26543785D01*
X28055694Y-26543785D01*
X28283925Y-26581870D01*
G37*
G36*
X73713767Y-26643704D02*
G01*
X73767412Y-26643704D01*
X73826535Y-26653569D01*
X73885916Y-26658765D01*
X73932547Y-26671260D01*
X73979315Y-26679064D01*
X74042052Y-26700601D01*
X74104968Y-26717460D01*
X74143507Y-26735431D01*
X74182499Y-26748817D01*
X74246561Y-26783486D01*
X74310500Y-26813301D01*
X74340600Y-26834377D01*
X74371436Y-26851065D01*
X74434202Y-26899918D01*
X74496267Y-26943376D01*
X74518141Y-26965250D01*
X74540968Y-26983017D01*
X74599611Y-27046720D01*
X74656624Y-27103733D01*
X74671013Y-27124282D01*
X74686465Y-27141068D01*
X74738015Y-27219972D01*
X74786699Y-27289500D01*
X74794825Y-27306927D01*
X74803964Y-27320915D01*
X74845448Y-27415489D01*
X74882540Y-27495032D01*
X74885993Y-27507921D01*
X74890262Y-27517652D01*
X74918844Y-27630520D01*
X74941235Y-27714084D01*
X74941884Y-27721503D01*
X74942998Y-27725902D01*
X74956048Y-27883400D01*
X74961000Y-27940000D01*
X74956047Y-27996604D01*
X74942998Y-28154097D01*
X74941884Y-28158495D01*
X74941235Y-28165916D01*
X74918839Y-28249496D01*
X74890262Y-28362347D01*
X74885994Y-28372075D01*
X74882540Y-28384968D01*
X74845441Y-28464526D01*
X74803964Y-28559084D01*
X74794827Y-28573069D01*
X74786699Y-28590500D01*
X74738005Y-28660041D01*
X74686465Y-28738931D01*
X74671016Y-28755712D01*
X74656624Y-28776267D01*
X74599600Y-28833290D01*
X74540968Y-28896982D01*
X74518145Y-28914745D01*
X74496267Y-28936624D01*
X74434189Y-28980090D01*
X74371436Y-29028934D01*
X74340607Y-29045617D01*
X74310500Y-29066699D01*
X74246548Y-29096520D01*
X74182499Y-29131182D01*
X74143515Y-29144564D01*
X74104968Y-29162540D01*
X74042039Y-29179401D01*
X73979315Y-29200935D01*
X73932555Y-29208737D01*
X73885916Y-29221235D01*
X73826532Y-29226430D01*
X73767412Y-29236296D01*
X73713767Y-29236296D01*
X73660000Y-29241000D01*
X73606233Y-29236296D01*
X73552588Y-29236296D01*
X73493466Y-29226430D01*
X73434084Y-29221235D01*
X73387445Y-29208738D01*
X73340684Y-29200935D01*
X73277955Y-29179400D01*
X73215032Y-29162540D01*
X73176487Y-29144566D01*
X73137500Y-29131182D01*
X73073444Y-29096516D01*
X73009500Y-29066699D01*
X72979396Y-29045620D01*
X72948563Y-29028934D01*
X72885800Y-28980083D01*
X72823733Y-28936624D01*
X72801857Y-28914748D01*
X72779031Y-28896982D01*
X72720387Y-28833278D01*
X72663376Y-28776267D01*
X72648987Y-28755717D01*
X72633534Y-28738931D01*
X72581979Y-28660020D01*
X72533301Y-28590500D01*
X72525175Y-28573074D01*
X72516035Y-28559084D01*
X72474541Y-28464490D01*
X72437460Y-28384968D01*
X72434007Y-28372081D01*
X72429737Y-28362347D01*
X72401142Y-28249428D01*
X72378765Y-28165916D01*
X72378116Y-28158501D01*
X72377001Y-28154097D01*
X72363933Y-27996388D01*
X72359000Y-27940000D01*
X72363932Y-27883616D01*
X72377001Y-27725902D01*
X72378116Y-27721497D01*
X72378765Y-27714084D01*
X72401137Y-27630588D01*
X72429737Y-27517652D01*
X72434007Y-27507915D01*
X72437460Y-27495032D01*
X72474534Y-27415525D01*
X72516035Y-27320915D01*
X72525176Y-27306922D01*
X72533301Y-27289500D01*
X72581969Y-27219993D01*
X72633534Y-27141068D01*
X72648990Y-27124278D01*
X72663376Y-27103733D01*
X72720375Y-27046733D01*
X72779031Y-26983017D01*
X72801862Y-26965246D01*
X72823733Y-26943376D01*
X72885787Y-26899925D01*
X72948563Y-26851065D01*
X72979402Y-26834375D01*
X73009500Y-26813301D01*
X73073431Y-26783489D01*
X73137500Y-26748817D01*
X73176495Y-26735429D01*
X73215032Y-26717460D01*
X73277942Y-26700603D01*
X73340684Y-26679064D01*
X73387453Y-26671259D01*
X73434084Y-26658765D01*
X73493463Y-26653569D01*
X73552588Y-26643704D01*
X73606233Y-26643704D01*
X73660000Y-26639000D01*
X73713767Y-26643704D01*
G37*
G36*
X41956378Y-25773936D02*
G01*
X42004180Y-25773936D01*
X42045458Y-25782710D01*
X42085704Y-25786674D01*
X42136264Y-25802011D01*
X42188424Y-25813098D01*
X42221800Y-25827957D01*
X42254654Y-25837924D01*
X42306864Y-25865830D01*
X42360500Y-25889711D01*
X42385436Y-25907828D01*
X42410365Y-25921153D01*
X42461218Y-25962887D01*
X42512887Y-26000427D01*
X42529662Y-26019058D01*
X42546842Y-26033157D01*
X42593006Y-26089409D01*
X42638924Y-26140405D01*
X42648570Y-26157113D01*
X42658846Y-26169634D01*
X42696859Y-26240752D01*
X42733104Y-26303530D01*
X42737273Y-26316361D01*
X42742075Y-26325345D01*
X42768545Y-26412607D01*
X42791311Y-26482672D01*
X42792112Y-26490297D01*
X42793325Y-26494295D01*
X42805132Y-26614173D01*
X42811000Y-26670000D01*
X42805131Y-26725831D01*
X42793325Y-26845704D01*
X42792112Y-26849700D01*
X42791311Y-26857328D01*
X42768541Y-26927406D01*
X42742075Y-27014654D01*
X42737274Y-27023635D01*
X42733104Y-27036470D01*
X42696852Y-27099259D01*
X42658846Y-27170365D01*
X42648572Y-27182883D01*
X42638924Y-27199595D01*
X42592997Y-27250601D01*
X42546842Y-27306842D01*
X42529666Y-27320937D01*
X42512887Y-27339573D01*
X42461208Y-27377119D01*
X42410365Y-27418846D01*
X42385441Y-27432167D01*
X42360500Y-27450289D01*
X42306853Y-27474174D01*
X42254654Y-27502075D01*
X42221807Y-27512038D01*
X42188424Y-27526902D01*
X42136253Y-27537991D01*
X42085704Y-27553325D01*
X42045467Y-27557288D01*
X42004180Y-27566064D01*
X41956368Y-27566064D01*
X41910000Y-27570631D01*
X41863632Y-27566064D01*
X41815820Y-27566064D01*
X41774532Y-27557288D01*
X41734295Y-27553325D01*
X41683743Y-27537990D01*
X41631576Y-27526902D01*
X41598195Y-27512039D01*
X41565345Y-27502075D01*
X41513140Y-27474171D01*
X41459500Y-27450289D01*
X41434561Y-27432169D01*
X41409634Y-27418846D01*
X41358782Y-27377113D01*
X41307113Y-27339573D01*
X41290336Y-27320940D01*
X41273157Y-27306842D01*
X41226990Y-27250588D01*
X41181076Y-27199595D01*
X41171429Y-27182887D01*
X41161153Y-27170365D01*
X41123134Y-27099236D01*
X41086896Y-27036470D01*
X41082727Y-27023640D01*
X41077924Y-27014654D01*
X41051443Y-26927360D01*
X41028689Y-26857328D01*
X41027887Y-26849705D01*
X41026674Y-26845704D01*
X41014852Y-26725679D01*
X41009000Y-26670000D01*
X41014851Y-26614324D01*
X41026674Y-26494295D01*
X41027888Y-26490292D01*
X41028689Y-26482672D01*
X41051439Y-26412653D01*
X41077924Y-26325345D01*
X41082728Y-26316356D01*
X41086896Y-26303530D01*
X41123126Y-26240776D01*
X41161153Y-26169634D01*
X41171431Y-26157109D01*
X41181076Y-26140405D01*
X41226981Y-26089421D01*
X41273157Y-26033157D01*
X41290340Y-26019055D01*
X41307113Y-26000427D01*
X41358772Y-25962894D01*
X41409634Y-25921153D01*
X41434566Y-25907826D01*
X41459500Y-25889711D01*
X41513129Y-25865833D01*
X41565345Y-25837924D01*
X41598202Y-25827957D01*
X41631576Y-25813098D01*
X41683732Y-25802011D01*
X41734295Y-25786674D01*
X41774541Y-25782709D01*
X41815820Y-25773936D01*
X41863622Y-25773936D01*
X41910000Y-25769368D01*
X41956378Y-25773936D01*
G37*
G36*
X44496378Y-25773936D02*
G01*
X44544180Y-25773936D01*
X44585458Y-25782710D01*
X44625704Y-25786674D01*
X44676264Y-25802011D01*
X44728424Y-25813098D01*
X44761800Y-25827957D01*
X44794654Y-25837924D01*
X44846864Y-25865830D01*
X44900500Y-25889711D01*
X44925436Y-25907828D01*
X44950365Y-25921153D01*
X45001218Y-25962887D01*
X45052887Y-26000427D01*
X45069662Y-26019058D01*
X45086842Y-26033157D01*
X45133006Y-26089409D01*
X45178924Y-26140405D01*
X45188570Y-26157113D01*
X45198846Y-26169634D01*
X45236859Y-26240752D01*
X45273104Y-26303530D01*
X45277273Y-26316361D01*
X45282075Y-26325345D01*
X45308545Y-26412607D01*
X45331311Y-26482672D01*
X45332112Y-26490297D01*
X45333325Y-26494295D01*
X45345132Y-26614173D01*
X45351000Y-26670000D01*
X45345131Y-26725831D01*
X45333325Y-26845704D01*
X45332112Y-26849700D01*
X45331311Y-26857328D01*
X45308541Y-26927406D01*
X45282075Y-27014654D01*
X45277274Y-27023635D01*
X45273104Y-27036470D01*
X45236852Y-27099259D01*
X45198846Y-27170365D01*
X45188572Y-27182883D01*
X45178924Y-27199595D01*
X45132997Y-27250601D01*
X45086842Y-27306842D01*
X45069666Y-27320937D01*
X45052887Y-27339573D01*
X45001208Y-27377119D01*
X44950365Y-27418846D01*
X44925441Y-27432167D01*
X44900500Y-27450289D01*
X44846853Y-27474174D01*
X44794654Y-27502075D01*
X44761807Y-27512038D01*
X44728424Y-27526902D01*
X44676253Y-27537991D01*
X44625704Y-27553325D01*
X44585467Y-27557288D01*
X44544180Y-27566064D01*
X44496368Y-27566064D01*
X44450000Y-27570631D01*
X44403632Y-27566064D01*
X44355820Y-27566064D01*
X44314532Y-27557288D01*
X44274295Y-27553325D01*
X44223743Y-27537990D01*
X44171576Y-27526902D01*
X44138195Y-27512039D01*
X44105345Y-27502075D01*
X44053140Y-27474171D01*
X43999500Y-27450289D01*
X43974561Y-27432169D01*
X43949634Y-27418846D01*
X43898782Y-27377113D01*
X43847113Y-27339573D01*
X43830336Y-27320940D01*
X43813157Y-27306842D01*
X43766990Y-27250588D01*
X43721076Y-27199595D01*
X43711429Y-27182887D01*
X43701153Y-27170365D01*
X43663134Y-27099236D01*
X43626896Y-27036470D01*
X43622727Y-27023640D01*
X43617924Y-27014654D01*
X43591443Y-26927360D01*
X43568689Y-26857328D01*
X43567887Y-26849705D01*
X43566674Y-26845704D01*
X43554852Y-26725679D01*
X43549000Y-26670000D01*
X43554851Y-26614324D01*
X43566674Y-26494295D01*
X43567888Y-26490292D01*
X43568689Y-26482672D01*
X43591439Y-26412653D01*
X43617924Y-26325345D01*
X43622728Y-26316356D01*
X43626896Y-26303530D01*
X43663126Y-26240776D01*
X43701153Y-26169634D01*
X43711431Y-26157109D01*
X43721076Y-26140405D01*
X43766981Y-26089421D01*
X43813157Y-26033157D01*
X43830340Y-26019055D01*
X43847113Y-26000427D01*
X43898772Y-25962894D01*
X43949634Y-25921153D01*
X43974566Y-25907826D01*
X43999500Y-25889711D01*
X44053129Y-25865833D01*
X44105345Y-25837924D01*
X44138202Y-25827957D01*
X44171576Y-25813098D01*
X44223732Y-25802011D01*
X44274295Y-25786674D01*
X44314541Y-25782709D01*
X44355820Y-25773936D01*
X44403622Y-25773936D01*
X44450000Y-25769368D01*
X44496378Y-25773936D01*
G37*
G36*
X47036378Y-25773936D02*
G01*
X47084180Y-25773936D01*
X47125458Y-25782710D01*
X47165704Y-25786674D01*
X47216264Y-25802011D01*
X47268424Y-25813098D01*
X47301800Y-25827957D01*
X47334654Y-25837924D01*
X47386864Y-25865830D01*
X47440500Y-25889711D01*
X47465436Y-25907828D01*
X47490365Y-25921153D01*
X47541218Y-25962887D01*
X47592887Y-26000427D01*
X47609662Y-26019058D01*
X47626842Y-26033157D01*
X47673006Y-26089409D01*
X47718924Y-26140405D01*
X47728570Y-26157113D01*
X47738846Y-26169634D01*
X47776859Y-26240752D01*
X47813104Y-26303530D01*
X47817273Y-26316361D01*
X47822075Y-26325345D01*
X47848545Y-26412607D01*
X47871311Y-26482672D01*
X47872112Y-26490297D01*
X47873325Y-26494295D01*
X47885132Y-26614173D01*
X47891000Y-26670000D01*
X47885131Y-26725831D01*
X47873325Y-26845704D01*
X47872112Y-26849700D01*
X47871311Y-26857328D01*
X47848541Y-26927406D01*
X47822075Y-27014654D01*
X47817274Y-27023635D01*
X47813104Y-27036470D01*
X47776852Y-27099259D01*
X47738846Y-27170365D01*
X47728572Y-27182883D01*
X47718924Y-27199595D01*
X47672997Y-27250601D01*
X47626842Y-27306842D01*
X47609666Y-27320937D01*
X47592887Y-27339573D01*
X47541208Y-27377119D01*
X47490365Y-27418846D01*
X47465441Y-27432167D01*
X47440500Y-27450289D01*
X47386853Y-27474174D01*
X47334654Y-27502075D01*
X47301807Y-27512038D01*
X47268424Y-27526902D01*
X47216253Y-27537991D01*
X47165704Y-27553325D01*
X47125467Y-27557288D01*
X47084180Y-27566064D01*
X47036368Y-27566064D01*
X46990000Y-27570631D01*
X46943632Y-27566064D01*
X46895820Y-27566064D01*
X46854532Y-27557288D01*
X46814295Y-27553325D01*
X46763743Y-27537990D01*
X46711576Y-27526902D01*
X46678195Y-27512039D01*
X46645345Y-27502075D01*
X46593140Y-27474171D01*
X46539500Y-27450289D01*
X46514561Y-27432169D01*
X46489634Y-27418846D01*
X46438782Y-27377113D01*
X46387113Y-27339573D01*
X46370336Y-27320940D01*
X46353157Y-27306842D01*
X46306990Y-27250588D01*
X46261076Y-27199595D01*
X46251429Y-27182887D01*
X46241153Y-27170365D01*
X46203134Y-27099236D01*
X46166896Y-27036470D01*
X46162727Y-27023640D01*
X46157924Y-27014654D01*
X46131443Y-26927360D01*
X46108689Y-26857328D01*
X46107887Y-26849705D01*
X46106674Y-26845704D01*
X46094852Y-26725679D01*
X46089000Y-26670000D01*
X46094851Y-26614324D01*
X46106674Y-26494295D01*
X46107888Y-26490292D01*
X46108689Y-26482672D01*
X46131439Y-26412653D01*
X46157924Y-26325345D01*
X46162728Y-26316356D01*
X46166896Y-26303530D01*
X46203126Y-26240776D01*
X46241153Y-26169634D01*
X46251431Y-26157109D01*
X46261076Y-26140405D01*
X46306981Y-26089421D01*
X46353157Y-26033157D01*
X46370340Y-26019055D01*
X46387113Y-26000427D01*
X46438772Y-25962894D01*
X46489634Y-25921153D01*
X46514566Y-25907826D01*
X46539500Y-25889711D01*
X46593129Y-25865833D01*
X46645345Y-25837924D01*
X46678202Y-25827957D01*
X46711576Y-25813098D01*
X46763732Y-25802011D01*
X46814295Y-25786674D01*
X46854541Y-25782709D01*
X46895820Y-25773936D01*
X46943622Y-25773936D01*
X46990000Y-25769368D01*
X47036378Y-25773936D01*
G37*
G36*
X49576378Y-25773936D02*
G01*
X49624180Y-25773936D01*
X49665458Y-25782710D01*
X49705704Y-25786674D01*
X49756264Y-25802011D01*
X49808424Y-25813098D01*
X49841800Y-25827957D01*
X49874654Y-25837924D01*
X49926864Y-25865830D01*
X49980500Y-25889711D01*
X50005436Y-25907828D01*
X50030365Y-25921153D01*
X50081218Y-25962887D01*
X50132887Y-26000427D01*
X50149662Y-26019058D01*
X50166842Y-26033157D01*
X50213006Y-26089409D01*
X50258924Y-26140405D01*
X50268570Y-26157113D01*
X50278846Y-26169634D01*
X50316859Y-26240752D01*
X50353104Y-26303530D01*
X50357273Y-26316361D01*
X50362075Y-26325345D01*
X50388545Y-26412607D01*
X50411311Y-26482672D01*
X50412112Y-26490297D01*
X50413325Y-26494295D01*
X50425132Y-26614173D01*
X50431000Y-26670000D01*
X50425131Y-26725831D01*
X50413325Y-26845704D01*
X50412112Y-26849700D01*
X50411311Y-26857328D01*
X50388541Y-26927406D01*
X50362075Y-27014654D01*
X50357274Y-27023635D01*
X50353104Y-27036470D01*
X50316852Y-27099259D01*
X50278846Y-27170365D01*
X50268572Y-27182883D01*
X50258924Y-27199595D01*
X50212997Y-27250601D01*
X50166842Y-27306842D01*
X50149666Y-27320937D01*
X50132887Y-27339573D01*
X50081208Y-27377119D01*
X50030365Y-27418846D01*
X50005441Y-27432167D01*
X49980500Y-27450289D01*
X49926853Y-27474174D01*
X49874654Y-27502075D01*
X49841807Y-27512038D01*
X49808424Y-27526902D01*
X49756253Y-27537991D01*
X49705704Y-27553325D01*
X49665467Y-27557288D01*
X49624180Y-27566064D01*
X49576368Y-27566064D01*
X49530000Y-27570631D01*
X49483632Y-27566064D01*
X49435820Y-27566064D01*
X49394532Y-27557288D01*
X49354295Y-27553325D01*
X49303743Y-27537990D01*
X49251576Y-27526902D01*
X49218195Y-27512039D01*
X49185345Y-27502075D01*
X49133140Y-27474171D01*
X49079500Y-27450289D01*
X49054561Y-27432169D01*
X49029634Y-27418846D01*
X48978782Y-27377113D01*
X48927113Y-27339573D01*
X48910336Y-27320940D01*
X48893157Y-27306842D01*
X48846990Y-27250588D01*
X48801076Y-27199595D01*
X48791429Y-27182887D01*
X48781153Y-27170365D01*
X48743134Y-27099236D01*
X48706896Y-27036470D01*
X48702727Y-27023640D01*
X48697924Y-27014654D01*
X48671443Y-26927360D01*
X48648689Y-26857328D01*
X48647887Y-26849705D01*
X48646674Y-26845704D01*
X48634852Y-26725679D01*
X48629000Y-26670000D01*
X48634851Y-26614324D01*
X48646674Y-26494295D01*
X48647888Y-26490292D01*
X48648689Y-26482672D01*
X48671439Y-26412653D01*
X48697924Y-26325345D01*
X48702728Y-26316356D01*
X48706896Y-26303530D01*
X48743126Y-26240776D01*
X48781153Y-26169634D01*
X48791431Y-26157109D01*
X48801076Y-26140405D01*
X48846981Y-26089421D01*
X48893157Y-26033157D01*
X48910340Y-26019055D01*
X48927113Y-26000427D01*
X48978772Y-25962894D01*
X49029634Y-25921153D01*
X49054566Y-25907826D01*
X49079500Y-25889711D01*
X49133129Y-25865833D01*
X49185345Y-25837924D01*
X49218202Y-25827957D01*
X49251576Y-25813098D01*
X49303732Y-25802011D01*
X49354295Y-25786674D01*
X49394541Y-25782709D01*
X49435820Y-25773936D01*
X49483622Y-25773936D01*
X49530000Y-25769368D01*
X49576378Y-25773936D01*
G37*
G36*
X52116378Y-25773936D02*
G01*
X52164180Y-25773936D01*
X52205458Y-25782710D01*
X52245704Y-25786674D01*
X52296264Y-25802011D01*
X52348424Y-25813098D01*
X52381800Y-25827957D01*
X52414654Y-25837924D01*
X52466864Y-25865830D01*
X52520500Y-25889711D01*
X52545436Y-25907828D01*
X52570365Y-25921153D01*
X52621218Y-25962887D01*
X52672887Y-26000427D01*
X52689662Y-26019058D01*
X52706842Y-26033157D01*
X52753006Y-26089409D01*
X52798924Y-26140405D01*
X52808570Y-26157113D01*
X52818846Y-26169634D01*
X52856859Y-26240752D01*
X52893104Y-26303530D01*
X52897273Y-26316361D01*
X52902075Y-26325345D01*
X52928545Y-26412607D01*
X52951311Y-26482672D01*
X52952112Y-26490297D01*
X52953325Y-26494295D01*
X52965132Y-26614173D01*
X52971000Y-26670000D01*
X52965131Y-26725831D01*
X52953325Y-26845704D01*
X52952112Y-26849700D01*
X52951311Y-26857328D01*
X52928541Y-26927406D01*
X52902075Y-27014654D01*
X52897274Y-27023635D01*
X52893104Y-27036470D01*
X52856852Y-27099259D01*
X52818846Y-27170365D01*
X52808572Y-27182883D01*
X52798924Y-27199595D01*
X52752997Y-27250601D01*
X52706842Y-27306842D01*
X52689666Y-27320937D01*
X52672887Y-27339573D01*
X52621208Y-27377119D01*
X52570365Y-27418846D01*
X52545441Y-27432167D01*
X52520500Y-27450289D01*
X52466853Y-27474174D01*
X52414654Y-27502075D01*
X52381807Y-27512038D01*
X52348424Y-27526902D01*
X52296253Y-27537991D01*
X52245704Y-27553325D01*
X52205467Y-27557288D01*
X52164180Y-27566064D01*
X52116368Y-27566064D01*
X52070000Y-27570631D01*
X52023632Y-27566064D01*
X51975820Y-27566064D01*
X51934532Y-27557288D01*
X51894295Y-27553325D01*
X51843743Y-27537990D01*
X51791576Y-27526902D01*
X51758195Y-27512039D01*
X51725345Y-27502075D01*
X51673140Y-27474171D01*
X51619500Y-27450289D01*
X51594561Y-27432169D01*
X51569634Y-27418846D01*
X51518782Y-27377113D01*
X51467113Y-27339573D01*
X51450336Y-27320940D01*
X51433157Y-27306842D01*
X51386990Y-27250588D01*
X51341076Y-27199595D01*
X51331429Y-27182887D01*
X51321153Y-27170365D01*
X51283134Y-27099236D01*
X51246896Y-27036470D01*
X51242727Y-27023640D01*
X51237924Y-27014654D01*
X51211443Y-26927360D01*
X51188689Y-26857328D01*
X51187887Y-26849705D01*
X51186674Y-26845704D01*
X51174852Y-26725679D01*
X51169000Y-26670000D01*
X51174851Y-26614324D01*
X51186674Y-26494295D01*
X51187888Y-26490292D01*
X51188689Y-26482672D01*
X51211439Y-26412653D01*
X51237924Y-26325345D01*
X51242728Y-26316356D01*
X51246896Y-26303530D01*
X51283126Y-26240776D01*
X51321153Y-26169634D01*
X51331431Y-26157109D01*
X51341076Y-26140405D01*
X51386981Y-26089421D01*
X51433157Y-26033157D01*
X51450340Y-26019055D01*
X51467113Y-26000427D01*
X51518772Y-25962894D01*
X51569634Y-25921153D01*
X51594566Y-25907826D01*
X51619500Y-25889711D01*
X51673129Y-25865833D01*
X51725345Y-25837924D01*
X51758202Y-25827957D01*
X51791576Y-25813098D01*
X51843732Y-25802011D01*
X51894295Y-25786674D01*
X51934541Y-25782709D01*
X51975820Y-25773936D01*
X52023622Y-25773936D01*
X52070000Y-25769368D01*
X52116378Y-25773936D01*
G37*
G36*
X54656378Y-25773936D02*
G01*
X54704180Y-25773936D01*
X54745458Y-25782710D01*
X54785704Y-25786674D01*
X54836264Y-25802011D01*
X54888424Y-25813098D01*
X54921800Y-25827957D01*
X54954654Y-25837924D01*
X55006864Y-25865830D01*
X55060500Y-25889711D01*
X55085436Y-25907828D01*
X55110365Y-25921153D01*
X55161218Y-25962887D01*
X55212887Y-26000427D01*
X55229662Y-26019058D01*
X55246842Y-26033157D01*
X55293006Y-26089409D01*
X55338924Y-26140405D01*
X55348570Y-26157113D01*
X55358846Y-26169634D01*
X55396859Y-26240752D01*
X55433104Y-26303530D01*
X55437273Y-26316361D01*
X55442075Y-26325345D01*
X55468545Y-26412607D01*
X55491311Y-26482672D01*
X55492112Y-26490297D01*
X55493325Y-26494295D01*
X55505132Y-26614173D01*
X55511000Y-26670000D01*
X55505131Y-26725831D01*
X55493325Y-26845704D01*
X55492112Y-26849700D01*
X55491311Y-26857328D01*
X55468541Y-26927406D01*
X55442075Y-27014654D01*
X55437274Y-27023635D01*
X55433104Y-27036470D01*
X55396852Y-27099259D01*
X55358846Y-27170365D01*
X55348572Y-27182883D01*
X55338924Y-27199595D01*
X55292997Y-27250601D01*
X55246842Y-27306842D01*
X55229666Y-27320937D01*
X55212887Y-27339573D01*
X55161208Y-27377119D01*
X55110365Y-27418846D01*
X55085441Y-27432167D01*
X55060500Y-27450289D01*
X55006853Y-27474174D01*
X54954654Y-27502075D01*
X54921807Y-27512038D01*
X54888424Y-27526902D01*
X54836253Y-27537991D01*
X54785704Y-27553325D01*
X54745467Y-27557288D01*
X54704180Y-27566064D01*
X54656368Y-27566064D01*
X54610000Y-27570631D01*
X54563632Y-27566064D01*
X54515820Y-27566064D01*
X54474532Y-27557288D01*
X54434295Y-27553325D01*
X54383743Y-27537990D01*
X54331576Y-27526902D01*
X54298195Y-27512039D01*
X54265345Y-27502075D01*
X54213140Y-27474171D01*
X54159500Y-27450289D01*
X54134561Y-27432169D01*
X54109634Y-27418846D01*
X54058782Y-27377113D01*
X54007113Y-27339573D01*
X53990336Y-27320940D01*
X53973157Y-27306842D01*
X53926990Y-27250588D01*
X53881076Y-27199595D01*
X53871429Y-27182887D01*
X53861153Y-27170365D01*
X53823134Y-27099236D01*
X53786896Y-27036470D01*
X53782727Y-27023640D01*
X53777924Y-27014654D01*
X53751443Y-26927360D01*
X53728689Y-26857328D01*
X53727887Y-26849705D01*
X53726674Y-26845704D01*
X53714852Y-26725679D01*
X53709000Y-26670000D01*
X53714851Y-26614324D01*
X53726674Y-26494295D01*
X53727888Y-26490292D01*
X53728689Y-26482672D01*
X53751439Y-26412653D01*
X53777924Y-26325345D01*
X53782728Y-26316356D01*
X53786896Y-26303530D01*
X53823126Y-26240776D01*
X53861153Y-26169634D01*
X53871431Y-26157109D01*
X53881076Y-26140405D01*
X53926981Y-26089421D01*
X53973157Y-26033157D01*
X53990340Y-26019055D01*
X54007113Y-26000427D01*
X54058772Y-25962894D01*
X54109634Y-25921153D01*
X54134566Y-25907826D01*
X54159500Y-25889711D01*
X54213129Y-25865833D01*
X54265345Y-25837924D01*
X54298202Y-25827957D01*
X54331576Y-25813098D01*
X54383732Y-25802011D01*
X54434295Y-25786674D01*
X54474541Y-25782709D01*
X54515820Y-25773936D01*
X54563622Y-25773936D01*
X54610000Y-25769368D01*
X54656378Y-25773936D01*
G37*
G36*
X57196378Y-25773936D02*
G01*
X57244180Y-25773936D01*
X57285458Y-25782710D01*
X57325704Y-25786674D01*
X57376264Y-25802011D01*
X57428424Y-25813098D01*
X57461800Y-25827957D01*
X57494654Y-25837924D01*
X57546864Y-25865830D01*
X57600500Y-25889711D01*
X57625436Y-25907828D01*
X57650365Y-25921153D01*
X57701218Y-25962887D01*
X57752887Y-26000427D01*
X57769662Y-26019058D01*
X57786842Y-26033157D01*
X57833006Y-26089409D01*
X57878924Y-26140405D01*
X57888570Y-26157113D01*
X57898846Y-26169634D01*
X57936859Y-26240752D01*
X57973104Y-26303530D01*
X57977273Y-26316361D01*
X57982075Y-26325345D01*
X58008545Y-26412607D01*
X58031311Y-26482672D01*
X58032112Y-26490297D01*
X58033325Y-26494295D01*
X58045132Y-26614173D01*
X58051000Y-26670000D01*
X58045131Y-26725831D01*
X58033325Y-26845704D01*
X58032112Y-26849700D01*
X58031311Y-26857328D01*
X58008541Y-26927406D01*
X57982075Y-27014654D01*
X57977274Y-27023635D01*
X57973104Y-27036470D01*
X57936852Y-27099259D01*
X57898846Y-27170365D01*
X57888572Y-27182883D01*
X57878924Y-27199595D01*
X57832997Y-27250601D01*
X57786842Y-27306842D01*
X57769666Y-27320937D01*
X57752887Y-27339573D01*
X57701208Y-27377119D01*
X57650365Y-27418846D01*
X57625441Y-27432167D01*
X57600500Y-27450289D01*
X57546853Y-27474174D01*
X57494654Y-27502075D01*
X57461807Y-27512038D01*
X57428424Y-27526902D01*
X57376253Y-27537991D01*
X57325704Y-27553325D01*
X57285467Y-27557288D01*
X57244180Y-27566064D01*
X57196368Y-27566064D01*
X57150000Y-27570631D01*
X57103632Y-27566064D01*
X57055820Y-27566064D01*
X57014532Y-27557288D01*
X56974295Y-27553325D01*
X56923743Y-27537990D01*
X56871576Y-27526902D01*
X56838195Y-27512039D01*
X56805345Y-27502075D01*
X56753140Y-27474171D01*
X56699500Y-27450289D01*
X56674561Y-27432169D01*
X56649634Y-27418846D01*
X56598782Y-27377113D01*
X56547113Y-27339573D01*
X56530336Y-27320940D01*
X56513157Y-27306842D01*
X56466990Y-27250588D01*
X56421076Y-27199595D01*
X56411429Y-27182887D01*
X56401153Y-27170365D01*
X56363134Y-27099236D01*
X56326896Y-27036470D01*
X56322727Y-27023640D01*
X56317924Y-27014654D01*
X56291443Y-26927360D01*
X56268689Y-26857328D01*
X56267887Y-26849705D01*
X56266674Y-26845704D01*
X56254852Y-26725679D01*
X56249000Y-26670000D01*
X56254851Y-26614324D01*
X56266674Y-26494295D01*
X56267888Y-26490292D01*
X56268689Y-26482672D01*
X56291439Y-26412653D01*
X56317924Y-26325345D01*
X56322728Y-26316356D01*
X56326896Y-26303530D01*
X56363126Y-26240776D01*
X56401153Y-26169634D01*
X56411431Y-26157109D01*
X56421076Y-26140405D01*
X56466981Y-26089421D01*
X56513157Y-26033157D01*
X56530340Y-26019055D01*
X56547113Y-26000427D01*
X56598772Y-25962894D01*
X56649634Y-25921153D01*
X56674566Y-25907826D01*
X56699500Y-25889711D01*
X56753129Y-25865833D01*
X56805345Y-25837924D01*
X56838202Y-25827957D01*
X56871576Y-25813098D01*
X56923732Y-25802011D01*
X56974295Y-25786674D01*
X57014541Y-25782709D01*
X57055820Y-25773936D01*
X57103622Y-25773936D01*
X57150000Y-25769368D01*
X57196378Y-25773936D01*
G37*
G36*
X59736378Y-25773936D02*
G01*
X59784180Y-25773936D01*
X59825458Y-25782710D01*
X59865704Y-25786674D01*
X59916264Y-25802011D01*
X59968424Y-25813098D01*
X60001800Y-25827957D01*
X60034654Y-25837924D01*
X60086864Y-25865830D01*
X60140500Y-25889711D01*
X60165436Y-25907828D01*
X60190365Y-25921153D01*
X60241218Y-25962887D01*
X60292887Y-26000427D01*
X60309662Y-26019058D01*
X60326842Y-26033157D01*
X60373006Y-26089409D01*
X60418924Y-26140405D01*
X60428570Y-26157113D01*
X60438846Y-26169634D01*
X60476859Y-26240752D01*
X60513104Y-26303530D01*
X60517273Y-26316361D01*
X60522075Y-26325345D01*
X60548545Y-26412607D01*
X60571311Y-26482672D01*
X60572112Y-26490297D01*
X60573325Y-26494295D01*
X60585132Y-26614173D01*
X60591000Y-26670000D01*
X60585131Y-26725831D01*
X60573325Y-26845704D01*
X60572112Y-26849700D01*
X60571311Y-26857328D01*
X60548541Y-26927406D01*
X60522075Y-27014654D01*
X60517274Y-27023635D01*
X60513104Y-27036470D01*
X60476852Y-27099259D01*
X60438846Y-27170365D01*
X60428572Y-27182883D01*
X60418924Y-27199595D01*
X60372997Y-27250601D01*
X60326842Y-27306842D01*
X60309666Y-27320937D01*
X60292887Y-27339573D01*
X60241208Y-27377119D01*
X60190365Y-27418846D01*
X60165441Y-27432167D01*
X60140500Y-27450289D01*
X60086853Y-27474174D01*
X60034654Y-27502075D01*
X60001807Y-27512038D01*
X59968424Y-27526902D01*
X59916253Y-27537991D01*
X59865704Y-27553325D01*
X59825467Y-27557288D01*
X59784180Y-27566064D01*
X59736368Y-27566064D01*
X59690000Y-27570631D01*
X59643632Y-27566064D01*
X59595820Y-27566064D01*
X59554532Y-27557288D01*
X59514295Y-27553325D01*
X59463743Y-27537990D01*
X59411576Y-27526902D01*
X59378195Y-27512039D01*
X59345345Y-27502075D01*
X59293140Y-27474171D01*
X59239500Y-27450289D01*
X59214561Y-27432169D01*
X59189634Y-27418846D01*
X59138782Y-27377113D01*
X59087113Y-27339573D01*
X59070336Y-27320940D01*
X59053157Y-27306842D01*
X59006990Y-27250588D01*
X58961076Y-27199595D01*
X58951429Y-27182887D01*
X58941153Y-27170365D01*
X58903134Y-27099236D01*
X58866896Y-27036470D01*
X58862727Y-27023640D01*
X58857924Y-27014654D01*
X58831443Y-26927360D01*
X58808689Y-26857328D01*
X58807887Y-26849705D01*
X58806674Y-26845704D01*
X58794852Y-26725679D01*
X58789000Y-26670000D01*
X58794851Y-26614324D01*
X58806674Y-26494295D01*
X58807888Y-26490292D01*
X58808689Y-26482672D01*
X58831439Y-26412653D01*
X58857924Y-26325345D01*
X58862728Y-26316356D01*
X58866896Y-26303530D01*
X58903126Y-26240776D01*
X58941153Y-26169634D01*
X58951431Y-26157109D01*
X58961076Y-26140405D01*
X59006981Y-26089421D01*
X59053157Y-26033157D01*
X59070340Y-26019055D01*
X59087113Y-26000427D01*
X59138772Y-25962894D01*
X59189634Y-25921153D01*
X59214566Y-25907826D01*
X59239500Y-25889711D01*
X59293129Y-25865833D01*
X59345345Y-25837924D01*
X59378202Y-25827957D01*
X59411576Y-25813098D01*
X59463732Y-25802011D01*
X59514295Y-25786674D01*
X59554541Y-25782709D01*
X59595820Y-25773936D01*
X59643622Y-25773936D01*
X59690000Y-25769368D01*
X59736378Y-25773936D01*
G37*
G36*
X62276378Y-25773936D02*
G01*
X62324180Y-25773936D01*
X62365458Y-25782710D01*
X62405704Y-25786674D01*
X62456264Y-25802011D01*
X62508424Y-25813098D01*
X62541800Y-25827957D01*
X62574654Y-25837924D01*
X62626864Y-25865830D01*
X62680500Y-25889711D01*
X62705436Y-25907828D01*
X62730365Y-25921153D01*
X62781218Y-25962887D01*
X62832887Y-26000427D01*
X62849662Y-26019058D01*
X62866842Y-26033157D01*
X62913006Y-26089409D01*
X62958924Y-26140405D01*
X62968570Y-26157113D01*
X62978846Y-26169634D01*
X63016859Y-26240752D01*
X63053104Y-26303530D01*
X63057273Y-26316361D01*
X63062075Y-26325345D01*
X63088545Y-26412607D01*
X63111311Y-26482672D01*
X63112112Y-26490297D01*
X63113325Y-26494295D01*
X63125132Y-26614173D01*
X63131000Y-26670000D01*
X63125131Y-26725831D01*
X63113325Y-26845704D01*
X63112112Y-26849700D01*
X63111311Y-26857328D01*
X63088541Y-26927406D01*
X63062075Y-27014654D01*
X63057274Y-27023635D01*
X63053104Y-27036470D01*
X63016852Y-27099259D01*
X62978846Y-27170365D01*
X62968572Y-27182883D01*
X62958924Y-27199595D01*
X62912997Y-27250601D01*
X62866842Y-27306842D01*
X62849666Y-27320937D01*
X62832887Y-27339573D01*
X62781208Y-27377119D01*
X62730365Y-27418846D01*
X62705441Y-27432167D01*
X62680500Y-27450289D01*
X62626853Y-27474174D01*
X62574654Y-27502075D01*
X62541807Y-27512038D01*
X62508424Y-27526902D01*
X62456253Y-27537991D01*
X62405704Y-27553325D01*
X62365467Y-27557288D01*
X62324180Y-27566064D01*
X62276368Y-27566064D01*
X62230000Y-27570631D01*
X62183632Y-27566064D01*
X62135820Y-27566064D01*
X62094532Y-27557288D01*
X62054295Y-27553325D01*
X62003743Y-27537990D01*
X61951576Y-27526902D01*
X61918195Y-27512039D01*
X61885345Y-27502075D01*
X61833140Y-27474171D01*
X61779500Y-27450289D01*
X61754561Y-27432169D01*
X61729634Y-27418846D01*
X61678782Y-27377113D01*
X61627113Y-27339573D01*
X61610336Y-27320940D01*
X61593157Y-27306842D01*
X61546990Y-27250588D01*
X61501076Y-27199595D01*
X61491429Y-27182887D01*
X61481153Y-27170365D01*
X61443134Y-27099236D01*
X61406896Y-27036470D01*
X61402727Y-27023640D01*
X61397924Y-27014654D01*
X61371443Y-26927360D01*
X61348689Y-26857328D01*
X61347887Y-26849705D01*
X61346674Y-26845704D01*
X61334852Y-26725679D01*
X61329000Y-26670000D01*
X61334851Y-26614324D01*
X61346674Y-26494295D01*
X61347888Y-26490292D01*
X61348689Y-26482672D01*
X61371439Y-26412653D01*
X61397924Y-26325345D01*
X61402728Y-26316356D01*
X61406896Y-26303530D01*
X61443126Y-26240776D01*
X61481153Y-26169634D01*
X61491431Y-26157109D01*
X61501076Y-26140405D01*
X61546981Y-26089421D01*
X61593157Y-26033157D01*
X61610340Y-26019055D01*
X61627113Y-26000427D01*
X61678772Y-25962894D01*
X61729634Y-25921153D01*
X61754566Y-25907826D01*
X61779500Y-25889711D01*
X61833129Y-25865833D01*
X61885345Y-25837924D01*
X61918202Y-25827957D01*
X61951576Y-25813098D01*
X62003732Y-25802011D01*
X62054295Y-25786674D01*
X62094541Y-25782709D01*
X62135820Y-25773936D01*
X62183622Y-25773936D01*
X62230000Y-25769368D01*
X62276378Y-25773936D01*
G37*
G36*
X64816378Y-25773936D02*
G01*
X64864180Y-25773936D01*
X64905458Y-25782710D01*
X64945704Y-25786674D01*
X64996264Y-25802011D01*
X65048424Y-25813098D01*
X65081800Y-25827957D01*
X65114654Y-25837924D01*
X65166864Y-25865830D01*
X65220500Y-25889711D01*
X65245436Y-25907828D01*
X65270365Y-25921153D01*
X65321218Y-25962887D01*
X65372887Y-26000427D01*
X65389662Y-26019058D01*
X65406842Y-26033157D01*
X65453006Y-26089409D01*
X65498924Y-26140405D01*
X65508570Y-26157113D01*
X65518846Y-26169634D01*
X65556859Y-26240752D01*
X65593104Y-26303530D01*
X65597273Y-26316361D01*
X65602075Y-26325345D01*
X65628545Y-26412607D01*
X65651311Y-26482672D01*
X65652112Y-26490297D01*
X65653325Y-26494295D01*
X65665132Y-26614173D01*
X65671000Y-26670000D01*
X65665131Y-26725831D01*
X65653325Y-26845704D01*
X65652112Y-26849700D01*
X65651311Y-26857328D01*
X65628541Y-26927406D01*
X65602075Y-27014654D01*
X65597274Y-27023635D01*
X65593104Y-27036470D01*
X65556852Y-27099259D01*
X65518846Y-27170365D01*
X65508572Y-27182883D01*
X65498924Y-27199595D01*
X65452997Y-27250601D01*
X65406842Y-27306842D01*
X65389666Y-27320937D01*
X65372887Y-27339573D01*
X65321208Y-27377119D01*
X65270365Y-27418846D01*
X65245441Y-27432167D01*
X65220500Y-27450289D01*
X65166853Y-27474174D01*
X65114654Y-27502075D01*
X65081807Y-27512038D01*
X65048424Y-27526902D01*
X64996253Y-27537991D01*
X64945704Y-27553325D01*
X64905467Y-27557288D01*
X64864180Y-27566064D01*
X64816368Y-27566064D01*
X64770000Y-27570631D01*
X64723632Y-27566064D01*
X64675820Y-27566064D01*
X64634532Y-27557288D01*
X64594295Y-27553325D01*
X64543743Y-27537990D01*
X64491576Y-27526902D01*
X64458195Y-27512039D01*
X64425345Y-27502075D01*
X64373140Y-27474171D01*
X64319500Y-27450289D01*
X64294561Y-27432169D01*
X64269634Y-27418846D01*
X64218782Y-27377113D01*
X64167113Y-27339573D01*
X64150336Y-27320940D01*
X64133157Y-27306842D01*
X64086990Y-27250588D01*
X64041076Y-27199595D01*
X64031429Y-27182887D01*
X64021153Y-27170365D01*
X63983134Y-27099236D01*
X63946896Y-27036470D01*
X63942727Y-27023640D01*
X63937924Y-27014654D01*
X63911443Y-26927360D01*
X63888689Y-26857328D01*
X63887887Y-26849705D01*
X63886674Y-26845704D01*
X63874852Y-26725679D01*
X63869000Y-26670000D01*
X63874851Y-26614324D01*
X63886674Y-26494295D01*
X63887888Y-26490292D01*
X63888689Y-26482672D01*
X63911439Y-26412653D01*
X63937924Y-26325345D01*
X63942728Y-26316356D01*
X63946896Y-26303530D01*
X63983126Y-26240776D01*
X64021153Y-26169634D01*
X64031431Y-26157109D01*
X64041076Y-26140405D01*
X64086981Y-26089421D01*
X64133157Y-26033157D01*
X64150340Y-26019055D01*
X64167113Y-26000427D01*
X64218772Y-25962894D01*
X64269634Y-25921153D01*
X64294566Y-25907826D01*
X64319500Y-25889711D01*
X64373129Y-25865833D01*
X64425345Y-25837924D01*
X64458202Y-25827957D01*
X64491576Y-25813098D01*
X64543732Y-25802011D01*
X64594295Y-25786674D01*
X64634541Y-25782709D01*
X64675820Y-25773936D01*
X64723622Y-25773936D01*
X64770000Y-25769368D01*
X64816378Y-25773936D01*
G37*
G36*
X67356378Y-25773936D02*
G01*
X67404180Y-25773936D01*
X67445458Y-25782710D01*
X67485704Y-25786674D01*
X67536264Y-25802011D01*
X67588424Y-25813098D01*
X67621800Y-25827957D01*
X67654654Y-25837924D01*
X67706864Y-25865830D01*
X67760500Y-25889711D01*
X67785436Y-25907828D01*
X67810365Y-25921153D01*
X67861218Y-25962887D01*
X67912887Y-26000427D01*
X67929662Y-26019058D01*
X67946842Y-26033157D01*
X67993006Y-26089409D01*
X68038924Y-26140405D01*
X68048570Y-26157113D01*
X68058846Y-26169634D01*
X68096859Y-26240752D01*
X68133104Y-26303530D01*
X68137273Y-26316361D01*
X68142075Y-26325345D01*
X68168545Y-26412607D01*
X68191311Y-26482672D01*
X68192112Y-26490297D01*
X68193325Y-26494295D01*
X68205132Y-26614173D01*
X68211000Y-26670000D01*
X68205131Y-26725831D01*
X68193325Y-26845704D01*
X68192112Y-26849700D01*
X68191311Y-26857328D01*
X68168541Y-26927406D01*
X68142075Y-27014654D01*
X68137274Y-27023635D01*
X68133104Y-27036470D01*
X68096852Y-27099259D01*
X68058846Y-27170365D01*
X68048572Y-27182883D01*
X68038924Y-27199595D01*
X67992997Y-27250601D01*
X67946842Y-27306842D01*
X67929666Y-27320937D01*
X67912887Y-27339573D01*
X67861208Y-27377119D01*
X67810365Y-27418846D01*
X67785441Y-27432167D01*
X67760500Y-27450289D01*
X67706853Y-27474174D01*
X67654654Y-27502075D01*
X67621807Y-27512038D01*
X67588424Y-27526902D01*
X67536253Y-27537991D01*
X67485704Y-27553325D01*
X67445467Y-27557288D01*
X67404180Y-27566064D01*
X67356368Y-27566064D01*
X67310000Y-27570631D01*
X67263632Y-27566064D01*
X67215820Y-27566064D01*
X67174532Y-27557288D01*
X67134295Y-27553325D01*
X67083743Y-27537990D01*
X67031576Y-27526902D01*
X66998195Y-27512039D01*
X66965345Y-27502075D01*
X66913140Y-27474171D01*
X66859500Y-27450289D01*
X66834561Y-27432169D01*
X66809634Y-27418846D01*
X66758782Y-27377113D01*
X66707113Y-27339573D01*
X66690336Y-27320940D01*
X66673157Y-27306842D01*
X66626990Y-27250588D01*
X66581076Y-27199595D01*
X66571429Y-27182887D01*
X66561153Y-27170365D01*
X66523134Y-27099236D01*
X66486896Y-27036470D01*
X66482727Y-27023640D01*
X66477924Y-27014654D01*
X66451443Y-26927360D01*
X66428689Y-26857328D01*
X66427887Y-26849705D01*
X66426674Y-26845704D01*
X66414852Y-26725679D01*
X66409000Y-26670000D01*
X66414851Y-26614324D01*
X66426674Y-26494295D01*
X66427888Y-26490292D01*
X66428689Y-26482672D01*
X66451439Y-26412653D01*
X66477924Y-26325345D01*
X66482728Y-26316356D01*
X66486896Y-26303530D01*
X66523126Y-26240776D01*
X66561153Y-26169634D01*
X66571431Y-26157109D01*
X66581076Y-26140405D01*
X66626981Y-26089421D01*
X66673157Y-26033157D01*
X66690340Y-26019055D01*
X66707113Y-26000427D01*
X66758772Y-25962894D01*
X66809634Y-25921153D01*
X66834566Y-25907826D01*
X66859500Y-25889711D01*
X66913129Y-25865833D01*
X66965345Y-25837924D01*
X66998202Y-25827957D01*
X67031576Y-25813098D01*
X67083732Y-25802011D01*
X67134295Y-25786674D01*
X67174541Y-25782709D01*
X67215820Y-25773936D01*
X67263622Y-25773936D01*
X67310000Y-25769368D01*
X67356378Y-25773936D01*
G37*
G36*
X69896378Y-25773936D02*
G01*
X69944180Y-25773936D01*
X69985458Y-25782710D01*
X70025704Y-25786674D01*
X70076264Y-25802011D01*
X70128424Y-25813098D01*
X70161800Y-25827957D01*
X70194654Y-25837924D01*
X70246864Y-25865830D01*
X70300500Y-25889711D01*
X70325436Y-25907828D01*
X70350365Y-25921153D01*
X70401218Y-25962887D01*
X70452887Y-26000427D01*
X70469662Y-26019058D01*
X70486842Y-26033157D01*
X70533006Y-26089409D01*
X70578924Y-26140405D01*
X70588570Y-26157113D01*
X70598846Y-26169634D01*
X70636859Y-26240752D01*
X70673104Y-26303530D01*
X70677273Y-26316361D01*
X70682075Y-26325345D01*
X70708545Y-26412607D01*
X70731311Y-26482672D01*
X70732112Y-26490297D01*
X70733325Y-26494295D01*
X70745132Y-26614173D01*
X70751000Y-26670000D01*
X70745131Y-26725831D01*
X70733325Y-26845704D01*
X70732112Y-26849700D01*
X70731311Y-26857328D01*
X70708541Y-26927406D01*
X70682075Y-27014654D01*
X70677274Y-27023635D01*
X70673104Y-27036470D01*
X70636852Y-27099259D01*
X70598846Y-27170365D01*
X70588572Y-27182883D01*
X70578924Y-27199595D01*
X70532997Y-27250601D01*
X70486842Y-27306842D01*
X70469666Y-27320937D01*
X70452887Y-27339573D01*
X70401208Y-27377119D01*
X70350365Y-27418846D01*
X70325441Y-27432167D01*
X70300500Y-27450289D01*
X70246853Y-27474174D01*
X70194654Y-27502075D01*
X70161807Y-27512038D01*
X70128424Y-27526902D01*
X70076253Y-27537991D01*
X70025704Y-27553325D01*
X69985467Y-27557288D01*
X69944180Y-27566064D01*
X69896368Y-27566064D01*
X69850000Y-27570631D01*
X69803632Y-27566064D01*
X69755820Y-27566064D01*
X69714532Y-27557288D01*
X69674295Y-27553325D01*
X69623743Y-27537990D01*
X69571576Y-27526902D01*
X69538195Y-27512039D01*
X69505345Y-27502075D01*
X69453140Y-27474171D01*
X69399500Y-27450289D01*
X69374561Y-27432169D01*
X69349634Y-27418846D01*
X69298782Y-27377113D01*
X69247113Y-27339573D01*
X69230336Y-27320940D01*
X69213157Y-27306842D01*
X69166990Y-27250588D01*
X69121076Y-27199595D01*
X69111429Y-27182887D01*
X69101153Y-27170365D01*
X69063134Y-27099236D01*
X69026896Y-27036470D01*
X69022727Y-27023640D01*
X69017924Y-27014654D01*
X68991443Y-26927360D01*
X68968689Y-26857328D01*
X68967887Y-26849705D01*
X68966674Y-26845704D01*
X68954852Y-26725679D01*
X68949000Y-26670000D01*
X68954851Y-26614324D01*
X68966674Y-26494295D01*
X68967888Y-26490292D01*
X68968689Y-26482672D01*
X68991439Y-26412653D01*
X69017924Y-26325345D01*
X69022728Y-26316356D01*
X69026896Y-26303530D01*
X69063126Y-26240776D01*
X69101153Y-26169634D01*
X69111431Y-26157109D01*
X69121076Y-26140405D01*
X69166981Y-26089421D01*
X69213157Y-26033157D01*
X69230340Y-26019055D01*
X69247113Y-26000427D01*
X69298772Y-25962894D01*
X69349634Y-25921153D01*
X69374566Y-25907826D01*
X69399500Y-25889711D01*
X69453129Y-25865833D01*
X69505345Y-25837924D01*
X69538202Y-25827957D01*
X69571576Y-25813098D01*
X69623732Y-25802011D01*
X69674295Y-25786674D01*
X69714541Y-25782709D01*
X69755820Y-25773936D01*
X69803622Y-25773936D01*
X69850000Y-25769368D01*
X69896378Y-25773936D01*
G37*
M02*
