G04 #@! TF.GenerationSoftware,KiCad,Pcbnew,8.0.3*
G04 #@! TF.CreationDate,2024-06-26T11:29:34-05:00*
G04 #@! TF.ProjectId,Bald Sense Wing v3,42616c64-2053-4656-9e73-652057696e67,rev?*
G04 #@! TF.SameCoordinates,Original*
G04 #@! TF.FileFunction,Copper,L4,Bot*
G04 #@! TF.FilePolarity,Positive*
%FSLAX46Y46*%
G04 Gerber Fmt 4.6, Leading zero omitted, Abs format (unit mm)*
G04 Created by KiCad (PCBNEW 8.0.3) date 2024-06-26 11:29:34*
%MOMM*%
%LPD*%
G01*
G04 APERTURE LIST*
G04 Aperture macros list*
%AMRoundRect*
0 Rectangle with rounded corners*
0 $1 Rounding radius*
0 $2 $3 $4 $5 $6 $7 $8 $9 X,Y pos of 4 corners*
0 Add a 4 corners polygon primitive as box body*
4,1,4,$2,$3,$4,$5,$6,$7,$8,$9,$2,$3,0*
0 Add four circle primitives for the rounded corners*
1,1,$1+$1,$2,$3*
1,1,$1+$1,$4,$5*
1,1,$1+$1,$6,$7*
1,1,$1+$1,$8,$9*
0 Add four rect primitives between the rounded corners*
20,1,$1+$1,$2,$3,$4,$5,0*
20,1,$1+$1,$4,$5,$6,$7,0*
20,1,$1+$1,$6,$7,$8,$9,0*
20,1,$1+$1,$8,$9,$2,$3,0*%
%AMFreePoly0*
4,1,19,0.500000,-0.750000,0.000000,-0.750000,0.000000,-0.744911,-0.071157,-0.744911,-0.207708,-0.704816,-0.327430,-0.627875,-0.420627,-0.520320,-0.479746,-0.390866,-0.500000,-0.250000,-0.500000,0.250000,-0.479746,0.390866,-0.420627,0.520320,-0.327430,0.627875,-0.207708,0.704816,-0.071157,0.744911,0.000000,0.744911,0.000000,0.750000,0.500000,0.750000,0.500000,-0.750000,0.500000,-0.750000,
$1*%
%AMFreePoly1*
4,1,19,0.000000,0.744911,0.071157,0.744911,0.207708,0.704816,0.327430,0.627875,0.420627,0.520320,0.479746,0.390866,0.500000,0.250000,0.500000,-0.250000,0.479746,-0.390866,0.420627,-0.520320,0.327430,-0.627875,0.207708,-0.704816,0.071157,-0.744911,0.000000,-0.744911,0.000000,-0.750000,-0.500000,-0.750000,-0.500000,0.750000,0.000000,0.750000,0.000000,0.744911,0.000000,0.744911,
$1*%
%AMFreePoly2*
4,1,19,0.550000,-0.750000,0.000000,-0.750000,0.000000,-0.744911,-0.071157,-0.744911,-0.207708,-0.704816,-0.327430,-0.627875,-0.420627,-0.520320,-0.479746,-0.390866,-0.500000,-0.250000,-0.500000,0.250000,-0.479746,0.390866,-0.420627,0.520320,-0.327430,0.627875,-0.207708,0.704816,-0.071157,0.744911,0.000000,0.744911,0.000000,0.750000,0.550000,0.750000,0.550000,-0.750000,0.550000,-0.750000,
$1*%
%AMFreePoly3*
4,1,19,0.000000,0.744911,0.071157,0.744911,0.207708,0.704816,0.327430,0.627875,0.420627,0.520320,0.479746,0.390866,0.500000,0.250000,0.500000,-0.250000,0.479746,-0.390866,0.420627,-0.520320,0.327430,-0.627875,0.207708,-0.704816,0.071157,-0.744911,0.000000,-0.744911,0.000000,-0.750000,-0.550000,-0.750000,-0.550000,0.750000,0.000000,0.750000,0.000000,0.744911,0.000000,0.744911,
$1*%
G04 Aperture macros list end*
G04 #@! TA.AperFunction,EtchedComponent*
%ADD10C,0.000000*%
G04 #@! TD*
G04 #@! TA.AperFunction,ComponentPad*
%ADD11C,1.700000*%
G04 #@! TD*
G04 #@! TA.AperFunction,ComponentPad*
%ADD12O,1.700000X1.700000*%
G04 #@! TD*
G04 #@! TA.AperFunction,ComponentPad*
%ADD13R,1.700000X1.700000*%
G04 #@! TD*
G04 #@! TA.AperFunction,SMDPad,CuDef*
%ADD14RoundRect,0.225000X0.250000X-0.225000X0.250000X0.225000X-0.250000X0.225000X-0.250000X-0.225000X0*%
G04 #@! TD*
G04 #@! TA.AperFunction,SMDPad,CuDef*
%ADD15FreePoly0,270.000000*%
G04 #@! TD*
G04 #@! TA.AperFunction,SMDPad,CuDef*
%ADD16FreePoly1,270.000000*%
G04 #@! TD*
G04 #@! TA.AperFunction,SMDPad,CuDef*
%ADD17R,3.200000X3.200000*%
G04 #@! TD*
G04 #@! TA.AperFunction,SMDPad,CuDef*
%ADD18C,8.130000*%
G04 #@! TD*
G04 #@! TA.AperFunction,SMDPad,CuDef*
%ADD19FreePoly2,0.000000*%
G04 #@! TD*
G04 #@! TA.AperFunction,SMDPad,CuDef*
%ADD20R,1.000000X1.500000*%
G04 #@! TD*
G04 #@! TA.AperFunction,SMDPad,CuDef*
%ADD21FreePoly3,0.000000*%
G04 #@! TD*
G04 #@! TA.AperFunction,SMDPad,CuDef*
%ADD22FreePoly2,180.000000*%
G04 #@! TD*
G04 #@! TA.AperFunction,SMDPad,CuDef*
%ADD23FreePoly3,180.000000*%
G04 #@! TD*
G04 #@! TA.AperFunction,SMDPad,CuDef*
%ADD24R,1.000000X1.000000*%
G04 #@! TD*
G04 #@! TA.AperFunction,ViaPad*
%ADD25C,0.800000*%
G04 #@! TD*
G04 #@! TA.AperFunction,Conductor*
%ADD26C,0.406400*%
G04 #@! TD*
G04 #@! TA.AperFunction,Conductor*
%ADD27C,0.152400*%
G04 #@! TD*
G04 #@! TA.AperFunction,Conductor*
%ADD28C,0.304800*%
G04 #@! TD*
G04 APERTURE END LIST*
D10*
G04 #@! TA.AperFunction,EtchedComponent*
G36*
X61195000Y-38806400D02*
G01*
X60695000Y-38806400D01*
X60695000Y-38206400D01*
X61195000Y-38206400D01*
X61195000Y-38806400D01*
G37*
G04 #@! TD.AperFunction*
G04 #@! TA.AperFunction,EtchedComponent*
G36*
X68748000Y-40305000D02*
G01*
X68248000Y-40305000D01*
X68248000Y-39705000D01*
X68748000Y-39705000D01*
X68748000Y-40305000D01*
G37*
G04 #@! TD.AperFunction*
D11*
X69850000Y-46990000D03*
D12*
X67310000Y-46990000D03*
X64770000Y-46990000D03*
X62230000Y-46990000D03*
X59690000Y-46990000D03*
X57150000Y-46990000D03*
X54610000Y-46990000D03*
X52070000Y-46990000D03*
X49530000Y-46990000D03*
X46990000Y-46990000D03*
X44450000Y-46990000D03*
X41910000Y-46990000D03*
D13*
X39370000Y-46990000D03*
D12*
X36830000Y-46990000D03*
X34290000Y-46990000D03*
X31750000Y-46990000D03*
D11*
X69850000Y-26670000D03*
D12*
X67310000Y-26670000D03*
X64770000Y-26670000D03*
X62230000Y-26670000D03*
X59690000Y-26670000D03*
X57150000Y-26670000D03*
X54610000Y-26670000D03*
X52070000Y-26670000D03*
X49530000Y-26670000D03*
X46990000Y-26670000D03*
X44450000Y-26670000D03*
X41910000Y-26670000D03*
D14*
X29464000Y-36792200D03*
X29464000Y-35242200D03*
D15*
X66725800Y-35989500D03*
D16*
X66725800Y-37289500D03*
D17*
X36245800Y-43153400D03*
X36245800Y-27763400D03*
D18*
X36245800Y-35458400D03*
D19*
X60295000Y-38506400D03*
D20*
X61595000Y-38506400D03*
D21*
X62895000Y-38506400D03*
D22*
X69148000Y-40005000D03*
D20*
X67848000Y-40005000D03*
D23*
X66548000Y-40005000D03*
D24*
X62230000Y-43434000D03*
X69799200Y-44094400D03*
X57150000Y-39674800D03*
X59690000Y-43434000D03*
X67310000Y-44094400D03*
X64770000Y-44094400D03*
X53340000Y-43942000D03*
X53340000Y-32002000D03*
X42926000Y-39624000D03*
X53340000Y-34036000D03*
X56134000Y-43180000D03*
X59690000Y-34798000D03*
D25*
X40132000Y-30988000D03*
X30886400Y-44704000D03*
X28448000Y-37084000D03*
X66293990Y-31496000D03*
X56533603Y-34014733D03*
X32207200Y-26720800D03*
X41148000Y-31750000D03*
X40132000Y-32766000D03*
X70866000Y-40894000D03*
X70358000Y-35306000D03*
X65379600Y-39979600D03*
X70358000Y-33782000D03*
X60909200Y-36880800D03*
X39522400Y-27787600D03*
X47701200Y-33375600D03*
X61468000Y-40894000D03*
X70873802Y-37604000D03*
X54356000Y-35306000D03*
X41605200Y-33883600D03*
X28321000Y-34925000D03*
X42164000Y-43688000D03*
X37592000Y-31496000D03*
X58166000Y-34798000D03*
X34042598Y-43078400D03*
X53594000Y-40386000D03*
X63500000Y-31902400D03*
X30226000Y-41402000D03*
X46431200Y-36220400D03*
X45720000Y-39116000D03*
X69850000Y-40640000D03*
X69392800Y-31496000D03*
X56434200Y-35079810D03*
X38354000Y-45075990D03*
X60960000Y-32004000D03*
X56688200Y-33011706D03*
X68163969Y-28711631D03*
X66548000Y-28625800D03*
X59740800Y-32054800D03*
X71580000Y-30030000D03*
X75240378Y-34798000D03*
X56779342Y-31963705D03*
X44958000Y-32004000D03*
X44958000Y-30988000D03*
X45008800Y-33578800D03*
X63635142Y-38679871D03*
X39877994Y-39370000D03*
X73710800Y-41249600D03*
X55219600Y-43637204D03*
X66294000Y-32765988D03*
X75099924Y-31751087D03*
X67564006Y-34585523D03*
X55676800Y-41148000D03*
X48768000Y-33375600D03*
X49682400Y-41452800D03*
X64551800Y-33299400D03*
X64459699Y-35529099D03*
X42164000Y-42672000D03*
X75212402Y-33274000D03*
X64135002Y-36880800D03*
X52171600Y-39372402D03*
X59418410Y-38618908D03*
D26*
X28448000Y-37084000D02*
X29172200Y-37084000D01*
X65405000Y-40005000D02*
X65379600Y-39979600D01*
X66548000Y-40005000D02*
X65405000Y-40005000D01*
X29172200Y-37084000D02*
X29464000Y-36792200D01*
D27*
X67310000Y-46990000D02*
X67310000Y-44094400D01*
X64770000Y-46990000D02*
X64770000Y-44094400D01*
D26*
X69148000Y-40005000D02*
X69215000Y-40005000D01*
X59690000Y-34798000D02*
X58166000Y-34798000D01*
X28638200Y-35242200D02*
X28321000Y-34925000D01*
X69215000Y-40005000D02*
X69850000Y-40640000D01*
X29464000Y-35242200D02*
X28638200Y-35242200D01*
D27*
X31750000Y-46990000D02*
X33664010Y-45075990D01*
X33664010Y-45075990D02*
X38354000Y-45075990D01*
X68173600Y-28702000D02*
X68173600Y-28422600D01*
X54864000Y-34036000D02*
X55888294Y-33011706D01*
X69240400Y-28422600D02*
X69850000Y-27813000D01*
X68078138Y-28625800D02*
X68163969Y-28711631D01*
X66548000Y-28625800D02*
X68078138Y-28625800D01*
X59791600Y-33172400D02*
X56848894Y-33172400D01*
X55888294Y-33011706D02*
X56688200Y-33011706D01*
X60960000Y-32004000D02*
X59791600Y-33172400D01*
X68163969Y-28711631D02*
X68173600Y-28702000D01*
X68173600Y-28422600D02*
X69240400Y-28422600D01*
X56848894Y-33172400D02*
X56688200Y-33011706D01*
X53340000Y-34036000D02*
X54864000Y-34036000D01*
X69850000Y-27813000D02*
X69850000Y-26670000D01*
X59740800Y-32054800D02*
X56870437Y-32054800D01*
X75869800Y-31493961D02*
X74405839Y-30030000D01*
X75240378Y-34798000D02*
X75869800Y-34168578D01*
X56741047Y-32002000D02*
X56779342Y-31963705D01*
X75869800Y-34168578D02*
X75869800Y-31493961D01*
X74405839Y-30030000D02*
X71580000Y-30030000D01*
X56870437Y-32054800D02*
X56779342Y-31963705D01*
X53340000Y-32002000D02*
X56741047Y-32002000D01*
D28*
X39877994Y-41321206D02*
X39877994Y-39370000D01*
X38045800Y-43153400D02*
X39877994Y-41321206D01*
X36245800Y-43153400D02*
X38045800Y-43153400D01*
X63216271Y-38679871D02*
X63635142Y-38679871D01*
X63144400Y-38608000D02*
X63216271Y-38679871D01*
X62895000Y-38506400D02*
X63042800Y-38506400D01*
X63042800Y-38506400D02*
X63144400Y-38608000D01*
D27*
X73152000Y-42418000D02*
X73710800Y-41859200D01*
X73710800Y-41859200D02*
X73710800Y-41249600D01*
X68326000Y-42418000D02*
X73152000Y-42418000D01*
X67848000Y-40005000D02*
X67848000Y-41940000D01*
X67848000Y-41940000D02*
X68326000Y-42418000D01*
X69799200Y-46939200D02*
X69850000Y-46990000D01*
X69799200Y-44094400D02*
X69799200Y-46939200D01*
X62230000Y-43434000D02*
X62230000Y-46990000D01*
X59690000Y-43434000D02*
X59690000Y-46990000D01*
X55676796Y-43637204D02*
X56134000Y-43180000D01*
X55219600Y-43637204D02*
X55676796Y-43637204D01*
X57150000Y-45567604D02*
X55219600Y-43637204D01*
X57150000Y-46990000D02*
X57150000Y-45567604D01*
X75099924Y-31751087D02*
X74133637Y-30784800D01*
X65633600Y-38404800D02*
X67614800Y-38404800D01*
X70408800Y-30784800D02*
X68275188Y-30784800D01*
X68275188Y-30784800D02*
X66294000Y-32765988D01*
X61874400Y-42164000D02*
X65633600Y-38404800D01*
X67818000Y-34839517D02*
X67564006Y-34585523D01*
X70612000Y-30988000D02*
X70408800Y-30784800D01*
X49530000Y-46990000D02*
X49530000Y-45974000D01*
X70815200Y-30784800D02*
X70612000Y-30988000D01*
X53340000Y-42164000D02*
X61874400Y-42164000D01*
X49530000Y-45974000D02*
X53340000Y-42164000D01*
X67818000Y-38201600D02*
X67818000Y-34839517D01*
X74133637Y-30784800D02*
X70815200Y-30784800D01*
X67614800Y-38404800D02*
X67818000Y-38201600D01*
X55676800Y-41148000D02*
X56896000Y-41148000D01*
X51054000Y-40640000D02*
X51562000Y-41148000D01*
X57150000Y-40894000D02*
X57150000Y-39674800D01*
X49022000Y-40640000D02*
X51054000Y-40640000D01*
X56896000Y-41148000D02*
X57150000Y-40894000D01*
X48104400Y-41557600D02*
X49022000Y-40640000D01*
X51562000Y-41148000D02*
X55676800Y-41148000D01*
X44450000Y-46990000D02*
X48104400Y-43335600D01*
X48104400Y-43335600D02*
X48104400Y-41557600D01*
X41910000Y-46990000D02*
X48768000Y-40132000D01*
X48768000Y-40132000D02*
X48768000Y-33375600D01*
X49682400Y-44297600D02*
X49682400Y-41452800D01*
X46990000Y-46990000D02*
X49682400Y-44297600D01*
X64551800Y-28991800D02*
X64551800Y-33299400D01*
X62230000Y-26670000D02*
X64551800Y-28991800D01*
X64770000Y-26670000D02*
X65313800Y-27213800D01*
X65313800Y-34674998D02*
X64459699Y-35529099D01*
X65313800Y-27213800D02*
X65313800Y-34674998D01*
X53340000Y-45720000D02*
X54610000Y-46990000D01*
X53340000Y-43942000D02*
X53340000Y-45720000D01*
X42926000Y-41910000D02*
X42164000Y-42672000D01*
X42926000Y-39624000D02*
X42926000Y-41910000D01*
X66725800Y-35989500D02*
X66725800Y-33604200D01*
X66725800Y-33604200D02*
X67942400Y-32387600D01*
X74326002Y-32387600D02*
X75212402Y-33274000D01*
X67942400Y-32387600D02*
X74326002Y-32387600D01*
X61595000Y-37556400D02*
X62270600Y-36880800D01*
X62270600Y-36880800D02*
X64135002Y-36880800D01*
X61595000Y-38506400D02*
X61595000Y-37556400D01*
X62230000Y-29210000D02*
X62230000Y-35560000D01*
X60960000Y-27940000D02*
X62230000Y-29210000D01*
X53340000Y-27940000D02*
X60960000Y-27940000D01*
X64853646Y-36195000D02*
X62865000Y-36195000D01*
X52070000Y-26670000D02*
X53340000Y-27940000D01*
X66725800Y-37289500D02*
X65948146Y-37289500D01*
X62230000Y-35560000D02*
X62865000Y-36195000D01*
X65948146Y-37289500D02*
X64853646Y-36195000D01*
D26*
X59530918Y-38506400D02*
X59418410Y-38618908D01*
X60295000Y-38506400D02*
X59530918Y-38506400D01*
G04 #@! TA.AperFunction,Conductor*
G36*
X31796257Y-25699085D02*
G01*
X31842012Y-25751889D01*
X31851956Y-25821047D01*
X31822931Y-25884603D01*
X31779655Y-25916677D01*
X31750448Y-25929682D01*
X31750446Y-25929683D01*
X31595945Y-26041935D01*
X31468159Y-26183857D01*
X31372673Y-26349243D01*
X31372670Y-26349250D01*
X31341354Y-26445632D01*
X31313658Y-26530872D01*
X31293696Y-26720800D01*
X31313658Y-26910728D01*
X31313659Y-26910731D01*
X31372670Y-27092349D01*
X31372673Y-27092356D01*
X31468160Y-27257744D01*
X31595947Y-27399666D01*
X31750448Y-27511918D01*
X31924912Y-27589594D01*
X32111713Y-27629300D01*
X32302687Y-27629300D01*
X32489488Y-27589594D01*
X32663952Y-27511918D01*
X32818453Y-27399666D01*
X32946240Y-27257744D01*
X33041727Y-27092356D01*
X33100742Y-26910728D01*
X33120704Y-26720800D01*
X33100742Y-26530872D01*
X33041727Y-26349244D01*
X32946240Y-26183856D01*
X32818453Y-26041934D01*
X32663952Y-25929682D01*
X32634744Y-25916678D01*
X32581510Y-25871430D01*
X32561188Y-25804581D01*
X32580233Y-25737357D01*
X32632598Y-25691101D01*
X32685182Y-25679400D01*
X34538579Y-25679400D01*
X34605618Y-25699085D01*
X34651373Y-25751889D01*
X34661317Y-25821047D01*
X34632292Y-25884603D01*
X34573514Y-25922377D01*
X34562770Y-25925017D01*
X34548259Y-25927903D01*
X34548255Y-25927905D01*
X34465560Y-25983160D01*
X34410305Y-26065855D01*
X34410303Y-26065859D01*
X34395800Y-26138771D01*
X34395800Y-27388400D01*
X38095800Y-27388400D01*
X38095800Y-26138773D01*
X38095799Y-26138771D01*
X38081296Y-26065859D01*
X38081294Y-26065855D01*
X38026039Y-25983160D01*
X37943344Y-25927905D01*
X37943340Y-25927903D01*
X37928830Y-25925017D01*
X37866919Y-25892632D01*
X37832345Y-25831917D01*
X37836084Y-25762147D01*
X37876951Y-25705475D01*
X37941969Y-25679894D01*
X37953021Y-25679400D01*
X39246000Y-25679400D01*
X39313039Y-25699085D01*
X39358794Y-25751889D01*
X39370000Y-25803400D01*
X39370000Y-26790784D01*
X39350315Y-26857823D01*
X39297511Y-26903578D01*
X39271782Y-26912074D01*
X39240113Y-26918805D01*
X39065644Y-26996484D01*
X38911145Y-27108735D01*
X38783359Y-27250657D01*
X38687873Y-27416043D01*
X38687870Y-27416050D01*
X38628859Y-27597668D01*
X38628858Y-27597672D01*
X38608896Y-27787600D01*
X38628858Y-27977528D01*
X38628859Y-27977531D01*
X38687870Y-28159149D01*
X38687873Y-28159156D01*
X38783360Y-28324544D01*
X38911147Y-28466466D01*
X39065648Y-28578718D01*
X39240112Y-28656394D01*
X39271783Y-28663126D01*
X39333262Y-28696316D01*
X39367039Y-28757479D01*
X39370000Y-28784415D01*
X39370000Y-30457598D01*
X39353387Y-30519598D01*
X39297473Y-30616443D01*
X39297470Y-30616450D01*
X39268737Y-30704883D01*
X39238458Y-30798072D01*
X39218496Y-30988000D01*
X39238458Y-31177928D01*
X39238459Y-31177931D01*
X39297470Y-31359549D01*
X39297473Y-31359556D01*
X39392960Y-31524944D01*
X39520747Y-31666866D01*
X39635171Y-31750000D01*
X39671895Y-31776682D01*
X39714560Y-31832012D01*
X39720539Y-31901626D01*
X39687933Y-31963421D01*
X39671895Y-31977318D01*
X39520743Y-32087136D01*
X39515918Y-32091482D01*
X39514284Y-32089667D01*
X39464154Y-32120519D01*
X39394297Y-32119154D01*
X39343868Y-32088563D01*
X39330246Y-32074941D01*
X39330238Y-32074933D01*
X39212685Y-31977318D01*
X39004905Y-31804779D01*
X39004895Y-31804772D01*
X39004893Y-31804770D01*
X38656009Y-31565779D01*
X38560185Y-31512405D01*
X38511197Y-31462586D01*
X38497204Y-31417039D01*
X38485542Y-31306072D01*
X38426527Y-31124444D01*
X38331040Y-30959056D01*
X38203253Y-30817134D01*
X38048752Y-30704882D01*
X37874288Y-30627206D01*
X37874286Y-30627205D01*
X37687487Y-30587500D01*
X37496513Y-30587500D01*
X37309714Y-30627205D01*
X37135246Y-30704883D01*
X36980745Y-30817135D01*
X36924013Y-30880142D01*
X36864526Y-30916790D01*
X36814733Y-30919980D01*
X36668250Y-30899547D01*
X36668245Y-30899546D01*
X36668240Y-30899546D01*
X36245800Y-30880015D01*
X35823360Y-30899546D01*
X35823354Y-30899546D01*
X35823350Y-30899547D01*
X35404526Y-30957970D01*
X35404518Y-30957972D01*
X34992867Y-31054791D01*
X34591890Y-31189185D01*
X34591883Y-31189188D01*
X34205056Y-31359989D01*
X34205028Y-31360003D01*
X33835598Y-31565774D01*
X33835592Y-31565778D01*
X33486704Y-31804772D01*
X33486694Y-31804779D01*
X33161373Y-32074923D01*
X33161353Y-32074941D01*
X32862341Y-32373953D01*
X32862323Y-32373973D01*
X32592179Y-32699294D01*
X32592172Y-32699304D01*
X32353178Y-33048192D01*
X32353174Y-33048198D01*
X32147403Y-33417628D01*
X32147389Y-33417656D01*
X31976588Y-33804483D01*
X31976585Y-33804490D01*
X31842191Y-34205467D01*
X31745372Y-34617118D01*
X31745370Y-34617126D01*
X31686947Y-35035950D01*
X31686946Y-35035960D01*
X31667415Y-35458400D01*
X31686946Y-35880840D01*
X31686946Y-35880846D01*
X31686947Y-35880849D01*
X31745370Y-36299673D01*
X31745372Y-36299681D01*
X31842191Y-36711332D01*
X31976585Y-37112309D01*
X31976588Y-37112316D01*
X32147389Y-37499143D01*
X32147394Y-37499153D01*
X32147398Y-37499162D01*
X32147402Y-37499170D01*
X32147403Y-37499171D01*
X32353174Y-37868601D01*
X32353177Y-37868605D01*
X32353179Y-37868609D01*
X32592170Y-38217493D01*
X32592172Y-38217495D01*
X32592179Y-38217505D01*
X32862323Y-38542826D01*
X32862333Y-38542838D01*
X33161362Y-38841867D01*
X33161373Y-38841876D01*
X33486694Y-39112020D01*
X33486700Y-39112024D01*
X33486707Y-39112030D01*
X33835591Y-39351021D01*
X34205038Y-39556802D01*
X34591897Y-39727617D01*
X34992865Y-39862008D01*
X35404524Y-39958829D01*
X35823360Y-40017254D01*
X36245800Y-40036785D01*
X36668240Y-40017254D01*
X37087076Y-39958829D01*
X37498735Y-39862008D01*
X37899703Y-39727617D01*
X38286562Y-39556802D01*
X38656009Y-39351021D01*
X39004893Y-39112030D01*
X39330238Y-38841867D01*
X39629267Y-38542838D01*
X39899430Y-38217493D01*
X40138421Y-37868609D01*
X40344202Y-37499162D01*
X40515017Y-37112303D01*
X40539415Y-37039507D01*
X40579382Y-36982202D01*
X40643989Y-36955599D01*
X40712723Y-36968149D01*
X40763760Y-37015866D01*
X40780968Y-37081039D01*
X40692357Y-42255972D01*
X40642426Y-45171953D01*
X40642087Y-45191723D01*
X40621257Y-45258416D01*
X40567678Y-45303260D01*
X40518105Y-45313600D01*
X39380246Y-45313600D01*
X39313207Y-45293915D01*
X39267452Y-45241111D01*
X39256925Y-45176640D01*
X39267504Y-45075990D01*
X39247542Y-44886062D01*
X39188527Y-44704434D01*
X39093040Y-44539046D01*
X38965253Y-44397124D01*
X38810752Y-44284872D01*
X38636288Y-44207196D01*
X38636286Y-44207195D01*
X38449487Y-44167490D01*
X38258513Y-44167490D01*
X38245575Y-44170240D01*
X38175908Y-44164920D01*
X38120177Y-44122780D01*
X38096075Y-44057199D01*
X38095800Y-44048948D01*
X38095800Y-43528400D01*
X35994800Y-43528400D01*
X35927761Y-43508715D01*
X35882006Y-43455911D01*
X35870800Y-43404400D01*
X35870800Y-42778400D01*
X36620800Y-42778400D01*
X38095800Y-42778400D01*
X38095800Y-41528773D01*
X38095799Y-41528771D01*
X38081296Y-41455859D01*
X38081294Y-41455855D01*
X38026039Y-41373160D01*
X37943344Y-41317905D01*
X37943340Y-41317903D01*
X37870427Y-41303400D01*
X36620800Y-41303400D01*
X36620800Y-42778400D01*
X35870800Y-42778400D01*
X35870800Y-41303400D01*
X34621173Y-41303400D01*
X34548259Y-41317903D01*
X34548255Y-41317905D01*
X34465560Y-41373160D01*
X34410305Y-41455855D01*
X34410303Y-41455859D01*
X34395800Y-41528771D01*
X34395800Y-42071552D01*
X34376115Y-42138591D01*
X34323311Y-42184346D01*
X34254153Y-42194290D01*
X34246019Y-42192842D01*
X34138085Y-42169900D01*
X33947111Y-42169900D01*
X33760312Y-42209605D01*
X33585844Y-42287283D01*
X33431343Y-42399535D01*
X33303557Y-42541457D01*
X33208071Y-42706843D01*
X33208068Y-42706850D01*
X33149057Y-42888468D01*
X33149056Y-42888472D01*
X33129094Y-43078400D01*
X33149056Y-43268328D01*
X33149057Y-43268331D01*
X33208068Y-43449949D01*
X33208071Y-43449956D01*
X33303558Y-43615344D01*
X33431345Y-43757266D01*
X33585846Y-43869518D01*
X33760310Y-43947194D01*
X33947111Y-43986900D01*
X34138084Y-43986900D01*
X34138085Y-43986900D01*
X34246021Y-43963957D01*
X34315685Y-43969272D01*
X34371419Y-44011409D01*
X34395525Y-44076989D01*
X34395800Y-44085247D01*
X34395800Y-44367290D01*
X34376115Y-44434329D01*
X34323311Y-44480084D01*
X34271800Y-44491290D01*
X33587033Y-44491290D01*
X33450515Y-44527870D01*
X33438320Y-44531138D01*
X33314344Y-44602717D01*
X33314342Y-44602718D01*
X33304999Y-44608111D01*
X33304994Y-44608115D01*
X32635829Y-45277281D01*
X32574506Y-45310766D01*
X32548148Y-45313600D01*
X31798266Y-45313600D01*
X31731227Y-45293915D01*
X31685472Y-45241111D01*
X31675528Y-45171953D01*
X31690879Y-45127600D01*
X31720927Y-45075556D01*
X31779942Y-44893928D01*
X31799904Y-44704000D01*
X31779942Y-44514072D01*
X31720927Y-44332444D01*
X31625440Y-44167056D01*
X31497653Y-44025134D01*
X31343152Y-43912882D01*
X31168688Y-43835206D01*
X31168686Y-43835205D01*
X30981887Y-43795500D01*
X30807200Y-43795500D01*
X30740161Y-43775815D01*
X30694406Y-43723011D01*
X30683200Y-43671500D01*
X30683200Y-42255972D01*
X30702885Y-42188933D01*
X30734308Y-42155659D01*
X30837253Y-42080866D01*
X30845640Y-42071552D01*
X30864939Y-42050117D01*
X30965040Y-41938944D01*
X31060527Y-41773556D01*
X31119542Y-41591928D01*
X31139504Y-41402000D01*
X31119542Y-41212072D01*
X31060527Y-41030444D01*
X30965040Y-40865056D01*
X30837253Y-40723134D01*
X30734313Y-40648342D01*
X30691648Y-40593012D01*
X30683200Y-40548025D01*
X30683200Y-29388028D01*
X34395800Y-29388028D01*
X34410303Y-29460940D01*
X34410305Y-29460944D01*
X34465560Y-29543639D01*
X34548255Y-29598894D01*
X34548259Y-29598896D01*
X34621171Y-29613399D01*
X34621174Y-29613400D01*
X35870800Y-29613400D01*
X36620800Y-29613400D01*
X37870426Y-29613400D01*
X37870428Y-29613399D01*
X37943340Y-29598896D01*
X37943344Y-29598894D01*
X38026039Y-29543639D01*
X38081294Y-29460944D01*
X38081296Y-29460940D01*
X38095799Y-29388028D01*
X38095800Y-29388026D01*
X38095800Y-28138400D01*
X36620800Y-28138400D01*
X36620800Y-29613400D01*
X35870800Y-29613400D01*
X35870800Y-28138400D01*
X34395800Y-28138400D01*
X34395800Y-29388028D01*
X30683200Y-29388028D01*
X30683200Y-25803400D01*
X30702885Y-25736361D01*
X30755689Y-25690606D01*
X30807200Y-25679400D01*
X31729218Y-25679400D01*
X31796257Y-25699085D01*
G37*
G04 #@! TD.AperFunction*
G04 #@! TA.AperFunction,Conductor*
G36*
X41138123Y-25674185D02*
G01*
X41183878Y-25726989D01*
X41193822Y-25796147D01*
X41164797Y-25859703D01*
X41154622Y-25870137D01*
X41093608Y-25925757D01*
X40970754Y-26088443D01*
X40879890Y-26270921D01*
X40879886Y-26270931D01*
X40873038Y-26295000D01*
X41577894Y-26295000D01*
X41509901Y-26362993D01*
X41444075Y-26477007D01*
X41410000Y-26604174D01*
X41410000Y-26735826D01*
X41444075Y-26862993D01*
X41509901Y-26977007D01*
X41602993Y-27070099D01*
X41717007Y-27135925D01*
X41844174Y-27170000D01*
X41975826Y-27170000D01*
X42102993Y-27135925D01*
X42217007Y-27070099D01*
X42285000Y-27002106D01*
X42285000Y-27704383D01*
X42402408Y-27658900D01*
X42402413Y-27658898D01*
X42575739Y-27551578D01*
X42726391Y-27414242D01*
X42849247Y-27251554D01*
X42929935Y-27089511D01*
X42977438Y-27038273D01*
X43045100Y-27020852D01*
X43111441Y-27042777D01*
X43155396Y-27097089D01*
X43158957Y-27107784D01*
X43159036Y-27107758D01*
X43160703Y-27112613D01*
X43251140Y-27318792D01*
X43374276Y-27507265D01*
X43374284Y-27507276D01*
X43513866Y-27658900D01*
X43526760Y-27672906D01*
X43704424Y-27811189D01*
X43750018Y-27835863D01*
X43799607Y-27885080D01*
X43815000Y-27944917D01*
X43815000Y-28575000D01*
X52581000Y-28575000D01*
X52648039Y-28594685D01*
X52693794Y-28647489D01*
X52705000Y-28699000D01*
X52705000Y-30923539D01*
X52685315Y-30990578D01*
X52632511Y-31036333D01*
X52624335Y-31039720D01*
X52593798Y-31051110D01*
X52593795Y-31051111D01*
X52476739Y-31138739D01*
X52389111Y-31255795D01*
X52338011Y-31392795D01*
X52338011Y-31392797D01*
X52331500Y-31453345D01*
X52331500Y-32550654D01*
X52338011Y-32611202D01*
X52338011Y-32611204D01*
X52369913Y-32696734D01*
X52389111Y-32748204D01*
X52476739Y-32865261D01*
X52523057Y-32899934D01*
X52549505Y-32919733D01*
X52591376Y-32975667D01*
X52596360Y-33045359D01*
X52562875Y-33106682D01*
X52549505Y-33118267D01*
X52476739Y-33172739D01*
X52389111Y-33289795D01*
X52338011Y-33426795D01*
X52338011Y-33426797D01*
X52331500Y-33487345D01*
X52331500Y-34584654D01*
X52338011Y-34645202D01*
X52338011Y-34645204D01*
X52377992Y-34752394D01*
X52389111Y-34782204D01*
X52476739Y-34899261D01*
X52593796Y-34986889D01*
X52624335Y-34998279D01*
X52680267Y-35040149D01*
X52704684Y-35105613D01*
X52705000Y-35114460D01*
X52705000Y-36195000D01*
X54155742Y-36195000D01*
X54181522Y-36197709D01*
X54260513Y-36214500D01*
X54451487Y-36214500D01*
X54530477Y-36197709D01*
X54556258Y-36195000D01*
X60041328Y-36195000D01*
X60108367Y-36214685D01*
X60154122Y-36267489D01*
X60164066Y-36336647D01*
X60148715Y-36381000D01*
X60074673Y-36509243D01*
X60074670Y-36509250D01*
X60015659Y-36690868D01*
X60015658Y-36690872D01*
X59995696Y-36880800D01*
X60015658Y-37070728D01*
X60015659Y-37070731D01*
X60074670Y-37252349D01*
X60074673Y-37252356D01*
X60170160Y-37417744D01*
X60253404Y-37510196D01*
X60297946Y-37559665D01*
X60297948Y-37559667D01*
X60368675Y-37611053D01*
X60411341Y-37666383D01*
X60417320Y-37735996D01*
X60384714Y-37797791D01*
X60362837Y-37815682D01*
X60358732Y-37818320D01*
X60358730Y-37818321D01*
X60263017Y-37928779D01*
X60263014Y-37928785D01*
X60202300Y-38061726D01*
X60202299Y-38061731D01*
X60181500Y-38206399D01*
X60181500Y-38806402D01*
X60186726Y-38879477D01*
X60186727Y-38879483D01*
X60227902Y-39019713D01*
X60227902Y-39019714D01*
X60306921Y-39142669D01*
X60306922Y-39142670D01*
X60306923Y-39142671D01*
X60417381Y-39238384D01*
X60417385Y-39238386D01*
X60417387Y-39238387D01*
X60525350Y-39287692D01*
X60578154Y-39333446D01*
X60588937Y-39358839D01*
X60590299Y-39358332D01*
X60638498Y-39487556D01*
X60644111Y-39502604D01*
X60731739Y-39619661D01*
X60848796Y-39707289D01*
X60879335Y-39718679D01*
X60935267Y-39760549D01*
X60959684Y-39826013D01*
X60960000Y-39834860D01*
X60960000Y-39881000D01*
X60940315Y-39948039D01*
X60887511Y-39993794D01*
X60836000Y-40005000D01*
X58282500Y-40005000D01*
X58215461Y-39985315D01*
X58169706Y-39932511D01*
X58158500Y-39881000D01*
X58158500Y-39126162D01*
X58158499Y-39126145D01*
X58155157Y-39095070D01*
X58151989Y-39065599D01*
X58100889Y-38928596D01*
X58013261Y-38811539D01*
X57896204Y-38723911D01*
X57759203Y-38672811D01*
X57698654Y-38666300D01*
X57698638Y-38666300D01*
X56601362Y-38666300D01*
X56601345Y-38666300D01*
X56540797Y-38672811D01*
X56540795Y-38672811D01*
X56403795Y-38723911D01*
X56286739Y-38811539D01*
X56199111Y-38928595D01*
X56148011Y-39065595D01*
X56148011Y-39065597D01*
X56141500Y-39126145D01*
X56141500Y-39881000D01*
X56121815Y-39948039D01*
X56069011Y-39993794D01*
X56017500Y-40005000D01*
X54494666Y-40005000D01*
X54427627Y-39985315D01*
X54387279Y-39943000D01*
X54333041Y-39849057D01*
X54205254Y-39707135D01*
X54084856Y-39619660D01*
X54050752Y-39594882D01*
X53876288Y-39517206D01*
X53876286Y-39517205D01*
X53689487Y-39477500D01*
X53498513Y-39477500D01*
X53311714Y-39517205D01*
X53137246Y-39594883D01*
X52982745Y-39707135D01*
X52854958Y-39849057D01*
X52800721Y-39943000D01*
X52750154Y-39991216D01*
X52693334Y-40005000D01*
X50416000Y-40005000D01*
X50348961Y-39985315D01*
X50303206Y-39932511D01*
X50292000Y-39881000D01*
X50292000Y-30480000D01*
X45778309Y-30480000D01*
X45711270Y-30460315D01*
X45686161Y-30438973D01*
X45569253Y-30309134D01*
X45414752Y-30196882D01*
X45240288Y-30119206D01*
X45240286Y-30119205D01*
X45053487Y-30079500D01*
X44862513Y-30079500D01*
X44675714Y-30119205D01*
X44501246Y-30196883D01*
X44346745Y-30309135D01*
X44267846Y-30396761D01*
X44229839Y-30438972D01*
X44170355Y-30475621D01*
X44137691Y-30480000D01*
X40952309Y-30480000D01*
X40885270Y-30460315D01*
X40860161Y-30438973D01*
X40743253Y-30309134D01*
X40588752Y-30196882D01*
X40414288Y-30119206D01*
X40414286Y-30119205D01*
X40227487Y-30079500D01*
X40036513Y-30079500D01*
X40036512Y-30079500D01*
X40033269Y-30080189D01*
X40031352Y-30080042D01*
X40030054Y-30080179D01*
X40030029Y-30079941D01*
X39963602Y-30074866D01*
X39907873Y-30032723D01*
X39883774Y-29967141D01*
X39883500Y-29958896D01*
X39883500Y-28784413D01*
X39883068Y-28776535D01*
X39880425Y-28728305D01*
X39879249Y-28717604D01*
X39891489Y-28648815D01*
X39938977Y-28597564D01*
X39952058Y-28590780D01*
X39979152Y-28578718D01*
X40133653Y-28466466D01*
X40261440Y-28324544D01*
X40356927Y-28159156D01*
X40415942Y-27977528D01*
X40435904Y-27787600D01*
X40415942Y-27597672D01*
X40356927Y-27416044D01*
X40261440Y-27250656D01*
X40133653Y-27108734D01*
X40080477Y-27070099D01*
X40045932Y-27045000D01*
X40873038Y-27045000D01*
X40879886Y-27069068D01*
X40879890Y-27069078D01*
X40970754Y-27251556D01*
X41093608Y-27414242D01*
X41244260Y-27551578D01*
X41417586Y-27658898D01*
X41417591Y-27658900D01*
X41535000Y-27704384D01*
X41535000Y-27045000D01*
X40873038Y-27045000D01*
X40045932Y-27045000D01*
X39979153Y-26996482D01*
X39947101Y-26982212D01*
X39893865Y-26936961D01*
X39873544Y-26870112D01*
X39874798Y-26851304D01*
X39883500Y-26790784D01*
X39883500Y-25803400D01*
X39882248Y-25791755D01*
X39894653Y-25722996D01*
X39942263Y-25671858D01*
X40005537Y-25654500D01*
X41071084Y-25654500D01*
X41138123Y-25674185D01*
G37*
G04 #@! TD.AperFunction*
M02*
