G04 #@! TF.GenerationSoftware,KiCad,Pcbnew,8.0.3*
G04 #@! TF.CreationDate,2024-06-26T11:29:34-05:00*
G04 #@! TF.ProjectId,Bald Sense Wing v3,42616c64-2053-4656-9e73-652057696e67,rev?*
G04 #@! TF.SameCoordinates,Original*
G04 #@! TF.FileFunction,Copper,L1,Top*
G04 #@! TF.FilePolarity,Positive*
%FSLAX46Y46*%
G04 Gerber Fmt 4.6, Leading zero omitted, Abs format (unit mm)*
G04 Created by KiCad (PCBNEW 8.0.3) date 2024-06-26 11:29:34*
%MOMM*%
%LPD*%
G01*
G04 APERTURE LIST*
G04 Aperture macros list*
%AMRoundRect*
0 Rectangle with rounded corners*
0 $1 Rounding radius*
0 $2 $3 $4 $5 $6 $7 $8 $9 X,Y pos of 4 corners*
0 Add a 4 corners polygon primitive as box body*
4,1,4,$2,$3,$4,$5,$6,$7,$8,$9,$2,$3,0*
0 Add four circle primitives for the rounded corners*
1,1,$1+$1,$2,$3*
1,1,$1+$1,$4,$5*
1,1,$1+$1,$6,$7*
1,1,$1+$1,$8,$9*
0 Add four rect primitives between the rounded corners*
20,1,$1+$1,$2,$3,$4,$5,0*
20,1,$1+$1,$4,$5,$6,$7,0*
20,1,$1+$1,$6,$7,$8,$9,0*
20,1,$1+$1,$8,$9,$2,$3,0*%
%AMFreePoly0*
4,1,19,0.500000,-0.750000,0.000000,-0.750000,0.000000,-0.744911,-0.071157,-0.744911,-0.207708,-0.704816,-0.327430,-0.627875,-0.420627,-0.520320,-0.479746,-0.390866,-0.500000,-0.250000,-0.500000,0.250000,-0.479746,0.390866,-0.420627,0.520320,-0.327430,0.627875,-0.207708,0.704816,-0.071157,0.744911,0.000000,0.744911,0.000000,0.750000,0.500000,0.750000,0.500000,-0.750000,0.500000,-0.750000,
$1*%
%AMFreePoly1*
4,1,19,0.000000,0.744911,0.071157,0.744911,0.207708,0.704816,0.327430,0.627875,0.420627,0.520320,0.479746,0.390866,0.500000,0.250000,0.500000,-0.250000,0.479746,-0.390866,0.420627,-0.520320,0.327430,-0.627875,0.207708,-0.704816,0.071157,-0.744911,0.000000,-0.744911,0.000000,-0.750000,-0.500000,-0.750000,-0.500000,0.750000,0.000000,0.750000,0.000000,0.744911,0.000000,0.744911,
$1*%
G04 Aperture macros list end*
G04 #@! TA.AperFunction,EtchedComponent*
%ADD10C,0.000100*%
G04 #@! TD*
G04 #@! TA.AperFunction,SMDPad,CuDef*
%ADD11RoundRect,0.225000X0.225000X0.250000X-0.225000X0.250000X-0.225000X-0.250000X0.225000X-0.250000X0*%
G04 #@! TD*
G04 #@! TA.AperFunction,SMDPad,CuDef*
%ADD12RoundRect,0.243750X0.243750X0.456250X-0.243750X0.456250X-0.243750X-0.456250X0.243750X-0.456250X0*%
G04 #@! TD*
G04 #@! TA.AperFunction,SMDPad,CuDef*
%ADD13FreePoly0,0.000000*%
G04 #@! TD*
G04 #@! TA.AperFunction,SMDPad,CuDef*
%ADD14FreePoly1,0.000000*%
G04 #@! TD*
G04 #@! TA.AperFunction,SMDPad,CuDef*
%ADD15RoundRect,0.135000X-0.135000X-0.185000X0.135000X-0.185000X0.135000X0.185000X-0.135000X0.185000X0*%
G04 #@! TD*
G04 #@! TA.AperFunction,SMDPad,CuDef*
%ADD16RoundRect,0.135000X0.135000X0.185000X-0.135000X0.185000X-0.135000X-0.185000X0.135000X-0.185000X0*%
G04 #@! TD*
G04 #@! TA.AperFunction,SMDPad,CuDef*
%ADD17RoundRect,0.135000X0.185000X-0.135000X0.185000X0.135000X-0.185000X0.135000X-0.185000X-0.135000X0*%
G04 #@! TD*
G04 #@! TA.AperFunction,SMDPad,CuDef*
%ADD18R,0.600000X0.720000*%
G04 #@! TD*
G04 #@! TA.AperFunction,SMDPad,CuDef*
%ADD19RoundRect,0.150000X0.150000X-0.825000X0.150000X0.825000X-0.150000X0.825000X-0.150000X-0.825000X0*%
G04 #@! TD*
G04 #@! TA.AperFunction,SMDPad,CuDef*
%ADD20RoundRect,0.135000X-0.185000X0.135000X-0.185000X-0.135000X0.185000X-0.135000X0.185000X0.135000X0*%
G04 #@! TD*
G04 #@! TA.AperFunction,SMDPad,CuDef*
%ADD21RoundRect,0.225000X-0.250000X0.225000X-0.250000X-0.225000X0.250000X-0.225000X0.250000X0.225000X0*%
G04 #@! TD*
G04 #@! TA.AperFunction,SMDPad,CuDef*
%ADD22R,1.750000X0.700000*%
G04 #@! TD*
G04 #@! TA.AperFunction,SMDPad,CuDef*
%ADD23R,1.550000X1.000000*%
G04 #@! TD*
G04 #@! TA.AperFunction,SMDPad,CuDef*
%ADD24R,1.000000X1.450000*%
G04 #@! TD*
G04 #@! TA.AperFunction,SMDPad,CuDef*
%ADD25R,1.500000X1.500000*%
G04 #@! TD*
G04 #@! TA.AperFunction,SMDPad,CuDef*
%ADD26R,1.500000X1.300000*%
G04 #@! TD*
G04 #@! TA.AperFunction,SMDPad,CuDef*
%ADD27R,1.400000X0.800000*%
G04 #@! TD*
G04 #@! TA.AperFunction,SMDPad,CuDef*
%ADD28R,1.500000X0.800000*%
G04 #@! TD*
G04 #@! TA.AperFunction,SMDPad,CuDef*
%ADD29C,0.910000*%
G04 #@! TD*
G04 #@! TA.AperFunction,SMDPad,CuDef*
%ADD30C,0.500000*%
G04 #@! TD*
G04 #@! TA.AperFunction,SMDPad,CuDef*
%ADD31R,0.900000X0.800000*%
G04 #@! TD*
G04 #@! TA.AperFunction,SMDPad,CuDef*
%ADD32R,0.550000X0.250000*%
G04 #@! TD*
G04 #@! TA.AperFunction,SMDPad,CuDef*
%ADD33R,1.000000X1.700000*%
G04 #@! TD*
G04 #@! TA.AperFunction,SMDPad,CuDef*
%ADD34RoundRect,0.150000X-0.512500X-0.150000X0.512500X-0.150000X0.512500X0.150000X-0.512500X0.150000X0*%
G04 #@! TD*
G04 #@! TA.AperFunction,SMDPad,CuDef*
%ADD35R,1.000000X1.000000*%
G04 #@! TD*
G04 #@! TA.AperFunction,SMDPad,CuDef*
%ADD36R,1.050000X0.650000*%
G04 #@! TD*
G04 #@! TA.AperFunction,SMDPad,CuDef*
%ADD37RoundRect,0.150000X0.625000X-0.150000X0.625000X0.150000X-0.625000X0.150000X-0.625000X-0.150000X0*%
G04 #@! TD*
G04 #@! TA.AperFunction,SMDPad,CuDef*
%ADD38RoundRect,0.250000X0.650000X-0.350000X0.650000X0.350000X-0.650000X0.350000X-0.650000X-0.350000X0*%
G04 #@! TD*
G04 #@! TA.AperFunction,ComponentPad*
%ADD39C,1.700000*%
G04 #@! TD*
G04 #@! TA.AperFunction,ComponentPad*
%ADD40O,1.700000X1.700000*%
G04 #@! TD*
G04 #@! TA.AperFunction,ComponentPad*
%ADD41R,1.700000X1.700000*%
G04 #@! TD*
G04 #@! TA.AperFunction,ViaPad*
%ADD42C,0.800000*%
G04 #@! TD*
G04 #@! TA.AperFunction,Conductor*
%ADD43C,0.406400*%
G04 #@! TD*
G04 #@! TA.AperFunction,Conductor*
%ADD44C,0.203200*%
G04 #@! TD*
G04 #@! TA.AperFunction,Conductor*
%ADD45C,0.152400*%
G04 #@! TD*
G04 APERTURE END LIST*
D10*
X72739780Y-41630311D02*
X72787090Y-41636960D01*
X72833446Y-41648517D01*
X72878340Y-41664857D01*
X72921280Y-41685801D01*
X72961795Y-41711117D01*
X72999443Y-41740531D01*
X73033809Y-41773718D01*
X73064518Y-41810316D01*
X73091234Y-41849923D01*
X73113663Y-41892106D01*
X73131560Y-41936402D01*
X73144728Y-41982326D01*
X73153024Y-42029376D01*
X73156357Y-42077034D01*
X73154689Y-42124780D01*
X73148040Y-42172090D01*
X73136483Y-42218446D01*
X73120143Y-42263340D01*
X73099199Y-42306280D01*
X73073883Y-42346795D01*
X73044469Y-42384443D01*
X73010000Y-42420000D01*
X72900000Y-42520000D01*
X72800000Y-42620000D01*
X72762032Y-42654454D01*
X72723409Y-42682516D01*
X72682064Y-42706386D01*
X72638451Y-42725804D01*
X72593047Y-42740556D01*
X72546349Y-42750482D01*
X72498870Y-42755473D01*
X72451130Y-42755473D01*
X72403651Y-42750482D01*
X72356953Y-42740556D01*
X72311549Y-42725804D01*
X72267936Y-42706386D01*
X72226591Y-42682516D01*
X72187968Y-42654454D01*
X72152490Y-42622510D01*
X72120546Y-42587032D01*
X72092484Y-42548409D01*
X72068614Y-42507064D01*
X72049196Y-42463451D01*
X72034444Y-42418047D01*
X72024518Y-42371349D01*
X72019527Y-42323870D01*
X72019527Y-42276130D01*
X72024518Y-42228651D01*
X72034444Y-42181953D01*
X72049196Y-42136549D01*
X72068614Y-42092936D01*
X72092484Y-42051591D01*
X72120546Y-42012968D01*
X72150000Y-41980000D01*
X72390000Y-41750000D01*
X72425316Y-41720482D01*
X72464923Y-41693766D01*
X72507106Y-41671337D01*
X72551402Y-41653440D01*
X72597326Y-41640272D01*
X72644376Y-41631976D01*
X72692034Y-41628643D01*
X72739780Y-41630311D01*
G04 #@! TA.AperFunction,EtchedComponent*
G36*
X72739780Y-41630311D02*
G01*
X72787090Y-41636960D01*
X72833446Y-41648517D01*
X72878340Y-41664857D01*
X72921280Y-41685801D01*
X72961795Y-41711117D01*
X72999443Y-41740531D01*
X73033809Y-41773718D01*
X73064518Y-41810316D01*
X73091234Y-41849923D01*
X73113663Y-41892106D01*
X73131560Y-41936402D01*
X73144728Y-41982326D01*
X73153024Y-42029376D01*
X73156357Y-42077034D01*
X73154689Y-42124780D01*
X73148040Y-42172090D01*
X73136483Y-42218446D01*
X73120143Y-42263340D01*
X73099199Y-42306280D01*
X73073883Y-42346795D01*
X73044469Y-42384443D01*
X73010000Y-42420000D01*
X72900000Y-42520000D01*
X72800000Y-42620000D01*
X72762032Y-42654454D01*
X72723409Y-42682516D01*
X72682064Y-42706386D01*
X72638451Y-42725804D01*
X72593047Y-42740556D01*
X72546349Y-42750482D01*
X72498870Y-42755473D01*
X72451130Y-42755473D01*
X72403651Y-42750482D01*
X72356953Y-42740556D01*
X72311549Y-42725804D01*
X72267936Y-42706386D01*
X72226591Y-42682516D01*
X72187968Y-42654454D01*
X72152490Y-42622510D01*
X72120546Y-42587032D01*
X72092484Y-42548409D01*
X72068614Y-42507064D01*
X72049196Y-42463451D01*
X72034444Y-42418047D01*
X72024518Y-42371349D01*
X72019527Y-42323870D01*
X72019527Y-42276130D01*
X72024518Y-42228651D01*
X72034444Y-42181953D01*
X72049196Y-42136549D01*
X72068614Y-42092936D01*
X72092484Y-42051591D01*
X72120546Y-42012968D01*
X72150000Y-41980000D01*
X72390000Y-41750000D01*
X72425316Y-41720482D01*
X72464923Y-41693766D01*
X72507106Y-41671337D01*
X72551402Y-41653440D01*
X72597326Y-41640272D01*
X72644376Y-41631976D01*
X72692034Y-41628643D01*
X72739780Y-41630311D01*
G37*
G04 #@! TD.AperFunction*
D11*
X70600000Y-42400000D03*
X69050000Y-42400000D03*
D12*
X39497000Y-26670000D03*
X37622000Y-26670000D03*
D13*
X33274000Y-26670000D03*
D14*
X34574000Y-26670000D03*
D15*
X47699200Y-31496000D03*
X48719200Y-31496000D03*
D16*
X48719200Y-32512000D03*
X47699200Y-32512000D03*
D17*
X68453000Y-30736000D03*
X68453000Y-29716000D03*
D18*
X74360000Y-31057000D03*
X74360000Y-32027000D03*
X74360000Y-32997000D03*
X74360000Y-33967000D03*
X72960000Y-33967000D03*
X72960000Y-32997000D03*
X72960000Y-32027000D03*
X72960000Y-31057000D03*
D19*
X59677300Y-35469600D03*
X60947300Y-35469600D03*
X62217300Y-35469600D03*
X63487300Y-35469600D03*
X63487300Y-30519600D03*
X62217300Y-30519600D03*
X60947300Y-30519600D03*
X59677300Y-30519600D03*
D15*
X63091600Y-37896800D03*
X64111600Y-37896800D03*
D16*
X59946000Y-37846000D03*
X58926000Y-37846000D03*
D20*
X36195000Y-26162000D03*
X36195000Y-27182000D03*
D13*
X31989000Y-44704000D03*
D14*
X33289000Y-44704000D03*
D21*
X61518800Y-37807600D03*
X61518800Y-39357600D03*
D22*
X27051000Y-40343000D03*
X27051000Y-39243000D03*
X27051000Y-38143000D03*
X27051000Y-37043000D03*
X27051000Y-35943000D03*
X27051000Y-34843000D03*
X27051000Y-33743000D03*
X27051000Y-32643000D03*
D23*
X37851000Y-42718000D03*
D24*
X36276000Y-31518000D03*
D25*
X27176000Y-42793000D03*
D26*
X27176000Y-31443000D03*
D27*
X35426000Y-43118000D03*
D28*
X34776000Y-31193000D03*
D29*
X74830000Y-42290000D03*
X74830000Y-40640000D03*
X74830000Y-38990000D03*
X72490000Y-38990000D03*
X72490000Y-40640000D03*
D30*
X72490000Y-42290000D03*
D11*
X70675800Y-32359600D03*
X69125800Y-32359600D03*
D31*
X52289200Y-38420000D03*
X52289200Y-40320000D03*
X54289200Y-39370000D03*
D17*
X55930800Y-39600600D03*
X55930800Y-38580600D03*
D31*
X46777400Y-38191400D03*
X46777400Y-40091400D03*
X48777400Y-39141400D03*
D17*
X50500000Y-39600600D03*
X50500000Y-38580600D03*
D15*
X50969100Y-41656000D03*
X51989100Y-41656000D03*
X47750000Y-41452800D03*
X48770000Y-41452800D03*
X54690800Y-41910000D03*
X55710800Y-41910000D03*
D17*
X67310000Y-30736000D03*
X67310000Y-29716000D03*
D21*
X69062600Y-35902600D03*
X69062600Y-37452600D03*
D32*
X74708000Y-37072000D03*
X74708000Y-36572000D03*
X74708000Y-36072000D03*
X74708000Y-35572000D03*
X72358000Y-35572000D03*
X72358000Y-36072000D03*
X72358000Y-36572000D03*
X72358000Y-37072000D03*
D33*
X73533000Y-36322000D03*
D34*
X42702900Y-32868700D03*
X42702900Y-33818700D03*
X42702900Y-34768700D03*
X44977900Y-34768700D03*
X44977900Y-32868700D03*
D17*
X69088000Y-34647600D03*
X69088000Y-33627600D03*
D35*
X36830000Y-44805600D03*
X42926000Y-37846000D03*
X66040000Y-43688000D03*
D20*
X67614800Y-32052800D03*
X67614800Y-33072800D03*
D36*
X40046000Y-42926000D03*
X44196000Y-42926000D03*
X40046000Y-45076000D03*
X44196000Y-45076000D03*
D35*
X36830000Y-29210000D03*
D37*
X55528600Y-35180400D03*
X55528600Y-34180400D03*
X55528600Y-33180400D03*
X55528600Y-32180400D03*
D38*
X53003600Y-36480400D03*
X53003600Y-30880400D03*
D35*
X44450000Y-28600400D03*
D15*
X42314400Y-36169600D03*
X43334400Y-36169600D03*
D35*
X50241200Y-32004000D03*
D16*
X45518800Y-36220400D03*
X44498800Y-36220400D03*
D39*
X69850000Y-46990000D03*
D40*
X67310000Y-46990000D03*
X64770000Y-46990000D03*
X62230000Y-46990000D03*
X59690000Y-46990000D03*
X57150000Y-46990000D03*
X54610000Y-46990000D03*
X52070000Y-46990000D03*
X49530000Y-46990000D03*
X46990000Y-46990000D03*
X44450000Y-46990000D03*
X41910000Y-46990000D03*
D41*
X39370000Y-46990000D03*
D40*
X36830000Y-46990000D03*
X34290000Y-46990000D03*
X31750000Y-46990000D03*
D39*
X69850000Y-26670000D03*
D40*
X67310000Y-26670000D03*
X64770000Y-26670000D03*
X62230000Y-26670000D03*
X59690000Y-26670000D03*
X57150000Y-26670000D03*
X54610000Y-26670000D03*
X52070000Y-26670000D03*
X49530000Y-26670000D03*
X46990000Y-26670000D03*
X44450000Y-26670000D03*
X41910000Y-26670000D03*
D42*
X40132000Y-30988000D03*
X30886400Y-44704000D03*
X28448000Y-37084000D03*
X66293990Y-31496000D03*
X56533603Y-34014733D03*
X32207200Y-26720800D03*
X41148000Y-31750000D03*
X40132000Y-32766000D03*
X70866000Y-40894000D03*
X70358000Y-35306000D03*
X65379600Y-39979600D03*
X70358000Y-33782000D03*
X60909200Y-36880800D03*
X39522400Y-27787600D03*
X47701200Y-33375600D03*
X61468000Y-40894000D03*
X70873802Y-37604000D03*
X54356000Y-35306000D03*
X41605200Y-33883600D03*
X28321000Y-34925000D03*
X42164000Y-43688000D03*
X37592000Y-31496000D03*
X58166000Y-34798000D03*
X34042598Y-43078400D03*
X53594000Y-40386000D03*
X63500000Y-31902400D03*
X30226000Y-41402000D03*
X46431200Y-36220400D03*
X45720000Y-39116000D03*
X69850000Y-40640000D03*
X69392800Y-31496000D03*
X56434200Y-35079810D03*
X38354000Y-45075990D03*
X60960000Y-32004000D03*
X56688200Y-33011706D03*
X68163969Y-28711631D03*
X66548000Y-28625800D03*
X59740800Y-32054800D03*
X71580000Y-30030000D03*
X75240378Y-34798000D03*
X56779342Y-31963705D03*
X44958000Y-32004000D03*
X44958000Y-30988000D03*
X45008800Y-33578800D03*
X63635142Y-38679871D03*
X39877994Y-39370000D03*
X73710800Y-41249600D03*
X55219600Y-43637204D03*
X66294000Y-32765988D03*
X75099924Y-31751087D03*
X67564006Y-34585523D03*
X55676800Y-41148000D03*
X48768000Y-33375600D03*
X49682400Y-41452800D03*
X64551800Y-33299400D03*
X64459699Y-35529099D03*
X42164000Y-42672000D03*
X75212402Y-33274000D03*
X64135002Y-36880800D03*
X52171600Y-39372402D03*
X59418410Y-38618908D03*
D43*
X32258000Y-26670000D02*
X32207200Y-26720800D01*
X61608000Y-37896800D02*
X61518800Y-37807600D01*
X33274000Y-26670000D02*
X32258000Y-26670000D01*
X60947300Y-35469600D02*
X60947300Y-37236100D01*
X67053990Y-30736000D02*
X66293990Y-31496000D01*
X70838300Y-40921700D02*
X70866000Y-40894000D01*
X31989000Y-44704000D02*
X30886400Y-44704000D01*
X28407000Y-37043000D02*
X28448000Y-37084000D01*
X68453000Y-30736000D02*
X67310000Y-30736000D01*
X67870800Y-33072800D02*
X68326000Y-33528000D01*
X56367936Y-34180400D02*
X56533603Y-34014733D01*
D44*
X43688000Y-33121600D02*
X43435100Y-32868700D01*
D43*
X67310000Y-30736000D02*
X67053990Y-30736000D01*
D44*
X43334400Y-36169600D02*
X43688000Y-35816000D01*
D43*
X70838300Y-42418000D02*
X70838300Y-40921700D01*
X67614800Y-33072800D02*
X67870800Y-33072800D01*
X61480400Y-37846000D02*
X61518800Y-37807600D01*
X72490000Y-42290000D02*
X70966300Y-42290000D01*
X69088000Y-33627600D02*
X68425600Y-33627600D01*
X60909200Y-37198000D02*
X61518800Y-37807600D01*
X68425600Y-33627600D02*
X68326000Y-33528000D01*
D44*
X43688000Y-35816000D02*
X43688000Y-33121600D01*
D43*
X55528600Y-34180400D02*
X56367936Y-34180400D01*
X27051000Y-37043000D02*
X28407000Y-37043000D01*
X59946000Y-37846000D02*
X61480400Y-37846000D01*
X70966300Y-42290000D02*
X70838300Y-42418000D01*
D44*
X43435100Y-32868700D02*
X42702900Y-32868700D01*
D43*
X63091600Y-37896800D02*
X61608000Y-37896800D01*
X60909200Y-36880800D02*
X60909200Y-37198000D01*
X69125800Y-32359600D02*
X69125800Y-31763000D01*
X71906000Y-37072000D02*
X71374000Y-37604000D01*
X70862702Y-37615100D02*
X70873802Y-37604000D01*
X72960000Y-32997000D02*
X73383000Y-32997000D01*
X73152000Y-36830000D02*
X73533000Y-36449000D01*
X47699200Y-33373600D02*
X47701200Y-33375600D01*
X73383000Y-32997000D02*
X73660000Y-33274000D01*
X72358000Y-37072000D02*
X71906000Y-37072000D01*
X55528600Y-35180400D02*
X56333610Y-35180400D01*
X47699200Y-32512000D02*
X47699200Y-33373600D01*
X28239000Y-34843000D02*
X28321000Y-34925000D01*
X73533000Y-36322000D02*
X73533000Y-36449000D01*
X27051000Y-34843000D02*
X28239000Y-34843000D01*
X45518800Y-36220400D02*
X46431200Y-36220400D01*
X69062600Y-37615100D02*
X70862702Y-37615100D01*
X69050000Y-41389200D02*
X69062602Y-41376598D01*
X30569400Y-42404200D02*
X30894400Y-42729200D01*
X34082198Y-43118000D02*
X34042598Y-43078400D01*
X39497000Y-27762200D02*
X39522400Y-27787600D01*
X74708000Y-36572000D02*
X73783000Y-36572000D01*
X42702900Y-33818700D02*
X41670100Y-33818700D01*
X35426000Y-43118000D02*
X34082198Y-43118000D01*
X35951000Y-31193000D02*
X36276000Y-31518000D01*
X72358000Y-36572000D02*
X72358000Y-36830000D01*
X63487300Y-30519600D02*
X63487300Y-31889700D01*
X41670100Y-33818700D02*
X41605200Y-33883600D01*
X75691400Y-41428600D02*
X75691400Y-39851400D01*
X73660000Y-33274000D02*
X73660000Y-36195000D01*
X56333610Y-35180400D02*
X56434200Y-35079810D01*
X29394400Y-42404200D02*
X30569400Y-42404200D01*
X46695400Y-40091400D02*
X45720000Y-39116000D01*
X72358000Y-36830000D02*
X72358000Y-37072000D01*
X39497000Y-26670000D02*
X39497000Y-27762200D01*
X69050000Y-42400000D02*
X69050000Y-41389200D01*
X73660000Y-36195000D02*
X73533000Y-36322000D01*
X69125800Y-31763000D02*
X69392800Y-31496000D01*
X74830000Y-42290000D02*
X75691400Y-41428600D01*
X63487300Y-31889700D02*
X63500000Y-31902400D01*
X73152000Y-36830000D02*
X72358000Y-36830000D01*
X34776000Y-31193000D02*
X35951000Y-31193000D01*
X71374000Y-37604000D02*
X70873802Y-37604000D01*
X75691400Y-39851400D02*
X74830000Y-38990000D01*
D45*
X36195000Y-26162000D02*
X37114000Y-26162000D01*
X37114000Y-26162000D02*
X37622000Y-26670000D01*
X36830000Y-44805600D02*
X36830000Y-46990000D01*
X38354000Y-45075990D02*
X38354010Y-45076000D01*
X40046000Y-45076000D02*
X44196000Y-45076000D01*
X38354010Y-45076000D02*
X40046000Y-45076000D01*
X60947300Y-30519600D02*
X60947300Y-29544600D01*
X68453000Y-29000662D02*
X68163969Y-28711631D01*
X73100916Y-29610000D02*
X72180000Y-29610000D01*
X65567800Y-29606000D02*
X65567800Y-33066802D01*
X73940400Y-37846000D02*
X74708000Y-37078400D01*
X66173398Y-28251198D02*
X66548000Y-28625800D01*
X68453000Y-29716000D02*
X68453000Y-29000662D01*
X69850000Y-27280000D02*
X69850000Y-26670000D01*
X60947300Y-29544600D02*
X62240702Y-28251198D01*
X56519506Y-33180400D02*
X56688200Y-33011706D01*
X73275458Y-29784542D02*
X74360000Y-30869083D01*
X71628000Y-38354000D02*
X72136000Y-37846000D01*
X55528600Y-33180400D02*
X56519506Y-33180400D01*
X72180000Y-29610000D02*
X69850000Y-27280000D01*
X73275458Y-29784542D02*
X73100916Y-29610000D01*
X60960000Y-32004000D02*
X60960000Y-30532300D01*
X66046398Y-28251198D02*
X66173398Y-28251198D01*
X66548000Y-28625800D02*
X65567800Y-29606000D01*
X74360000Y-30869083D02*
X74360000Y-31057000D01*
X66802000Y-38354000D02*
X71628000Y-38354000D01*
X62240702Y-28251198D02*
X66046398Y-28251198D01*
X65567800Y-33066802D02*
X65786000Y-33285002D01*
X65786000Y-33285002D02*
X65786000Y-37338000D01*
X72136000Y-37846000D02*
X73940400Y-37846000D01*
X65786000Y-37338000D02*
X66802000Y-38354000D01*
X60960000Y-30532300D02*
X60947300Y-30519600D01*
X59677300Y-30519600D02*
X59677300Y-29544600D01*
X66155199Y-27824801D02*
X67310000Y-26670000D01*
X59677300Y-31991300D02*
X59740800Y-32054800D01*
X75240378Y-35039622D02*
X74708000Y-35572000D01*
X72960000Y-32027000D02*
X73383000Y-32027000D01*
X73105000Y-30030000D02*
X71580000Y-30030000D01*
X73660000Y-31750000D02*
X73660000Y-30585000D01*
X73660000Y-30585000D02*
X73105000Y-30030000D01*
X59677300Y-30519600D02*
X59677300Y-31991300D01*
X73383000Y-32027000D02*
X73660000Y-31750000D01*
X55528600Y-32180400D02*
X56562647Y-32180400D01*
X70670000Y-30030000D02*
X71580000Y-30030000D01*
X67310000Y-26670000D02*
X67310000Y-29716000D01*
X59677300Y-29544600D02*
X61397099Y-27824801D01*
X67310000Y-26670000D02*
X70670000Y-30030000D01*
X61397099Y-27824801D02*
X66155199Y-27824801D01*
X75240378Y-34798000D02*
X75240378Y-35039622D01*
X56562647Y-32180400D02*
X56779342Y-31963705D01*
X45008800Y-33578800D02*
X45008800Y-32899600D01*
X33289000Y-44704000D02*
X33289000Y-45989000D01*
X45008800Y-32899600D02*
X44977900Y-32868700D01*
X33289000Y-45989000D02*
X34290000Y-46990000D01*
X44450000Y-28600400D02*
X44450000Y-26670000D01*
X73710800Y-40792400D02*
X73863200Y-40640000D01*
X73710800Y-41249600D02*
X73710800Y-40792400D01*
X73863200Y-40640000D02*
X74830000Y-40640000D01*
X47359200Y-42533200D02*
X57773204Y-42533200D01*
X28199661Y-33743000D02*
X35103565Y-40646904D01*
X35103565Y-40646904D02*
X45472904Y-40646904D01*
X62230000Y-46990000D02*
X58775604Y-43535604D01*
X27051000Y-33743000D02*
X28199661Y-33743000D01*
X57773204Y-42533200D02*
X58775604Y-43535600D01*
X58775604Y-43535604D02*
X58775604Y-43535600D01*
X45472904Y-40646904D02*
X47359200Y-42533200D01*
X27051000Y-38143000D02*
X30777000Y-38143000D01*
X57658000Y-44958000D02*
X59690000Y-46990000D01*
X52051000Y-43288000D02*
X53721000Y-44958000D01*
X34036000Y-41402000D02*
X45212000Y-41402000D01*
X53721000Y-44958000D02*
X57658000Y-44958000D01*
X47098000Y-43288000D02*
X52051000Y-43288000D01*
X45212000Y-41402000D02*
X47098000Y-43288000D01*
X30777000Y-38143000D02*
X34036000Y-41402000D01*
X29339000Y-35943000D02*
X34395304Y-40999304D01*
X34395304Y-40999304D02*
X45317304Y-40999304D01*
X54508396Y-42926000D02*
X55219600Y-43637204D01*
X47244000Y-42926000D02*
X54508396Y-42926000D01*
X27051000Y-35943000D02*
X29339000Y-35943000D01*
X45317304Y-40999304D02*
X47244000Y-42926000D01*
X67097523Y-34585523D02*
X66294000Y-33782000D01*
X67564006Y-34585523D02*
X67097523Y-34585523D01*
X66294000Y-33782000D02*
X66294000Y-32765988D01*
X75099924Y-31751087D02*
X74635913Y-31751087D01*
X67007188Y-32052800D02*
X66294000Y-32765988D01*
X67614800Y-32052800D02*
X67007188Y-32052800D01*
X74635913Y-31751087D02*
X74360000Y-32027000D01*
X55710800Y-41910000D02*
X55710800Y-39820600D01*
X55710800Y-39820600D02*
X55930800Y-39600600D01*
X48719200Y-32512000D02*
X48719200Y-33326800D01*
X48719200Y-33326800D02*
X48768000Y-33375600D01*
X48719200Y-32004000D02*
X48719200Y-32512000D01*
X48719200Y-31496000D02*
X48719200Y-32004000D01*
X50241200Y-32004000D02*
X48719200Y-32004000D01*
X49682400Y-41452800D02*
X48770000Y-41452800D01*
X49530000Y-26670000D02*
X49530000Y-28702000D01*
X51308000Y-30480000D02*
X51308000Y-33528000D01*
X44498800Y-35247800D02*
X44977900Y-34768700D01*
X49530000Y-28702000D02*
X51308000Y-30480000D01*
X51308000Y-33528000D02*
X50067300Y-34768700D01*
X50067300Y-34768700D02*
X44977900Y-34768700D01*
X44498800Y-36220400D02*
X44498800Y-35247800D01*
D43*
X47650400Y-31447200D02*
X47699200Y-31496000D01*
D45*
X58926000Y-37846000D02*
X58926000Y-36220900D01*
X59690000Y-26670000D02*
X58840000Y-27520000D01*
X58840000Y-27520000D02*
X58840000Y-34190998D01*
X59677300Y-35028298D02*
X59677300Y-35469600D01*
X58926000Y-36220900D02*
X59677300Y-35469600D01*
X58840000Y-34190998D02*
X59677300Y-35028298D01*
X62217300Y-35469600D02*
X62217300Y-34494600D01*
X62217300Y-36563300D02*
X62711600Y-37057600D01*
X63789800Y-34061400D02*
X64551800Y-33299400D01*
X62650500Y-34061400D02*
X63789800Y-34061400D01*
X62711600Y-37057600D02*
X63272400Y-37057600D01*
X62217300Y-34494600D02*
X62650500Y-34061400D01*
X63272400Y-37057600D02*
X64111600Y-37896800D01*
X62217300Y-35469600D02*
X62217300Y-36563300D01*
X64352598Y-35636200D02*
X64459699Y-35529099D01*
X63653900Y-35636200D02*
X64352598Y-35636200D01*
X57160400Y-34381466D02*
X57414400Y-34127466D01*
X71728000Y-39878000D02*
X68580000Y-39878000D01*
X57160400Y-40599600D02*
X57160400Y-34381466D01*
X57414400Y-34127466D02*
X57414400Y-29474400D01*
X57414400Y-29474400D02*
X54610000Y-26670000D01*
X72490000Y-40640000D02*
X71728000Y-39878000D01*
X58801000Y-42240200D02*
X57160400Y-40599600D01*
X66217800Y-42240200D02*
X58801000Y-42240200D01*
X68580000Y-39878000D02*
X66217800Y-42240200D01*
X57439800Y-35352802D02*
X57439800Y-34632000D01*
X68452000Y-38990000D02*
X65729233Y-41712767D01*
X57439800Y-34632000D02*
X58000000Y-34071800D01*
X58914503Y-41712767D02*
X57865198Y-40663462D01*
X58000000Y-27520000D02*
X57150000Y-26670000D01*
X58000000Y-34071800D02*
X58000000Y-27520000D01*
X72490000Y-38990000D02*
X68452000Y-38990000D01*
X57865198Y-40663462D02*
X57865198Y-35778200D01*
X65729233Y-41712767D02*
X58914503Y-41712767D01*
X57865198Y-35778200D02*
X57439800Y-35352802D01*
X54610000Y-46828616D02*
X54610000Y-46990000D01*
X51421784Y-43640400D02*
X54610000Y-46828616D01*
X31013400Y-39243000D02*
X33528000Y-41757600D01*
X46932768Y-43640400D02*
X51421784Y-43640400D01*
X45049968Y-41757600D02*
X46932768Y-43640400D01*
X27051000Y-39243000D02*
X31013400Y-39243000D01*
X33528000Y-41757600D02*
X45049968Y-41757600D01*
X37851000Y-42718000D02*
X38405000Y-42164000D01*
X52070000Y-45641600D02*
X52070000Y-46990000D01*
X50421200Y-43992800D02*
X52070000Y-45641600D01*
X46786800Y-43992800D02*
X50421200Y-43992800D01*
X38405000Y-42164000D02*
X41402000Y-42164000D01*
X44958000Y-42164000D02*
X46786800Y-43992800D01*
X41402000Y-42164000D02*
X44958000Y-42164000D01*
X42164000Y-42672000D02*
X41656000Y-42164000D01*
X41656000Y-42164000D02*
X41402000Y-42164000D01*
X75843578Y-35363822D02*
X75135400Y-36072000D01*
X75135400Y-36072000D02*
X74708000Y-36072000D01*
X75843578Y-33905176D02*
X75843578Y-35363822D01*
X75212402Y-33274000D02*
X75843578Y-33905176D01*
X34574000Y-26670000D02*
X35082000Y-27178000D01*
X35082000Y-27178000D02*
X36191000Y-27178000D01*
X36191000Y-27178000D02*
X36195000Y-27182000D01*
X55078600Y-38580600D02*
X54289200Y-39370000D01*
X55930800Y-38580600D02*
X55078600Y-38580600D01*
X50500000Y-38527000D02*
X50607000Y-38420000D01*
X50607000Y-38420000D02*
X52289200Y-38420000D01*
X50500000Y-38580600D02*
X50500000Y-38527000D01*
X49045400Y-39600600D02*
X50500000Y-39600600D01*
X48777400Y-39141400D02*
X48777400Y-39379400D01*
X50500000Y-39600600D02*
X50649600Y-39600600D01*
X48777400Y-39379400D02*
X49022000Y-39624000D01*
X50649600Y-39600600D02*
X50969100Y-39920100D01*
X50969100Y-39920100D02*
X50969100Y-41656000D01*
X49022000Y-39624000D02*
X49045400Y-39600600D01*
X47752000Y-38481000D02*
X47462400Y-38191400D01*
X47462400Y-38191400D02*
X46777400Y-38191400D01*
X47750000Y-41452800D02*
X47750000Y-40896000D01*
X47750000Y-40896000D02*
X47752000Y-40894000D01*
X47752000Y-40894000D02*
X47752000Y-38481000D01*
X68072000Y-35052000D02*
X68476400Y-34647600D01*
X72358000Y-36065600D02*
X71122400Y-36065600D01*
X68476400Y-34647600D02*
X69088000Y-34647600D01*
X68072000Y-36322000D02*
X68072000Y-35052000D01*
X70518000Y-36670000D02*
X68420000Y-36670000D01*
X71122400Y-36065600D02*
X70518000Y-36670000D01*
X68420000Y-36670000D02*
X68072000Y-36322000D01*
X74360000Y-32997000D02*
X74360000Y-33967000D01*
X64681110Y-32575244D02*
X65328800Y-33222934D01*
X65328800Y-33222934D02*
X65328800Y-35687002D01*
X63080890Y-29121110D02*
X64681110Y-29121110D01*
X62217300Y-29984700D02*
X63080890Y-29121110D01*
X65328800Y-35687002D02*
X64135002Y-36880800D01*
X64681110Y-29121110D02*
X64681110Y-32575244D01*
D43*
X52213000Y-40243800D02*
X52213000Y-39488200D01*
X52289200Y-41355900D02*
X51989100Y-41656000D01*
X52289200Y-40320000D02*
X52289200Y-41355900D01*
X52289200Y-40320000D02*
X52213000Y-40243800D01*
D45*
X42314400Y-35157200D02*
X42702900Y-34768700D01*
X42926000Y-37846000D02*
X42926000Y-37439600D01*
X42314400Y-36828000D02*
X42314400Y-36169600D01*
X42926000Y-37439600D02*
X42314400Y-36828000D01*
X42314400Y-36169600D02*
X42314400Y-35157200D01*
G04 #@! TA.AperFunction,Conductor*
G36*
X30787141Y-39847702D02*
G01*
X30808115Y-39864605D01*
X33168978Y-42225470D01*
X33168983Y-42225474D01*
X33168985Y-42225476D01*
X33168986Y-42225477D01*
X33168988Y-42225478D01*
X33200924Y-42243916D01*
X33200925Y-42243916D01*
X33200928Y-42243918D01*
X33302314Y-42302453D01*
X33451023Y-42342300D01*
X34142470Y-42342300D01*
X34210591Y-42362302D01*
X34257084Y-42415958D01*
X34267188Y-42486232D01*
X34260526Y-42512333D01*
X34224505Y-42608907D01*
X34218000Y-42669402D01*
X34218000Y-42864000D01*
X35554000Y-42864000D01*
X35622121Y-42884002D01*
X35668614Y-42937658D01*
X35680000Y-42990000D01*
X35680000Y-44026000D01*
X35710092Y-44026000D01*
X35778213Y-44046002D01*
X35824706Y-44099658D01*
X35834810Y-44169932D01*
X35828148Y-44196033D01*
X35828010Y-44196402D01*
X35828009Y-44196403D01*
X35821500Y-44256950D01*
X35821500Y-45354249D01*
X35828009Y-45414796D01*
X35828011Y-45414804D01*
X35879110Y-45551802D01*
X35879112Y-45551807D01*
X35966738Y-45668861D01*
X36012440Y-45703073D01*
X36054987Y-45759909D01*
X36060051Y-45830725D01*
X36026026Y-45893037D01*
X36014323Y-45903372D01*
X35906763Y-45987090D01*
X35754279Y-46152729D01*
X35665483Y-46288643D01*
X35611479Y-46334731D01*
X35541131Y-46344306D01*
X35476774Y-46314329D01*
X35454517Y-46288643D01*
X35365720Y-46152729D01*
X35220966Y-45995487D01*
X35213240Y-45987094D01*
X35213239Y-45987093D01*
X35213237Y-45987091D01*
X35083525Y-45886132D01*
X35035576Y-45848811D01*
X34837574Y-45741658D01*
X34837572Y-45741657D01*
X34837571Y-45741656D01*
X34624639Y-45668557D01*
X34624630Y-45668555D01*
X34574464Y-45660184D01*
X34402569Y-45631500D01*
X34288997Y-45631500D01*
X34220876Y-45611498D01*
X34174383Y-45557842D01*
X34164279Y-45487568D01*
X34180143Y-45445053D01*
X34178889Y-45444369D01*
X34181040Y-45440426D01*
X34181047Y-45440417D01*
X34237979Y-45315752D01*
X34240255Y-45311403D01*
X34240775Y-45309631D01*
X34240776Y-45309631D01*
X34281953Y-45169394D01*
X34302415Y-45027079D01*
X34302415Y-44970512D01*
X34302500Y-44970222D01*
X34302500Y-44438278D01*
X34302415Y-44437488D01*
X34302415Y-44380920D01*
X34302414Y-44380915D01*
X34283236Y-44247529D01*
X34283235Y-44247524D01*
X34283235Y-44247525D01*
X34281953Y-44238606D01*
X34281953Y-44238605D01*
X34281410Y-44236757D01*
X34269560Y-44196399D01*
X34240775Y-44098368D01*
X34231409Y-44077859D01*
X34221304Y-44007585D01*
X34250797Y-43943004D01*
X34310523Y-43904620D01*
X34381520Y-43904620D01*
X34421532Y-43924648D01*
X34480037Y-43968445D01*
X34616906Y-44019494D01*
X34677402Y-44025999D01*
X34677415Y-44026000D01*
X35172000Y-44026000D01*
X35172000Y-43372000D01*
X34218000Y-43372000D01*
X34218000Y-43566597D01*
X34225348Y-43634930D01*
X34222504Y-43635235D01*
X34219414Y-43692604D01*
X34177873Y-43750179D01*
X34111799Y-43776155D01*
X34042170Y-43762286D01*
X34013146Y-43740153D01*
X34012958Y-43740371D01*
X34009489Y-43737365D01*
X34008416Y-43736547D01*
X34007876Y-43735967D01*
X33911078Y-43652093D01*
X33897416Y-43640255D01*
X33776462Y-43562523D01*
X33643513Y-43501807D01*
X33526776Y-43467530D01*
X33505566Y-43461302D01*
X33505559Y-43461300D01*
X33471456Y-43456397D01*
X33360889Y-43440500D01*
X32789000Y-43440500D01*
X32715921Y-43445727D01*
X32715918Y-43445727D01*
X32715910Y-43445729D01*
X32679579Y-43456397D01*
X32626151Y-43460219D01*
X32489000Y-43440500D01*
X31917111Y-43440500D01*
X31820665Y-43454366D01*
X31772440Y-43461300D01*
X31772433Y-43461302D01*
X31650977Y-43496965D01*
X31634487Y-43501807D01*
X31501538Y-43562523D01*
X31501536Y-43562524D01*
X31501530Y-43562527D01*
X31386290Y-43636587D01*
X31384836Y-43637415D01*
X31380577Y-43640259D01*
X31270121Y-43735971D01*
X31230423Y-43781785D01*
X31170696Y-43820168D01*
X31109002Y-43822519D01*
X30981887Y-43795500D01*
X30790913Y-43795500D01*
X30604111Y-43835206D01*
X30429647Y-43912882D01*
X30275144Y-44025135D01*
X30147365Y-44167048D01*
X30147358Y-44167058D01*
X30051876Y-44332438D01*
X30051873Y-44332445D01*
X29992857Y-44514072D01*
X29972896Y-44704000D01*
X29992857Y-44893927D01*
X30017648Y-44970222D01*
X30051873Y-45075556D01*
X30051876Y-45075561D01*
X30147358Y-45240941D01*
X30147365Y-45240951D01*
X30275144Y-45382864D01*
X30275147Y-45382866D01*
X30429648Y-45495118D01*
X30604112Y-45572794D01*
X30790913Y-45612500D01*
X30943526Y-45612500D01*
X31011647Y-45632502D01*
X31058140Y-45686158D01*
X31068244Y-45756432D01*
X31038750Y-45821012D01*
X31008403Y-45845374D01*
X31008787Y-45845961D01*
X31004424Y-45848811D01*
X30826762Y-45987091D01*
X30674279Y-46152729D01*
X30674275Y-46152734D01*
X30551141Y-46341206D01*
X30460703Y-46547386D01*
X30460702Y-46547387D01*
X30405437Y-46765624D01*
X30405436Y-46765630D01*
X30405436Y-46765632D01*
X30386844Y-46990000D01*
X30402882Y-47183551D01*
X30405437Y-47214375D01*
X30460702Y-47432612D01*
X30460703Y-47432613D01*
X30460704Y-47432616D01*
X30532472Y-47596231D01*
X30551141Y-47638793D01*
X30663378Y-47810585D01*
X30683891Y-47878553D01*
X30664402Y-47946822D01*
X30611097Y-47993717D01*
X30557895Y-48005500D01*
X27943806Y-48005500D01*
X27936198Y-48005270D01*
X27672120Y-47989296D01*
X27657016Y-47987462D01*
X27400542Y-47940462D01*
X27385772Y-47936822D01*
X27174766Y-47871069D01*
X27136823Y-47859246D01*
X27122597Y-47853850D01*
X26884826Y-47746838D01*
X26871354Y-47739768D01*
X26648207Y-47604870D01*
X26635690Y-47596231D01*
X26430427Y-47435417D01*
X26419039Y-47425327D01*
X26234672Y-47240960D01*
X26224582Y-47229572D01*
X26212676Y-47214375D01*
X26063765Y-47024305D01*
X26055131Y-47011796D01*
X25920227Y-46788639D01*
X25913161Y-46775173D01*
X25908867Y-46765632D01*
X25806147Y-46537397D01*
X25800756Y-46523185D01*
X25723174Y-46274215D01*
X25719540Y-46259469D01*
X25672535Y-46002972D01*
X25670704Y-45987890D01*
X25654730Y-45723801D01*
X25654500Y-45716194D01*
X25654500Y-45594038D01*
X26339500Y-45594038D01*
X26339500Y-45845962D01*
X26361978Y-45987879D01*
X26378911Y-46094790D01*
X26450244Y-46314329D01*
X26456759Y-46334379D01*
X26571130Y-46558845D01*
X26719207Y-46762656D01*
X26719209Y-46762658D01*
X26719211Y-46762661D01*
X26897338Y-46940788D01*
X26897341Y-46940790D01*
X26897344Y-46940793D01*
X27101155Y-47088870D01*
X27325621Y-47203241D01*
X27565215Y-47281090D01*
X27814038Y-47320500D01*
X27814041Y-47320500D01*
X28065959Y-47320500D01*
X28065962Y-47320500D01*
X28314785Y-47281090D01*
X28554379Y-47203241D01*
X28778845Y-47088870D01*
X28982656Y-46940793D01*
X29160793Y-46762656D01*
X29308870Y-46558845D01*
X29423241Y-46334379D01*
X29501090Y-46094785D01*
X29540500Y-45845962D01*
X29540500Y-45594038D01*
X29501090Y-45345215D01*
X29423241Y-45105621D01*
X29308870Y-44881155D01*
X29160793Y-44677344D01*
X29160790Y-44677341D01*
X29160788Y-44677338D01*
X28982661Y-44499211D01*
X28982658Y-44499209D01*
X28982656Y-44499207D01*
X28819841Y-44380915D01*
X28778848Y-44351132D01*
X28778847Y-44351131D01*
X28778845Y-44351130D01*
X28554379Y-44236759D01*
X28554376Y-44236758D01*
X28554374Y-44236757D01*
X28314788Y-44158910D01*
X28314783Y-44158909D01*
X28308946Y-44157985D01*
X28244794Y-44127572D01*
X28207268Y-44067303D01*
X28208283Y-43996314D01*
X28247516Y-43937143D01*
X28253151Y-43932668D01*
X28288904Y-43905903D01*
X28376444Y-43788965D01*
X28376444Y-43788964D01*
X28427494Y-43652093D01*
X28433999Y-43591597D01*
X28434000Y-43591585D01*
X28434000Y-43047000D01*
X27430000Y-43047000D01*
X27430000Y-44076592D01*
X27433241Y-44082528D01*
X27428176Y-44153343D01*
X27385629Y-44210179D01*
X27349059Y-44229143D01*
X27325627Y-44236757D01*
X27325621Y-44236759D01*
X27325619Y-44236759D01*
X27325619Y-44236760D01*
X27101151Y-44351132D01*
X26897341Y-44499209D01*
X26897338Y-44499211D01*
X26719211Y-44677338D01*
X26719209Y-44677341D01*
X26571132Y-44881151D01*
X26456760Y-45105619D01*
X26456757Y-45105625D01*
X26378911Y-45345209D01*
X26378910Y-45345214D01*
X26378910Y-45345215D01*
X26339500Y-45594038D01*
X25654500Y-45594038D01*
X25654500Y-43591597D01*
X25918000Y-43591597D01*
X25924505Y-43652093D01*
X25975555Y-43788964D01*
X25975555Y-43788965D01*
X26063095Y-43905904D01*
X26180034Y-43993444D01*
X26316906Y-44044494D01*
X26377402Y-44050999D01*
X26377415Y-44051000D01*
X26922000Y-44051000D01*
X26922000Y-43047000D01*
X25918000Y-43047000D01*
X25918000Y-43591597D01*
X25654500Y-43591597D01*
X25654500Y-41994402D01*
X25918000Y-41994402D01*
X25918000Y-42539000D01*
X26922000Y-42539000D01*
X27430000Y-42539000D01*
X28434000Y-42539000D01*
X28434000Y-41994414D01*
X28433999Y-41994402D01*
X28427494Y-41933906D01*
X28376444Y-41797035D01*
X28376444Y-41797034D01*
X28288904Y-41680095D01*
X28171965Y-41592555D01*
X28035093Y-41541505D01*
X27974597Y-41535000D01*
X27430000Y-41535000D01*
X27430000Y-42539000D01*
X26922000Y-42539000D01*
X26922000Y-41535000D01*
X26377402Y-41535000D01*
X26316906Y-41541505D01*
X26180035Y-41592555D01*
X26180034Y-41592555D01*
X26063095Y-41680095D01*
X25975555Y-41797034D01*
X25975555Y-41797035D01*
X25924505Y-41933906D01*
X25918000Y-41994402D01*
X25654500Y-41994402D01*
X25654500Y-41189521D01*
X25674502Y-41121400D01*
X25728158Y-41074907D01*
X25798432Y-41064803D01*
X25856009Y-41088653D01*
X25929792Y-41143887D01*
X25929794Y-41143888D01*
X25929796Y-41143889D01*
X25971082Y-41159288D01*
X26066795Y-41194988D01*
X26066803Y-41194990D01*
X26127350Y-41201499D01*
X26127355Y-41201499D01*
X26127362Y-41201500D01*
X26127368Y-41201500D01*
X27974632Y-41201500D01*
X27974638Y-41201500D01*
X27974645Y-41201499D01*
X27974649Y-41201499D01*
X28035196Y-41194990D01*
X28035199Y-41194989D01*
X28035201Y-41194989D01*
X28172204Y-41143889D01*
X28190499Y-41130194D01*
X28289261Y-41056261D01*
X28376887Y-40939207D01*
X28376887Y-40939206D01*
X28376889Y-40939204D01*
X28427989Y-40802201D01*
X28431598Y-40768638D01*
X28434499Y-40741649D01*
X28434500Y-40741632D01*
X28434500Y-39953700D01*
X28454502Y-39885579D01*
X28508158Y-39839086D01*
X28560500Y-39827700D01*
X30719020Y-39827700D01*
X30787141Y-39847702D01*
G37*
G04 #@! TD.AperFunction*
G04 #@! TA.AperFunction,Conductor*
G36*
X69945581Y-40482702D02*
G01*
X69992074Y-40536358D01*
X70002178Y-40606632D01*
X69997293Y-40627636D01*
X69972457Y-40704071D01*
X69952496Y-40894000D01*
X69972457Y-41083927D01*
X70010659Y-41201499D01*
X70031473Y-41265556D01*
X70062103Y-41318609D01*
X70070126Y-41332504D01*
X70086864Y-41401499D01*
X70063644Y-41468591D01*
X70027155Y-41502745D01*
X69916961Y-41570713D01*
X69916953Y-41570720D01*
X69913742Y-41573932D01*
X69851430Y-41607958D01*
X69780615Y-41602893D01*
X69735552Y-41573932D01*
X69732734Y-41571114D01*
X69732728Y-41571109D01*
X69586884Y-41481152D01*
X69424241Y-41427257D01*
X69424229Y-41427255D01*
X69323852Y-41417000D01*
X69304000Y-41417000D01*
X69304000Y-43383000D01*
X69323853Y-43383000D01*
X69323852Y-43382999D01*
X69424229Y-43372744D01*
X69424241Y-43372742D01*
X69586884Y-43318847D01*
X69732727Y-43228890D01*
X69735546Y-43226072D01*
X69737960Y-43224753D01*
X69738486Y-43224338D01*
X69738556Y-43224427D01*
X69797856Y-43192043D01*
X69868672Y-43197104D01*
X69913745Y-43226070D01*
X69916960Y-43229285D01*
X70062899Y-43319302D01*
X70225664Y-43373236D01*
X70245756Y-43375288D01*
X70326120Y-43383500D01*
X70326128Y-43383500D01*
X70873880Y-43383500D01*
X70946936Y-43376035D01*
X70974336Y-43373236D01*
X71137101Y-43319302D01*
X71283040Y-43229285D01*
X71404285Y-43108040D01*
X71432959Y-43061551D01*
X71485744Y-43014075D01*
X71540199Y-43001700D01*
X71757768Y-43001700D01*
X71825889Y-43021702D01*
X71842083Y-43034068D01*
X71842853Y-43034761D01*
X71844339Y-43036099D01*
X71886106Y-43069921D01*
X71924729Y-43097983D01*
X71953897Y-43116925D01*
X71968957Y-43126706D01*
X71969820Y-43127266D01*
X72011165Y-43151136D01*
X72059054Y-43175536D01*
X72059064Y-43175541D01*
X72059087Y-43175552D01*
X72102635Y-43194940D01*
X72102658Y-43194950D01*
X72102667Y-43194954D01*
X72132426Y-43206377D01*
X72152846Y-43214216D01*
X72152872Y-43214225D01*
X72198267Y-43228974D01*
X72199428Y-43229285D01*
X72250180Y-43242884D01*
X72296878Y-43252810D01*
X72349962Y-43261218D01*
X72397441Y-43266209D01*
X72397449Y-43266209D01*
X72397455Y-43266210D01*
X72451118Y-43269023D01*
X72451130Y-43269023D01*
X72498882Y-43269023D01*
X72552544Y-43266210D01*
X72552548Y-43266209D01*
X72552559Y-43266209D01*
X72600038Y-43261218D01*
X72653122Y-43252810D01*
X72699820Y-43242884D01*
X72751736Y-43228973D01*
X72797140Y-43214221D01*
X72847333Y-43194954D01*
X72871934Y-43184001D01*
X72890912Y-43175552D01*
X72890935Y-43175541D01*
X72890936Y-43175540D01*
X72890946Y-43175536D01*
X72938835Y-43151136D01*
X72980180Y-43127266D01*
X72981042Y-43126706D01*
X74352502Y-43126706D01*
X74352503Y-43126707D01*
X74459689Y-43183999D01*
X74459704Y-43184005D01*
X74641215Y-43239066D01*
X74641226Y-43239068D01*
X74829997Y-43257660D01*
X74830003Y-43257660D01*
X75018773Y-43239068D01*
X75018784Y-43239066D01*
X75200304Y-43184001D01*
X75307495Y-43126706D01*
X74830000Y-42649210D01*
X74829999Y-42649210D01*
X74352502Y-43126706D01*
X72981042Y-43126706D01*
X73025271Y-43097983D01*
X73063894Y-43069921D01*
X73107141Y-43034761D01*
X73145109Y-43000307D01*
X73163135Y-42983135D01*
X73252397Y-42893872D01*
X73256691Y-42889777D01*
X73355451Y-42799996D01*
X73378732Y-42777449D01*
X73378738Y-42777443D01*
X73413190Y-42741904D01*
X73413195Y-42741897D01*
X73413201Y-42741892D01*
X73449151Y-42700617D01*
X73478565Y-42662969D01*
X73509401Y-42618931D01*
X73534717Y-42578416D01*
X73560771Y-42531412D01*
X73581715Y-42488472D01*
X73602722Y-42438984D01*
X73619062Y-42394090D01*
X73626666Y-42369218D01*
X73665708Y-42309923D01*
X73730612Y-42281147D01*
X73800770Y-42292030D01*
X73853907Y-42339115D01*
X73872553Y-42393706D01*
X73880931Y-42478772D01*
X73880933Y-42478784D01*
X73935996Y-42660301D01*
X73936000Y-42660311D01*
X73993291Y-42767496D01*
X74830001Y-41930789D01*
X75242760Y-41518027D01*
X75272452Y-41496005D01*
X75367882Y-41444997D01*
X75514594Y-41324594D01*
X75514595Y-41324592D01*
X75514597Y-41324591D01*
X75606263Y-41212894D01*
X75634997Y-41177882D01*
X75708378Y-41040595D01*
X75758130Y-40989948D01*
X75827367Y-40974238D01*
X75894106Y-40998454D01*
X75937158Y-41054908D01*
X75945500Y-41099992D01*
X75945500Y-41831068D01*
X75925498Y-41899189D01*
X75871842Y-41945682D01*
X75801568Y-41955786D01*
X75736988Y-41926292D01*
X75708378Y-41890464D01*
X75666707Y-41812503D01*
X75666706Y-41812502D01*
X75189210Y-42289999D01*
X75666706Y-42767495D01*
X75708378Y-42689535D01*
X75758130Y-42638887D01*
X75827367Y-42623177D01*
X75894106Y-42647393D01*
X75937158Y-42703847D01*
X75945500Y-42748931D01*
X75945500Y-45716194D01*
X75945270Y-45723802D01*
X75929296Y-45987879D01*
X75927462Y-46002983D01*
X75880462Y-46259457D01*
X75876821Y-46274231D01*
X75799246Y-46523176D01*
X75793850Y-46537402D01*
X75686838Y-46775173D01*
X75679768Y-46788645D01*
X75544875Y-47011786D01*
X75536231Y-47024309D01*
X75375417Y-47229572D01*
X75365327Y-47240960D01*
X75180960Y-47425327D01*
X75169572Y-47435417D01*
X74964309Y-47596231D01*
X74951786Y-47604875D01*
X74728645Y-47739768D01*
X74715173Y-47746838D01*
X74477402Y-47853850D01*
X74463176Y-47859246D01*
X74214231Y-47936821D01*
X74199457Y-47940462D01*
X73942983Y-47987462D01*
X73927879Y-47989296D01*
X73663802Y-48005270D01*
X73656194Y-48005500D01*
X71042105Y-48005500D01*
X70973984Y-47985498D01*
X70927491Y-47931842D01*
X70917387Y-47861568D01*
X70936622Y-47810585D01*
X70982889Y-47739768D01*
X71048860Y-47638791D01*
X71139296Y-47432616D01*
X71194564Y-47214368D01*
X71213156Y-46990000D01*
X71194564Y-46765632D01*
X71142199Y-46558848D01*
X71139297Y-46547387D01*
X71139296Y-46547386D01*
X71139296Y-46547384D01*
X71048860Y-46341209D01*
X71042140Y-46330924D01*
X70925724Y-46152734D01*
X70925720Y-46152729D01*
X70780966Y-45995487D01*
X70773240Y-45987094D01*
X70773239Y-45987093D01*
X70773237Y-45987091D01*
X70643525Y-45886132D01*
X70595576Y-45848811D01*
X70397574Y-45741658D01*
X70397572Y-45741657D01*
X70397571Y-45741656D01*
X70184639Y-45668557D01*
X70184630Y-45668555D01*
X70134464Y-45660184D01*
X69962569Y-45631500D01*
X69737431Y-45631500D01*
X69603746Y-45653808D01*
X69515369Y-45668555D01*
X69515360Y-45668557D01*
X69302428Y-45741656D01*
X69302426Y-45741658D01*
X69109691Y-45845961D01*
X69104426Y-45848810D01*
X69104424Y-45848811D01*
X68926762Y-45987091D01*
X68774279Y-46152729D01*
X68685483Y-46288643D01*
X68631479Y-46334731D01*
X68561131Y-46344306D01*
X68496774Y-46314329D01*
X68474517Y-46288643D01*
X68385720Y-46152729D01*
X68240966Y-45995487D01*
X68233240Y-45987094D01*
X68233239Y-45987093D01*
X68233237Y-45987091D01*
X68103525Y-45886132D01*
X68055576Y-45848811D01*
X67857574Y-45741658D01*
X67857572Y-45741657D01*
X67857571Y-45741656D01*
X67644639Y-45668557D01*
X67644630Y-45668555D01*
X67594464Y-45660184D01*
X67422569Y-45631500D01*
X67197431Y-45631500D01*
X67063746Y-45653808D01*
X66975369Y-45668555D01*
X66975360Y-45668557D01*
X66762428Y-45741656D01*
X66762426Y-45741658D01*
X66569691Y-45845961D01*
X66564426Y-45848810D01*
X66564424Y-45848811D01*
X66386762Y-45987091D01*
X66234279Y-46152729D01*
X66145483Y-46288643D01*
X66091479Y-46334731D01*
X66021131Y-46344306D01*
X65956774Y-46314329D01*
X65934517Y-46288643D01*
X65845720Y-46152729D01*
X65700966Y-45995487D01*
X65693240Y-45987094D01*
X65693239Y-45987093D01*
X65693237Y-45987091D01*
X65563525Y-45886132D01*
X65515576Y-45848811D01*
X65317574Y-45741658D01*
X65317572Y-45741657D01*
X65317571Y-45741656D01*
X65104639Y-45668557D01*
X65104630Y-45668555D01*
X65054464Y-45660184D01*
X64882569Y-45631500D01*
X64657431Y-45631500D01*
X64523746Y-45653808D01*
X64435369Y-45668555D01*
X64435360Y-45668557D01*
X64222428Y-45741656D01*
X64222426Y-45741658D01*
X64029691Y-45845961D01*
X64024426Y-45848810D01*
X64024424Y-45848811D01*
X63846762Y-45987091D01*
X63694279Y-46152729D01*
X63605483Y-46288643D01*
X63551479Y-46334731D01*
X63481131Y-46344306D01*
X63416774Y-46314329D01*
X63394517Y-46288643D01*
X63305720Y-46152729D01*
X63160966Y-45995487D01*
X63153240Y-45987094D01*
X63153239Y-45987093D01*
X63153237Y-45987091D01*
X63023525Y-45886132D01*
X62975576Y-45848811D01*
X62777574Y-45741658D01*
X62777572Y-45741657D01*
X62777571Y-45741656D01*
X62564639Y-45668557D01*
X62564630Y-45668555D01*
X62514464Y-45660184D01*
X62342569Y-45631500D01*
X62117431Y-45631500D01*
X61983746Y-45653808D01*
X61895369Y-45668555D01*
X61895358Y-45668558D01*
X61850703Y-45683887D01*
X61779778Y-45687086D01*
X61720699Y-45653808D01*
X61668799Y-45601908D01*
X72159500Y-45601908D01*
X72159500Y-45838092D01*
X72196447Y-46071368D01*
X72269432Y-46295992D01*
X72376657Y-46506433D01*
X72376659Y-46506436D01*
X72515484Y-46697512D01*
X72682487Y-46864515D01*
X72787468Y-46940788D01*
X72873567Y-47003343D01*
X73084008Y-47110568D01*
X73308632Y-47183553D01*
X73541908Y-47220500D01*
X73541911Y-47220500D01*
X73778089Y-47220500D01*
X73778092Y-47220500D01*
X74011368Y-47183553D01*
X74235992Y-47110568D01*
X74446433Y-47003343D01*
X74637510Y-46864517D01*
X74804517Y-46697510D01*
X74943343Y-46506433D01*
X75050568Y-46295992D01*
X75123553Y-46071368D01*
X75160500Y-45838092D01*
X75160500Y-45601908D01*
X75123553Y-45368632D01*
X75050568Y-45144008D01*
X74943343Y-44933567D01*
X74804517Y-44742490D01*
X74804515Y-44742487D01*
X74637512Y-44575484D01*
X74446436Y-44436659D01*
X74446435Y-44436658D01*
X74446433Y-44436657D01*
X74235992Y-44329432D01*
X74011368Y-44256447D01*
X73778092Y-44219500D01*
X73541908Y-44219500D01*
X73308632Y-44256447D01*
X73308629Y-44256447D01*
X73308628Y-44256448D01*
X73084008Y-44329432D01*
X73084006Y-44329433D01*
X72873563Y-44436659D01*
X72682487Y-44575484D01*
X72515484Y-44742487D01*
X72376659Y-44933563D01*
X72269433Y-45144006D01*
X72269432Y-45144008D01*
X72204056Y-45345215D01*
X72196447Y-45368632D01*
X72159500Y-45601908D01*
X61668799Y-45601908D01*
X60303487Y-44236597D01*
X65032000Y-44236597D01*
X65038505Y-44297093D01*
X65089555Y-44433964D01*
X65089555Y-44433965D01*
X65177095Y-44550904D01*
X65294034Y-44638444D01*
X65430906Y-44689494D01*
X65491402Y-44695999D01*
X65491415Y-44696000D01*
X65786000Y-44696000D01*
X66294000Y-44696000D01*
X66588585Y-44696000D01*
X66588597Y-44695999D01*
X66649093Y-44689494D01*
X66785964Y-44638444D01*
X66785965Y-44638444D01*
X66902904Y-44550904D01*
X66990444Y-44433965D01*
X66990444Y-44433964D01*
X67041494Y-44297093D01*
X67047999Y-44236597D01*
X67048000Y-44236585D01*
X67048000Y-43942000D01*
X66294000Y-43942000D01*
X66294000Y-44696000D01*
X65786000Y-44696000D01*
X65786000Y-43942000D01*
X65032000Y-43942000D01*
X65032000Y-44236597D01*
X60303487Y-44236597D01*
X59249881Y-43182991D01*
X59249843Y-43182947D01*
X59106891Y-43039995D01*
X59072865Y-42977683D01*
X59077930Y-42906868D01*
X59120477Y-42850032D01*
X59186997Y-42825221D01*
X59195986Y-42824900D01*
X64951770Y-42824900D01*
X65019891Y-42844902D01*
X65066384Y-42898558D01*
X65076488Y-42968832D01*
X65069826Y-42994932D01*
X65038505Y-43078906D01*
X65032000Y-43139402D01*
X65032000Y-43434000D01*
X67048000Y-43434000D01*
X67048000Y-43139414D01*
X67047999Y-43139402D01*
X67041494Y-43078906D01*
X66990444Y-42942035D01*
X66990444Y-42942034D01*
X66902904Y-42825095D01*
X66785959Y-42737551D01*
X66779342Y-42733938D01*
X66744255Y-42698852D01*
X68092000Y-42698852D01*
X68102255Y-42799229D01*
X68102257Y-42799241D01*
X68156152Y-42961884D01*
X68246109Y-43107728D01*
X68246114Y-43107734D01*
X68367265Y-43228885D01*
X68367271Y-43228890D01*
X68513115Y-43318847D01*
X68675758Y-43372742D01*
X68675770Y-43372744D01*
X68776147Y-43382999D01*
X68776147Y-43383000D01*
X68796000Y-43383000D01*
X68796000Y-42654000D01*
X68092000Y-42654000D01*
X68092000Y-42698852D01*
X66744255Y-42698852D01*
X66729139Y-42683736D01*
X66714048Y-42614362D01*
X66738859Y-42547842D01*
X66750618Y-42534270D01*
X67183741Y-42101147D01*
X68092000Y-42101147D01*
X68092000Y-42146000D01*
X68796000Y-42146000D01*
X68796000Y-41417000D01*
X68776147Y-41417000D01*
X68675770Y-41427255D01*
X68675758Y-41427257D01*
X68513115Y-41481152D01*
X68367271Y-41571109D01*
X68367265Y-41571114D01*
X68246114Y-41692265D01*
X68246109Y-41692271D01*
X68156152Y-41838115D01*
X68102257Y-42000758D01*
X68102255Y-42000770D01*
X68092000Y-42101147D01*
X67183741Y-42101147D01*
X68785288Y-40499602D01*
X68847598Y-40465579D01*
X68874381Y-40462700D01*
X69877460Y-40462700D01*
X69945581Y-40482702D01*
G37*
G04 #@! TD.AperFunction*
G04 #@! TA.AperFunction,Conductor*
G36*
X40242121Y-42768702D02*
G01*
X40288614Y-42822358D01*
X40300000Y-42874700D01*
X40300000Y-43759000D01*
X40619585Y-43759000D01*
X40619597Y-43758999D01*
X40680093Y-43752494D01*
X40816964Y-43701444D01*
X40816965Y-43701444D01*
X40933904Y-43613904D01*
X41021444Y-43496965D01*
X41021444Y-43496964D01*
X41072494Y-43360093D01*
X41078999Y-43299597D01*
X41079000Y-43299585D01*
X41079000Y-43068211D01*
X41099002Y-43000090D01*
X41152658Y-42953597D01*
X41222932Y-42943493D01*
X41287512Y-42972987D01*
X41324832Y-43029274D01*
X41329473Y-43043556D01*
X41339864Y-43061553D01*
X41424958Y-43208941D01*
X41424965Y-43208951D01*
X41552744Y-43350864D01*
X41596974Y-43382999D01*
X41707248Y-43463118D01*
X41881712Y-43540794D01*
X42068513Y-43580500D01*
X42259487Y-43580500D01*
X42446288Y-43540794D01*
X42620752Y-43463118D01*
X42775253Y-43350866D01*
X42796561Y-43327201D01*
X42903034Y-43208951D01*
X42903035Y-43208949D01*
X42903040Y-43208944D01*
X42927881Y-43165917D01*
X42979264Y-43116925D01*
X43048977Y-43103489D01*
X43114888Y-43129875D01*
X43156070Y-43187708D01*
X43163000Y-43228918D01*
X43163000Y-43299597D01*
X43169505Y-43360093D01*
X43220555Y-43496964D01*
X43220555Y-43496965D01*
X43308095Y-43613904D01*
X43425034Y-43701444D01*
X43561906Y-43752494D01*
X43622402Y-43758999D01*
X43622415Y-43759000D01*
X43942000Y-43759000D01*
X43942000Y-42874700D01*
X43962002Y-42806579D01*
X44015658Y-42760086D01*
X44068000Y-42748700D01*
X44324000Y-42748700D01*
X44392121Y-42768702D01*
X44438614Y-42822358D01*
X44450000Y-42874700D01*
X44450000Y-43759000D01*
X44769585Y-43759000D01*
X44769597Y-43758999D01*
X44830093Y-43752494D01*
X44966964Y-43701444D01*
X44966965Y-43701444D01*
X45083904Y-43613904D01*
X45171444Y-43496965D01*
X45182422Y-43467530D01*
X45224967Y-43410693D01*
X45291487Y-43385880D01*
X45360861Y-43400970D01*
X45389574Y-43422464D01*
X46427779Y-44460670D01*
X46427784Y-44460674D01*
X46427786Y-44460676D01*
X46427787Y-44460677D01*
X46427789Y-44460678D01*
X46478789Y-44490123D01*
X46561115Y-44537654D01*
X46709823Y-44577500D01*
X46863777Y-44577500D01*
X50126820Y-44577500D01*
X50194941Y-44597502D01*
X50215914Y-44614404D01*
X51294329Y-45692820D01*
X51328354Y-45755130D01*
X51323289Y-45825945D01*
X51282624Y-45881344D01*
X51146766Y-45987087D01*
X50994279Y-46152729D01*
X50905483Y-46288643D01*
X50851479Y-46334731D01*
X50781131Y-46344306D01*
X50716774Y-46314329D01*
X50694517Y-46288643D01*
X50605720Y-46152729D01*
X50460966Y-45995487D01*
X50453240Y-45987094D01*
X50453239Y-45987093D01*
X50453237Y-45987091D01*
X50323525Y-45886132D01*
X50275576Y-45848811D01*
X50077574Y-45741658D01*
X50077572Y-45741657D01*
X50077571Y-45741656D01*
X49864639Y-45668557D01*
X49864630Y-45668555D01*
X49814464Y-45660184D01*
X49642569Y-45631500D01*
X49417431Y-45631500D01*
X49283746Y-45653808D01*
X49195369Y-45668555D01*
X49195360Y-45668557D01*
X48982428Y-45741656D01*
X48982426Y-45741658D01*
X48789691Y-45845961D01*
X48784426Y-45848810D01*
X48784424Y-45848811D01*
X48606762Y-45987091D01*
X48454279Y-46152729D01*
X48365483Y-46288643D01*
X48311479Y-46334731D01*
X48241131Y-46344306D01*
X48176774Y-46314329D01*
X48154517Y-46288643D01*
X48065720Y-46152729D01*
X47920966Y-45995487D01*
X47913240Y-45987094D01*
X47913239Y-45987093D01*
X47913237Y-45987091D01*
X47783525Y-45886132D01*
X47735576Y-45848811D01*
X47537574Y-45741658D01*
X47537572Y-45741657D01*
X47537571Y-45741656D01*
X47324639Y-45668557D01*
X47324630Y-45668555D01*
X47274464Y-45660184D01*
X47102569Y-45631500D01*
X46877431Y-45631500D01*
X46743746Y-45653808D01*
X46655369Y-45668555D01*
X46655360Y-45668557D01*
X46442428Y-45741656D01*
X46442426Y-45741658D01*
X46249691Y-45845961D01*
X46244426Y-45848810D01*
X46244424Y-45848811D01*
X46066762Y-45987091D01*
X45914279Y-46152729D01*
X45825483Y-46288643D01*
X45771479Y-46334731D01*
X45701131Y-46344306D01*
X45636774Y-46314329D01*
X45614517Y-46288643D01*
X45525720Y-46152729D01*
X45380966Y-45995487D01*
X45373240Y-45987094D01*
X45373239Y-45987093D01*
X45373237Y-45987091D01*
X45243525Y-45886132D01*
X45195576Y-45848811D01*
X45195570Y-45848807D01*
X45191213Y-45845961D01*
X45192514Y-45843968D01*
X45149207Y-45800866D01*
X45133952Y-45731527D01*
X45158606Y-45664949D01*
X45158704Y-45664816D01*
X45171889Y-45647204D01*
X45222989Y-45510201D01*
X45225423Y-45487568D01*
X45229499Y-45449649D01*
X45229500Y-45449632D01*
X45229500Y-44702367D01*
X45229499Y-44702350D01*
X45222990Y-44641803D01*
X45222988Y-44641795D01*
X45193924Y-44563875D01*
X45171889Y-44504796D01*
X45171888Y-44504794D01*
X45171887Y-44504792D01*
X45084261Y-44387738D01*
X44967207Y-44300112D01*
X44967202Y-44300110D01*
X44830204Y-44249011D01*
X44830196Y-44249009D01*
X44769649Y-44242500D01*
X44769638Y-44242500D01*
X43622362Y-44242500D01*
X43622350Y-44242500D01*
X43561803Y-44249009D01*
X43561795Y-44249011D01*
X43424797Y-44300110D01*
X43424792Y-44300112D01*
X43307738Y-44387738D01*
X43268011Y-44440809D01*
X43211176Y-44483356D01*
X43167143Y-44491300D01*
X41074857Y-44491300D01*
X41006736Y-44471298D01*
X40973989Y-44440809D01*
X40934261Y-44387738D01*
X40817207Y-44300112D01*
X40817202Y-44300110D01*
X40680204Y-44249011D01*
X40680196Y-44249009D01*
X40619649Y-44242500D01*
X40619638Y-44242500D01*
X39472362Y-44242500D01*
X39472350Y-44242500D01*
X39411803Y-44249009D01*
X39411795Y-44249011D01*
X39274797Y-44300110D01*
X39274792Y-44300112D01*
X39157736Y-44387740D01*
X39151366Y-44394111D01*
X39150223Y-44392968D01*
X39101570Y-44429384D01*
X39030754Y-44434442D01*
X38970280Y-44401413D01*
X38970163Y-44401544D01*
X38969614Y-44401050D01*
X38968444Y-44400411D01*
X38965744Y-44397565D01*
X38965256Y-44397126D01*
X38810752Y-44284872D01*
X38636288Y-44207196D01*
X38449487Y-44167490D01*
X38258513Y-44167490D01*
X38071709Y-44207196D01*
X37992040Y-44242667D01*
X37921673Y-44252101D01*
X37857376Y-44221994D01*
X37822737Y-44171593D01*
X37780889Y-44059396D01*
X37780887Y-44059392D01*
X37693259Y-43942336D01*
X37692518Y-43941595D01*
X37692015Y-43940674D01*
X37687861Y-43935125D01*
X37688658Y-43934527D01*
X37658492Y-43879283D01*
X37663557Y-43808468D01*
X37706104Y-43751632D01*
X37772624Y-43726821D01*
X37781613Y-43726500D01*
X38674632Y-43726500D01*
X38674638Y-43726500D01*
X38674645Y-43726499D01*
X38674649Y-43726499D01*
X38735196Y-43719990D01*
X38735199Y-43719989D01*
X38735201Y-43719989D01*
X38872204Y-43668889D01*
X38980934Y-43587493D01*
X39047452Y-43562684D01*
X39116827Y-43577775D01*
X39151464Y-43607790D01*
X39151723Y-43607532D01*
X39155333Y-43611142D01*
X39157312Y-43612857D01*
X39158096Y-43613904D01*
X39275034Y-43701444D01*
X39411906Y-43752494D01*
X39472402Y-43758999D01*
X39472415Y-43759000D01*
X39792000Y-43759000D01*
X39792000Y-42874700D01*
X39812002Y-42806579D01*
X39865658Y-42760086D01*
X39918000Y-42748700D01*
X40174000Y-42748700D01*
X40242121Y-42768702D01*
G37*
G04 #@! TD.AperFunction*
G04 #@! TA.AperFunction,Conductor*
G36*
X53456212Y-40111715D02*
G01*
X53474568Y-40131430D01*
X53475938Y-40133261D01*
X53592992Y-40220887D01*
X53592994Y-40220888D01*
X53592996Y-40220889D01*
X53652075Y-40242924D01*
X53729995Y-40271988D01*
X53730003Y-40271990D01*
X53790550Y-40278499D01*
X53790555Y-40278499D01*
X53790562Y-40278500D01*
X53790568Y-40278500D01*
X54787832Y-40278500D01*
X54787838Y-40278500D01*
X54787845Y-40278499D01*
X54787849Y-40278499D01*
X54848396Y-40271990D01*
X54848397Y-40271989D01*
X54848401Y-40271989D01*
X54956068Y-40231830D01*
X55026882Y-40226765D01*
X55089195Y-40260790D01*
X55123220Y-40323102D01*
X55126100Y-40349886D01*
X55126100Y-40360939D01*
X55106098Y-40429060D01*
X55074164Y-40462873D01*
X55065543Y-40469136D01*
X54937765Y-40611048D01*
X54937758Y-40611058D01*
X54842276Y-40776438D01*
X54842273Y-40776445D01*
X54783257Y-40958072D01*
X54763296Y-41148000D01*
X54783257Y-41337927D01*
X54808950Y-41417000D01*
X54842273Y-41519556D01*
X54842276Y-41519561D01*
X54915419Y-41646248D01*
X54932300Y-41709247D01*
X54932300Y-41809583D01*
X54932301Y-41822499D01*
X54912300Y-41890620D01*
X54858644Y-41937113D01*
X54806301Y-41948500D01*
X52984922Y-41948500D01*
X52916801Y-41928498D01*
X52870308Y-41874842D01*
X52860204Y-41804568D01*
X52880157Y-41752498D01*
X52919901Y-41693017D01*
X52935234Y-41656000D01*
X53913120Y-41656000D01*
X54436800Y-41656000D01*
X54436800Y-41089985D01*
X54298400Y-41130194D01*
X54158571Y-41212889D01*
X54158564Y-41212894D01*
X54043694Y-41327764D01*
X54043689Y-41327771D01*
X53960994Y-41467600D01*
X53915669Y-41623607D01*
X53915669Y-41623610D01*
X53913120Y-41656000D01*
X52935234Y-41656000D01*
X52965055Y-41584004D01*
X52973550Y-41563496D01*
X53000901Y-41425997D01*
X53000901Y-41285804D01*
X53000901Y-41280612D01*
X53000900Y-41280586D01*
X53000900Y-41222359D01*
X53020902Y-41154238D01*
X53051390Y-41121491D01*
X53102461Y-41083261D01*
X53172314Y-40989948D01*
X53190087Y-40966207D01*
X53190087Y-40966206D01*
X53190089Y-40966204D01*
X53241189Y-40829201D01*
X53244092Y-40802204D01*
X53247699Y-40768649D01*
X53247700Y-40768632D01*
X53247700Y-40206939D01*
X53267702Y-40138818D01*
X53321358Y-40092325D01*
X53391632Y-40082221D01*
X53456212Y-40111715D01*
G37*
G04 #@! TD.AperFunction*
G04 #@! TA.AperFunction,Conductor*
G36*
X65153188Y-37222113D02*
G01*
X65194370Y-37279945D01*
X65201300Y-37321155D01*
X65201300Y-37414975D01*
X65201299Y-37414975D01*
X65208864Y-37443207D01*
X65241147Y-37563686D01*
X65283178Y-37636487D01*
X65313948Y-37689782D01*
X65318123Y-37697013D01*
X65318126Y-37697017D01*
X66334124Y-38713014D01*
X66442986Y-38821876D01*
X66442987Y-38821877D01*
X66442989Y-38821878D01*
X66470233Y-38837607D01*
X66576314Y-38898853D01*
X66725023Y-38938700D01*
X66878977Y-38938700D01*
X67372220Y-38938700D01*
X67440341Y-38958702D01*
X67486834Y-39012358D01*
X67496938Y-39082632D01*
X67467444Y-39147212D01*
X67461330Y-39153779D01*
X66741905Y-39873204D01*
X66504486Y-40110623D01*
X66442174Y-40144648D01*
X66371358Y-40139583D01*
X66314523Y-40097036D01*
X66289712Y-40030516D01*
X66290080Y-40008363D01*
X66293104Y-39979600D01*
X66273142Y-39789672D01*
X66214127Y-39608044D01*
X66118640Y-39442656D01*
X66118638Y-39442654D01*
X66118634Y-39442648D01*
X65990855Y-39300735D01*
X65836352Y-39188482D01*
X65661888Y-39110806D01*
X65475087Y-39071100D01*
X65284113Y-39071100D01*
X65097311Y-39110806D01*
X64922847Y-39188482D01*
X64768344Y-39300735D01*
X64640565Y-39442648D01*
X64640558Y-39442658D01*
X64545076Y-39608038D01*
X64545073Y-39608045D01*
X64486057Y-39789672D01*
X64466096Y-39979600D01*
X64486057Y-40169527D01*
X64508762Y-40239403D01*
X64545073Y-40351156D01*
X64640560Y-40516544D01*
X64640561Y-40516546D01*
X64640565Y-40516551D01*
X64768344Y-40658464D01*
X64809298Y-40688219D01*
X64922848Y-40770718D01*
X65097312Y-40848394D01*
X65221156Y-40874718D01*
X65240454Y-40878820D01*
X65302928Y-40912549D01*
X65337249Y-40974698D01*
X65332521Y-41045537D01*
X65290245Y-41102575D01*
X65223844Y-41127702D01*
X65214257Y-41128067D01*
X59208884Y-41128067D01*
X59140763Y-41108065D01*
X59119789Y-41091162D01*
X58486803Y-40458176D01*
X58452777Y-40395864D01*
X58449898Y-40369081D01*
X58449898Y-39631452D01*
X60535800Y-39631452D01*
X60546055Y-39731829D01*
X60546057Y-39731841D01*
X60599952Y-39894484D01*
X60689909Y-40040328D01*
X60689914Y-40040334D01*
X60811065Y-40161485D01*
X60811071Y-40161490D01*
X60956915Y-40251447D01*
X61119558Y-40305342D01*
X61119570Y-40305344D01*
X61219947Y-40315599D01*
X61219947Y-40315600D01*
X61264800Y-40315600D01*
X61772800Y-40315600D01*
X61817653Y-40315600D01*
X61817652Y-40315599D01*
X61918029Y-40305344D01*
X61918041Y-40305342D01*
X62080684Y-40251447D01*
X62226528Y-40161490D01*
X62226534Y-40161485D01*
X62347685Y-40040334D01*
X62347690Y-40040328D01*
X62437647Y-39894484D01*
X62491542Y-39731841D01*
X62491544Y-39731829D01*
X62501799Y-39631452D01*
X62501800Y-39631452D01*
X62501800Y-39611600D01*
X61772800Y-39611600D01*
X61772800Y-40315600D01*
X61264800Y-40315600D01*
X61264800Y-39611600D01*
X60535800Y-39611600D01*
X60535800Y-39631452D01*
X58449898Y-39631452D01*
X58449898Y-39227798D01*
X58469900Y-39159677D01*
X58523556Y-39113184D01*
X58593830Y-39103080D01*
X58658410Y-39132574D01*
X58677840Y-39153744D01*
X58679366Y-39155845D01*
X58679370Y-39155852D01*
X58679375Y-39155857D01*
X58679379Y-39155863D01*
X58807154Y-39297772D01*
X58807157Y-39297774D01*
X58961658Y-39410026D01*
X59136122Y-39487702D01*
X59322923Y-39527408D01*
X59513897Y-39527408D01*
X59700698Y-39487702D01*
X59875162Y-39410026D01*
X60029663Y-39297774D01*
X60079360Y-39242580D01*
X60157444Y-39155859D01*
X60157445Y-39155857D01*
X60157450Y-39155852D01*
X60252937Y-38990464D01*
X60311952Y-38808836D01*
X60324021Y-38693993D01*
X60351033Y-38628339D01*
X60385190Y-38598713D01*
X60424873Y-38575245D01*
X60489010Y-38557700D01*
X60536423Y-38557700D01*
X60604544Y-38577702D01*
X60651037Y-38631358D01*
X60661141Y-38701632D01*
X60643664Y-38749846D01*
X60599954Y-38820711D01*
X60599953Y-38820714D01*
X60546057Y-38983358D01*
X60546055Y-38983370D01*
X60535800Y-39083747D01*
X60535800Y-39103600D01*
X62501800Y-39103600D01*
X62501800Y-39083747D01*
X62491544Y-38983370D01*
X62491542Y-38983358D01*
X62437646Y-38820714D01*
X62437644Y-38820709D01*
X62425270Y-38800647D01*
X62406532Y-38732168D01*
X62427791Y-38664429D01*
X62482298Y-38618937D01*
X62532510Y-38608500D01*
X62548590Y-38608500D01*
X62612728Y-38626046D01*
X62637043Y-38640425D01*
X62668277Y-38658897D01*
X62716729Y-38710788D01*
X62729448Y-38754180D01*
X62741599Y-38869798D01*
X62751040Y-38898852D01*
X62800615Y-39051427D01*
X62800618Y-39051432D01*
X62896100Y-39216812D01*
X62896107Y-39216822D01*
X63023886Y-39358735D01*
X63039391Y-39370000D01*
X63178390Y-39470989D01*
X63352854Y-39548665D01*
X63539655Y-39588371D01*
X63730629Y-39588371D01*
X63917430Y-39548665D01*
X64091894Y-39470989D01*
X64246395Y-39358737D01*
X64273623Y-39328497D01*
X64374176Y-39216822D01*
X64374177Y-39216820D01*
X64374182Y-39216815D01*
X64469669Y-39051427D01*
X64528684Y-38869799D01*
X64545282Y-38711876D01*
X64572294Y-38646222D01*
X64606451Y-38616594D01*
X64644141Y-38594306D01*
X64759106Y-38479341D01*
X64841869Y-38339396D01*
X64887229Y-38183266D01*
X64890100Y-38146789D01*
X64890099Y-37646812D01*
X64887229Y-37610334D01*
X64860586Y-37518628D01*
X64860789Y-37447632D01*
X64872464Y-37420476D01*
X64874040Y-37417746D01*
X64874042Y-37417744D01*
X64966181Y-37258155D01*
X65017564Y-37209161D01*
X65087278Y-37195726D01*
X65153188Y-37222113D01*
G37*
G04 #@! TD.AperFunction*
G04 #@! TA.AperFunction,Conductor*
G36*
X75863532Y-36274924D02*
G01*
X75920368Y-36317471D01*
X75945179Y-36383991D01*
X75945500Y-36392980D01*
X75945500Y-38531068D01*
X75925498Y-38599189D01*
X75871842Y-38645682D01*
X75801568Y-38655786D01*
X75736988Y-38626292D01*
X75708378Y-38590464D01*
X75666707Y-38512503D01*
X75666706Y-38512502D01*
X75189210Y-38989999D01*
X75666706Y-39467495D01*
X75708378Y-39389535D01*
X75758130Y-39338887D01*
X75827367Y-39323177D01*
X75894106Y-39347393D01*
X75937158Y-39403847D01*
X75945500Y-39448931D01*
X75945500Y-40180007D01*
X75925498Y-40248128D01*
X75871842Y-40294621D01*
X75801568Y-40304725D01*
X75736988Y-40275231D01*
X75708378Y-40239403D01*
X75634995Y-40102114D01*
X75514594Y-39955405D01*
X75367887Y-39835006D01*
X75367883Y-39835003D01*
X75367882Y-39835003D01*
X75272459Y-39783998D01*
X75242760Y-39761971D01*
X74830000Y-39349210D01*
X74829999Y-39349210D01*
X74417240Y-39761969D01*
X74387543Y-39783995D01*
X74292119Y-39835001D01*
X74292114Y-39835005D01*
X74145408Y-39955403D01*
X74101230Y-40009234D01*
X74042553Y-40049203D01*
X74003831Y-40055300D01*
X73786223Y-40055300D01*
X73687083Y-40081864D01*
X73637513Y-40095147D01*
X73551776Y-40144648D01*
X73523249Y-40161118D01*
X73522605Y-40161490D01*
X73504182Y-40172126D01*
X73500195Y-40175186D01*
X73433975Y-40200787D01*
X73364426Y-40186523D01*
X73313630Y-40136922D01*
X73312418Y-40134710D01*
X73294997Y-40102118D01*
X73294994Y-40102114D01*
X73294993Y-40102112D01*
X73174597Y-39955408D01*
X73153740Y-39938291D01*
X73122188Y-39912398D01*
X73082221Y-39853723D01*
X73080320Y-39782752D01*
X73117090Y-39722019D01*
X73122174Y-39717613D01*
X73174594Y-39674594D01*
X73174595Y-39674592D01*
X73174597Y-39674591D01*
X73245355Y-39588371D01*
X73294997Y-39527882D01*
X73384465Y-39360500D01*
X73439559Y-39178879D01*
X73439569Y-39178784D01*
X73458162Y-38990003D01*
X73458162Y-38989996D01*
X73439560Y-38801127D01*
X73439559Y-38801125D01*
X73439559Y-38801121D01*
X73384465Y-38619500D01*
X73384464Y-38619498D01*
X73384464Y-38619497D01*
X73382644Y-38616092D01*
X73382230Y-38614104D01*
X73382097Y-38613783D01*
X73382158Y-38613757D01*
X73368175Y-38546586D01*
X73393580Y-38480291D01*
X73450795Y-38438255D01*
X73493768Y-38430700D01*
X73826799Y-38430700D01*
X73894920Y-38450702D01*
X73941413Y-38504358D01*
X73951517Y-38574632D01*
X73937924Y-38616091D01*
X73936000Y-38619689D01*
X73935994Y-38619704D01*
X73880933Y-38801215D01*
X73880931Y-38801226D01*
X73862340Y-38989996D01*
X73862340Y-38990003D01*
X73880931Y-39178773D01*
X73880933Y-39178784D01*
X73935996Y-39360301D01*
X73936000Y-39360311D01*
X73993291Y-39467496D01*
X74830000Y-38630789D01*
X75307496Y-38153291D01*
X75200311Y-38096000D01*
X75200301Y-38095996D01*
X75018784Y-38040933D01*
X75018773Y-38040931D01*
X74877505Y-38027018D01*
X74811673Y-38000436D01*
X74770663Y-37942481D01*
X74767496Y-37871555D01*
X74800758Y-37812531D01*
X74870888Y-37742403D01*
X74933201Y-37708379D01*
X74959982Y-37705500D01*
X75031632Y-37705500D01*
X75031638Y-37705500D01*
X75031645Y-37705499D01*
X75031649Y-37705499D01*
X75092196Y-37698990D01*
X75092199Y-37698989D01*
X75092201Y-37698989D01*
X75229204Y-37647889D01*
X75279372Y-37610334D01*
X75346261Y-37560261D01*
X75433887Y-37443207D01*
X75433887Y-37443206D01*
X75433889Y-37443204D01*
X75484989Y-37306201D01*
X75485220Y-37304058D01*
X75491499Y-37245649D01*
X75491500Y-37245632D01*
X75491500Y-36898367D01*
X75491499Y-36898352D01*
X75488140Y-36867106D01*
X75484989Y-36837799D01*
X75484988Y-36837797D01*
X75484485Y-36833114D01*
X75484485Y-36806173D01*
X75490999Y-36745592D01*
X75491000Y-36745585D01*
X75491000Y-36595480D01*
X75511002Y-36527359D01*
X75527905Y-36506385D01*
X75730405Y-36303885D01*
X75792717Y-36269859D01*
X75863532Y-36274924D01*
G37*
G04 #@! TD.AperFunction*
G04 #@! TA.AperFunction,Conductor*
G36*
X31843855Y-25674502D02*
G01*
X31890348Y-25728158D01*
X31900452Y-25798432D01*
X31870958Y-25863012D01*
X31826984Y-25895605D01*
X31790203Y-25911981D01*
X31750447Y-25929682D01*
X31595944Y-26041935D01*
X31468165Y-26183848D01*
X31468158Y-26183858D01*
X31372676Y-26349238D01*
X31372673Y-26349245D01*
X31313657Y-26530872D01*
X31293696Y-26720800D01*
X31313657Y-26910727D01*
X31343726Y-27003270D01*
X31372673Y-27092356D01*
X31372676Y-27092361D01*
X31468158Y-27257741D01*
X31468165Y-27257751D01*
X31595944Y-27399664D01*
X31644098Y-27434650D01*
X31750448Y-27511918D01*
X31924912Y-27589594D01*
X32111713Y-27629300D01*
X32302691Y-27629300D01*
X32414984Y-27605430D01*
X32436838Y-27600785D01*
X32507629Y-27606186D01*
X32549477Y-27634280D01*
X32550042Y-27633629D01*
X32585685Y-27664513D01*
X32665584Y-27733745D01*
X32786538Y-27811477D01*
X32919487Y-27872193D01*
X33057442Y-27912700D01*
X33202111Y-27933500D01*
X33202115Y-27933500D01*
X33773994Y-27933500D01*
X33774000Y-27933500D01*
X33847079Y-27928273D01*
X33883416Y-27917602D01*
X33936849Y-27913781D01*
X34074000Y-27933500D01*
X34645885Y-27933500D01*
X34645889Y-27933500D01*
X34790558Y-27912700D01*
X34928513Y-27872193D01*
X35061462Y-27811477D01*
X35106237Y-27782701D01*
X35174356Y-27762700D01*
X35493462Y-27762700D01*
X35561583Y-27782702D01*
X35582557Y-27799605D01*
X35612453Y-27829501D01*
X35612460Y-27829507D01*
X35752399Y-27912267D01*
X35752402Y-27912267D01*
X35752404Y-27912269D01*
X35908534Y-27957629D01*
X35945011Y-27960500D01*
X36189318Y-27960499D01*
X36257438Y-27980501D01*
X36303931Y-28034156D01*
X36314036Y-28104430D01*
X36284543Y-28169011D01*
X36228113Y-28205276D01*
X36228291Y-28205751D01*
X36226108Y-28206565D01*
X36224817Y-28207395D01*
X36221597Y-28208247D01*
X36084035Y-28259555D01*
X36084034Y-28259555D01*
X35967095Y-28347095D01*
X35879555Y-28464034D01*
X35879555Y-28464035D01*
X35828505Y-28600906D01*
X35822000Y-28661402D01*
X35822000Y-28956000D01*
X36576000Y-28956000D01*
X37084000Y-28956000D01*
X37838000Y-28956000D01*
X37838000Y-28661414D01*
X37837999Y-28661402D01*
X37831494Y-28600906D01*
X37780444Y-28464035D01*
X37780444Y-28464034D01*
X37692904Y-28347095D01*
X37575965Y-28259555D01*
X37439093Y-28208505D01*
X37378597Y-28202000D01*
X37084000Y-28202000D01*
X37084000Y-28956000D01*
X36576000Y-28956000D01*
X36576000Y-28202000D01*
X36525657Y-28202000D01*
X36457536Y-28181998D01*
X36411043Y-28128342D01*
X36400939Y-28058068D01*
X36430433Y-27993488D01*
X36490159Y-27955104D01*
X36490407Y-27955031D01*
X36637596Y-27912269D01*
X36637598Y-27912267D01*
X36637600Y-27912267D01*
X36777539Y-27829507D01*
X36777538Y-27829507D01*
X36777541Y-27829506D01*
X36824573Y-27782473D01*
X36886883Y-27748450D01*
X36957698Y-27753514D01*
X36979807Y-27764325D01*
X37058171Y-27812661D01*
X37225096Y-27867974D01*
X37328125Y-27878500D01*
X37915874Y-27878499D01*
X38018904Y-27867974D01*
X38185829Y-27812661D01*
X38335498Y-27720344D01*
X38459844Y-27595998D01*
X38459850Y-27595987D01*
X38460975Y-27594566D01*
X38462010Y-27593832D01*
X38465034Y-27590809D01*
X38465550Y-27591325D01*
X38518912Y-27553531D01*
X38589836Y-27550333D01*
X38651231Y-27585987D01*
X38658653Y-27594551D01*
X38659552Y-27595688D01*
X38783807Y-27719943D01*
X38783813Y-27719948D01*
X38933387Y-27812206D01*
X39100191Y-27867480D01*
X39100203Y-27867482D01*
X39203144Y-27877999D01*
X39242999Y-27877999D01*
X39243000Y-27877998D01*
X39243000Y-26542000D01*
X39263002Y-26473879D01*
X39316658Y-26427386D01*
X39369000Y-26416000D01*
X39625000Y-26416000D01*
X39693121Y-26436002D01*
X39739614Y-26489658D01*
X39751000Y-26542000D01*
X39751000Y-27877999D01*
X39790847Y-27877999D01*
X39893802Y-27867482D01*
X40060612Y-27812206D01*
X40210186Y-27719948D01*
X40210192Y-27719943D01*
X40334443Y-27595692D01*
X40334448Y-27595686D01*
X40426704Y-27446115D01*
X40469943Y-27315629D01*
X40510357Y-27257257D01*
X40575913Y-27230001D01*
X40645799Y-27242514D01*
X40697825Y-27290824D01*
X40704934Y-27304644D01*
X40711140Y-27318791D01*
X40834275Y-27507265D01*
X40834279Y-27507270D01*
X40920367Y-27600785D01*
X40986037Y-27672121D01*
X40986762Y-27672908D01*
X41032022Y-27708135D01*
X41164424Y-27811189D01*
X41362426Y-27918342D01*
X41362427Y-27918342D01*
X41362428Y-27918343D01*
X41436597Y-27943805D01*
X41575365Y-27991444D01*
X41797431Y-28028500D01*
X41797435Y-28028500D01*
X42022565Y-28028500D01*
X42022569Y-28028500D01*
X42244635Y-27991444D01*
X42457574Y-27918342D01*
X42655576Y-27811189D01*
X42833240Y-27672906D01*
X42985722Y-27507268D01*
X43074518Y-27371354D01*
X43128520Y-27325268D01*
X43198868Y-27315692D01*
X43263225Y-27345669D01*
X43285480Y-27371353D01*
X43299652Y-27393044D01*
X43374275Y-27507265D01*
X43374278Y-27507268D01*
X43443065Y-27581990D01*
X43515446Y-27660616D01*
X43546867Y-27724281D01*
X43538880Y-27794827D01*
X43523614Y-27821461D01*
X43499114Y-27854189D01*
X43499110Y-27854197D01*
X43448011Y-27991195D01*
X43448009Y-27991203D01*
X43441500Y-28051750D01*
X43441500Y-29149049D01*
X43448009Y-29209596D01*
X43448011Y-29209604D01*
X43499110Y-29346602D01*
X43499112Y-29346607D01*
X43586738Y-29463661D01*
X43703792Y-29551287D01*
X43703794Y-29551288D01*
X43703796Y-29551289D01*
X43715762Y-29555752D01*
X43840795Y-29602388D01*
X43840803Y-29602390D01*
X43901350Y-29608899D01*
X43901355Y-29608899D01*
X43901362Y-29608900D01*
X44826500Y-29608900D01*
X44894621Y-29628902D01*
X44941114Y-29682558D01*
X44952500Y-29734900D01*
X44952500Y-29840500D01*
X44932498Y-29908621D01*
X44878842Y-29955114D01*
X44826500Y-29966500D01*
X44065992Y-29966500D01*
X43972104Y-29976595D01*
X43956843Y-29978236D01*
X43956841Y-29978236D01*
X43956835Y-29978237D01*
X43905332Y-29989441D01*
X43801174Y-30024109D01*
X43756251Y-30052980D01*
X43688130Y-30072982D01*
X43635787Y-30061595D01*
X43604254Y-30047194D01*
X43516215Y-30006986D01*
X43449179Y-29987302D01*
X43449175Y-29987301D01*
X43449172Y-29987300D01*
X43449170Y-29987300D01*
X43304500Y-29966500D01*
X39748000Y-29966500D01*
X39747992Y-29966500D01*
X39654104Y-29976595D01*
X39638843Y-29978236D01*
X39638841Y-29978236D01*
X39638835Y-29978237D01*
X39587332Y-29989441D01*
X39483174Y-30024109D01*
X39360215Y-30103130D01*
X39360213Y-30103131D01*
X39307417Y-30148880D01*
X39211704Y-30259337D01*
X39211703Y-30259338D01*
X39150986Y-30392284D01*
X39131302Y-30459320D01*
X39131301Y-30459324D01*
X39131301Y-30459326D01*
X39131300Y-30459330D01*
X39111467Y-30597278D01*
X39110500Y-30604003D01*
X39110500Y-33150007D01*
X39116855Y-33209110D01*
X39120942Y-33247126D01*
X39122237Y-33259164D01*
X39133441Y-33310667D01*
X39168109Y-33414825D01*
X39168110Y-33414827D01*
X39180579Y-33434229D01*
X39247130Y-33537784D01*
X39247131Y-33537786D01*
X39292880Y-33590582D01*
X39292882Y-33590583D01*
X39292884Y-33590586D01*
X39403339Y-33686297D01*
X39448242Y-33706804D01*
X39536284Y-33747013D01*
X39536286Y-33747013D01*
X39536287Y-33747014D01*
X39603326Y-33766699D01*
X39603330Y-33766700D01*
X39748000Y-33787500D01*
X39748004Y-33787500D01*
X40876368Y-33787500D01*
X40876372Y-33787500D01*
X40944616Y-33782945D01*
X40977281Y-33778565D01*
X41044313Y-33764981D01*
X41178393Y-33706804D01*
X41237877Y-33670155D01*
X41237880Y-33670153D01*
X41260023Y-33651690D01*
X41308623Y-33611171D01*
X41315217Y-33606037D01*
X41353925Y-33577915D01*
X41377420Y-33560844D01*
X41444285Y-33536984D01*
X41513437Y-33553062D01*
X41526696Y-33564700D01*
X41785558Y-33564700D01*
X41849696Y-33582246D01*
X41926799Y-33627845D01*
X42086569Y-33674262D01*
X42123888Y-33677199D01*
X42123889Y-33677200D01*
X42123898Y-33677200D01*
X42830900Y-33677200D01*
X42899021Y-33697202D01*
X42945514Y-33750858D01*
X42956900Y-33803200D01*
X42956900Y-33834200D01*
X42936898Y-33902321D01*
X42883242Y-33948814D01*
X42830900Y-33960200D01*
X42123889Y-33960200D01*
X42086571Y-33963137D01*
X42086570Y-33963137D01*
X41926796Y-34009556D01*
X41883003Y-34035456D01*
X41849696Y-34055153D01*
X41785558Y-34072700D01*
X41535407Y-34072700D01*
X41581720Y-34232105D01*
X41584867Y-34239378D01*
X41582773Y-34240284D01*
X41597384Y-34297899D01*
X41582915Y-34347173D01*
X41584405Y-34347818D01*
X41581257Y-34355092D01*
X41534837Y-34514870D01*
X41534837Y-34514871D01*
X41531900Y-34552188D01*
X41531900Y-34985211D01*
X41534837Y-35022528D01*
X41534837Y-35022529D01*
X41581256Y-35182305D01*
X41665944Y-35325503D01*
X41665945Y-35325505D01*
X41665946Y-35325506D01*
X41665947Y-35325507D01*
X41692795Y-35352355D01*
X41726820Y-35414665D01*
X41729700Y-35441450D01*
X41729700Y-35472062D01*
X41709698Y-35540183D01*
X41692795Y-35561157D01*
X41666898Y-35587053D01*
X41666892Y-35587060D01*
X41584132Y-35726999D01*
X41538770Y-35883134D01*
X41538770Y-35883135D01*
X41535900Y-35919601D01*
X41535900Y-36419587D01*
X41538770Y-36456064D01*
X41584132Y-36612200D01*
X41666892Y-36752139D01*
X41666893Y-36752139D01*
X41666894Y-36752141D01*
X41692795Y-36778042D01*
X41726820Y-36840352D01*
X41729700Y-36867137D01*
X41729700Y-36904975D01*
X41729699Y-36904975D01*
X41751094Y-36984820D01*
X41769547Y-37053686D01*
X41818154Y-37137876D01*
X41826965Y-37153136D01*
X41826965Y-37153137D01*
X41846521Y-37187010D01*
X41846523Y-37187013D01*
X41846524Y-37187014D01*
X41880595Y-37221085D01*
X41914620Y-37283395D01*
X41917500Y-37310180D01*
X41917500Y-38394649D01*
X41924009Y-38455196D01*
X41924011Y-38455204D01*
X41975110Y-38592202D01*
X41975112Y-38592207D01*
X42062738Y-38709261D01*
X42179792Y-38796887D01*
X42179794Y-38796888D01*
X42179796Y-38796889D01*
X42238875Y-38818924D01*
X42316795Y-38847988D01*
X42316803Y-38847990D01*
X42377350Y-38854499D01*
X42377355Y-38854499D01*
X42377362Y-38854500D01*
X42377368Y-38854500D01*
X43474632Y-38854500D01*
X43474638Y-38854500D01*
X43474645Y-38854499D01*
X43474649Y-38854499D01*
X43535196Y-38847990D01*
X43535199Y-38847989D01*
X43535201Y-38847989D01*
X43672204Y-38796889D01*
X43729257Y-38754180D01*
X43789261Y-38709261D01*
X43876887Y-38592207D01*
X43876887Y-38592206D01*
X43876889Y-38592204D01*
X43927989Y-38455201D01*
X43928321Y-38452118D01*
X43934499Y-38394649D01*
X43934500Y-38394632D01*
X43934500Y-37297367D01*
X43934499Y-37297350D01*
X43927990Y-37236803D01*
X43927989Y-37236801D01*
X43927989Y-37236799D01*
X43889087Y-37132502D01*
X43884022Y-37061688D01*
X43918047Y-36999375D01*
X43980359Y-36965350D01*
X44051174Y-36970414D01*
X44071282Y-36980017D01*
X44106199Y-37000667D01*
X44106202Y-37000667D01*
X44106204Y-37000669D01*
X44262334Y-37046029D01*
X44298811Y-37048900D01*
X44698788Y-37048899D01*
X44735266Y-37046029D01*
X44891396Y-37000669D01*
X44891400Y-37000667D01*
X44918185Y-36984826D01*
X44945150Y-36968878D01*
X45013965Y-36951418D01*
X45073430Y-36968878D01*
X45126405Y-37000208D01*
X45264799Y-37040414D01*
X45264800Y-37040414D01*
X45772800Y-37040414D01*
X45911196Y-37000207D01*
X46051028Y-36917510D01*
X46051035Y-36917505D01*
X46165905Y-36802635D01*
X46165910Y-36802628D01*
X46248605Y-36662799D01*
X46293930Y-36506792D01*
X46293930Y-36506789D01*
X46296480Y-36474400D01*
X45772800Y-36474400D01*
X45772800Y-37040414D01*
X45264800Y-37040414D01*
X45264800Y-36557941D01*
X45269802Y-36522790D01*
X45274429Y-36506866D01*
X45277300Y-36470389D01*
X45277299Y-36092399D01*
X45297301Y-36024280D01*
X45350956Y-35977787D01*
X45403299Y-35966400D01*
X46296480Y-35966400D01*
X46293930Y-35934010D01*
X46293930Y-35934007D01*
X46248605Y-35778000D01*
X46165910Y-35638171D01*
X46165905Y-35638164D01*
X46096236Y-35568495D01*
X46062210Y-35506183D01*
X46067275Y-35435368D01*
X46109822Y-35378532D01*
X46176342Y-35353721D01*
X46185331Y-35353400D01*
X50144275Y-35353400D01*
X50144277Y-35353400D01*
X50292986Y-35313553D01*
X50426314Y-35236576D01*
X50535176Y-35127714D01*
X51775876Y-33887014D01*
X51852854Y-33753685D01*
X51892700Y-33604977D01*
X51892700Y-33451023D01*
X51892700Y-32051222D01*
X51912702Y-31983101D01*
X51966358Y-31936608D01*
X52036632Y-31926504D01*
X52058326Y-31931615D01*
X52199174Y-31978287D01*
X52303055Y-31988900D01*
X53704144Y-31988899D01*
X53808026Y-31978287D01*
X53976338Y-31922515D01*
X54052954Y-31875257D01*
X54121432Y-31856520D01*
X54189171Y-31877779D01*
X54234663Y-31932286D01*
X54245100Y-31982498D01*
X54245100Y-32396911D01*
X54248037Y-32434228D01*
X54248037Y-32434229D01*
X54294456Y-32594003D01*
X54307620Y-32616263D01*
X54325078Y-32685079D01*
X54307620Y-32744537D01*
X54294456Y-32766796D01*
X54248037Y-32926570D01*
X54248037Y-32926571D01*
X54245100Y-32963888D01*
X54245100Y-33396911D01*
X54248037Y-33434228D01*
X54248037Y-33434229D01*
X54269025Y-33506470D01*
X54294316Y-33593524D01*
X54294456Y-33594003D01*
X54307620Y-33616263D01*
X54325078Y-33685079D01*
X54307620Y-33744537D01*
X54294456Y-33766796D01*
X54294455Y-33766798D01*
X54294455Y-33766799D01*
X54289764Y-33782945D01*
X54248037Y-33926570D01*
X54248037Y-33926571D01*
X54245100Y-33963888D01*
X54245100Y-34396911D01*
X54248037Y-34434228D01*
X54248038Y-34434232D01*
X54294453Y-34593998D01*
X54294453Y-34593999D01*
X54307910Y-34616753D01*
X54325369Y-34685570D01*
X54307912Y-34745025D01*
X54294920Y-34766994D01*
X54294919Y-34766995D01*
X54248607Y-34926400D01*
X54583529Y-34926400D01*
X54633565Y-34936761D01*
X54639995Y-34939543D01*
X54639996Y-34939543D01*
X54639999Y-34939545D01*
X54799769Y-34985962D01*
X54837088Y-34988899D01*
X54837089Y-34988900D01*
X55656600Y-34988900D01*
X55724721Y-35008902D01*
X55771214Y-35062558D01*
X55782600Y-35114900D01*
X55782600Y-35988399D01*
X56220056Y-35988399D01*
X56257348Y-35985465D01*
X56414546Y-35939794D01*
X56485543Y-35939996D01*
X56545159Y-35978550D01*
X56574468Y-36043215D01*
X56575700Y-36060791D01*
X56575700Y-37749071D01*
X56555698Y-37817192D01*
X56502042Y-37863685D01*
X56431768Y-37873789D01*
X56385563Y-37857526D01*
X56373398Y-37850332D01*
X56373397Y-37850331D01*
X56373396Y-37850331D01*
X56295331Y-37827651D01*
X56217264Y-37804970D01*
X56180798Y-37802100D01*
X55680812Y-37802100D01*
X55644335Y-37804970D01*
X55488199Y-37850332D01*
X55348260Y-37933092D01*
X55348253Y-37933098D01*
X55322357Y-37958995D01*
X55260045Y-37993021D01*
X55233262Y-37995900D01*
X55001623Y-37995900D01*
X54902483Y-38022464D01*
X54852913Y-38035747D01*
X54790669Y-38071684D01*
X54719587Y-38112723D01*
X54719581Y-38112727D01*
X54627295Y-38205014D01*
X54407712Y-38424596D01*
X54345402Y-38458620D01*
X54318619Y-38461500D01*
X53790550Y-38461500D01*
X53730003Y-38468009D01*
X53729995Y-38468011D01*
X53592997Y-38519110D01*
X53592992Y-38519112D01*
X53475936Y-38606740D01*
X53474564Y-38608574D01*
X53472730Y-38609946D01*
X53469566Y-38613111D01*
X53469110Y-38612655D01*
X53417726Y-38651118D01*
X53346910Y-38656179D01*
X53284600Y-38622151D01*
X53250578Y-38559837D01*
X53247700Y-38533060D01*
X53247700Y-37971367D01*
X53247699Y-37971350D01*
X53241190Y-37910803D01*
X53241188Y-37910795D01*
X53186940Y-37765353D01*
X53188605Y-37764731D01*
X53175810Y-37705908D01*
X53200622Y-37639388D01*
X53257458Y-37596843D01*
X53301489Y-37588899D01*
X53704144Y-37588899D01*
X53808026Y-37578287D01*
X53976338Y-37522515D01*
X54127252Y-37429430D01*
X54252630Y-37304052D01*
X54345715Y-37153138D01*
X54401487Y-36984826D01*
X54412100Y-36880945D01*
X54412099Y-36079856D01*
X54407494Y-36034780D01*
X54420470Y-35964981D01*
X54469122Y-35913276D01*
X54538005Y-35896082D01*
X54596982Y-35913523D01*
X54640197Y-35939080D01*
X54799851Y-35985465D01*
X54799849Y-35985465D01*
X54837143Y-35988399D01*
X55274600Y-35988399D01*
X55274600Y-35434400D01*
X54248606Y-35434400D01*
X54229473Y-35459883D01*
X54172577Y-35502349D01*
X54101754Y-35507312D01*
X54062567Y-35491471D01*
X53976339Y-35438285D01*
X53808027Y-35382513D01*
X53808020Y-35382512D01*
X53704153Y-35371900D01*
X52303055Y-35371900D01*
X52199174Y-35382512D01*
X52030861Y-35438285D01*
X51879947Y-35531370D01*
X51879941Y-35531375D01*
X51754575Y-35656741D01*
X51754570Y-35656747D01*
X51661485Y-35807662D01*
X51605713Y-35975972D01*
X51605712Y-35975979D01*
X51595100Y-36079846D01*
X51595100Y-36880944D01*
X51605712Y-36984825D01*
X51638193Y-37082845D01*
X51661485Y-37153138D01*
X51735989Y-37273927D01*
X51754570Y-37304052D01*
X51754575Y-37304058D01*
X51765094Y-37314577D01*
X51799120Y-37376889D01*
X51794055Y-37447704D01*
X51751508Y-37504540D01*
X51720033Y-37521727D01*
X51592995Y-37569111D01*
X51592992Y-37569112D01*
X51475938Y-37656738D01*
X51382910Y-37781010D01*
X51380804Y-37779434D01*
X51340363Y-37819883D01*
X51279968Y-37835300D01*
X50908792Y-37835300D01*
X50873639Y-37830297D01*
X50786465Y-37804970D01*
X50749998Y-37802100D01*
X50250012Y-37802100D01*
X50213535Y-37804970D01*
X50057399Y-37850332D01*
X49917460Y-37933092D01*
X49917453Y-37933098D01*
X49802498Y-38048053D01*
X49802492Y-38048060D01*
X49719731Y-38188000D01*
X49719731Y-38188001D01*
X49702086Y-38248735D01*
X49663873Y-38308570D01*
X49599376Y-38338246D01*
X49529074Y-38328342D01*
X49505581Y-38314448D01*
X49473607Y-38290512D01*
X49473602Y-38290510D01*
X49336604Y-38239411D01*
X49336596Y-38239409D01*
X49276049Y-38232900D01*
X49276038Y-38232900D01*
X48356658Y-38232900D01*
X48288537Y-38212898D01*
X48247539Y-38169899D01*
X48234196Y-38146788D01*
X48234194Y-38146786D01*
X48219876Y-38121985D01*
X47821414Y-37723524D01*
X47821410Y-37723522D01*
X47821408Y-37723520D01*
X47798695Y-37710406D01*
X47798695Y-37710407D01*
X47763003Y-37689800D01*
X47714009Y-37638417D01*
X47707952Y-37624727D01*
X47678289Y-37545196D01*
X47678286Y-37545192D01*
X47678286Y-37545191D01*
X47590661Y-37428138D01*
X47473607Y-37340512D01*
X47473602Y-37340510D01*
X47336604Y-37289411D01*
X47336596Y-37289409D01*
X47276049Y-37282900D01*
X47276038Y-37282900D01*
X46278762Y-37282900D01*
X46278750Y-37282900D01*
X46218203Y-37289409D01*
X46218195Y-37289411D01*
X46081197Y-37340510D01*
X46081192Y-37340512D01*
X45964138Y-37428138D01*
X45876512Y-37545192D01*
X45876510Y-37545197D01*
X45825411Y-37682195D01*
X45825409Y-37682203D01*
X45818900Y-37742750D01*
X45818900Y-38640049D01*
X45825409Y-38700596D01*
X45825411Y-38700604D01*
X45876510Y-38837602D01*
X45876512Y-38837607D01*
X45964137Y-38954659D01*
X45964138Y-38954659D01*
X45964139Y-38954661D01*
X46011966Y-38990464D01*
X46079265Y-39040844D01*
X46121811Y-39097680D01*
X46126875Y-39168496D01*
X46092850Y-39230808D01*
X46079265Y-39242580D01*
X45964494Y-39328497D01*
X45876955Y-39445434D01*
X45876955Y-39445435D01*
X45825905Y-39582306D01*
X45819400Y-39642802D01*
X45819400Y-39970215D01*
X45799398Y-40038336D01*
X45745742Y-40084829D01*
X45675468Y-40094933D01*
X45660789Y-40091922D01*
X45624584Y-40082221D01*
X45549881Y-40062204D01*
X45549879Y-40062204D01*
X40745633Y-40062204D01*
X40677512Y-40042202D01*
X40631019Y-39988546D01*
X40620915Y-39918272D01*
X40636514Y-39873204D01*
X40656212Y-39839086D01*
X40712521Y-39741556D01*
X40771536Y-39559928D01*
X40791498Y-39370000D01*
X40771536Y-39180072D01*
X40712521Y-38998444D01*
X40617034Y-38833056D01*
X40617032Y-38833054D01*
X40617028Y-38833048D01*
X40489249Y-38691135D01*
X40334746Y-38578882D01*
X40160282Y-38501206D01*
X39973481Y-38461500D01*
X39782507Y-38461500D01*
X39595705Y-38501206D01*
X39421241Y-38578882D01*
X39266738Y-38691135D01*
X39138959Y-38833048D01*
X39138952Y-38833058D01*
X39048342Y-38990000D01*
X39043467Y-38998444D01*
X39038946Y-39012358D01*
X38984451Y-39180072D01*
X38964490Y-39370000D01*
X38984451Y-39559927D01*
X39000084Y-39608038D01*
X39043467Y-39741556D01*
X39055254Y-39761971D01*
X39119474Y-39873204D01*
X39136212Y-39942199D01*
X39112992Y-40009291D01*
X39057185Y-40053178D01*
X39010355Y-40062204D01*
X35397946Y-40062204D01*
X35329825Y-40042202D01*
X35308851Y-40025299D01*
X28558681Y-33275129D01*
X28558677Y-33275126D01*
X28558675Y-33275124D01*
X28510179Y-33247125D01*
X28488898Y-33234838D01*
X28439907Y-33183457D01*
X28426472Y-33113743D01*
X28427264Y-33108949D01*
X28434499Y-33041649D01*
X28434500Y-33041632D01*
X28434500Y-32244366D01*
X28434499Y-32244356D01*
X28432633Y-32227000D01*
X28430173Y-32204113D01*
X28430173Y-32177177D01*
X28433999Y-32141593D01*
X28434000Y-32141586D01*
X28434000Y-31697000D01*
X25918000Y-31697000D01*
X25918000Y-31787870D01*
X25897998Y-31855991D01*
X25867510Y-31888737D01*
X25856010Y-31897346D01*
X25789490Y-31922158D01*
X25720116Y-31907067D01*
X25669913Y-31856866D01*
X25654500Y-31796479D01*
X25654500Y-31641597D01*
X33518000Y-31641597D01*
X33524505Y-31702093D01*
X33575555Y-31838964D01*
X33575555Y-31838965D01*
X33663095Y-31955904D01*
X33780034Y-32043444D01*
X33916906Y-32094494D01*
X33977402Y-32100999D01*
X33977415Y-32101000D01*
X34522000Y-32101000D01*
X34522000Y-31447000D01*
X33518000Y-31447000D01*
X33518000Y-31641597D01*
X25654500Y-31641597D01*
X25654500Y-30744402D01*
X25918000Y-30744402D01*
X25918000Y-31189000D01*
X26922000Y-31189000D01*
X27430000Y-31189000D01*
X28434000Y-31189000D01*
X28434000Y-30744414D01*
X28433999Y-30744402D01*
X33518000Y-30744402D01*
X33518000Y-30939000D01*
X34522000Y-30939000D01*
X34522000Y-30285000D01*
X35030000Y-30285000D01*
X35030000Y-32101000D01*
X35142000Y-32101000D01*
X35210121Y-32121002D01*
X35256614Y-32174658D01*
X35268000Y-32227000D01*
X35268000Y-32291597D01*
X35274505Y-32352093D01*
X35325555Y-32488964D01*
X35325555Y-32488965D01*
X35413095Y-32605904D01*
X35530034Y-32693444D01*
X35666906Y-32744494D01*
X35727402Y-32750999D01*
X35727415Y-32751000D01*
X36022000Y-32751000D01*
X36530000Y-32751000D01*
X36824585Y-32751000D01*
X36824597Y-32750999D01*
X36885093Y-32744494D01*
X37021964Y-32693444D01*
X37021965Y-32693444D01*
X37138904Y-32605904D01*
X37226444Y-32488965D01*
X37226444Y-32488964D01*
X37277494Y-32352093D01*
X37283999Y-32291597D01*
X37284000Y-32291585D01*
X37284000Y-31772000D01*
X36530000Y-31772000D01*
X36530000Y-32751000D01*
X36022000Y-32751000D01*
X36022000Y-31390000D01*
X36042002Y-31321879D01*
X36095658Y-31275386D01*
X36148000Y-31264000D01*
X37284000Y-31264000D01*
X37284000Y-30744414D01*
X37283999Y-30744402D01*
X37277494Y-30683906D01*
X37226444Y-30547035D01*
X37226444Y-30547034D01*
X37133504Y-30422882D01*
X37135507Y-30421381D01*
X37107878Y-30370783D01*
X37112943Y-30299968D01*
X37155490Y-30243132D01*
X37222010Y-30218321D01*
X37230999Y-30218000D01*
X37378585Y-30218000D01*
X37378597Y-30217999D01*
X37439093Y-30211494D01*
X37575964Y-30160444D01*
X37575965Y-30160444D01*
X37692904Y-30072904D01*
X37780444Y-29955965D01*
X37780444Y-29955964D01*
X37831494Y-29819093D01*
X37837999Y-29758597D01*
X37838000Y-29758585D01*
X37838000Y-29464000D01*
X35822000Y-29464000D01*
X35822000Y-29758597D01*
X35828505Y-29819093D01*
X35879555Y-29955964D01*
X35879555Y-29955965D01*
X35972496Y-30080118D01*
X35970492Y-30081618D01*
X35998122Y-30132217D01*
X35993057Y-30203032D01*
X35950510Y-30259868D01*
X35883990Y-30284679D01*
X35875001Y-30285000D01*
X35727397Y-30285000D01*
X35664468Y-30291766D01*
X35637532Y-30291766D01*
X35574602Y-30285000D01*
X35030000Y-30285000D01*
X34522000Y-30285000D01*
X33977402Y-30285000D01*
X33916906Y-30291505D01*
X33780035Y-30342555D01*
X33780034Y-30342555D01*
X33663095Y-30430095D01*
X33575555Y-30547034D01*
X33575555Y-30547035D01*
X33524505Y-30683906D01*
X33518000Y-30744402D01*
X28433999Y-30744402D01*
X28427494Y-30683906D01*
X28376444Y-30547035D01*
X28376444Y-30547034D01*
X28288904Y-30430095D01*
X28171965Y-30342555D01*
X28035093Y-30291505D01*
X27974597Y-30285000D01*
X27430000Y-30285000D01*
X27430000Y-31189000D01*
X26922000Y-31189000D01*
X26922000Y-30285000D01*
X26377402Y-30285000D01*
X26316906Y-30291505D01*
X26180035Y-30342555D01*
X26180034Y-30342555D01*
X26063095Y-30430095D01*
X25975555Y-30547034D01*
X25975555Y-30547035D01*
X25924505Y-30683906D01*
X25918000Y-30744402D01*
X25654500Y-30744402D01*
X25654500Y-27943805D01*
X25654730Y-27936198D01*
X25656151Y-27912699D01*
X25662119Y-27814038D01*
X26339500Y-27814038D01*
X26339500Y-28065962D01*
X26375201Y-28291368D01*
X26378911Y-28314790D01*
X26450175Y-28534117D01*
X26456759Y-28554379D01*
X26571130Y-28778845D01*
X26719207Y-28982656D01*
X26719209Y-28982658D01*
X26719211Y-28982661D01*
X26897338Y-29160788D01*
X26897341Y-29160790D01*
X26897344Y-29160793D01*
X27101155Y-29308870D01*
X27325621Y-29423241D01*
X27565215Y-29501090D01*
X27814038Y-29540500D01*
X27814041Y-29540500D01*
X28065959Y-29540500D01*
X28065962Y-29540500D01*
X28314785Y-29501090D01*
X28554379Y-29423241D01*
X28778845Y-29308870D01*
X28982656Y-29160793D01*
X29160793Y-28982656D01*
X29308870Y-28778845D01*
X29423241Y-28554379D01*
X29501090Y-28314785D01*
X29540500Y-28065962D01*
X29540500Y-27814038D01*
X29501090Y-27565215D01*
X29423241Y-27325621D01*
X29308870Y-27101155D01*
X29160793Y-26897344D01*
X29160790Y-26897341D01*
X29160788Y-26897338D01*
X28982661Y-26719211D01*
X28982658Y-26719209D01*
X28982656Y-26719207D01*
X28778845Y-26571130D01*
X28554379Y-26456759D01*
X28554376Y-26456758D01*
X28554374Y-26456757D01*
X28314790Y-26378911D01*
X28314786Y-26378910D01*
X28314785Y-26378910D01*
X28065962Y-26339500D01*
X27814038Y-26339500D01*
X27565215Y-26378910D01*
X27565209Y-26378911D01*
X27325625Y-26456757D01*
X27325619Y-26456760D01*
X27101151Y-26571132D01*
X26897341Y-26719209D01*
X26897338Y-26719211D01*
X26719211Y-26897338D01*
X26719209Y-26897341D01*
X26571132Y-27101151D01*
X26456760Y-27325619D01*
X26456757Y-27325625D01*
X26378911Y-27565209D01*
X26378910Y-27565214D01*
X26378910Y-27565215D01*
X26339500Y-27814038D01*
X25662119Y-27814038D01*
X25670704Y-27672107D01*
X25672535Y-27657029D01*
X25719540Y-27400526D01*
X25723173Y-27385787D01*
X25800758Y-27136809D01*
X25806145Y-27122607D01*
X25913165Y-26884817D01*
X25920223Y-26871367D01*
X26055136Y-26648195D01*
X26063759Y-26635702D01*
X26224590Y-26430417D01*
X26234664Y-26419047D01*
X26419047Y-26234664D01*
X26430417Y-26224590D01*
X26635702Y-26063759D01*
X26648195Y-26055136D01*
X26871367Y-25920223D01*
X26884817Y-25913165D01*
X27122607Y-25806145D01*
X27136809Y-25800758D01*
X27385787Y-25723173D01*
X27400526Y-25719540D01*
X27657029Y-25672535D01*
X27672107Y-25670704D01*
X27912026Y-25656192D01*
X27936199Y-25654730D01*
X27943806Y-25654500D01*
X27984875Y-25654500D01*
X31775734Y-25654500D01*
X31843855Y-25674502D01*
G37*
G04 #@! TD.AperFunction*
G04 #@! TA.AperFunction,Conductor*
G36*
X66579212Y-34894556D02*
G01*
X66585795Y-34900685D01*
X66629647Y-34944537D01*
X66738509Y-35053399D01*
X66738510Y-35053400D01*
X66738512Y-35053401D01*
X66779141Y-35076858D01*
X66820117Y-35117831D01*
X66821087Y-35117127D01*
X66824971Y-35122474D01*
X66952750Y-35264387D01*
X66952753Y-35264389D01*
X67107254Y-35376641D01*
X67281718Y-35454317D01*
X67387497Y-35476801D01*
X67449970Y-35510530D01*
X67484292Y-35572679D01*
X67487300Y-35600048D01*
X67487300Y-36398975D01*
X67487299Y-36398975D01*
X67527147Y-36547686D01*
X67604121Y-36681010D01*
X67604129Y-36681020D01*
X68042695Y-37119586D01*
X68076721Y-37181898D01*
X68078385Y-37197386D01*
X68079599Y-37198600D01*
X68132402Y-37198600D01*
X68186145Y-37213000D01*
X68186687Y-37211694D01*
X68194308Y-37214851D01*
X68194312Y-37214852D01*
X68194314Y-37214853D01*
X68343023Y-37254700D01*
X68343025Y-37254700D01*
X70594975Y-37254700D01*
X70594977Y-37254700D01*
X70743686Y-37214853D01*
X70877014Y-37137876D01*
X70985876Y-37029014D01*
X71045401Y-36969489D01*
X71045403Y-36969486D01*
X71327687Y-36687204D01*
X71389999Y-36653179D01*
X71416782Y-36650300D01*
X71451575Y-36650300D01*
X71519696Y-36670302D01*
X71566189Y-36723958D01*
X71576853Y-36762832D01*
X71581766Y-36808532D01*
X71581766Y-36835468D01*
X71575000Y-36898397D01*
X71575000Y-37245597D01*
X71581505Y-37306093D01*
X71625878Y-37425062D01*
X71630942Y-37495877D01*
X71596918Y-37558189D01*
X71422715Y-37732395D01*
X71360403Y-37766420D01*
X71333619Y-37769300D01*
X70160491Y-37769300D01*
X70092370Y-37749298D01*
X70071396Y-37732395D01*
X70045601Y-37706600D01*
X68079599Y-37706600D01*
X68053804Y-37732395D01*
X67991492Y-37766421D01*
X67964709Y-37769300D01*
X67096380Y-37769300D01*
X67028259Y-37749298D01*
X67007285Y-37732395D01*
X66407605Y-37132715D01*
X66373579Y-37070403D01*
X66370700Y-37043620D01*
X66370700Y-34989780D01*
X66390702Y-34921659D01*
X66444358Y-34875166D01*
X66514632Y-34865062D01*
X66579212Y-34894556D01*
G37*
G04 #@! TD.AperFunction*
G04 #@! TA.AperFunction,Conductor*
G36*
X58404432Y-34598423D02*
G01*
X58449495Y-34627383D01*
X58831896Y-35009784D01*
X58865920Y-35072095D01*
X58868800Y-35098878D01*
X58868800Y-35399018D01*
X58848798Y-35467139D01*
X58831895Y-35488113D01*
X58639905Y-35680103D01*
X58577593Y-35714129D01*
X58506778Y-35709064D01*
X58449942Y-35666517D01*
X58429105Y-35623623D01*
X58410052Y-35552515D01*
X58408420Y-35549689D01*
X58333077Y-35419189D01*
X58333069Y-35419179D01*
X58061405Y-35147515D01*
X58027379Y-35085203D01*
X58024500Y-35058420D01*
X58024500Y-34926380D01*
X58044502Y-34858259D01*
X58061399Y-34837290D01*
X58271308Y-34627381D01*
X58333616Y-34593359D01*
X58404432Y-34598423D01*
G37*
G04 #@! TD.AperFunction*
G04 #@! TA.AperFunction,Conductor*
G36*
X47882821Y-32344501D02*
G01*
X47929314Y-32398157D01*
X47940700Y-32450499D01*
X47940700Y-32761987D01*
X47943570Y-32798465D01*
X47948197Y-32814389D01*
X47953200Y-32849541D01*
X47953200Y-32936114D01*
X47936323Y-32999108D01*
X47933471Y-33004047D01*
X47933470Y-33004049D01*
X47874457Y-33185671D01*
X47854496Y-33375600D01*
X47874457Y-33565527D01*
X47894706Y-33627845D01*
X47933473Y-33747156D01*
X47933476Y-33747161D01*
X48028958Y-33912541D01*
X48028961Y-33912545D01*
X48084016Y-33973690D01*
X48114733Y-34037698D01*
X48105968Y-34108151D01*
X48060505Y-34162682D01*
X47992777Y-34183977D01*
X47990379Y-34184000D01*
X46867500Y-34184000D01*
X46799379Y-34163998D01*
X46752886Y-34110342D01*
X46741500Y-34058000D01*
X46741500Y-33029628D01*
X46761502Y-32961507D01*
X46815158Y-32915014D01*
X46885432Y-32904910D01*
X46950012Y-32934404D01*
X46975954Y-32965489D01*
X47052093Y-33094234D01*
X47166964Y-33209105D01*
X47166971Y-33209110D01*
X47306803Y-33291807D01*
X47445199Y-33332014D01*
X47445200Y-33332014D01*
X47445200Y-32470238D01*
X47465202Y-32402117D01*
X47486209Y-32377218D01*
X47507817Y-32357476D01*
X47571600Y-32326296D01*
X47592805Y-32324499D01*
X47814700Y-32324499D01*
X47882821Y-32344501D01*
G37*
G04 #@! TD.AperFunction*
G04 #@! TA.AperFunction,Conductor*
G36*
X63683421Y-30285602D02*
G01*
X63729914Y-30339258D01*
X63741300Y-30391600D01*
X63741300Y-31999591D01*
X63900700Y-31953281D01*
X63906267Y-31949989D01*
X63975082Y-31932527D01*
X64042415Y-31955041D01*
X64086886Y-32010384D01*
X64096410Y-32058440D01*
X64096410Y-32443092D01*
X64076408Y-32511213D01*
X64044471Y-32545028D01*
X63940544Y-32620535D01*
X63812765Y-32762448D01*
X63812758Y-32762458D01*
X63718008Y-32926571D01*
X63717273Y-32927844D01*
X63705558Y-32963898D01*
X63658257Y-33109472D01*
X63638296Y-33299400D01*
X63638296Y-33299402D01*
X63640251Y-33318009D01*
X63627477Y-33387847D01*
X63604041Y-33420267D01*
X63584519Y-33439791D01*
X63522209Y-33473819D01*
X63495419Y-33476700D01*
X62573523Y-33476700D01*
X62424814Y-33516547D01*
X62369210Y-33548650D01*
X62369209Y-33548649D01*
X62291488Y-33593521D01*
X62291478Y-33593529D01*
X61891208Y-33993800D01*
X61837269Y-34025701D01*
X61803697Y-34035455D01*
X61803695Y-34035456D01*
X61660497Y-34120143D01*
X61659525Y-34120898D01*
X61658623Y-34121252D01*
X61653669Y-34124182D01*
X61653196Y-34123382D01*
X61593439Y-34146844D01*
X61523817Y-34132942D01*
X61505075Y-34120898D01*
X61504102Y-34120143D01*
X61360905Y-34035456D01*
X61201129Y-33989037D01*
X61163811Y-33986100D01*
X61163802Y-33986100D01*
X60730798Y-33986100D01*
X60730789Y-33986100D01*
X60693471Y-33989037D01*
X60693470Y-33989037D01*
X60533694Y-34035456D01*
X60390497Y-34120143D01*
X60389525Y-34120898D01*
X60388623Y-34121252D01*
X60383669Y-34124182D01*
X60383196Y-34123382D01*
X60323439Y-34146844D01*
X60253817Y-34132942D01*
X60235075Y-34120898D01*
X60234102Y-34120143D01*
X60090905Y-34035456D01*
X59931129Y-33989037D01*
X59893811Y-33986100D01*
X59893802Y-33986100D01*
X59550700Y-33986100D01*
X59482579Y-33966098D01*
X59436086Y-33912442D01*
X59424700Y-33860100D01*
X59424700Y-33072004D01*
X59444702Y-33003883D01*
X59498358Y-32957390D01*
X59568632Y-32947286D01*
X59576898Y-32948758D01*
X59645309Y-32963300D01*
X59645313Y-32963300D01*
X59836287Y-32963300D01*
X60023088Y-32923594D01*
X60197552Y-32845918D01*
X60311302Y-32763272D01*
X60378165Y-32739417D01*
X60447316Y-32755496D01*
X60459421Y-32763276D01*
X60503243Y-32795115D01*
X60503245Y-32795116D01*
X60503248Y-32795118D01*
X60677712Y-32872794D01*
X60864513Y-32912500D01*
X61055487Y-32912500D01*
X61242288Y-32872794D01*
X61416752Y-32795118D01*
X61571253Y-32682866D01*
X61571255Y-32682864D01*
X61699034Y-32540951D01*
X61699035Y-32540949D01*
X61699040Y-32540944D01*
X61794527Y-32375556D01*
X61853542Y-32193928D01*
X61861812Y-32115242D01*
X61888825Y-32049586D01*
X61947046Y-32008956D01*
X61997017Y-32002802D01*
X62000798Y-32003100D01*
X62000803Y-32003100D01*
X62433811Y-32003100D01*
X62433811Y-32003099D01*
X62471131Y-32000162D01*
X62630901Y-31953745D01*
X62630903Y-31953743D01*
X62630905Y-31953743D01*
X62759352Y-31877779D01*
X62774107Y-31869053D01*
X62774115Y-31869044D01*
X62775476Y-31867990D01*
X62776754Y-31867487D01*
X62780931Y-31865018D01*
X62781329Y-31865691D01*
X62841559Y-31842037D01*
X62911183Y-31855932D01*
X62929939Y-31867985D01*
X62930800Y-31868652D01*
X63073900Y-31953281D01*
X63233300Y-31999591D01*
X63233300Y-30391600D01*
X63253302Y-30323479D01*
X63306958Y-30276986D01*
X63359300Y-30265600D01*
X63615300Y-30265600D01*
X63683421Y-30285602D01*
G37*
G04 #@! TD.AperFunction*
G04 #@! TA.AperFunction,Conductor*
G36*
X69490011Y-29677356D02*
G01*
X69496594Y-29683486D01*
X69775936Y-29962828D01*
X69809962Y-30025140D01*
X69804897Y-30095955D01*
X69776640Y-30140309D01*
X69711060Y-30206937D01*
X69642033Y-30335770D01*
X69621465Y-30392277D01*
X69611300Y-30423226D01*
X69611300Y-30423227D01*
X69590500Y-30567902D01*
X69590500Y-31256569D01*
X69570498Y-31324690D01*
X69516842Y-31371183D01*
X69451695Y-31381917D01*
X69399645Y-31376600D01*
X69307501Y-31376600D01*
X69239380Y-31356598D01*
X69192887Y-31302942D01*
X69182783Y-31232668D01*
X69199048Y-31186460D01*
X69233269Y-31128596D01*
X69278629Y-30972466D01*
X69281500Y-30935989D01*
X69281499Y-30536012D01*
X69278629Y-30499534D01*
X69233269Y-30343404D01*
X69201767Y-30290137D01*
X69184308Y-30221325D01*
X69201766Y-30161862D01*
X69233269Y-30108596D01*
X69278629Y-29952466D01*
X69281500Y-29915989D01*
X69281499Y-29772579D01*
X69301501Y-29704461D01*
X69355156Y-29657968D01*
X69425430Y-29647863D01*
X69490011Y-29677356D01*
G37*
G04 #@! TD.AperFunction*
G04 #@! TA.AperFunction,Conductor*
G36*
X71281885Y-30498164D02*
G01*
X71301164Y-30512957D01*
X71435664Y-30568669D01*
X71580000Y-30587671D01*
X71724336Y-30568669D01*
X71858836Y-30512957D01*
X71878115Y-30498164D01*
X71931625Y-30480000D01*
X72342433Y-30480000D01*
X72398934Y-30500565D01*
X72428998Y-30552636D01*
X72424829Y-30590691D01*
X72426194Y-30590963D01*
X72410000Y-30672377D01*
X72410000Y-30756999D01*
X72410001Y-30757000D01*
X73172100Y-30757000D01*
X73228601Y-30777565D01*
X73258665Y-30829636D01*
X73260000Y-30844900D01*
X73260000Y-31269100D01*
X73239435Y-31325601D01*
X73187364Y-31355665D01*
X73172100Y-31357000D01*
X72410001Y-31357000D01*
X72410000Y-31357001D01*
X72410000Y-31439591D01*
X72390000Y-31494539D01*
X72390000Y-33534574D01*
X72409666Y-33576748D01*
X72410000Y-33584409D01*
X72410000Y-33666999D01*
X72410001Y-33667000D01*
X73172100Y-33667000D01*
X73228601Y-33687565D01*
X73258665Y-33739636D01*
X73260000Y-33754900D01*
X73260000Y-34576999D01*
X73278155Y-34595154D01*
X73303566Y-34649648D01*
X73303900Y-34657309D01*
X73303900Y-34964100D01*
X73283335Y-35020601D01*
X73231264Y-35050665D01*
X73216000Y-35052000D01*
X72898000Y-35052000D01*
X72898000Y-35052001D01*
X72898000Y-35158945D01*
X72877435Y-35215446D01*
X72825364Y-35245510D01*
X72766150Y-35235069D01*
X72761266Y-35232032D01*
X72730544Y-35211505D01*
X72730542Y-35211504D01*
X72657622Y-35197000D01*
X72483001Y-35197000D01*
X72483000Y-35197001D01*
X72483000Y-35609100D01*
X72462435Y-35665601D01*
X72410364Y-35695665D01*
X72395100Y-35697000D01*
X71833001Y-35697000D01*
X71833000Y-35697001D01*
X71833000Y-35725942D01*
X71830365Y-35725942D01*
X71817801Y-35775529D01*
X71769023Y-35810686D01*
X71745116Y-35814000D01*
X70358000Y-35814000D01*
X70358000Y-35814001D01*
X70358000Y-36353000D01*
X70337435Y-36409501D01*
X70285364Y-36439565D01*
X70270100Y-36440900D01*
X69829310Y-36440900D01*
X69772809Y-36420335D01*
X69742745Y-36368264D01*
X69746952Y-36322282D01*
X69763618Y-36277600D01*
X68775500Y-36277600D01*
X68718999Y-36257035D01*
X68688935Y-36204964D01*
X68687600Y-36189700D01*
X68687600Y-35615500D01*
X68708165Y-35558999D01*
X68760236Y-35528935D01*
X68775500Y-35527600D01*
X69763617Y-35527600D01*
X69733786Y-35447618D01*
X69714891Y-35422377D01*
X71833000Y-35422377D01*
X71833000Y-35446999D01*
X71833001Y-35447000D01*
X72232999Y-35447000D01*
X72233000Y-35446999D01*
X72233000Y-35197001D01*
X72232999Y-35197000D01*
X72058378Y-35197000D01*
X71985457Y-35211504D01*
X71985454Y-35211505D01*
X71902761Y-35266759D01*
X71902759Y-35266761D01*
X71847505Y-35349454D01*
X71847504Y-35349457D01*
X71833000Y-35422377D01*
X69714891Y-35422377D01*
X69651929Y-35338270D01*
X69542582Y-35256414D01*
X69451004Y-35222258D01*
X69405252Y-35183245D01*
X69395281Y-35123950D01*
X69425757Y-35072119D01*
X69481722Y-35052000D01*
X69595999Y-35052000D01*
X69596000Y-35052000D01*
X69596000Y-34267001D01*
X72410000Y-34267001D01*
X72410000Y-34351622D01*
X72424504Y-34424542D01*
X72424505Y-34424545D01*
X72479759Y-34507238D01*
X72479761Y-34507240D01*
X72562454Y-34562494D01*
X72562457Y-34562495D01*
X72635378Y-34577000D01*
X72659999Y-34577000D01*
X72660000Y-34576999D01*
X72660000Y-34267001D01*
X72659999Y-34267000D01*
X72410001Y-34267000D01*
X72410000Y-34267001D01*
X69596000Y-34267001D01*
X69596000Y-34036000D01*
X69596000Y-33999591D01*
X69597461Y-33999591D01*
X69604681Y-33960736D01*
X69635546Y-33897600D01*
X68540453Y-33897600D01*
X68546268Y-33909495D01*
X68552607Y-33969287D01*
X68519030Y-34019166D01*
X68467299Y-34036000D01*
X67631658Y-34036000D01*
X67620185Y-34035248D01*
X67564006Y-34027852D01*
X67507827Y-34035248D01*
X67496354Y-34036000D01*
X66908407Y-34036000D01*
X66851906Y-34015435D01*
X66846252Y-34010255D01*
X66827745Y-33991748D01*
X66802334Y-33937254D01*
X66802000Y-33929593D01*
X66802000Y-33342800D01*
X67067253Y-33342800D01*
X67112133Y-33434605D01*
X67202994Y-33525466D01*
X67318427Y-33581897D01*
X67318426Y-33581897D01*
X67344799Y-33585739D01*
X67344800Y-33585738D01*
X67344800Y-33342801D01*
X67344799Y-33342800D01*
X67067253Y-33342800D01*
X66802000Y-33342800D01*
X66802000Y-33001849D01*
X66808691Y-32968211D01*
X66816677Y-32948931D01*
X66832669Y-32910324D01*
X66851671Y-32765988D01*
X66835591Y-32643850D01*
X66831917Y-32615939D01*
X66833544Y-32615724D01*
X66838172Y-32562761D01*
X66880684Y-32520240D01*
X66917841Y-32512000D01*
X67098918Y-32512000D01*
X67155419Y-32532565D01*
X67185483Y-32584636D01*
X67175042Y-32643850D01*
X67161073Y-32662055D01*
X67112133Y-32710994D01*
X67067253Y-32802800D01*
X67796900Y-32802800D01*
X67853401Y-32823365D01*
X67883465Y-32875436D01*
X67884800Y-32890700D01*
X67884800Y-33585739D01*
X67911172Y-33581897D01*
X68026605Y-33525466D01*
X68117466Y-33434605D01*
X68173897Y-33319173D01*
X68175911Y-33312655D01*
X68177587Y-33313172D01*
X68202211Y-33267406D01*
X68258070Y-33245156D01*
X68315162Y-33264016D01*
X68322862Y-33270861D01*
X68326000Y-33273999D01*
X68326000Y-33274000D01*
X68326001Y-33274000D01*
X68440510Y-33274000D01*
X68497011Y-33294565D01*
X68510882Y-33318590D01*
X68514639Y-33316246D01*
X68540454Y-33357600D01*
X69635546Y-33357600D01*
X69661361Y-33316246D01*
X69665086Y-33318571D01*
X69683763Y-33290832D01*
X69735490Y-33274000D01*
X70103999Y-33274000D01*
X70104000Y-33274000D01*
X70104000Y-33113814D01*
X70124565Y-33057313D01*
X70176636Y-33027249D01*
X70222618Y-33031456D01*
X70300800Y-33060616D01*
X70300800Y-32734601D01*
X71050800Y-32734601D01*
X71050800Y-33060616D01*
X71130780Y-33030786D01*
X71130782Y-33030785D01*
X71240127Y-32948931D01*
X71240128Y-32948930D01*
X71321985Y-32839582D01*
X71361142Y-32734600D01*
X71050801Y-32734600D01*
X71050800Y-32734601D01*
X70300800Y-32734601D01*
X70300800Y-31984599D01*
X71050800Y-31984599D01*
X71050801Y-31984600D01*
X71361141Y-31984600D01*
X71321985Y-31879617D01*
X71240129Y-31770270D01*
X71130781Y-31688413D01*
X71050800Y-31658582D01*
X71050800Y-31984599D01*
X70300800Y-31984599D01*
X70300800Y-31658582D01*
X70300799Y-31658581D01*
X70222618Y-31687742D01*
X70162492Y-31688219D01*
X70116127Y-31649936D01*
X70104000Y-31605384D01*
X70104000Y-30567900D01*
X70124565Y-30511399D01*
X70176636Y-30481335D01*
X70191900Y-30480000D01*
X71228375Y-30480000D01*
X71281885Y-30498164D01*
G37*
G04 #@! TD.AperFunction*
G04 #@! TA.AperFunction,Conductor*
G36*
X46171039Y-30499685D02*
G01*
X46216794Y-30552489D01*
X46228000Y-30604000D01*
X46228000Y-34060000D01*
X46208315Y-34127039D01*
X46155511Y-34172794D01*
X46104000Y-34184000D01*
X46038322Y-34184000D01*
X45971283Y-34164315D01*
X45950640Y-34147680D01*
X45897212Y-34094251D01*
X45897203Y-34094244D01*
X45754001Y-34009555D01*
X45753996Y-34009553D01*
X45594235Y-33963138D01*
X45594229Y-33963137D01*
X45556907Y-33960200D01*
X45556902Y-33960200D01*
X44422100Y-33960200D01*
X44355061Y-33940515D01*
X44309306Y-33887711D01*
X44298100Y-33836200D01*
X44298100Y-33542153D01*
X44317785Y-33475114D01*
X44370589Y-33429359D01*
X44429048Y-33419027D01*
X44429048Y-33418700D01*
X44430904Y-33418699D01*
X44431832Y-33418536D01*
X44433914Y-33418699D01*
X44677899Y-33418699D01*
X45277900Y-33418699D01*
X45521879Y-33418699D01*
X45615549Y-33403864D01*
X45615555Y-33403862D01*
X45728441Y-33346343D01*
X45728450Y-33346336D01*
X45818036Y-33256750D01*
X45818039Y-33256746D01*
X45862901Y-33168700D01*
X45277900Y-33168700D01*
X45277900Y-33418699D01*
X44677899Y-33418699D01*
X44677900Y-33418698D01*
X44677900Y-32568700D01*
X45277900Y-32568700D01*
X45862901Y-32568700D01*
X45818039Y-32480653D01*
X45818036Y-32480649D01*
X45728450Y-32391063D01*
X45728446Y-32391060D01*
X45615544Y-32333533D01*
X45521886Y-32318700D01*
X45277900Y-32318700D01*
X45277900Y-32568700D01*
X44677900Y-32568700D01*
X44677900Y-32318700D01*
X44433920Y-32318700D01*
X44340249Y-32333535D01*
X44340244Y-32333537D01*
X44227358Y-32391056D01*
X44227349Y-32391063D01*
X44153681Y-32464732D01*
X44092358Y-32498217D01*
X44022666Y-32493233D01*
X43966733Y-32451361D01*
X43942316Y-32385897D01*
X43942000Y-32377051D01*
X43942000Y-30604000D01*
X43961685Y-30536961D01*
X44014489Y-30491206D01*
X44066000Y-30480000D01*
X46104000Y-30480000D01*
X46171039Y-30499685D01*
G37*
G04 #@! TD.AperFunction*
G04 #@! TA.AperFunction,Conductor*
G36*
X46218123Y-25674185D02*
G01*
X46263878Y-25726989D01*
X46273822Y-25796147D01*
X46244797Y-25859703D01*
X46234622Y-25870137D01*
X46173608Y-25925757D01*
X46050754Y-26088443D01*
X45959890Y-26270921D01*
X45959886Y-26270931D01*
X45953038Y-26295000D01*
X46657894Y-26295000D01*
X46589901Y-26362993D01*
X46524075Y-26477007D01*
X46490000Y-26604174D01*
X46490000Y-26735826D01*
X46524075Y-26862993D01*
X46589901Y-26977007D01*
X46682993Y-27070099D01*
X46797007Y-27135925D01*
X46924174Y-27170000D01*
X47055826Y-27170000D01*
X47182993Y-27135925D01*
X47297007Y-27070099D01*
X47390099Y-26977007D01*
X47455925Y-26862993D01*
X47490000Y-26735826D01*
X47490000Y-26604174D01*
X47455925Y-26477007D01*
X47390099Y-26362993D01*
X47322106Y-26295000D01*
X48026961Y-26295000D01*
X48020113Y-26270931D01*
X48020109Y-26270921D01*
X47929245Y-26088443D01*
X47806391Y-25925757D01*
X47745378Y-25870137D01*
X47709096Y-25810426D01*
X47710857Y-25740578D01*
X47750100Y-25682771D01*
X47814367Y-25655356D01*
X47828916Y-25654500D01*
X48390000Y-25654500D01*
X48457039Y-25674185D01*
X48502794Y-25726989D01*
X48514000Y-25778500D01*
X48514000Y-30946482D01*
X48494315Y-31013521D01*
X48441511Y-31059276D01*
X48440087Y-31059916D01*
X48418677Y-31069369D01*
X48357411Y-31130636D01*
X48296088Y-31164121D01*
X48226396Y-31159137D01*
X48170463Y-31117265D01*
X48158329Y-31097415D01*
X48151863Y-31084189D01*
X48061009Y-30993335D01*
X47969200Y-30948451D01*
X47969200Y-31642000D01*
X47949515Y-31709039D01*
X47896711Y-31754794D01*
X47845200Y-31766000D01*
X47186261Y-31766000D01*
X47190102Y-31792372D01*
X47206317Y-31825541D01*
X47218075Y-31894414D01*
X47190731Y-31958711D01*
X47132967Y-31998018D01*
X47094916Y-32004000D01*
X46865500Y-32004000D01*
X46798461Y-31984315D01*
X46752706Y-31931511D01*
X46741500Y-31880000D01*
X46741500Y-31225999D01*
X47186259Y-31225999D01*
X47186260Y-31226000D01*
X47429200Y-31226000D01*
X47429200Y-30948451D01*
X47337390Y-30993335D01*
X47337389Y-30993337D01*
X47246536Y-31084189D01*
X47190103Y-31199626D01*
X47190102Y-31199629D01*
X47186259Y-31225999D01*
X46741500Y-31225999D01*
X46741500Y-30604010D01*
X46741500Y-30604000D01*
X46729764Y-30494843D01*
X46718558Y-30443332D01*
X46718453Y-30443017D01*
X46683893Y-30339179D01*
X46683890Y-30339173D01*
X46604871Y-30216218D01*
X46604865Y-30216211D01*
X46559120Y-30163418D01*
X46559117Y-30163415D01*
X46448664Y-30067705D01*
X46448658Y-30067701D01*
X46315716Y-30006987D01*
X46248671Y-29987300D01*
X46185627Y-29978236D01*
X46104000Y-29966500D01*
X45590000Y-29966500D01*
X45522961Y-29946815D01*
X45477206Y-29894011D01*
X45466000Y-29842500D01*
X45466000Y-27045000D01*
X45953038Y-27045000D01*
X45959886Y-27069068D01*
X45959890Y-27069078D01*
X46050754Y-27251556D01*
X46173608Y-27414242D01*
X46324260Y-27551578D01*
X46497586Y-27658898D01*
X46497591Y-27658900D01*
X46615000Y-27704384D01*
X46615000Y-27704383D01*
X47365000Y-27704383D01*
X47482408Y-27658900D01*
X47482413Y-27658898D01*
X47655739Y-27551578D01*
X47806391Y-27414242D01*
X47929245Y-27251556D01*
X48020109Y-27069078D01*
X48020113Y-27069068D01*
X48026962Y-27045000D01*
X47365000Y-27045000D01*
X47365000Y-27704383D01*
X46615000Y-27704383D01*
X46615000Y-27045000D01*
X45953038Y-27045000D01*
X45466000Y-27045000D01*
X45466000Y-25778500D01*
X45485685Y-25711461D01*
X45538489Y-25665706D01*
X45590000Y-25654500D01*
X46151084Y-25654500D01*
X46218123Y-25674185D01*
G37*
G04 #@! TD.AperFunction*
G04 #@! TA.AperFunction,Conductor*
G36*
X43371539Y-30499685D02*
G01*
X43417294Y-30552489D01*
X43428500Y-30604000D01*
X43428500Y-32202279D01*
X43408815Y-32269318D01*
X43356011Y-32315073D01*
X43286853Y-32325017D01*
X43285104Y-32324753D01*
X43246883Y-32318700D01*
X43002900Y-32318700D01*
X43002900Y-32886200D01*
X42983215Y-32953239D01*
X42930411Y-32998994D01*
X42878900Y-33010200D01*
X42123892Y-33010200D01*
X42086574Y-33013137D01*
X42086565Y-33013139D01*
X42007405Y-33036136D01*
X41937536Y-33035935D01*
X41922378Y-33030339D01*
X41887492Y-33014807D01*
X41887487Y-33014805D01*
X41700687Y-32975100D01*
X41509713Y-32975100D01*
X41322914Y-33014805D01*
X41148446Y-33092483D01*
X41052096Y-33162486D01*
X40993947Y-33204734D01*
X40968521Y-33232971D01*
X40909037Y-33269620D01*
X40876372Y-33274000D01*
X39748000Y-33274000D01*
X39680961Y-33254315D01*
X39635206Y-33201511D01*
X39624000Y-33150000D01*
X39624000Y-32568700D01*
X41817899Y-32568700D01*
X42402900Y-32568700D01*
X42402900Y-32318700D01*
X42158920Y-32318700D01*
X42065249Y-32333535D01*
X42065244Y-32333537D01*
X41952358Y-32391056D01*
X41952349Y-32391063D01*
X41862763Y-32480649D01*
X41862760Y-32480653D01*
X41817899Y-32568700D01*
X39624000Y-32568700D01*
X39624000Y-30604000D01*
X39643685Y-30536961D01*
X39696489Y-30491206D01*
X39748000Y-30480000D01*
X43304500Y-30480000D01*
X43371539Y-30499685D01*
G37*
G04 #@! TD.AperFunction*
M02*
