G04 #@! TF.GenerationSoftware,KiCad,Pcbnew,8.0.3*
G04 #@! TF.CreationDate,2024-06-26T11:29:34-05:00*
G04 #@! TF.ProjectId,Bald Sense Wing v3,42616c64-2053-4656-9e73-652057696e67,rev?*
G04 #@! TF.SameCoordinates,Original*
G04 #@! TF.FileFunction,Copper,L3,Inr*
G04 #@! TF.FilePolarity,Positive*
%FSLAX46Y46*%
G04 Gerber Fmt 4.6, Leading zero omitted, Abs format (unit mm)*
G04 Created by KiCad (PCBNEW 8.0.3) date 2024-06-26 11:29:34*
%MOMM*%
%LPD*%
G01*
G04 APERTURE LIST*
%ADD10C,0.127000*%
G04 #@! TA.AperFunction,ComponentPad*
%ADD11C,1.700000*%
G04 #@! TD*
G04 #@! TA.AperFunction,ComponentPad*
%ADD12O,1.700000X1.700000*%
G04 #@! TD*
G04 #@! TA.AperFunction,ComponentPad*
%ADD13R,1.700000X1.700000*%
G04 #@! TD*
G04 #@! TA.AperFunction,ViaPad*
%ADD14C,0.800000*%
G04 #@! TD*
G04 #@! TA.AperFunction,Conductor*
%ADD15C,0.304800*%
G04 #@! TD*
G04 #@! TA.AperFunction,Conductor*
%ADD16C,0.406400*%
G04 #@! TD*
G04 APERTURE END LIST*
D10*
G36*
X33793919Y-26839446D02*
G01*
X33917776Y-26876963D01*
X33948787Y-26904867D01*
X33988836Y-26978073D01*
X33992107Y-27091158D01*
X33959429Y-27163034D01*
X33926431Y-27199708D01*
X33853491Y-27239611D01*
X33543884Y-27243305D01*
X33541989Y-26841876D01*
X33792247Y-26838493D01*
X33793919Y-26839446D01*
G37*
G36*
X33864497Y-26395680D02*
G01*
X33901168Y-26428677D01*
X33941322Y-26502074D01*
X33944004Y-26568412D01*
X33911810Y-26639225D01*
X33878812Y-26675898D01*
X33805848Y-26715815D01*
X33541411Y-26719389D01*
X33539742Y-26365716D01*
X33791116Y-26362318D01*
X33864497Y-26395680D01*
G37*
G36*
X34849586Y-27215697D02*
G01*
X34805773Y-27239666D01*
X34598296Y-27243488D01*
X34529330Y-27212133D01*
X34496199Y-27151573D01*
X34493517Y-27085235D01*
X34523928Y-27018345D01*
X34584129Y-26985410D01*
X34806250Y-26981318D01*
X34818501Y-26985402D01*
X34835371Y-26980781D01*
X34838299Y-26980728D01*
X34839328Y-26979698D01*
X34842397Y-26978858D01*
X34847473Y-26976080D01*
X34849586Y-27215697D01*
G37*
G36*
X36276283Y-26721381D02*
G01*
X36278615Y-27215447D01*
X36234281Y-27239701D01*
X36074088Y-27243307D01*
X36001598Y-27210350D01*
X35964925Y-27177351D01*
X35924991Y-27104355D01*
X35921017Y-26849497D01*
X35954284Y-26776325D01*
X35987281Y-26739654D01*
X36060384Y-26699661D01*
X36220577Y-26696055D01*
X36276283Y-26721381D01*
G37*
G36*
X38364729Y-27477626D02*
G01*
X33306055Y-27477626D01*
X33306055Y-26303015D01*
X33417166Y-26303015D01*
X33422000Y-27327315D01*
X33456366Y-27361681D01*
X33480666Y-27366515D01*
X33853266Y-27362070D01*
X33866120Y-27366355D01*
X33883063Y-27361715D01*
X33885918Y-27361681D01*
X33886947Y-27360651D01*
X33890016Y-27359811D01*
X33973641Y-27314062D01*
X33981157Y-27314062D01*
X34001758Y-27300297D01*
X34004623Y-27297112D01*
X34004827Y-27297001D01*
X34004887Y-27296818D01*
X34040027Y-27257764D01*
X34046080Y-27255747D01*
X34061271Y-27236174D01*
X34063127Y-27232091D01*
X34063141Y-27232076D01*
X34063140Y-27232060D01*
X34102825Y-27144772D01*
X34110760Y-27136838D01*
X34114126Y-27119916D01*
X34115434Y-27117040D01*
X34114973Y-27115658D01*
X34115594Y-27112538D01*
X34114217Y-27064919D01*
X34369547Y-27064919D01*
X34373161Y-27154295D01*
X34369707Y-27164658D01*
X34374251Y-27181253D01*
X34374381Y-27184457D01*
X34375410Y-27185486D01*
X34376251Y-27188555D01*
X34428197Y-27283508D01*
X34432695Y-27297001D01*
X34437706Y-27300890D01*
X34439061Y-27303366D01*
X34442277Y-27304438D01*
X34452268Y-27312192D01*
X34543669Y-27353746D01*
X34551604Y-27361681D01*
X34568525Y-27365047D01*
X34571402Y-27366355D01*
X34572783Y-27365894D01*
X34575904Y-27366515D01*
X34806250Y-27362271D01*
X34818501Y-27366355D01*
X34835371Y-27361734D01*
X34838299Y-27361681D01*
X34839328Y-27360651D01*
X34842397Y-27359811D01*
X34868685Y-27345429D01*
X34884937Y-27361681D01*
X34933537Y-27361681D01*
X34967903Y-27327315D01*
X34972737Y-27303015D01*
X34972285Y-27251766D01*
X34972576Y-27250894D01*
X34972271Y-27250285D01*
X34969011Y-26880634D01*
X34972576Y-26869941D01*
X34968851Y-26862492D01*
X34968193Y-26787853D01*
X34972577Y-26774703D01*
X34967927Y-26757726D01*
X34967903Y-26754905D01*
X34966873Y-26753875D01*
X34966033Y-26750807D01*
X34914084Y-26655850D01*
X34909589Y-26642362D01*
X34904578Y-26638472D01*
X34903223Y-26635996D01*
X34900004Y-26634923D01*
X34890016Y-26627171D01*
X34798614Y-26585616D01*
X34790680Y-26577682D01*
X34773758Y-26574315D01*
X34770882Y-26573008D01*
X34769500Y-26573468D01*
X34766380Y-26572848D01*
X34583284Y-26576968D01*
X34571402Y-26573008D01*
X34554578Y-26577615D01*
X34551604Y-26577682D01*
X34550574Y-26578711D01*
X34547506Y-26579552D01*
X34432695Y-26642362D01*
X34417326Y-26688469D01*
X34439061Y-26731938D01*
X34485168Y-26747307D01*
X34509064Y-26740763D01*
X34584193Y-26699661D01*
X34744386Y-26696055D01*
X34812953Y-26727229D01*
X34845808Y-26787284D01*
X34846242Y-26836573D01*
X34805773Y-26858713D01*
X34583652Y-26862805D01*
X34571402Y-26858722D01*
X34554531Y-26863342D01*
X34551604Y-26863396D01*
X34550574Y-26864425D01*
X34547506Y-26865266D01*
X34452549Y-26917214D01*
X34439061Y-26921710D01*
X34435171Y-26926720D01*
X34432695Y-26928076D01*
X34431622Y-26931294D01*
X34423870Y-26941283D01*
X34382315Y-27032684D01*
X34374381Y-27040619D01*
X34371014Y-27057540D01*
X34369707Y-27060417D01*
X34370167Y-27061798D01*
X34369547Y-27064919D01*
X34114217Y-27064919D01*
X34111659Y-26976501D01*
X34115434Y-26965179D01*
X34110848Y-26948433D01*
X34110760Y-26945381D01*
X34109730Y-26944351D01*
X34108890Y-26941283D01*
X34063141Y-26857657D01*
X34063141Y-26850142D01*
X34049376Y-26829541D01*
X34046191Y-26826675D01*
X34046080Y-26826472D01*
X34045897Y-26826411D01*
X34002890Y-26787714D01*
X33998460Y-26778853D01*
X33983673Y-26770422D01*
X33981156Y-26768158D01*
X33979700Y-26768158D01*
X33976936Y-26766582D01*
X33966024Y-26763276D01*
X33992408Y-26733955D01*
X33998461Y-26731938D01*
X34013652Y-26712365D01*
X34015507Y-26708284D01*
X34015522Y-26708268D01*
X34015522Y-26708251D01*
X34055206Y-26620963D01*
X34063141Y-26613029D01*
X34066507Y-26596107D01*
X34067815Y-26593231D01*
X34067354Y-26591849D01*
X34067975Y-26588729D01*
X34064360Y-26499351D01*
X34067815Y-26488989D01*
X34063270Y-26472394D01*
X34063141Y-26469191D01*
X34062111Y-26468161D01*
X34061271Y-26465093D01*
X34015522Y-26381467D01*
X34015522Y-26373952D01*
X34001757Y-26353351D01*
X33998572Y-26350485D01*
X33998461Y-26350282D01*
X33998278Y-26350221D01*
X33959225Y-26315082D01*
X33957208Y-26309029D01*
X33949459Y-26303015D01*
X35321928Y-26303015D01*
X35326579Y-27151183D01*
X35322088Y-27164658D01*
X35326746Y-27181670D01*
X35326762Y-27184457D01*
X35327791Y-27185486D01*
X35328632Y-27188555D01*
X35380578Y-27283508D01*
X35385076Y-27297001D01*
X35390087Y-27300890D01*
X35391442Y-27303366D01*
X35394658Y-27304438D01*
X35404649Y-27312192D01*
X35523783Y-27366355D01*
X35569890Y-27350986D01*
X35591624Y-27307517D01*
X35576256Y-27261410D01*
X35556683Y-27246219D01*
X35481711Y-27212133D01*
X35448883Y-27152127D01*
X35447099Y-26826824D01*
X35798119Y-26826824D01*
X35802449Y-27104529D01*
X35798279Y-27117040D01*
X35802907Y-27133942D01*
X35802953Y-27136838D01*
X35803982Y-27137867D01*
X35804823Y-27140936D01*
X35850572Y-27224561D01*
X35850572Y-27232076D01*
X35864336Y-27252677D01*
X35867521Y-27255543D01*
X35867633Y-27255747D01*
X35867815Y-27255807D01*
X35906868Y-27290947D01*
X35908886Y-27297001D01*
X35928459Y-27312192D01*
X35932541Y-27314048D01*
X35932556Y-27314061D01*
X35932569Y-27314061D01*
X36019860Y-27353746D01*
X36027795Y-27361681D01*
X36044716Y-27365047D01*
X36047593Y-27366355D01*
X36048974Y-27365894D01*
X36052095Y-27366515D01*
X36235190Y-27362394D01*
X36247073Y-27366355D01*
X36263896Y-27361747D01*
X36266871Y-27361681D01*
X36267900Y-27360651D01*
X36270969Y-27359811D01*
X36297257Y-27345429D01*
X36313509Y-27361681D01*
X36362109Y-27361681D01*
X36396475Y-27327315D01*
X36401309Y-27303015D01*
X36401064Y-27251145D01*
X36401148Y-27250894D01*
X36401062Y-27250722D01*
X36398434Y-26693896D01*
X36401148Y-26688469D01*
X36398369Y-26680132D01*
X36396590Y-26303015D01*
X36750500Y-26303015D01*
X36755334Y-27327315D01*
X36789700Y-27361681D01*
X36814000Y-27366515D01*
X37314490Y-27361681D01*
X37348856Y-27327315D01*
X37348856Y-27278715D01*
X37314490Y-27244349D01*
X37290190Y-27239515D01*
X36877219Y-27243503D01*
X36875323Y-26841876D01*
X37171633Y-26837871D01*
X37205999Y-26803505D01*
X37205999Y-26754905D01*
X37171633Y-26720539D01*
X37147333Y-26715705D01*
X36874745Y-26719389D01*
X36873077Y-26365944D01*
X37314490Y-26361681D01*
X37348856Y-26327315D01*
X37348856Y-26303015D01*
X37655262Y-26303015D01*
X37660096Y-27327315D01*
X37694462Y-27361681D01*
X37718762Y-27366515D01*
X38219252Y-27361681D01*
X38253618Y-27327315D01*
X38253618Y-27278715D01*
X38219252Y-27244349D01*
X38194952Y-27239515D01*
X37781981Y-27243503D01*
X37780085Y-26841876D01*
X38076395Y-26837871D01*
X38110761Y-26803505D01*
X38110761Y-26754905D01*
X38076395Y-26720539D01*
X38052095Y-26715705D01*
X37779507Y-26719389D01*
X37777839Y-26365944D01*
X38219252Y-26361681D01*
X38253618Y-26327315D01*
X38253618Y-26278715D01*
X38219252Y-26244349D01*
X38194952Y-26239515D01*
X37694462Y-26244349D01*
X37660096Y-26278715D01*
X37655262Y-26303015D01*
X37348856Y-26303015D01*
X37348856Y-26278715D01*
X37314490Y-26244349D01*
X37290190Y-26239515D01*
X36789700Y-26244349D01*
X36755334Y-26278715D01*
X36750500Y-26303015D01*
X36396590Y-26303015D01*
X36396475Y-26278715D01*
X36362109Y-26244349D01*
X36313509Y-26244349D01*
X36279143Y-26278715D01*
X36274309Y-26303015D01*
X36275644Y-26585997D01*
X36274805Y-26585616D01*
X36266871Y-26577682D01*
X36249949Y-26574315D01*
X36247073Y-26573008D01*
X36245691Y-26573468D01*
X36242571Y-26572848D01*
X36059475Y-26576968D01*
X36047593Y-26573008D01*
X36030769Y-26577615D01*
X36027795Y-26577682D01*
X36026765Y-26578711D01*
X36023697Y-26579552D01*
X35940072Y-26625301D01*
X35932556Y-26625301D01*
X35911955Y-26639066D01*
X35909089Y-26642250D01*
X35908886Y-26642362D01*
X35908825Y-26642544D01*
X35873686Y-26681597D01*
X35867633Y-26683615D01*
X35852442Y-26703188D01*
X35850585Y-26707270D01*
X35850572Y-26707286D01*
X35850572Y-26707301D01*
X35810887Y-26794589D01*
X35802953Y-26802524D01*
X35799586Y-26819445D01*
X35798279Y-26822322D01*
X35798739Y-26823703D01*
X35798119Y-26826824D01*
X35447099Y-26826824D01*
X35444094Y-26278715D01*
X35409728Y-26244349D01*
X35361128Y-26244349D01*
X35326762Y-26278715D01*
X35321928Y-26303015D01*
X33949459Y-26303015D01*
X33937635Y-26293838D01*
X33933552Y-26291981D01*
X33933537Y-26291968D01*
X33933522Y-26291968D01*
X33846233Y-26252283D01*
X33838299Y-26244349D01*
X33821377Y-26240982D01*
X33818501Y-26239675D01*
X33817119Y-26240135D01*
X33813999Y-26239515D01*
X33456366Y-26244349D01*
X33422000Y-26278715D01*
X33417166Y-26303015D01*
X33306055Y-26303015D01*
X33306055Y-26128404D01*
X38364729Y-26128404D01*
X38364729Y-27477626D01*
G37*
D11*
X69850000Y-46990000D03*
D12*
X67310000Y-46990000D03*
X64770000Y-46990000D03*
X62230000Y-46990000D03*
X59690000Y-46990000D03*
X57150000Y-46990000D03*
X54610000Y-46990000D03*
X52070000Y-46990000D03*
X49530000Y-46990000D03*
X46990000Y-46990000D03*
X44450000Y-46990000D03*
X41910000Y-46990000D03*
D13*
X39370000Y-46990000D03*
D12*
X36830000Y-46990000D03*
X34290000Y-46990000D03*
X31750000Y-46990000D03*
D11*
X69850000Y-26670000D03*
D12*
X67310000Y-26670000D03*
X64770000Y-26670000D03*
X62230000Y-26670000D03*
X59690000Y-26670000D03*
X57150000Y-26670000D03*
X54610000Y-26670000D03*
X52070000Y-26670000D03*
X49530000Y-26670000D03*
X46990000Y-26670000D03*
X44450000Y-26670000D03*
X41910000Y-26670000D03*
D14*
X40132000Y-30988000D03*
X30886400Y-44704000D03*
X28448000Y-37084000D03*
X66293990Y-31496000D03*
X56533603Y-34014733D03*
X32207200Y-26720800D03*
X41148000Y-31750000D03*
X40132000Y-32766000D03*
X70866000Y-40894000D03*
X70358000Y-35306000D03*
X65379600Y-39979600D03*
X70358000Y-33782000D03*
X60909200Y-36880800D03*
X39522400Y-27787600D03*
X47701200Y-33375600D03*
X61468000Y-40894000D03*
X70873802Y-37604000D03*
X54356000Y-35306000D03*
X41605200Y-33883600D03*
X28321000Y-34925000D03*
X42164000Y-43688000D03*
X37592000Y-31496000D03*
X58166000Y-34798000D03*
X34042598Y-43078400D03*
X53594000Y-40386000D03*
X63500000Y-31902400D03*
X30226000Y-41402000D03*
X46431200Y-36220400D03*
X45720000Y-39116000D03*
X69850000Y-40640000D03*
X69392800Y-31496000D03*
X56434200Y-35079810D03*
X38354000Y-45075990D03*
X60960000Y-32004000D03*
X56688200Y-33011706D03*
X68163969Y-28711631D03*
X66548000Y-28625800D03*
X59740800Y-32054800D03*
X71580000Y-30030000D03*
X75240378Y-34798000D03*
X56779342Y-31963705D03*
X44958000Y-32004000D03*
X44958000Y-30988000D03*
X45008800Y-33578800D03*
X63635142Y-38679871D03*
X39877994Y-39370000D03*
X73710800Y-41249600D03*
X55219600Y-43637204D03*
X66294000Y-32765988D03*
X75099924Y-31751087D03*
X67564006Y-34585523D03*
X55676800Y-41148000D03*
X48768000Y-33375600D03*
X49682400Y-41452800D03*
X64551800Y-33299400D03*
X64459699Y-35529099D03*
X42164000Y-42672000D03*
X75212402Y-33274000D03*
X64135002Y-36880800D03*
X52171600Y-39372402D03*
X59418410Y-38618908D03*
D15*
X62230000Y-42672000D02*
X46736000Y-42672000D01*
X63635142Y-41266858D02*
X62230000Y-42672000D01*
X63635142Y-38679871D02*
X63635142Y-41266858D01*
X46736000Y-42672000D02*
X43434000Y-39370000D01*
X43434000Y-39370000D02*
X39877994Y-39370000D01*
D16*
X59418410Y-38618908D02*
X52925094Y-38618908D01*
X52925094Y-38618908D02*
X52171600Y-39372402D01*
G04 #@! TA.AperFunction,Conductor*
G36*
X40786016Y-25674502D02*
G01*
X40832509Y-25728158D01*
X40842613Y-25798432D01*
X40823378Y-25849415D01*
X40711141Y-26021206D01*
X40620703Y-26227386D01*
X40620702Y-26227387D01*
X40565437Y-26445624D01*
X40565436Y-26445630D01*
X40565436Y-26445632D01*
X40546844Y-26670000D01*
X40564645Y-26884826D01*
X40565437Y-26894375D01*
X40620702Y-27112612D01*
X40620703Y-27112613D01*
X40620704Y-27112616D01*
X40709781Y-27315692D01*
X40711141Y-27318793D01*
X40834275Y-27507265D01*
X40834279Y-27507270D01*
X40946261Y-27628913D01*
X40986037Y-27672121D01*
X40986762Y-27672908D01*
X41020875Y-27699459D01*
X41164424Y-27811189D01*
X41362426Y-27918342D01*
X41362427Y-27918342D01*
X41362428Y-27918343D01*
X41474227Y-27956723D01*
X41575365Y-27991444D01*
X41797431Y-28028500D01*
X41797435Y-28028500D01*
X42022565Y-28028500D01*
X42022569Y-28028500D01*
X42244635Y-27991444D01*
X42457574Y-27918342D01*
X42655576Y-27811189D01*
X42833240Y-27672906D01*
X42985722Y-27507268D01*
X43074518Y-27371354D01*
X43128520Y-27325268D01*
X43198868Y-27315692D01*
X43263225Y-27345669D01*
X43285480Y-27371353D01*
X43314679Y-27416045D01*
X43374275Y-27507265D01*
X43374279Y-27507270D01*
X43486261Y-27628913D01*
X43526037Y-27672121D01*
X43526762Y-27672908D01*
X43560875Y-27699459D01*
X43704424Y-27811189D01*
X43902426Y-27918342D01*
X43902427Y-27918342D01*
X43902428Y-27918343D01*
X44014227Y-27956723D01*
X44115365Y-27991444D01*
X44337431Y-28028500D01*
X44337435Y-28028500D01*
X44562565Y-28028500D01*
X44562569Y-28028500D01*
X44784635Y-27991444D01*
X44997574Y-27918342D01*
X45195576Y-27811189D01*
X45373240Y-27672906D01*
X45525722Y-27507268D01*
X45614518Y-27371354D01*
X45668520Y-27325268D01*
X45738868Y-27315692D01*
X45803225Y-27345669D01*
X45825480Y-27371353D01*
X45854679Y-27416045D01*
X45914275Y-27507265D01*
X45914279Y-27507270D01*
X46026261Y-27628913D01*
X46066037Y-27672121D01*
X46066762Y-27672908D01*
X46100875Y-27699459D01*
X46244424Y-27811189D01*
X46442426Y-27918342D01*
X46442427Y-27918342D01*
X46442428Y-27918343D01*
X46554227Y-27956723D01*
X46655365Y-27991444D01*
X46877431Y-28028500D01*
X46877435Y-28028500D01*
X47102565Y-28028500D01*
X47102569Y-28028500D01*
X47324635Y-27991444D01*
X47537574Y-27918342D01*
X47735576Y-27811189D01*
X47913240Y-27672906D01*
X48065722Y-27507268D01*
X48154518Y-27371354D01*
X48208520Y-27325268D01*
X48278868Y-27315692D01*
X48343225Y-27345669D01*
X48365480Y-27371353D01*
X48394679Y-27416045D01*
X48454275Y-27507265D01*
X48454279Y-27507270D01*
X48566261Y-27628913D01*
X48606037Y-27672121D01*
X48606762Y-27672908D01*
X48640875Y-27699459D01*
X48784424Y-27811189D01*
X48982426Y-27918342D01*
X48982427Y-27918342D01*
X48982428Y-27918343D01*
X49094227Y-27956723D01*
X49195365Y-27991444D01*
X49417431Y-28028500D01*
X49417435Y-28028500D01*
X49642565Y-28028500D01*
X49642569Y-28028500D01*
X49864635Y-27991444D01*
X50077574Y-27918342D01*
X50275576Y-27811189D01*
X50453240Y-27672906D01*
X50605722Y-27507268D01*
X50694518Y-27371354D01*
X50748520Y-27325268D01*
X50818868Y-27315692D01*
X50883225Y-27345669D01*
X50905480Y-27371353D01*
X50934679Y-27416045D01*
X50994275Y-27507265D01*
X50994279Y-27507270D01*
X51106261Y-27628913D01*
X51146037Y-27672121D01*
X51146762Y-27672908D01*
X51180875Y-27699459D01*
X51324424Y-27811189D01*
X51522426Y-27918342D01*
X51522427Y-27918342D01*
X51522428Y-27918343D01*
X51634227Y-27956723D01*
X51735365Y-27991444D01*
X51957431Y-28028500D01*
X51957435Y-28028500D01*
X52182565Y-28028500D01*
X52182569Y-28028500D01*
X52404635Y-27991444D01*
X52617574Y-27918342D01*
X52815576Y-27811189D01*
X52993240Y-27672906D01*
X53145722Y-27507268D01*
X53234518Y-27371354D01*
X53288520Y-27325268D01*
X53358868Y-27315692D01*
X53423225Y-27345669D01*
X53445480Y-27371353D01*
X53474679Y-27416045D01*
X53534275Y-27507265D01*
X53534279Y-27507270D01*
X53646261Y-27628913D01*
X53686037Y-27672121D01*
X53686762Y-27672908D01*
X53720875Y-27699459D01*
X53864424Y-27811189D01*
X54062426Y-27918342D01*
X54062427Y-27918342D01*
X54062428Y-27918343D01*
X54174227Y-27956723D01*
X54275365Y-27991444D01*
X54497431Y-28028500D01*
X54497435Y-28028500D01*
X54722565Y-28028500D01*
X54722569Y-28028500D01*
X54944635Y-27991444D01*
X55157574Y-27918342D01*
X55355576Y-27811189D01*
X55533240Y-27672906D01*
X55685722Y-27507268D01*
X55774518Y-27371354D01*
X55828520Y-27325268D01*
X55898868Y-27315692D01*
X55963225Y-27345669D01*
X55985480Y-27371353D01*
X56014679Y-27416045D01*
X56074275Y-27507265D01*
X56074279Y-27507270D01*
X56186261Y-27628913D01*
X56226037Y-27672121D01*
X56226762Y-27672908D01*
X56260875Y-27699459D01*
X56404424Y-27811189D01*
X56602426Y-27918342D01*
X56602427Y-27918342D01*
X56602428Y-27918343D01*
X56714227Y-27956723D01*
X56815365Y-27991444D01*
X57037431Y-28028500D01*
X57037435Y-28028500D01*
X57262565Y-28028500D01*
X57262569Y-28028500D01*
X57484635Y-27991444D01*
X57697574Y-27918342D01*
X57895576Y-27811189D01*
X58073240Y-27672906D01*
X58225722Y-27507268D01*
X58314518Y-27371354D01*
X58368520Y-27325268D01*
X58438868Y-27315692D01*
X58503225Y-27345669D01*
X58525480Y-27371353D01*
X58554679Y-27416045D01*
X58614275Y-27507265D01*
X58614279Y-27507270D01*
X58726261Y-27628913D01*
X58766037Y-27672121D01*
X58766762Y-27672908D01*
X58800875Y-27699459D01*
X58944424Y-27811189D01*
X59142426Y-27918342D01*
X59142427Y-27918342D01*
X59142428Y-27918343D01*
X59254227Y-27956723D01*
X59355365Y-27991444D01*
X59577431Y-28028500D01*
X59577435Y-28028500D01*
X59802565Y-28028500D01*
X59802569Y-28028500D01*
X60024635Y-27991444D01*
X60237574Y-27918342D01*
X60435576Y-27811189D01*
X60613240Y-27672906D01*
X60765722Y-27507268D01*
X60854518Y-27371354D01*
X60908520Y-27325268D01*
X60978868Y-27315692D01*
X61043225Y-27345669D01*
X61065480Y-27371353D01*
X61094679Y-27416045D01*
X61154275Y-27507265D01*
X61154279Y-27507270D01*
X61266261Y-27628913D01*
X61306037Y-27672121D01*
X61306762Y-27672908D01*
X61340875Y-27699459D01*
X61484424Y-27811189D01*
X61682426Y-27918342D01*
X61682427Y-27918342D01*
X61682428Y-27918343D01*
X61794227Y-27956723D01*
X61895365Y-27991444D01*
X62117431Y-28028500D01*
X62117435Y-28028500D01*
X62342565Y-28028500D01*
X62342569Y-28028500D01*
X62564635Y-27991444D01*
X62777574Y-27918342D01*
X62975576Y-27811189D01*
X63153240Y-27672906D01*
X63305722Y-27507268D01*
X63394518Y-27371354D01*
X63448520Y-27325268D01*
X63518868Y-27315692D01*
X63583225Y-27345669D01*
X63605480Y-27371353D01*
X63634679Y-27416045D01*
X63694275Y-27507265D01*
X63694279Y-27507270D01*
X63806261Y-27628913D01*
X63846037Y-27672121D01*
X63846762Y-27672908D01*
X63880875Y-27699459D01*
X64024424Y-27811189D01*
X64222426Y-27918342D01*
X64222427Y-27918342D01*
X64222428Y-27918343D01*
X64334227Y-27956723D01*
X64435365Y-27991444D01*
X64657431Y-28028500D01*
X64657435Y-28028500D01*
X64882565Y-28028500D01*
X64882569Y-28028500D01*
X65104635Y-27991444D01*
X65317574Y-27918342D01*
X65515576Y-27811189D01*
X65693240Y-27672906D01*
X65845722Y-27507268D01*
X65934518Y-27371354D01*
X65988520Y-27325268D01*
X66058868Y-27315692D01*
X66123225Y-27345669D01*
X66145480Y-27371353D01*
X66174679Y-27416045D01*
X66234275Y-27507265D01*
X66234280Y-27507271D01*
X66287652Y-27565248D01*
X66319073Y-27628913D01*
X66311086Y-27699459D01*
X66266227Y-27754488D01*
X66246200Y-27765693D01*
X66091247Y-27834682D01*
X65936744Y-27946935D01*
X65808965Y-28088848D01*
X65808958Y-28088858D01*
X65713476Y-28254238D01*
X65713473Y-28254245D01*
X65654457Y-28435872D01*
X65634496Y-28625800D01*
X65654457Y-28815727D01*
X65682346Y-28901558D01*
X65713473Y-28997356D01*
X65713476Y-28997361D01*
X65808958Y-29162741D01*
X65808965Y-29162751D01*
X65936744Y-29304664D01*
X65972398Y-29330568D01*
X66091248Y-29416918D01*
X66265712Y-29494594D01*
X66452513Y-29534300D01*
X66643487Y-29534300D01*
X66830288Y-29494594D01*
X67004752Y-29416918D01*
X67159253Y-29304666D01*
X67224819Y-29231847D01*
X67285263Y-29194607D01*
X67356247Y-29195958D01*
X67415232Y-29235471D01*
X67420786Y-29243426D01*
X67421050Y-29243235D01*
X67424934Y-29248582D01*
X67552713Y-29390495D01*
X67552716Y-29390497D01*
X67707217Y-29502749D01*
X67881681Y-29580425D01*
X68068482Y-29620131D01*
X68259456Y-29620131D01*
X68446257Y-29580425D01*
X68620721Y-29502749D01*
X68775222Y-29390497D01*
X68848722Y-29308867D01*
X68903003Y-29248582D01*
X68903004Y-29248580D01*
X68903009Y-29248575D01*
X68998496Y-29083187D01*
X69057511Y-28901559D01*
X69077473Y-28711631D01*
X69057511Y-28521703D01*
X68998496Y-28340075D01*
X68903009Y-28174687D01*
X68903007Y-28174685D01*
X68903003Y-28174679D01*
X68775224Y-28032766D01*
X68620721Y-27920513D01*
X68446253Y-27842835D01*
X68353480Y-27823115D01*
X68291007Y-27789387D01*
X68256686Y-27727237D01*
X68261414Y-27656398D01*
X68286975Y-27614534D01*
X68385722Y-27507268D01*
X68474518Y-27371354D01*
X68528520Y-27325268D01*
X68598868Y-27315692D01*
X68663225Y-27345669D01*
X68685480Y-27371353D01*
X68714679Y-27416045D01*
X68774275Y-27507265D01*
X68774279Y-27507270D01*
X68886261Y-27628913D01*
X68926037Y-27672121D01*
X68926762Y-27672908D01*
X68960875Y-27699459D01*
X69104424Y-27811189D01*
X69302426Y-27918342D01*
X69302427Y-27918342D01*
X69302428Y-27918343D01*
X69414227Y-27956723D01*
X69515365Y-27991444D01*
X69737431Y-28028500D01*
X69737435Y-28028500D01*
X69962565Y-28028500D01*
X69962569Y-28028500D01*
X70184635Y-27991444D01*
X70397574Y-27918342D01*
X70575769Y-27821908D01*
X72159500Y-27821908D01*
X72159500Y-28058092D01*
X72196447Y-28291368D01*
X72269432Y-28515992D01*
X72361202Y-28696100D01*
X72376659Y-28726436D01*
X72515484Y-28917512D01*
X72682487Y-29084515D01*
X72808005Y-29175709D01*
X72873567Y-29223343D01*
X73084008Y-29330568D01*
X73308632Y-29403553D01*
X73541908Y-29440500D01*
X73541911Y-29440500D01*
X73778089Y-29440500D01*
X73778092Y-29440500D01*
X74011368Y-29403553D01*
X74235992Y-29330568D01*
X74446433Y-29223343D01*
X74637510Y-29084517D01*
X74804517Y-28917510D01*
X74943343Y-28726433D01*
X75050568Y-28515992D01*
X75123553Y-28291368D01*
X75160500Y-28058092D01*
X75160500Y-27821908D01*
X75123553Y-27588632D01*
X75050568Y-27364008D01*
X74943343Y-27153567D01*
X74804517Y-26962490D01*
X74804515Y-26962487D01*
X74637512Y-26795484D01*
X74446436Y-26656659D01*
X74446435Y-26656658D01*
X74446433Y-26656657D01*
X74235992Y-26549432D01*
X74011368Y-26476447D01*
X73778092Y-26439500D01*
X73541908Y-26439500D01*
X73308632Y-26476447D01*
X73308629Y-26476447D01*
X73308628Y-26476448D01*
X73084008Y-26549432D01*
X73084006Y-26549433D01*
X72873563Y-26656659D01*
X72682487Y-26795484D01*
X72515484Y-26962487D01*
X72376659Y-27153563D01*
X72269433Y-27364006D01*
X72269432Y-27364008D01*
X72204056Y-27565215D01*
X72196447Y-27588632D01*
X72159500Y-27821908D01*
X70575769Y-27821908D01*
X70595576Y-27811189D01*
X70773240Y-27672906D01*
X70925722Y-27507268D01*
X71048860Y-27318791D01*
X71139296Y-27112616D01*
X71194564Y-26894368D01*
X71213156Y-26670000D01*
X71194564Y-26445632D01*
X71167688Y-26339500D01*
X71139297Y-26227387D01*
X71139296Y-26227386D01*
X71139296Y-26227384D01*
X71048860Y-26021209D01*
X70936622Y-25849415D01*
X70916109Y-25781447D01*
X70935598Y-25713178D01*
X70988903Y-25666283D01*
X71042105Y-25654500D01*
X73615125Y-25654500D01*
X73656194Y-25654500D01*
X73663801Y-25654730D01*
X73689761Y-25656300D01*
X73927890Y-25670704D01*
X73942972Y-25672535D01*
X74199469Y-25719540D01*
X74214215Y-25723174D01*
X74463185Y-25800756D01*
X74477397Y-25806147D01*
X74573535Y-25849415D01*
X74715173Y-25913161D01*
X74728639Y-25920227D01*
X74951796Y-26055131D01*
X74964305Y-26063765D01*
X75053117Y-26133345D01*
X75169572Y-26224582D01*
X75180960Y-26234672D01*
X75365327Y-26419039D01*
X75375417Y-26430427D01*
X75536231Y-26635690D01*
X75544870Y-26648207D01*
X75633903Y-26795484D01*
X75679768Y-26871354D01*
X75686838Y-26884826D01*
X75793850Y-27122597D01*
X75799246Y-27136823D01*
X75870039Y-27364006D01*
X75876821Y-27385768D01*
X75880462Y-27400542D01*
X75927462Y-27657016D01*
X75929296Y-27672120D01*
X75945270Y-27936197D01*
X75945500Y-27943805D01*
X75945500Y-31004221D01*
X75925498Y-31072342D01*
X75871842Y-31118835D01*
X75801568Y-31128939D01*
X75736988Y-31099445D01*
X75725864Y-31088532D01*
X75711177Y-31072221D01*
X75556676Y-30959969D01*
X75382212Y-30882293D01*
X75195411Y-30842587D01*
X75004437Y-30842587D01*
X74817635Y-30882293D01*
X74643171Y-30959969D01*
X74488668Y-31072222D01*
X74360889Y-31214135D01*
X74360882Y-31214145D01*
X74265400Y-31379525D01*
X74265397Y-31379532D01*
X74206381Y-31561159D01*
X74186420Y-31751087D01*
X74206381Y-31941014D01*
X74213754Y-31963705D01*
X74265397Y-32122643D01*
X74265400Y-32122648D01*
X74360882Y-32288028D01*
X74360889Y-32288038D01*
X74488668Y-32429951D01*
X74533366Y-32462426D01*
X74576720Y-32518648D01*
X74582795Y-32589384D01*
X74552942Y-32648672D01*
X74473364Y-32737053D01*
X74473360Y-32737058D01*
X74377878Y-32902438D01*
X74377875Y-32902445D01*
X74318859Y-33084072D01*
X74298898Y-33274000D01*
X74318859Y-33463927D01*
X74334492Y-33512038D01*
X74377875Y-33645556D01*
X74377878Y-33645561D01*
X74473360Y-33810941D01*
X74473367Y-33810951D01*
X74601144Y-33952862D01*
X74605637Y-33956907D01*
X74642879Y-34017351D01*
X74641531Y-34088335D01*
X74614967Y-34134857D01*
X74501343Y-34261048D01*
X74501336Y-34261058D01*
X74409259Y-34420541D01*
X74405851Y-34426444D01*
X74403532Y-34433581D01*
X74346835Y-34608072D01*
X74326874Y-34798000D01*
X74346835Y-34987927D01*
X74376691Y-35079810D01*
X74405851Y-35169556D01*
X74425312Y-35203263D01*
X74501336Y-35334941D01*
X74501343Y-35334951D01*
X74629122Y-35476864D01*
X74629125Y-35476866D01*
X74783626Y-35589118D01*
X74958090Y-35666794D01*
X75144891Y-35706500D01*
X75335865Y-35706500D01*
X75522666Y-35666794D01*
X75697130Y-35589118D01*
X75745439Y-35554018D01*
X75812306Y-35530161D01*
X75881458Y-35546241D01*
X75930938Y-35597155D01*
X75945500Y-35655955D01*
X75945500Y-45716194D01*
X75945270Y-45723802D01*
X75929296Y-45987879D01*
X75927462Y-46002983D01*
X75880462Y-46259457D01*
X75876821Y-46274231D01*
X75799246Y-46523176D01*
X75793850Y-46537402D01*
X75686838Y-46775173D01*
X75679768Y-46788645D01*
X75544875Y-47011786D01*
X75536231Y-47024309D01*
X75375417Y-47229572D01*
X75365327Y-47240960D01*
X75180960Y-47425327D01*
X75169572Y-47435417D01*
X74964309Y-47596231D01*
X74951786Y-47604875D01*
X74728645Y-47739768D01*
X74715173Y-47746838D01*
X74477402Y-47853850D01*
X74463176Y-47859246D01*
X74214231Y-47936821D01*
X74199457Y-47940462D01*
X73942983Y-47987462D01*
X73927879Y-47989296D01*
X73663802Y-48005270D01*
X73656194Y-48005500D01*
X71042105Y-48005500D01*
X70973984Y-47985498D01*
X70927491Y-47931842D01*
X70917387Y-47861568D01*
X70936622Y-47810585D01*
X71031500Y-47665362D01*
X71048860Y-47638791D01*
X71139296Y-47432616D01*
X71194564Y-47214368D01*
X71213156Y-46990000D01*
X71194564Y-46765632D01*
X71142199Y-46558848D01*
X71139297Y-46547387D01*
X71139296Y-46547386D01*
X71139296Y-46547384D01*
X71048860Y-46341209D01*
X71031500Y-46314637D01*
X70925724Y-46152734D01*
X70925720Y-46152729D01*
X70780966Y-45995487D01*
X70773240Y-45987094D01*
X70773239Y-45987093D01*
X70773237Y-45987091D01*
X70653367Y-45893792D01*
X70595576Y-45848811D01*
X70397574Y-45741658D01*
X70397572Y-45741657D01*
X70397571Y-45741656D01*
X70184639Y-45668557D01*
X70184630Y-45668555D01*
X70140476Y-45661187D01*
X69962569Y-45631500D01*
X69737431Y-45631500D01*
X69589211Y-45656233D01*
X69515369Y-45668555D01*
X69515360Y-45668557D01*
X69302428Y-45741656D01*
X69302426Y-45741658D01*
X69124239Y-45838088D01*
X69104426Y-45848810D01*
X69104424Y-45848811D01*
X68926762Y-45987091D01*
X68774279Y-46152729D01*
X68685483Y-46288643D01*
X68631479Y-46334731D01*
X68561131Y-46344306D01*
X68496774Y-46314329D01*
X68474517Y-46288643D01*
X68409309Y-46188834D01*
X68385722Y-46152732D01*
X68385721Y-46152731D01*
X68385720Y-46152729D01*
X68240966Y-45995487D01*
X68233240Y-45987094D01*
X68233239Y-45987093D01*
X68233237Y-45987091D01*
X68113367Y-45893792D01*
X68055576Y-45848811D01*
X67857574Y-45741658D01*
X67857572Y-45741657D01*
X67857571Y-45741656D01*
X67644639Y-45668557D01*
X67644630Y-45668555D01*
X67600476Y-45661187D01*
X67422569Y-45631500D01*
X67197431Y-45631500D01*
X67049211Y-45656233D01*
X66975369Y-45668555D01*
X66975360Y-45668557D01*
X66762428Y-45741656D01*
X66762426Y-45741658D01*
X66584239Y-45838088D01*
X66564426Y-45848810D01*
X66564424Y-45848811D01*
X66386762Y-45987091D01*
X66234279Y-46152729D01*
X66145483Y-46288643D01*
X66091479Y-46334731D01*
X66021131Y-46344306D01*
X65956774Y-46314329D01*
X65934517Y-46288643D01*
X65869309Y-46188834D01*
X65845722Y-46152732D01*
X65845721Y-46152731D01*
X65845720Y-46152729D01*
X65700966Y-45995487D01*
X65693240Y-45987094D01*
X65693239Y-45987093D01*
X65693237Y-45987091D01*
X65573367Y-45893792D01*
X65515576Y-45848811D01*
X65317574Y-45741658D01*
X65317572Y-45741657D01*
X65317571Y-45741656D01*
X65104639Y-45668557D01*
X65104630Y-45668555D01*
X65060476Y-45661187D01*
X64882569Y-45631500D01*
X64657431Y-45631500D01*
X64509211Y-45656233D01*
X64435369Y-45668555D01*
X64435360Y-45668557D01*
X64222428Y-45741656D01*
X64222426Y-45741658D01*
X64044239Y-45838088D01*
X64024426Y-45848810D01*
X64024424Y-45848811D01*
X63846762Y-45987091D01*
X63694279Y-46152729D01*
X63605483Y-46288643D01*
X63551479Y-46334731D01*
X63481131Y-46344306D01*
X63416774Y-46314329D01*
X63394517Y-46288643D01*
X63329309Y-46188834D01*
X63305722Y-46152732D01*
X63305721Y-46152731D01*
X63305720Y-46152729D01*
X63160966Y-45995487D01*
X63153240Y-45987094D01*
X63153239Y-45987093D01*
X63153237Y-45987091D01*
X63033367Y-45893792D01*
X62975576Y-45848811D01*
X62777574Y-45741658D01*
X62777572Y-45741657D01*
X62777571Y-45741656D01*
X62564639Y-45668557D01*
X62564630Y-45668555D01*
X62520476Y-45661187D01*
X62342569Y-45631500D01*
X62117431Y-45631500D01*
X61969211Y-45656233D01*
X61895369Y-45668555D01*
X61895360Y-45668557D01*
X61682428Y-45741656D01*
X61682426Y-45741658D01*
X61504239Y-45838088D01*
X61484426Y-45848810D01*
X61484424Y-45848811D01*
X61306762Y-45987091D01*
X61154279Y-46152729D01*
X61065483Y-46288643D01*
X61011479Y-46334731D01*
X60941131Y-46344306D01*
X60876774Y-46314329D01*
X60854517Y-46288643D01*
X60789309Y-46188834D01*
X60765722Y-46152732D01*
X60765721Y-46152731D01*
X60765720Y-46152729D01*
X60620966Y-45995487D01*
X60613240Y-45987094D01*
X60613239Y-45987093D01*
X60613237Y-45987091D01*
X60493367Y-45893792D01*
X60435576Y-45848811D01*
X60237574Y-45741658D01*
X60237572Y-45741657D01*
X60237571Y-45741656D01*
X60024639Y-45668557D01*
X60024630Y-45668555D01*
X59980476Y-45661187D01*
X59802569Y-45631500D01*
X59577431Y-45631500D01*
X59429211Y-45656233D01*
X59355369Y-45668555D01*
X59355360Y-45668557D01*
X59142428Y-45741656D01*
X59142426Y-45741658D01*
X58964239Y-45838088D01*
X58944426Y-45848810D01*
X58944424Y-45848811D01*
X58766762Y-45987091D01*
X58614279Y-46152729D01*
X58525483Y-46288643D01*
X58471479Y-46334731D01*
X58401131Y-46344306D01*
X58336774Y-46314329D01*
X58314517Y-46288643D01*
X58249309Y-46188834D01*
X58225722Y-46152732D01*
X58225721Y-46152731D01*
X58225720Y-46152729D01*
X58080966Y-45995487D01*
X58073240Y-45987094D01*
X58073239Y-45987093D01*
X58073237Y-45987091D01*
X57953367Y-45893792D01*
X57895576Y-45848811D01*
X57697574Y-45741658D01*
X57697572Y-45741657D01*
X57697571Y-45741656D01*
X57484639Y-45668557D01*
X57484630Y-45668555D01*
X57440476Y-45661187D01*
X57262569Y-45631500D01*
X57037431Y-45631500D01*
X56889211Y-45656233D01*
X56815369Y-45668555D01*
X56815360Y-45668557D01*
X56602428Y-45741656D01*
X56602426Y-45741658D01*
X56424239Y-45838088D01*
X56404426Y-45848810D01*
X56404424Y-45848811D01*
X56226762Y-45987091D01*
X56074279Y-46152729D01*
X55985483Y-46288643D01*
X55931479Y-46334731D01*
X55861131Y-46344306D01*
X55796774Y-46314329D01*
X55774517Y-46288643D01*
X55709309Y-46188834D01*
X55685722Y-46152732D01*
X55685721Y-46152731D01*
X55685720Y-46152729D01*
X55540966Y-45995487D01*
X55533240Y-45987094D01*
X55533239Y-45987093D01*
X55533237Y-45987091D01*
X55413367Y-45893792D01*
X55355576Y-45848811D01*
X55157574Y-45741658D01*
X55157572Y-45741657D01*
X55157571Y-45741656D01*
X54944639Y-45668557D01*
X54944630Y-45668555D01*
X54900476Y-45661187D01*
X54722569Y-45631500D01*
X54497431Y-45631500D01*
X54349211Y-45656233D01*
X54275369Y-45668555D01*
X54275360Y-45668557D01*
X54062428Y-45741656D01*
X54062426Y-45741658D01*
X53884239Y-45838088D01*
X53864426Y-45848810D01*
X53864424Y-45848811D01*
X53686762Y-45987091D01*
X53534279Y-46152729D01*
X53445483Y-46288643D01*
X53391479Y-46334731D01*
X53321131Y-46344306D01*
X53256774Y-46314329D01*
X53234517Y-46288643D01*
X53169309Y-46188834D01*
X53145722Y-46152732D01*
X53145721Y-46152731D01*
X53145720Y-46152729D01*
X53000966Y-45995487D01*
X52993240Y-45987094D01*
X52993239Y-45987093D01*
X52993237Y-45987091D01*
X52873367Y-45893792D01*
X52815576Y-45848811D01*
X52617574Y-45741658D01*
X52617572Y-45741657D01*
X52617571Y-45741656D01*
X52404639Y-45668557D01*
X52404630Y-45668555D01*
X52360476Y-45661187D01*
X52182569Y-45631500D01*
X51957431Y-45631500D01*
X51809211Y-45656233D01*
X51735369Y-45668555D01*
X51735360Y-45668557D01*
X51522428Y-45741656D01*
X51522426Y-45741658D01*
X51344239Y-45838088D01*
X51324426Y-45848810D01*
X51324424Y-45848811D01*
X51146762Y-45987091D01*
X50994279Y-46152729D01*
X50905483Y-46288643D01*
X50851479Y-46334731D01*
X50781131Y-46344306D01*
X50716774Y-46314329D01*
X50694517Y-46288643D01*
X50629309Y-46188834D01*
X50605722Y-46152732D01*
X50605721Y-46152731D01*
X50605720Y-46152729D01*
X50460966Y-45995487D01*
X50453240Y-45987094D01*
X50453239Y-45987093D01*
X50453237Y-45987091D01*
X50333367Y-45893792D01*
X50275576Y-45848811D01*
X50077574Y-45741658D01*
X50077572Y-45741657D01*
X50077571Y-45741656D01*
X49864639Y-45668557D01*
X49864630Y-45668555D01*
X49820476Y-45661187D01*
X49642569Y-45631500D01*
X49417431Y-45631500D01*
X49269211Y-45656233D01*
X49195369Y-45668555D01*
X49195360Y-45668557D01*
X48982428Y-45741656D01*
X48982426Y-45741658D01*
X48804239Y-45838088D01*
X48784426Y-45848810D01*
X48784424Y-45848811D01*
X48606762Y-45987091D01*
X48454279Y-46152729D01*
X48365483Y-46288643D01*
X48311479Y-46334731D01*
X48241131Y-46344306D01*
X48176774Y-46314329D01*
X48154517Y-46288643D01*
X48089309Y-46188834D01*
X48065722Y-46152732D01*
X48065721Y-46152731D01*
X48065720Y-46152729D01*
X47920966Y-45995487D01*
X47913240Y-45987094D01*
X47913239Y-45987093D01*
X47913237Y-45987091D01*
X47793367Y-45893792D01*
X47735576Y-45848811D01*
X47537574Y-45741658D01*
X47537572Y-45741657D01*
X47537571Y-45741656D01*
X47324639Y-45668557D01*
X47324630Y-45668555D01*
X47280476Y-45661187D01*
X47102569Y-45631500D01*
X46877431Y-45631500D01*
X46729211Y-45656233D01*
X46655369Y-45668555D01*
X46655360Y-45668557D01*
X46442428Y-45741656D01*
X46442426Y-45741658D01*
X46264239Y-45838088D01*
X46244426Y-45848810D01*
X46244424Y-45848811D01*
X46066762Y-45987091D01*
X45914279Y-46152729D01*
X45825483Y-46288643D01*
X45771479Y-46334731D01*
X45701131Y-46344306D01*
X45636774Y-46314329D01*
X45614517Y-46288643D01*
X45549309Y-46188834D01*
X45525722Y-46152732D01*
X45525721Y-46152731D01*
X45525720Y-46152729D01*
X45380966Y-45995487D01*
X45373240Y-45987094D01*
X45373239Y-45987093D01*
X45373237Y-45987091D01*
X45253367Y-45893792D01*
X45195576Y-45848811D01*
X44997574Y-45741658D01*
X44997572Y-45741657D01*
X44997571Y-45741656D01*
X44784639Y-45668557D01*
X44784630Y-45668555D01*
X44740476Y-45661187D01*
X44562569Y-45631500D01*
X44337431Y-45631500D01*
X44189211Y-45656233D01*
X44115369Y-45668555D01*
X44115360Y-45668557D01*
X43902428Y-45741656D01*
X43902426Y-45741658D01*
X43724239Y-45838088D01*
X43704426Y-45848810D01*
X43704424Y-45848811D01*
X43526762Y-45987091D01*
X43374279Y-46152729D01*
X43285483Y-46288643D01*
X43231479Y-46334731D01*
X43161131Y-46344306D01*
X43096774Y-46314329D01*
X43074517Y-46288643D01*
X43009309Y-46188834D01*
X42985722Y-46152732D01*
X42985721Y-46152731D01*
X42985720Y-46152729D01*
X42840966Y-45995487D01*
X42833240Y-45987094D01*
X42833239Y-45987093D01*
X42833237Y-45987091D01*
X42713367Y-45893792D01*
X42655576Y-45848811D01*
X42457574Y-45741658D01*
X42457572Y-45741657D01*
X42457571Y-45741656D01*
X42244639Y-45668557D01*
X42244630Y-45668555D01*
X42200476Y-45661187D01*
X42022569Y-45631500D01*
X41797431Y-45631500D01*
X41649211Y-45656233D01*
X41575369Y-45668555D01*
X41575360Y-45668557D01*
X41362428Y-45741656D01*
X41362426Y-45741658D01*
X41184239Y-45838088D01*
X41164426Y-45848810D01*
X41164424Y-45848811D01*
X40986762Y-45987091D01*
X40925754Y-46053363D01*
X40864901Y-46089933D01*
X40793936Y-46087798D01*
X40735391Y-46047636D01*
X40714999Y-46012057D01*
X40670889Y-45893797D01*
X40670887Y-45893792D01*
X40583261Y-45776738D01*
X40466207Y-45689112D01*
X40466202Y-45689110D01*
X40329204Y-45638011D01*
X40329196Y-45638009D01*
X40268649Y-45631500D01*
X40268638Y-45631500D01*
X39300559Y-45631500D01*
X39232438Y-45611498D01*
X39224128Y-45601908D01*
X72159500Y-45601908D01*
X72159500Y-45838092D01*
X72196447Y-46071368D01*
X72269432Y-46295992D01*
X72376657Y-46506433D01*
X72376659Y-46506436D01*
X72515484Y-46697512D01*
X72682487Y-46864515D01*
X72682490Y-46864517D01*
X72873567Y-47003343D01*
X73084008Y-47110568D01*
X73308632Y-47183553D01*
X73541908Y-47220500D01*
X73541911Y-47220500D01*
X73778089Y-47220500D01*
X73778092Y-47220500D01*
X74011368Y-47183553D01*
X74235992Y-47110568D01*
X74446433Y-47003343D01*
X74637510Y-46864517D01*
X74804517Y-46697510D01*
X74943343Y-46506433D01*
X75050568Y-46295992D01*
X75123553Y-46071368D01*
X75160500Y-45838092D01*
X75160500Y-45601908D01*
X75123553Y-45368632D01*
X75050568Y-45144008D01*
X74943343Y-44933567D01*
X74804517Y-44742490D01*
X74804515Y-44742487D01*
X74637512Y-44575484D01*
X74446436Y-44436659D01*
X74446435Y-44436658D01*
X74446433Y-44436657D01*
X74235992Y-44329432D01*
X74011368Y-44256447D01*
X73778092Y-44219500D01*
X73541908Y-44219500D01*
X73308632Y-44256447D01*
X73308629Y-44256447D01*
X73308628Y-44256448D01*
X73084008Y-44329432D01*
X73084006Y-44329433D01*
X72873563Y-44436659D01*
X72682487Y-44575484D01*
X72515484Y-44742487D01*
X72376659Y-44933563D01*
X72269433Y-45144006D01*
X72269432Y-45144008D01*
X72204056Y-45345215D01*
X72196447Y-45368632D01*
X72159500Y-45601908D01*
X39224128Y-45601908D01*
X39185945Y-45557842D01*
X39175841Y-45487568D01*
X39187377Y-45454264D01*
X39185840Y-45453580D01*
X39188518Y-45447560D01*
X39188527Y-45447546D01*
X39247542Y-45265918D01*
X39267504Y-45075990D01*
X39247542Y-44886062D01*
X39188527Y-44704434D01*
X39093040Y-44539046D01*
X39093038Y-44539044D01*
X39093034Y-44539038D01*
X38965255Y-44397125D01*
X38810752Y-44284872D01*
X38702683Y-44236757D01*
X38636288Y-44207196D01*
X38636287Y-44207195D01*
X38636283Y-44207194D01*
X38459303Y-44169575D01*
X38396829Y-44135847D01*
X38362508Y-44073697D01*
X38359500Y-44046329D01*
X38359500Y-42672000D01*
X41250496Y-42672000D01*
X41270457Y-42861927D01*
X41300526Y-42954470D01*
X41329473Y-43043556D01*
X41329473Y-43043557D01*
X41329474Y-43043558D01*
X41371876Y-43117001D01*
X41388613Y-43185996D01*
X41371876Y-43242999D01*
X41329474Y-43316441D01*
X41329473Y-43316443D01*
X41329473Y-43316444D01*
X41324126Y-43332900D01*
X41270457Y-43498072D01*
X41250496Y-43688000D01*
X41270457Y-43877927D01*
X41284557Y-43921320D01*
X41329473Y-44059556D01*
X41333195Y-44066003D01*
X41424958Y-44224941D01*
X41424965Y-44224951D01*
X41552744Y-44366864D01*
X41552747Y-44366866D01*
X41707248Y-44479118D01*
X41881712Y-44556794D01*
X42068513Y-44596500D01*
X42259487Y-44596500D01*
X42446288Y-44556794D01*
X42620752Y-44479118D01*
X42775253Y-44366866D01*
X42903040Y-44224944D01*
X42998527Y-44059556D01*
X43057542Y-43877928D01*
X43077504Y-43688000D01*
X43057542Y-43498072D01*
X42998527Y-43316444D01*
X42956123Y-43243000D01*
X42939386Y-43174006D01*
X42956124Y-43116999D01*
X42969809Y-43093296D01*
X42998527Y-43043556D01*
X43057542Y-42861928D01*
X43077504Y-42672000D01*
X43057542Y-42482072D01*
X42998527Y-42300444D01*
X42903040Y-42135056D01*
X42903038Y-42135054D01*
X42903034Y-42135048D01*
X42775255Y-41993135D01*
X42620752Y-41880882D01*
X42446288Y-41803206D01*
X42259487Y-41763500D01*
X42068513Y-41763500D01*
X41881711Y-41803206D01*
X41707247Y-41880882D01*
X41552744Y-41993135D01*
X41424965Y-42135048D01*
X41424958Y-42135058D01*
X41329476Y-42300438D01*
X41329473Y-42300445D01*
X41270457Y-42482072D01*
X41250496Y-42672000D01*
X38359500Y-42672000D01*
X38359500Y-39247500D01*
X38379502Y-39179379D01*
X38433158Y-39132886D01*
X38485500Y-39121500D01*
X38850671Y-39121500D01*
X38918792Y-39141502D01*
X38965285Y-39195158D01*
X38975981Y-39260670D01*
X38964490Y-39370000D01*
X38984451Y-39559927D01*
X39014520Y-39652470D01*
X39043467Y-39741556D01*
X39067601Y-39783357D01*
X39138952Y-39906941D01*
X39138959Y-39906951D01*
X39266738Y-40048864D01*
X39266741Y-40048866D01*
X39421242Y-40161118D01*
X39595706Y-40238794D01*
X39782507Y-40278500D01*
X39973481Y-40278500D01*
X40160282Y-40238794D01*
X40334746Y-40161118D01*
X40480854Y-40054964D01*
X40547722Y-40031105D01*
X40554915Y-40030900D01*
X43108056Y-40030900D01*
X43176177Y-40050902D01*
X43197151Y-40067805D01*
X46218234Y-43088887D01*
X46218255Y-43088910D01*
X46314695Y-43185350D01*
X46314705Y-43185359D01*
X46400971Y-43242999D01*
X46410253Y-43249201D01*
X46422946Y-43257682D01*
X46543223Y-43307502D01*
X46670906Y-43332900D01*
X46670907Y-43332900D01*
X54198142Y-43332900D01*
X54266263Y-43352902D01*
X54312756Y-43406558D01*
X54323452Y-43472070D01*
X54306096Y-43637204D01*
X54326057Y-43827131D01*
X54356126Y-43919674D01*
X54385073Y-44008760D01*
X54385076Y-44008765D01*
X54480558Y-44174145D01*
X54480565Y-44174155D01*
X54608344Y-44316068D01*
X54669599Y-44360572D01*
X54762848Y-44428322D01*
X54937312Y-44505998D01*
X55124113Y-44545704D01*
X55315087Y-44545704D01*
X55501888Y-44505998D01*
X55676352Y-44428322D01*
X55830853Y-44316070D01*
X55917805Y-44219500D01*
X55958634Y-44174155D01*
X55958635Y-44174153D01*
X55958640Y-44174148D01*
X56054127Y-44008760D01*
X56113142Y-43827132D01*
X56133104Y-43637204D01*
X56115748Y-43472070D01*
X56128520Y-43402232D01*
X56177022Y-43350385D01*
X56241058Y-43332900D01*
X62295092Y-43332900D01*
X62295093Y-43332900D01*
X62422777Y-43307502D01*
X62543054Y-43257682D01*
X62651299Y-43185355D01*
X64148497Y-41688157D01*
X64220824Y-41579912D01*
X64270644Y-41459635D01*
X64296042Y-41331951D01*
X64296042Y-41201764D01*
X64296042Y-40640000D01*
X68936496Y-40640000D01*
X68956457Y-40829927D01*
X68972090Y-40878038D01*
X69015473Y-41011556D01*
X69026375Y-41030438D01*
X69110958Y-41176941D01*
X69110965Y-41176951D01*
X69238744Y-41318864D01*
X69264982Y-41337927D01*
X69393248Y-41431118D01*
X69567712Y-41508794D01*
X69754513Y-41548500D01*
X69945487Y-41548500D01*
X70132288Y-41508794D01*
X70306752Y-41431118D01*
X70461253Y-41318866D01*
X70509249Y-41265561D01*
X70523620Y-41249600D01*
X72797296Y-41249600D01*
X72817257Y-41439527D01*
X72843370Y-41519891D01*
X72876273Y-41621156D01*
X72876276Y-41621161D01*
X72971758Y-41786541D01*
X72971765Y-41786551D01*
X73099544Y-41928464D01*
X73113978Y-41938951D01*
X73254048Y-42040718D01*
X73428512Y-42118394D01*
X73615313Y-42158100D01*
X73806287Y-42158100D01*
X73993088Y-42118394D01*
X74167552Y-42040718D01*
X74322053Y-41928466D01*
X74415796Y-41824354D01*
X74449834Y-41786551D01*
X74449835Y-41786549D01*
X74449840Y-41786544D01*
X74545327Y-41621156D01*
X74604342Y-41439528D01*
X74624304Y-41249600D01*
X74604342Y-41059672D01*
X74545327Y-40878044D01*
X74449840Y-40712656D01*
X74449838Y-40712654D01*
X74449834Y-40712648D01*
X74322055Y-40570735D01*
X74167552Y-40458482D01*
X73993088Y-40380806D01*
X73806287Y-40341100D01*
X73615313Y-40341100D01*
X73428511Y-40380806D01*
X73254047Y-40458482D01*
X73099544Y-40570735D01*
X72971765Y-40712648D01*
X72971758Y-40712658D01*
X72876276Y-40878038D01*
X72876273Y-40878045D01*
X72817257Y-41059672D01*
X72797296Y-41249600D01*
X70523620Y-41249600D01*
X70589034Y-41176951D01*
X70589035Y-41176949D01*
X70589040Y-41176944D01*
X70684527Y-41011556D01*
X70743542Y-40829928D01*
X70763504Y-40640000D01*
X70743542Y-40450072D01*
X70684527Y-40268444D01*
X70589040Y-40103056D01*
X70589038Y-40103054D01*
X70589034Y-40103048D01*
X70461255Y-39961135D01*
X70306752Y-39848882D01*
X70132288Y-39771206D01*
X69945487Y-39731500D01*
X69754513Y-39731500D01*
X69567711Y-39771206D01*
X69393247Y-39848882D01*
X69238744Y-39961135D01*
X69110965Y-40103048D01*
X69110958Y-40103058D01*
X69015476Y-40268438D01*
X69015473Y-40268445D01*
X68956457Y-40450072D01*
X68936496Y-40640000D01*
X64296042Y-40640000D01*
X64296042Y-39351965D01*
X64316044Y-39283844D01*
X64328406Y-39267654D01*
X64374182Y-39216815D01*
X64469669Y-39051427D01*
X64528684Y-38869799D01*
X64548646Y-38679871D01*
X64528684Y-38489943D01*
X64469669Y-38308315D01*
X64374182Y-38142927D01*
X64374180Y-38142925D01*
X64374176Y-38142919D01*
X64246397Y-38001006D01*
X64246310Y-38000943D01*
X64246271Y-38000893D01*
X64241490Y-37996588D01*
X64242277Y-37995713D01*
X64202958Y-37944719D01*
X64196884Y-37873983D01*
X64230018Y-37811192D01*
X64291839Y-37776283D01*
X64294116Y-37775775D01*
X64417290Y-37749594D01*
X64591754Y-37671918D01*
X64685235Y-37604000D01*
X69960298Y-37604000D01*
X69980259Y-37793927D01*
X70006272Y-37873983D01*
X70039275Y-37975556D01*
X70039278Y-37975561D01*
X70134760Y-38140941D01*
X70134767Y-38140951D01*
X70262546Y-38282864D01*
X70262549Y-38282866D01*
X70417050Y-38395118D01*
X70591514Y-38472794D01*
X70778315Y-38512500D01*
X70969289Y-38512500D01*
X71156090Y-38472794D01*
X71330554Y-38395118D01*
X71485055Y-38282866D01*
X71517032Y-38247352D01*
X71612836Y-38140951D01*
X71612837Y-38140949D01*
X71612842Y-38140944D01*
X71708329Y-37975556D01*
X71767344Y-37793928D01*
X71787306Y-37604000D01*
X71767344Y-37414072D01*
X71708329Y-37232444D01*
X71612842Y-37067056D01*
X71612840Y-37067054D01*
X71612836Y-37067048D01*
X71485057Y-36925135D01*
X71330554Y-36812882D01*
X71156090Y-36735206D01*
X70969289Y-36695500D01*
X70778315Y-36695500D01*
X70591513Y-36735206D01*
X70417049Y-36812882D01*
X70262546Y-36925135D01*
X70134767Y-37067048D01*
X70134760Y-37067058D01*
X70046189Y-37220468D01*
X70039275Y-37232444D01*
X70032806Y-37252354D01*
X69980259Y-37414072D01*
X69960298Y-37604000D01*
X64685235Y-37604000D01*
X64746255Y-37559666D01*
X64874042Y-37417744D01*
X64969529Y-37252356D01*
X65028544Y-37070728D01*
X65048506Y-36880800D01*
X65028544Y-36690872D01*
X64969529Y-36509244D01*
X64933685Y-36447160D01*
X64916947Y-36378165D01*
X64940167Y-36311073D01*
X64968741Y-36282225D01*
X65070952Y-36207965D01*
X65070954Y-36207963D01*
X65198733Y-36066050D01*
X65198734Y-36066048D01*
X65198739Y-36066043D01*
X65294226Y-35900655D01*
X65353241Y-35719027D01*
X65373203Y-35529099D01*
X65353241Y-35339171D01*
X65294226Y-35157543D01*
X65198739Y-34992155D01*
X65198737Y-34992153D01*
X65198733Y-34992147D01*
X65070954Y-34850234D01*
X64916451Y-34737981D01*
X64741987Y-34660305D01*
X64555186Y-34620599D01*
X64364212Y-34620599D01*
X64177410Y-34660305D01*
X64002946Y-34737981D01*
X63848443Y-34850234D01*
X63720664Y-34992147D01*
X63720657Y-34992157D01*
X63645423Y-35122467D01*
X63625172Y-35157543D01*
X63621269Y-35169556D01*
X63566156Y-35339171D01*
X63546195Y-35529099D01*
X63566156Y-35719026D01*
X63590450Y-35793793D01*
X63625172Y-35900655D01*
X63661016Y-35962739D01*
X63677754Y-36031733D01*
X63654534Y-36098825D01*
X63625958Y-36127674D01*
X63523746Y-36201935D01*
X63395967Y-36343848D01*
X63395960Y-36343858D01*
X63300478Y-36509238D01*
X63300475Y-36509245D01*
X63241459Y-36690872D01*
X63221498Y-36880800D01*
X63241459Y-37070727D01*
X63271528Y-37163270D01*
X63300475Y-37252356D01*
X63300478Y-37252361D01*
X63395960Y-37417741D01*
X63395967Y-37417751D01*
X63523746Y-37559664D01*
X63523749Y-37559667D01*
X63523829Y-37559725D01*
X63523863Y-37559770D01*
X63528654Y-37564083D01*
X63527865Y-37564959D01*
X63567184Y-37615947D01*
X63573260Y-37686683D01*
X63540128Y-37749475D01*
X63478308Y-37784386D01*
X63475967Y-37784907D01*
X63352857Y-37811075D01*
X63178389Y-37888753D01*
X63023886Y-38001006D01*
X62896107Y-38142919D01*
X62896100Y-38142929D01*
X62800618Y-38308309D01*
X62800615Y-38308316D01*
X62741599Y-38489943D01*
X62721638Y-38679871D01*
X62741599Y-38869798D01*
X62771668Y-38962341D01*
X62800615Y-39051427D01*
X62800618Y-39051432D01*
X62859872Y-39154064D01*
X62896102Y-39216815D01*
X62935589Y-39260670D01*
X62941878Y-39267654D01*
X62972595Y-39331662D01*
X62974242Y-39351965D01*
X62974242Y-40940914D01*
X62954240Y-41009035D01*
X62937341Y-41030004D01*
X62672846Y-41294500D01*
X62433868Y-41533478D01*
X62371556Y-41567503D01*
X62300740Y-41562438D01*
X62243905Y-41519891D01*
X62219094Y-41453371D01*
X62234186Y-41383997D01*
X62235609Y-41381459D01*
X62302527Y-41265556D01*
X62361542Y-41083928D01*
X62381504Y-40894000D01*
X62361542Y-40704072D01*
X62302527Y-40522444D01*
X62207040Y-40357056D01*
X62207038Y-40357054D01*
X62207034Y-40357048D01*
X62079255Y-40215135D01*
X61924752Y-40102882D01*
X61750288Y-40025206D01*
X61563487Y-39985500D01*
X61372513Y-39985500D01*
X61185711Y-40025206D01*
X61011247Y-40102882D01*
X60856744Y-40215135D01*
X60728965Y-40357048D01*
X60728958Y-40357058D01*
X60633476Y-40522438D01*
X60633473Y-40522444D01*
X60618999Y-40566986D01*
X60574457Y-40704072D01*
X60554496Y-40894000D01*
X60574457Y-41083927D01*
X60595276Y-41148000D01*
X60633473Y-41265556D01*
X60633476Y-41265561D01*
X60728958Y-41430941D01*
X60728965Y-41430951D01*
X60856744Y-41572864D01*
X60856747Y-41572866D01*
X61011248Y-41685118D01*
X61136321Y-41740803D01*
X61185716Y-41762796D01*
X61191992Y-41764835D01*
X61191218Y-41767214D01*
X61243762Y-41795585D01*
X61278081Y-41857736D01*
X61273350Y-41928575D01*
X61231072Y-41985611D01*
X61164670Y-42010735D01*
X61155088Y-42011100D01*
X56405169Y-42011100D01*
X56337048Y-41991098D01*
X56290555Y-41937442D01*
X56280451Y-41867168D01*
X56309945Y-41802588D01*
X56311533Y-41800790D01*
X56415834Y-41684951D01*
X56415835Y-41684949D01*
X56415840Y-41684944D01*
X56511327Y-41519556D01*
X56570342Y-41337928D01*
X56590304Y-41148000D01*
X56570342Y-40958072D01*
X56511327Y-40776444D01*
X56415840Y-40611056D01*
X56415838Y-40611054D01*
X56415834Y-40611048D01*
X56288055Y-40469135D01*
X56133552Y-40356882D01*
X55959088Y-40279206D01*
X55772287Y-40239500D01*
X55581313Y-40239500D01*
X55394511Y-40279206D01*
X55220047Y-40356882D01*
X55065544Y-40469135D01*
X54937765Y-40611048D01*
X54937758Y-40611058D01*
X54842276Y-40776438D01*
X54842273Y-40776445D01*
X54783257Y-40958072D01*
X54763296Y-41148000D01*
X54783257Y-41337927D01*
X54798227Y-41383997D01*
X54842273Y-41519556D01*
X54850311Y-41533478D01*
X54937758Y-41684941D01*
X54937765Y-41684951D01*
X55042067Y-41800790D01*
X55072785Y-41864797D01*
X55064020Y-41935251D01*
X55018557Y-41989782D01*
X54950830Y-42011077D01*
X54948431Y-42011100D01*
X50627349Y-42011100D01*
X50559228Y-41991098D01*
X50512735Y-41937442D01*
X50502631Y-41867168D01*
X50515209Y-41830821D01*
X50514240Y-41830390D01*
X50516918Y-41824370D01*
X50516927Y-41824356D01*
X50575942Y-41642728D01*
X50595904Y-41452800D01*
X50575942Y-41262872D01*
X50516927Y-41081244D01*
X50421440Y-40915856D01*
X50421438Y-40915854D01*
X50421434Y-40915848D01*
X50293655Y-40773935D01*
X50139152Y-40661682D01*
X49964688Y-40584006D01*
X49777887Y-40544300D01*
X49586913Y-40544300D01*
X49400111Y-40584006D01*
X49225647Y-40661682D01*
X49071144Y-40773935D01*
X48943365Y-40915848D01*
X48943358Y-40915858D01*
X48847876Y-41081238D01*
X48847873Y-41081244D01*
X48847001Y-41083928D01*
X48788857Y-41262872D01*
X48768896Y-41452800D01*
X48788857Y-41642727D01*
X48818926Y-41735270D01*
X48847873Y-41824356D01*
X48847876Y-41824362D01*
X48850560Y-41830390D01*
X48848775Y-41831184D01*
X48863308Y-41891105D01*
X48840082Y-41958195D01*
X48784271Y-42002078D01*
X48737451Y-42011100D01*
X47061943Y-42011100D01*
X46993822Y-41991098D01*
X46972848Y-41974195D01*
X45088062Y-40089408D01*
X45054036Y-40027096D01*
X45059101Y-39956280D01*
X45101648Y-39899445D01*
X45168168Y-39874634D01*
X45237542Y-39889725D01*
X45251208Y-39898370D01*
X45263248Y-39907118D01*
X45437712Y-39984794D01*
X45624513Y-40024500D01*
X45815487Y-40024500D01*
X46002288Y-39984794D01*
X46176752Y-39907118D01*
X46331253Y-39794866D01*
X46379249Y-39741561D01*
X46459034Y-39652951D01*
X46459035Y-39652949D01*
X46459040Y-39652944D01*
X46554527Y-39487556D01*
X46591943Y-39372402D01*
X51258096Y-39372402D01*
X51278057Y-39562329D01*
X51291397Y-39603383D01*
X51337073Y-39743958D01*
X51337076Y-39743963D01*
X51432558Y-39909343D01*
X51432565Y-39909353D01*
X51560344Y-40051266D01*
X51560347Y-40051268D01*
X51714848Y-40163520D01*
X51889312Y-40241196D01*
X52076113Y-40280902D01*
X52267087Y-40280902D01*
X52453888Y-40241196D01*
X52508215Y-40217007D01*
X52578582Y-40207573D01*
X52642880Y-40237679D01*
X52680693Y-40297767D01*
X52684775Y-40345283D01*
X52680496Y-40385999D01*
X52700457Y-40575927D01*
X52721276Y-40640000D01*
X52759473Y-40757556D01*
X52770375Y-40776438D01*
X52854958Y-40922941D01*
X52854965Y-40922951D01*
X52982744Y-41064864D01*
X52982747Y-41064866D01*
X53137248Y-41177118D01*
X53311712Y-41254794D01*
X53498513Y-41294500D01*
X53689487Y-41294500D01*
X53876288Y-41254794D01*
X54050752Y-41177118D01*
X54205253Y-41064866D01*
X54236252Y-41030438D01*
X54333034Y-40922951D01*
X54333035Y-40922949D01*
X54333040Y-40922944D01*
X54428527Y-40757556D01*
X54487542Y-40575928D01*
X54507504Y-40386000D01*
X54487542Y-40196072D01*
X54428527Y-40014444D01*
X54333040Y-39849056D01*
X54333038Y-39849054D01*
X54333034Y-39849048D01*
X54205255Y-39707135D01*
X54050752Y-39594882D01*
X53998716Y-39571714D01*
X53944621Y-39525735D01*
X53923972Y-39457808D01*
X53943324Y-39389500D01*
X53996535Y-39342498D01*
X54049966Y-39330608D01*
X58811409Y-39330608D01*
X58879530Y-39350610D01*
X58885470Y-39354672D01*
X58961658Y-39410026D01*
X59136122Y-39487702D01*
X59322923Y-39527408D01*
X59513897Y-39527408D01*
X59700698Y-39487702D01*
X59875162Y-39410026D01*
X60029663Y-39297774D01*
X60042206Y-39283844D01*
X60157444Y-39155859D01*
X60157445Y-39155857D01*
X60157450Y-39155852D01*
X60252937Y-38990464D01*
X60311952Y-38808836D01*
X60331914Y-38618908D01*
X60311952Y-38428980D01*
X60252937Y-38247352D01*
X60157450Y-38081964D01*
X60157448Y-38081962D01*
X60157444Y-38081956D01*
X60029665Y-37940043D01*
X59875162Y-37827790D01*
X59700698Y-37750114D01*
X59513897Y-37710408D01*
X59322923Y-37710408D01*
X59136121Y-37750114D01*
X58961657Y-37827790D01*
X58885470Y-37883144D01*
X58818602Y-37907003D01*
X58811409Y-37907208D01*
X53001423Y-37907208D01*
X53001403Y-37907207D01*
X52995190Y-37907207D01*
X52854997Y-37907207D01*
X52717498Y-37934558D01*
X52717490Y-37934560D01*
X52704260Y-37940041D01*
X52704259Y-37940042D01*
X52587976Y-37988207D01*
X52471415Y-38066091D01*
X52471408Y-38066096D01*
X52396564Y-38140941D01*
X52372280Y-38165225D01*
X52372277Y-38165228D01*
X52229196Y-38308309D01*
X52099318Y-38438187D01*
X52037006Y-38472212D01*
X52036421Y-38472337D01*
X51889315Y-38503606D01*
X51714847Y-38581284D01*
X51560344Y-38693537D01*
X51432565Y-38835450D01*
X51432558Y-38835460D01*
X51337076Y-39000840D01*
X51337073Y-39000847D01*
X51278057Y-39182474D01*
X51258096Y-39372402D01*
X46591943Y-39372402D01*
X46613542Y-39305928D01*
X46622602Y-39219719D01*
X46649614Y-39154064D01*
X46707835Y-39113433D01*
X46721129Y-39109769D01*
X46721147Y-39109765D01*
X46721157Y-39109764D01*
X46772668Y-39098558D01*
X46876827Y-39063890D01*
X46999782Y-38984871D01*
X46999784Y-38984868D01*
X46999786Y-38984868D01*
X47026184Y-38961993D01*
X47052586Y-38939116D01*
X47148297Y-38828661D01*
X47209014Y-38695713D01*
X47228699Y-38628674D01*
X47228700Y-38628670D01*
X47249500Y-38484000D01*
X47249500Y-37237536D01*
X47249215Y-37220443D01*
X47248940Y-37212186D01*
X47248085Y-37195086D01*
X47217698Y-37052122D01*
X47194246Y-36988320D01*
X47193753Y-36986912D01*
X47193595Y-36986548D01*
X47193593Y-36986542D01*
X47193592Y-36986539D01*
X47149678Y-36905199D01*
X47134918Y-36835757D01*
X47160045Y-36769356D01*
X47166914Y-36761037D01*
X47170240Y-36757344D01*
X47265727Y-36591956D01*
X47324742Y-36410328D01*
X47344704Y-36220400D01*
X47324742Y-36030472D01*
X47265727Y-35848844D01*
X47170240Y-35683456D01*
X47170238Y-35683454D01*
X47170234Y-35683448D01*
X47169931Y-35683112D01*
X47169817Y-35682874D01*
X47166357Y-35678112D01*
X47167228Y-35677478D01*
X47139220Y-35619102D01*
X47147990Y-35548649D01*
X47148928Y-35546541D01*
X47209014Y-35414976D01*
X47228699Y-35347937D01*
X47228700Y-35347933D01*
X47234729Y-35306000D01*
X53442496Y-35306000D01*
X53462457Y-35495927D01*
X53479588Y-35548649D01*
X53521473Y-35677556D01*
X53524543Y-35682874D01*
X53616958Y-35842941D01*
X53616965Y-35842951D01*
X53744744Y-35984864D01*
X53753030Y-35990884D01*
X53899248Y-36097118D01*
X54073712Y-36174794D01*
X54260513Y-36214500D01*
X54451487Y-36214500D01*
X54638288Y-36174794D01*
X54812752Y-36097118D01*
X54967253Y-35984866D01*
X54987178Y-35962737D01*
X55095034Y-35842951D01*
X55095035Y-35842949D01*
X55095040Y-35842944D01*
X55190527Y-35677556D01*
X55249542Y-35495928D01*
X55269504Y-35306000D01*
X55249542Y-35116072D01*
X55237760Y-35079810D01*
X55520696Y-35079810D01*
X55540657Y-35269737D01*
X55566067Y-35347938D01*
X55599673Y-35451366D01*
X55624301Y-35494023D01*
X55695158Y-35616751D01*
X55695165Y-35616761D01*
X55822944Y-35758674D01*
X55822947Y-35758676D01*
X55977448Y-35870928D01*
X56151912Y-35948604D01*
X56338713Y-35988310D01*
X56529687Y-35988310D01*
X56716488Y-35948604D01*
X56890952Y-35870928D01*
X57045453Y-35758676D01*
X57081154Y-35719026D01*
X57173234Y-35616761D01*
X57173235Y-35616759D01*
X57173240Y-35616754D01*
X57268727Y-35451366D01*
X57271043Y-35444235D01*
X57311115Y-35385632D01*
X57376512Y-35357994D01*
X57446469Y-35370100D01*
X57484512Y-35398863D01*
X57554744Y-35476864D01*
X57554747Y-35476866D01*
X57709248Y-35589118D01*
X57883712Y-35666794D01*
X58070513Y-35706500D01*
X58261487Y-35706500D01*
X58448288Y-35666794D01*
X58622752Y-35589118D01*
X58777253Y-35476866D01*
X58800209Y-35451371D01*
X58905034Y-35334951D01*
X58905035Y-35334949D01*
X58905040Y-35334944D01*
X59000527Y-35169556D01*
X59059542Y-34987928D01*
X59079504Y-34798000D01*
X59059542Y-34608072D01*
X59052215Y-34585523D01*
X66650502Y-34585523D01*
X66670463Y-34775450D01*
X66694762Y-34850233D01*
X66729479Y-34957079D01*
X66729482Y-34957084D01*
X66824964Y-35122464D01*
X66824971Y-35122474D01*
X66952750Y-35264387D01*
X66952753Y-35264389D01*
X67107254Y-35376641D01*
X67281718Y-35454317D01*
X67468519Y-35494023D01*
X67659493Y-35494023D01*
X67846294Y-35454317D01*
X68020758Y-35376641D01*
X68175259Y-35264389D01*
X68251678Y-35179517D01*
X68303040Y-35122474D01*
X68303041Y-35122472D01*
X68303046Y-35122467D01*
X68398533Y-34957079D01*
X68457548Y-34775451D01*
X68477510Y-34585523D01*
X68457548Y-34395595D01*
X68398533Y-34213967D01*
X68303046Y-34048579D01*
X68303044Y-34048577D01*
X68303040Y-34048571D01*
X68175261Y-33906658D01*
X68020758Y-33794405D01*
X67846294Y-33716729D01*
X67659493Y-33677023D01*
X67468519Y-33677023D01*
X67281717Y-33716729D01*
X67107253Y-33794405D01*
X66952750Y-33906658D01*
X66824971Y-34048571D01*
X66824964Y-34048581D01*
X66729482Y-34213961D01*
X66729479Y-34213968D01*
X66670463Y-34395595D01*
X66650502Y-34585523D01*
X59052215Y-34585523D01*
X59000527Y-34426444D01*
X58905040Y-34261056D01*
X58905038Y-34261054D01*
X58905034Y-34261048D01*
X58777255Y-34119135D01*
X58622752Y-34006882D01*
X58448288Y-33929206D01*
X58261487Y-33889500D01*
X58070513Y-33889500D01*
X57883711Y-33929206D01*
X57709247Y-34006882D01*
X57554744Y-34119135D01*
X57426965Y-34261048D01*
X57426958Y-34261058D01*
X57331476Y-34426438D01*
X57331469Y-34426452D01*
X57329153Y-34433581D01*
X57289075Y-34492184D01*
X57223676Y-34519816D01*
X57153720Y-34507704D01*
X57115686Y-34478946D01*
X57045452Y-34400943D01*
X56890952Y-34288692D01*
X56716488Y-34211016D01*
X56529687Y-34171310D01*
X56338713Y-34171310D01*
X56151911Y-34211016D01*
X55977447Y-34288692D01*
X55822944Y-34400945D01*
X55695165Y-34542858D01*
X55695158Y-34542868D01*
X55599676Y-34708248D01*
X55599673Y-34708255D01*
X55540657Y-34889882D01*
X55520696Y-35079810D01*
X55237760Y-35079810D01*
X55190527Y-34934444D01*
X55095040Y-34769056D01*
X55095038Y-34769054D01*
X55095034Y-34769048D01*
X54967255Y-34627135D01*
X54812752Y-34514882D01*
X54638288Y-34437206D01*
X54451487Y-34397500D01*
X54260513Y-34397500D01*
X54073711Y-34437206D01*
X53899247Y-34514882D01*
X53744744Y-34627135D01*
X53616965Y-34769048D01*
X53616958Y-34769058D01*
X53521476Y-34934438D01*
X53521473Y-34934444D01*
X53514117Y-34957084D01*
X53462457Y-35116072D01*
X53442496Y-35306000D01*
X47234729Y-35306000D01*
X47249500Y-35203263D01*
X47249500Y-34362773D01*
X47269502Y-34294652D01*
X47323158Y-34248159D01*
X47393432Y-34238055D01*
X47414438Y-34242940D01*
X47418909Y-34244392D01*
X47418912Y-34244394D01*
X47605713Y-34284100D01*
X47796687Y-34284100D01*
X47983488Y-34244394D01*
X48157952Y-34166718D01*
X48160539Y-34164838D01*
X48162288Y-34164214D01*
X48163669Y-34163417D01*
X48163814Y-34163669D01*
X48227404Y-34140980D01*
X48296556Y-34157059D01*
X48308652Y-34164832D01*
X48311248Y-34166718D01*
X48485712Y-34244394D01*
X48672513Y-34284100D01*
X48863487Y-34284100D01*
X49050288Y-34244394D01*
X49224752Y-34166718D01*
X49379253Y-34054466D01*
X49405031Y-34025837D01*
X49507034Y-33912551D01*
X49507035Y-33912549D01*
X49507040Y-33912544D01*
X49602527Y-33747156D01*
X49661542Y-33565528D01*
X49681504Y-33375600D01*
X49661542Y-33185672D01*
X49605017Y-33011706D01*
X55774696Y-33011706D01*
X55794657Y-33201633D01*
X55818171Y-33274000D01*
X55853673Y-33383262D01*
X55853676Y-33383267D01*
X55949158Y-33548647D01*
X55949165Y-33548657D01*
X56076944Y-33690570D01*
X56076947Y-33690572D01*
X56231448Y-33802824D01*
X56405912Y-33880500D01*
X56592713Y-33920206D01*
X56783687Y-33920206D01*
X56970488Y-33880500D01*
X57144952Y-33802824D01*
X57299453Y-33690572D01*
X57317111Y-33670961D01*
X57427234Y-33548657D01*
X57427235Y-33548655D01*
X57427240Y-33548650D01*
X57522727Y-33383262D01*
X57581742Y-33201634D01*
X57601704Y-33011706D01*
X57581742Y-32821778D01*
X57522727Y-32640150D01*
X57516658Y-32629638D01*
X57499919Y-32560643D01*
X57516657Y-32503636D01*
X57518382Y-32500649D01*
X57613869Y-32335261D01*
X57672884Y-32153633D01*
X57683272Y-32054800D01*
X58827296Y-32054800D01*
X58847257Y-32244727D01*
X58856756Y-32273961D01*
X58906273Y-32426356D01*
X58906276Y-32426361D01*
X59001758Y-32591741D01*
X59001765Y-32591751D01*
X59129544Y-32733664D01*
X59174034Y-32765988D01*
X59284048Y-32845918D01*
X59458512Y-32923594D01*
X59645313Y-32963300D01*
X59836287Y-32963300D01*
X60023088Y-32923594D01*
X60197552Y-32845918D01*
X60311302Y-32763272D01*
X60378165Y-32739417D01*
X60447316Y-32755496D01*
X60459421Y-32763276D01*
X60503243Y-32795115D01*
X60503245Y-32795116D01*
X60503248Y-32795118D01*
X60677712Y-32872794D01*
X60864513Y-32912500D01*
X61055487Y-32912500D01*
X61242288Y-32872794D01*
X61416752Y-32795118D01*
X61571253Y-32682866D01*
X61576688Y-32676830D01*
X61699034Y-32540951D01*
X61699035Y-32540949D01*
X61699040Y-32540944D01*
X61794527Y-32375556D01*
X61853542Y-32193928D01*
X61873504Y-32004000D01*
X61862826Y-31902400D01*
X62586496Y-31902400D01*
X62606457Y-32092327D01*
X62626377Y-32153632D01*
X62665473Y-32273956D01*
X62673599Y-32288031D01*
X62760958Y-32439341D01*
X62760965Y-32439351D01*
X62888744Y-32581264D01*
X62928597Y-32610219D01*
X63043248Y-32693518D01*
X63217712Y-32771194D01*
X63404513Y-32810900D01*
X63581846Y-32810900D01*
X63649967Y-32830902D01*
X63696460Y-32884558D01*
X63706564Y-32954832D01*
X63701679Y-32975837D01*
X63658257Y-33109472D01*
X63638296Y-33299400D01*
X63658257Y-33489327D01*
X63680995Y-33559306D01*
X63717273Y-33670956D01*
X63717276Y-33670961D01*
X63812758Y-33836341D01*
X63812765Y-33836351D01*
X63940544Y-33978264D01*
X63940547Y-33978266D01*
X64095048Y-34090518D01*
X64269512Y-34168194D01*
X64456313Y-34207900D01*
X64647287Y-34207900D01*
X64834088Y-34168194D01*
X65008552Y-34090518D01*
X65163053Y-33978266D01*
X65207227Y-33929206D01*
X65290834Y-33836351D01*
X65290835Y-33836349D01*
X65290840Y-33836344D01*
X65386327Y-33670956D01*
X65445342Y-33489328D01*
X65445342Y-33489326D01*
X65445343Y-33489324D01*
X65446716Y-33482867D01*
X65449472Y-33483452D01*
X65471704Y-33429280D01*
X65529890Y-33388599D01*
X65600832Y-33385833D01*
X65662009Y-33421860D01*
X65663706Y-33423708D01*
X65673503Y-33434588D01*
X65682747Y-33444854D01*
X65837248Y-33557106D01*
X66011712Y-33634782D01*
X66198513Y-33674488D01*
X66389487Y-33674488D01*
X66576288Y-33634782D01*
X66750752Y-33557106D01*
X66905253Y-33444854D01*
X66960711Y-33383262D01*
X67033034Y-33302939D01*
X67033035Y-33302937D01*
X67033040Y-33302932D01*
X67128527Y-33137544D01*
X67187542Y-32955916D01*
X67207504Y-32765988D01*
X67187542Y-32576060D01*
X67128527Y-32394432D01*
X67033040Y-32229044D01*
X67033038Y-32229042D01*
X67033034Y-32229036D01*
X66905255Y-32087123D01*
X66750752Y-31974870D01*
X66576288Y-31897194D01*
X66389487Y-31857488D01*
X66198513Y-31857488D01*
X66011711Y-31897194D01*
X65837247Y-31974870D01*
X65682744Y-32087123D01*
X65554965Y-32229036D01*
X65554958Y-32229046D01*
X65459476Y-32394426D01*
X65459473Y-32394433D01*
X65400456Y-32576063D01*
X65399084Y-32582521D01*
X65396350Y-32581939D01*
X65374012Y-32636210D01*
X65315784Y-32676830D01*
X65244839Y-32679522D01*
X65183700Y-32643430D01*
X65182093Y-32641679D01*
X65163053Y-32620534D01*
X65008552Y-32508282D01*
X64834088Y-32430606D01*
X64647287Y-32390900D01*
X64469954Y-32390900D01*
X64401833Y-32370898D01*
X64355340Y-32317242D01*
X64345236Y-32246968D01*
X64350121Y-32225963D01*
X64360530Y-32193927D01*
X64393542Y-32092328D01*
X64413504Y-31902400D01*
X64393542Y-31712472D01*
X64334527Y-31530844D01*
X64314410Y-31496000D01*
X68479296Y-31496000D01*
X68499257Y-31685927D01*
X68527802Y-31773777D01*
X68558273Y-31867556D01*
X68558276Y-31867561D01*
X68653758Y-32032941D01*
X68653765Y-32032951D01*
X68781544Y-32174864D01*
X68781547Y-32174866D01*
X68936048Y-32287118D01*
X69110512Y-32364794D01*
X69297313Y-32404500D01*
X69488287Y-32404500D01*
X69675088Y-32364794D01*
X69849552Y-32287118D01*
X70004053Y-32174866D01*
X70051077Y-32122641D01*
X70131834Y-32032951D01*
X70131835Y-32032949D01*
X70131840Y-32032944D01*
X70227327Y-31867556D01*
X70286342Y-31685928D01*
X70306304Y-31496000D01*
X70286342Y-31306072D01*
X70227327Y-31124444D01*
X70131840Y-30959056D01*
X70131838Y-30959054D01*
X70131834Y-30959048D01*
X70004055Y-30817135D01*
X69849552Y-30704882D01*
X69675088Y-30627206D01*
X69488287Y-30587500D01*
X69297313Y-30587500D01*
X69110511Y-30627206D01*
X68936047Y-30704882D01*
X68781544Y-30817135D01*
X68653765Y-30959048D01*
X68653758Y-30959058D01*
X68572706Y-31099445D01*
X68558273Y-31124444D01*
X68543799Y-31168986D01*
X68499257Y-31306072D01*
X68479296Y-31496000D01*
X64314410Y-31496000D01*
X64239040Y-31365456D01*
X64239038Y-31365454D01*
X64239034Y-31365448D01*
X64111255Y-31223535D01*
X63956752Y-31111282D01*
X63782288Y-31033606D01*
X63595487Y-30993900D01*
X63404513Y-30993900D01*
X63217711Y-31033606D01*
X63043247Y-31111282D01*
X62888744Y-31223535D01*
X62760965Y-31365448D01*
X62760958Y-31365458D01*
X62665476Y-31530838D01*
X62665473Y-31530845D01*
X62606457Y-31712472D01*
X62586496Y-31902400D01*
X61862826Y-31902400D01*
X61853542Y-31814072D01*
X61794527Y-31632444D01*
X61699040Y-31467056D01*
X61699038Y-31467054D01*
X61699034Y-31467048D01*
X61571255Y-31325135D01*
X61416752Y-31212882D01*
X61242288Y-31135206D01*
X61055487Y-31095500D01*
X60864513Y-31095500D01*
X60677711Y-31135206D01*
X60503247Y-31212882D01*
X60389501Y-31295524D01*
X60322633Y-31319383D01*
X60253482Y-31303302D01*
X60241379Y-31295524D01*
X60197554Y-31263683D01*
X60197553Y-31263682D01*
X60023088Y-31186006D01*
X59836287Y-31146300D01*
X59645313Y-31146300D01*
X59458511Y-31186006D01*
X59284047Y-31263682D01*
X59129544Y-31375935D01*
X59001765Y-31517848D01*
X59001758Y-31517858D01*
X58906276Y-31683238D01*
X58906273Y-31683244D01*
X58905401Y-31685928D01*
X58847257Y-31864872D01*
X58827296Y-32054800D01*
X57683272Y-32054800D01*
X57692846Y-31963705D01*
X57672884Y-31773777D01*
X57613869Y-31592149D01*
X57518382Y-31426761D01*
X57518380Y-31426759D01*
X57518376Y-31426753D01*
X57390597Y-31284840D01*
X57236094Y-31172587D01*
X57061630Y-31094911D01*
X56874829Y-31055205D01*
X56683855Y-31055205D01*
X56497053Y-31094911D01*
X56322589Y-31172587D01*
X56168086Y-31284840D01*
X56040307Y-31426753D01*
X56040300Y-31426763D01*
X55944818Y-31592143D01*
X55944815Y-31592150D01*
X55885799Y-31773777D01*
X55865838Y-31963705D01*
X55885799Y-32153632D01*
X55910300Y-32229036D01*
X55944815Y-32335261D01*
X55944816Y-32335262D01*
X55944817Y-32335266D01*
X55950886Y-32345777D01*
X55967622Y-32414773D01*
X55950884Y-32471774D01*
X55853676Y-32640144D01*
X55853673Y-32640150D01*
X55850904Y-32648672D01*
X55794657Y-32821778D01*
X55774696Y-33011706D01*
X49605017Y-33011706D01*
X49602527Y-33004044D01*
X49507040Y-32838656D01*
X49507038Y-32838654D01*
X49507034Y-32838648D01*
X49379255Y-32696735D01*
X49224752Y-32584482D01*
X49050288Y-32506806D01*
X48863487Y-32467100D01*
X48672513Y-32467100D01*
X48485711Y-32506806D01*
X48406204Y-32542205D01*
X48315653Y-32582521D01*
X48311244Y-32584484D01*
X48308655Y-32586365D01*
X48306902Y-32586990D01*
X48305524Y-32587786D01*
X48305378Y-32587533D01*
X48241785Y-32610219D01*
X48172635Y-32594134D01*
X48160545Y-32586365D01*
X48157955Y-32584484D01*
X48157954Y-32584483D01*
X48157952Y-32584482D01*
X47983488Y-32506806D01*
X47796687Y-32467100D01*
X47605713Y-32467100D01*
X47418905Y-32506807D01*
X47414428Y-32508262D01*
X47343460Y-32510284D01*
X47282665Y-32473618D01*
X47251344Y-32409903D01*
X47249500Y-32388426D01*
X47249500Y-30604004D01*
X47249499Y-30603992D01*
X47247726Y-30587500D01*
X47237764Y-30494843D01*
X47226558Y-30443332D01*
X47191890Y-30339173D01*
X47112871Y-30216218D01*
X47112870Y-30216217D01*
X47112869Y-30216215D01*
X47112868Y-30216213D01*
X47067119Y-30163417D01*
X47050347Y-30148884D01*
X46956661Y-30067703D01*
X46874106Y-30030000D01*
X70666496Y-30030000D01*
X70686457Y-30219927D01*
X70716526Y-30312470D01*
X70745473Y-30401556D01*
X70745476Y-30401561D01*
X70840958Y-30566941D01*
X70840965Y-30566951D01*
X70968744Y-30708864D01*
X70968747Y-30708866D01*
X71123248Y-30821118D01*
X71297712Y-30898794D01*
X71484513Y-30938500D01*
X71675487Y-30938500D01*
X71862288Y-30898794D01*
X72036752Y-30821118D01*
X72191253Y-30708866D01*
X72285682Y-30603992D01*
X72319034Y-30566951D01*
X72319035Y-30566949D01*
X72319040Y-30566944D01*
X72414527Y-30401556D01*
X72473542Y-30219928D01*
X72493504Y-30030000D01*
X72473542Y-29840072D01*
X72414527Y-29658444D01*
X72319040Y-29493056D01*
X72319038Y-29493054D01*
X72319034Y-29493048D01*
X72191255Y-29351135D01*
X72036752Y-29238882D01*
X71862288Y-29161206D01*
X71675487Y-29121500D01*
X71484513Y-29121500D01*
X71297711Y-29161206D01*
X71123247Y-29238882D01*
X70968744Y-29351135D01*
X70840965Y-29493048D01*
X70840958Y-29493058D01*
X70745476Y-29658438D01*
X70745473Y-29658445D01*
X70686457Y-29840072D01*
X70666496Y-30030000D01*
X46874106Y-30030000D01*
X46823715Y-30006986D01*
X46756679Y-29987302D01*
X46756675Y-29987301D01*
X46756672Y-29987300D01*
X46756670Y-29987300D01*
X46612000Y-29966500D01*
X43304000Y-29966500D01*
X43303992Y-29966500D01*
X43210104Y-29976595D01*
X43194843Y-29978236D01*
X43194841Y-29978236D01*
X43194835Y-29978237D01*
X43143332Y-29989441D01*
X43039174Y-30024109D01*
X42916215Y-30103130D01*
X42916213Y-30103131D01*
X42863417Y-30148880D01*
X42767704Y-30259337D01*
X42767703Y-30259338D01*
X42706986Y-30392284D01*
X42687302Y-30459320D01*
X42687301Y-30459324D01*
X42687301Y-30459326D01*
X42687300Y-30459330D01*
X42666502Y-30603992D01*
X42666500Y-30604003D01*
X42666500Y-33434588D01*
X42646498Y-33502709D01*
X42592842Y-33549202D01*
X42522568Y-33559306D01*
X42457988Y-33529812D01*
X42431381Y-33497588D01*
X42365377Y-33383267D01*
X42344240Y-33346656D01*
X42344238Y-33346654D01*
X42344234Y-33346648D01*
X42216455Y-33204735D01*
X42061952Y-33092482D01*
X41887488Y-33014806D01*
X41700687Y-32975100D01*
X41509713Y-32975100D01*
X41322911Y-33014806D01*
X41148447Y-33092482D01*
X40993944Y-33204735D01*
X40866165Y-33346648D01*
X40866158Y-33346658D01*
X40770676Y-33512038D01*
X40770673Y-33512045D01*
X40711657Y-33693672D01*
X40691696Y-33883600D01*
X40711657Y-34073527D01*
X40738799Y-34157059D01*
X40770673Y-34255156D01*
X40770676Y-34255161D01*
X40866158Y-34420541D01*
X40866165Y-34420551D01*
X40993944Y-34562464D01*
X40993947Y-34562466D01*
X41148448Y-34674718D01*
X41322912Y-34752394D01*
X41509713Y-34792100D01*
X41700687Y-34792100D01*
X41887488Y-34752394D01*
X42061952Y-34674718D01*
X42216453Y-34562466D01*
X42224576Y-34553445D01*
X42344234Y-34420551D01*
X42344235Y-34420549D01*
X42344240Y-34420544D01*
X42431381Y-34269610D01*
X42482763Y-34220618D01*
X42552477Y-34207182D01*
X42618388Y-34233568D01*
X42659570Y-34291400D01*
X42666500Y-34332611D01*
X42666500Y-35682500D01*
X42646498Y-35750621D01*
X42592842Y-35797114D01*
X42540500Y-35808500D01*
X35175992Y-35808500D01*
X35082104Y-35818595D01*
X35066843Y-35820236D01*
X35066841Y-35820236D01*
X35066835Y-35820237D01*
X35015332Y-35831441D01*
X34911174Y-35866109D01*
X34788215Y-35945130D01*
X34788213Y-35945131D01*
X34735417Y-35990880D01*
X34639704Y-36101337D01*
X34639703Y-36101338D01*
X34578986Y-36234284D01*
X34559302Y-36301320D01*
X34559301Y-36301324D01*
X34538500Y-36446003D01*
X34538500Y-42110689D01*
X34518498Y-42178810D01*
X34464842Y-42225303D01*
X34394568Y-42235407D01*
X34361253Y-42225797D01*
X34324886Y-42209606D01*
X34138085Y-42169900D01*
X33947111Y-42169900D01*
X33760309Y-42209606D01*
X33585845Y-42287282D01*
X33431342Y-42399535D01*
X33303563Y-42541448D01*
X33303556Y-42541458D01*
X33208074Y-42706838D01*
X33208071Y-42706845D01*
X33149055Y-42888472D01*
X33129094Y-43078400D01*
X33149055Y-43268326D01*
X33151207Y-43274948D01*
X33153233Y-43345916D01*
X33116570Y-43406713D01*
X33052858Y-43438038D01*
X33044851Y-43439159D01*
X33034843Y-43440236D01*
X33034841Y-43440236D01*
X33034835Y-43440237D01*
X32983332Y-43451441D01*
X32879174Y-43486109D01*
X32756215Y-43565130D01*
X32756213Y-43565131D01*
X32703417Y-43610880D01*
X32607704Y-43721337D01*
X32607703Y-43721338D01*
X32546986Y-43854284D01*
X32527302Y-43921320D01*
X32527301Y-43921324D01*
X32527301Y-43921326D01*
X32527300Y-43921330D01*
X32507427Y-44059556D01*
X32506500Y-44066003D01*
X32506500Y-45643267D01*
X32486498Y-45711388D01*
X32432842Y-45757881D01*
X32362568Y-45767985D01*
X32320533Y-45754082D01*
X32297575Y-45741658D01*
X32297571Y-45741656D01*
X32084639Y-45668557D01*
X32084630Y-45668555D01*
X32040476Y-45661187D01*
X31862569Y-45631500D01*
X31637431Y-45631500D01*
X31489211Y-45656233D01*
X31415369Y-45668555D01*
X31415360Y-45668557D01*
X31202428Y-45741656D01*
X31202426Y-45741658D01*
X31024239Y-45838088D01*
X31004426Y-45848810D01*
X31004424Y-45848811D01*
X30826762Y-45987091D01*
X30674279Y-46152729D01*
X30674275Y-46152734D01*
X30551141Y-46341206D01*
X30460703Y-46547386D01*
X30460702Y-46547387D01*
X30405437Y-46765624D01*
X30405436Y-46765630D01*
X30405436Y-46765632D01*
X30386844Y-46990000D01*
X30402882Y-47183551D01*
X30405437Y-47214375D01*
X30460702Y-47432612D01*
X30460703Y-47432613D01*
X30460704Y-47432616D01*
X30532472Y-47596231D01*
X30551141Y-47638793D01*
X30663378Y-47810585D01*
X30683891Y-47878553D01*
X30664402Y-47946822D01*
X30611097Y-47993717D01*
X30557895Y-48005500D01*
X27943806Y-48005500D01*
X27936198Y-48005270D01*
X27672120Y-47989296D01*
X27657016Y-47987462D01*
X27400542Y-47940462D01*
X27385772Y-47936822D01*
X27174766Y-47871069D01*
X27136823Y-47859246D01*
X27122597Y-47853850D01*
X26884826Y-47746838D01*
X26871354Y-47739768D01*
X26648207Y-47604870D01*
X26635690Y-47596231D01*
X26430427Y-47435417D01*
X26419039Y-47425327D01*
X26234672Y-47240960D01*
X26224582Y-47229572D01*
X26212676Y-47214375D01*
X26063765Y-47024305D01*
X26055131Y-47011796D01*
X25920227Y-46788639D01*
X25913161Y-46775173D01*
X25908867Y-46765632D01*
X25806147Y-46537397D01*
X25800756Y-46523185D01*
X25723174Y-46274215D01*
X25719540Y-46259469D01*
X25672535Y-46002972D01*
X25670704Y-45987890D01*
X25654730Y-45723801D01*
X25654500Y-45716194D01*
X25654500Y-45594038D01*
X26339500Y-45594038D01*
X26339500Y-45845962D01*
X26378142Y-46089933D01*
X26378911Y-46094790D01*
X26450244Y-46314329D01*
X26456759Y-46334379D01*
X26571130Y-46558845D01*
X26719207Y-46762656D01*
X26719209Y-46762658D01*
X26719211Y-46762661D01*
X26897338Y-46940788D01*
X26897341Y-46940790D01*
X26897344Y-46940793D01*
X27101155Y-47088870D01*
X27325621Y-47203241D01*
X27565215Y-47281090D01*
X27814038Y-47320500D01*
X27814041Y-47320500D01*
X28065959Y-47320500D01*
X28065962Y-47320500D01*
X28314785Y-47281090D01*
X28554379Y-47203241D01*
X28778845Y-47088870D01*
X28982656Y-46940793D01*
X29160793Y-46762656D01*
X29308870Y-46558845D01*
X29423241Y-46334379D01*
X29501090Y-46094785D01*
X29540500Y-45845962D01*
X29540500Y-45594038D01*
X29501090Y-45345215D01*
X29423241Y-45105621D01*
X29308870Y-44881155D01*
X29160793Y-44677344D01*
X29160790Y-44677341D01*
X29160788Y-44677338D01*
X28982661Y-44499211D01*
X28982658Y-44499209D01*
X28982656Y-44499207D01*
X28778845Y-44351130D01*
X28554379Y-44236759D01*
X28554376Y-44236758D01*
X28554374Y-44236757D01*
X28314790Y-44158911D01*
X28314786Y-44158910D01*
X28314785Y-44158910D01*
X28065962Y-44119500D01*
X27814038Y-44119500D01*
X27565215Y-44158910D01*
X27565209Y-44158911D01*
X27325625Y-44236757D01*
X27325619Y-44236760D01*
X27101151Y-44351132D01*
X26897341Y-44499209D01*
X26897338Y-44499211D01*
X26719211Y-44677338D01*
X26719209Y-44677341D01*
X26571132Y-44881151D01*
X26456760Y-45105619D01*
X26456757Y-45105625D01*
X26378911Y-45345209D01*
X26378910Y-45345214D01*
X26378910Y-45345215D01*
X26339500Y-45594038D01*
X25654500Y-45594038D01*
X25654500Y-41402000D01*
X29312496Y-41402000D01*
X29332457Y-41591927D01*
X29348964Y-41642728D01*
X29391473Y-41773556D01*
X29419841Y-41822691D01*
X29486958Y-41938941D01*
X29486965Y-41938951D01*
X29614744Y-42080864D01*
X29614747Y-42080866D01*
X29769248Y-42193118D01*
X29943712Y-42270794D01*
X30130513Y-42310500D01*
X30321487Y-42310500D01*
X30508288Y-42270794D01*
X30682752Y-42193118D01*
X30837253Y-42080866D01*
X30837255Y-42080864D01*
X30965034Y-41938951D01*
X30965035Y-41938949D01*
X30965040Y-41938944D01*
X31060527Y-41773556D01*
X31119542Y-41591928D01*
X31139504Y-41402000D01*
X31119542Y-41212072D01*
X31060527Y-41030444D01*
X30965040Y-40865056D01*
X30965038Y-40865054D01*
X30965034Y-40865048D01*
X30837255Y-40723135D01*
X30682752Y-40610882D01*
X30508288Y-40533206D01*
X30321487Y-40493500D01*
X30130513Y-40493500D01*
X29943711Y-40533206D01*
X29769247Y-40610882D01*
X29614744Y-40723135D01*
X29486965Y-40865048D01*
X29486958Y-40865058D01*
X29391476Y-41030438D01*
X29391473Y-41030445D01*
X29332457Y-41212072D01*
X29312496Y-41402000D01*
X25654500Y-41402000D01*
X25654500Y-34925000D01*
X27407496Y-34925000D01*
X27427457Y-35114927D01*
X27441305Y-35157544D01*
X27486473Y-35296556D01*
X27486476Y-35296561D01*
X27581958Y-35461941D01*
X27581965Y-35461951D01*
X27709744Y-35603864D01*
X27727486Y-35616754D01*
X27864248Y-35716118D01*
X28038712Y-35793794D01*
X28225513Y-35833500D01*
X28416487Y-35833500D01*
X28603288Y-35793794D01*
X28777752Y-35716118D01*
X28932253Y-35603866D01*
X28945533Y-35589117D01*
X29060034Y-35461951D01*
X29060035Y-35461949D01*
X29060040Y-35461944D01*
X29155527Y-35296556D01*
X29214542Y-35114928D01*
X29234504Y-34925000D01*
X29214542Y-34735072D01*
X29155527Y-34553444D01*
X29060040Y-34388056D01*
X29060038Y-34388054D01*
X29060034Y-34388048D01*
X28932255Y-34246135D01*
X28777752Y-34133882D01*
X28603288Y-34056206D01*
X28416487Y-34016500D01*
X28225513Y-34016500D01*
X28038711Y-34056206D01*
X27864247Y-34133882D01*
X27709744Y-34246135D01*
X27581965Y-34388048D01*
X27581958Y-34388058D01*
X27486476Y-34553438D01*
X27486473Y-34553445D01*
X27427457Y-34735072D01*
X27407496Y-34925000D01*
X25654500Y-34925000D01*
X25654500Y-31496000D01*
X36678496Y-31496000D01*
X36698457Y-31685927D01*
X36727002Y-31773777D01*
X36757473Y-31867556D01*
X36757476Y-31867561D01*
X36852958Y-32032941D01*
X36852965Y-32032951D01*
X36980744Y-32174864D01*
X36980747Y-32174866D01*
X37135248Y-32287118D01*
X37309712Y-32364794D01*
X37496513Y-32404500D01*
X37687487Y-32404500D01*
X37874288Y-32364794D01*
X38048752Y-32287118D01*
X38203253Y-32174866D01*
X38250277Y-32122641D01*
X38331034Y-32032951D01*
X38331035Y-32032949D01*
X38331040Y-32032944D01*
X38426527Y-31867556D01*
X38485542Y-31685928D01*
X38505504Y-31496000D01*
X38485542Y-31306072D01*
X38426527Y-31124444D01*
X38331040Y-30959056D01*
X38331038Y-30959054D01*
X38331034Y-30959048D01*
X38203255Y-30817135D01*
X38048752Y-30704882D01*
X37874288Y-30627206D01*
X37687487Y-30587500D01*
X37496513Y-30587500D01*
X37309711Y-30627206D01*
X37135247Y-30704882D01*
X36980744Y-30817135D01*
X36852965Y-30959048D01*
X36852958Y-30959058D01*
X36771906Y-31099445D01*
X36757473Y-31124444D01*
X36742999Y-31168986D01*
X36698457Y-31306072D01*
X36678496Y-31496000D01*
X25654500Y-31496000D01*
X25654500Y-27943805D01*
X25654730Y-27936198D01*
X25660377Y-27842835D01*
X25662119Y-27814038D01*
X26339500Y-27814038D01*
X26339500Y-28065962D01*
X26375201Y-28291368D01*
X26378911Y-28314790D01*
X26456757Y-28554374D01*
X26456759Y-28554379D01*
X26571130Y-28778845D01*
X26719207Y-28982656D01*
X26719209Y-28982658D01*
X26719211Y-28982661D01*
X26897338Y-29160788D01*
X26897341Y-29160790D01*
X26897344Y-29160793D01*
X27101155Y-29308870D01*
X27325621Y-29423241D01*
X27565215Y-29501090D01*
X27814038Y-29540500D01*
X27814041Y-29540500D01*
X28065959Y-29540500D01*
X28065962Y-29540500D01*
X28314785Y-29501090D01*
X28554379Y-29423241D01*
X28778845Y-29308870D01*
X28982656Y-29160793D01*
X29160793Y-28982656D01*
X29308870Y-28778845D01*
X29423241Y-28554379D01*
X29501090Y-28314785D01*
X29540500Y-28065962D01*
X29540500Y-27814038D01*
X29536313Y-27787600D01*
X38608896Y-27787600D01*
X38628857Y-27977527D01*
X38646806Y-28032766D01*
X38687873Y-28159156D01*
X38687876Y-28159161D01*
X38783358Y-28324541D01*
X38783365Y-28324551D01*
X38911144Y-28466464D01*
X38911147Y-28466466D01*
X39065648Y-28578718D01*
X39240112Y-28656394D01*
X39426913Y-28696100D01*
X39617887Y-28696100D01*
X39804688Y-28656394D01*
X39979152Y-28578718D01*
X40133653Y-28466466D01*
X40247456Y-28340075D01*
X40261434Y-28324551D01*
X40261435Y-28324549D01*
X40261440Y-28324544D01*
X40356927Y-28159156D01*
X40415942Y-27977528D01*
X40435904Y-27787600D01*
X40415942Y-27597672D01*
X40356927Y-27416044D01*
X40261440Y-27250656D01*
X40261438Y-27250654D01*
X40261434Y-27250648D01*
X40133655Y-27108735D01*
X39979152Y-26996482D01*
X39804688Y-26918806D01*
X39617887Y-26879100D01*
X39426913Y-26879100D01*
X39240111Y-26918806D01*
X39065647Y-26996482D01*
X38911144Y-27108735D01*
X38783365Y-27250648D01*
X38783358Y-27250658D01*
X38687876Y-27416038D01*
X38687873Y-27416045D01*
X38628857Y-27597672D01*
X38608896Y-27787600D01*
X29536313Y-27787600D01*
X29501090Y-27565215D01*
X29471025Y-27472685D01*
X33316055Y-27472685D01*
X38359563Y-27472685D01*
X38359563Y-26133345D01*
X33316055Y-26133345D01*
X33316055Y-27472685D01*
X29471025Y-27472685D01*
X29423241Y-27325621D01*
X29308870Y-27101155D01*
X29160793Y-26897344D01*
X29160790Y-26897341D01*
X29160788Y-26897338D01*
X28982661Y-26719211D01*
X28982658Y-26719209D01*
X28982656Y-26719207D01*
X28778845Y-26571130D01*
X28554379Y-26456759D01*
X28554376Y-26456758D01*
X28554374Y-26456757D01*
X28314790Y-26378911D01*
X28314786Y-26378910D01*
X28314785Y-26378910D01*
X28065962Y-26339500D01*
X27814038Y-26339500D01*
X27565215Y-26378910D01*
X27565209Y-26378911D01*
X27325625Y-26456757D01*
X27325619Y-26456760D01*
X27101151Y-26571132D01*
X26897341Y-26719209D01*
X26897338Y-26719211D01*
X26719211Y-26897338D01*
X26719209Y-26897341D01*
X26571132Y-27101151D01*
X26456760Y-27325619D01*
X26456757Y-27325625D01*
X26378911Y-27565209D01*
X26378910Y-27565214D01*
X26378910Y-27565215D01*
X26339500Y-27814038D01*
X25662119Y-27814038D01*
X25670704Y-27672107D01*
X25672535Y-27657029D01*
X25719540Y-27400526D01*
X25723173Y-27385787D01*
X25800758Y-27136809D01*
X25806145Y-27122607D01*
X25913165Y-26884817D01*
X25920223Y-26871367D01*
X26055136Y-26648195D01*
X26063759Y-26635702D01*
X26224590Y-26430417D01*
X26234664Y-26419047D01*
X26419047Y-26234664D01*
X26430417Y-26224590D01*
X26635702Y-26063759D01*
X26648195Y-26055136D01*
X26871367Y-25920223D01*
X26884817Y-25913165D01*
X27122607Y-25806145D01*
X27136809Y-25800758D01*
X27385787Y-25723173D01*
X27400526Y-25719540D01*
X27657029Y-25672535D01*
X27672107Y-25670704D01*
X27912026Y-25656192D01*
X27936199Y-25654730D01*
X27943806Y-25654500D01*
X27984875Y-25654500D01*
X40717895Y-25654500D01*
X40786016Y-25674502D01*
G37*
G04 #@! TD.AperFunction*
G04 #@! TA.AperFunction,Conductor*
G36*
X46679039Y-30499685D02*
G01*
X46724794Y-30552489D01*
X46736000Y-30604000D01*
X46736000Y-35203263D01*
X46716315Y-35270302D01*
X46663511Y-35316057D01*
X46594353Y-35326001D01*
X46586221Y-35324554D01*
X46556883Y-35318318D01*
X46526687Y-35311900D01*
X46335713Y-35311900D01*
X46148914Y-35351605D01*
X45974446Y-35429283D01*
X45819945Y-35541535D01*
X45692159Y-35683457D01*
X45596673Y-35848843D01*
X45596670Y-35848850D01*
X45537659Y-36030468D01*
X45537658Y-36030472D01*
X45517696Y-36220400D01*
X45537658Y-36410328D01*
X45537659Y-36410331D01*
X45596670Y-36591949D01*
X45596673Y-36591956D01*
X45692160Y-36757344D01*
X45819947Y-36899266D01*
X45974448Y-37011518D01*
X46148912Y-37089194D01*
X46335713Y-37128900D01*
X46526687Y-37128900D01*
X46586219Y-37116246D01*
X46655886Y-37121562D01*
X46711620Y-37163699D01*
X46735725Y-37229279D01*
X46736000Y-37237536D01*
X46736000Y-38484000D01*
X46716315Y-38551039D01*
X46663511Y-38596794D01*
X46612000Y-38608000D01*
X46540309Y-38608000D01*
X46473270Y-38588315D01*
X46448161Y-38566973D01*
X46331253Y-38437134D01*
X46176752Y-38324882D01*
X46002288Y-38247206D01*
X46002286Y-38247205D01*
X45815487Y-38207500D01*
X45624513Y-38207500D01*
X45437714Y-38247205D01*
X45263246Y-38324883D01*
X45108745Y-38437135D01*
X45051057Y-38501205D01*
X44991839Y-38566972D01*
X44932355Y-38603621D01*
X44899691Y-38608000D01*
X40415114Y-38608000D01*
X40348075Y-38588315D01*
X40342229Y-38584319D01*
X40334747Y-38578883D01*
X40334746Y-38578882D01*
X40160282Y-38501206D01*
X40160280Y-38501205D01*
X39973481Y-38461500D01*
X39782507Y-38461500D01*
X39595708Y-38501205D01*
X39595706Y-38501206D01*
X39447993Y-38566972D01*
X39421240Y-38578883D01*
X39413759Y-38584319D01*
X39347952Y-38607798D01*
X39340874Y-38608000D01*
X37846000Y-38608000D01*
X37846000Y-44258924D01*
X37826315Y-44325963D01*
X37794887Y-44359241D01*
X37742746Y-44397124D01*
X37614959Y-44539047D01*
X37519473Y-44704433D01*
X37519470Y-44704440D01*
X37460459Y-44886058D01*
X37460458Y-44886062D01*
X37440496Y-45075990D01*
X37460458Y-45265918D01*
X37460459Y-45265921D01*
X37519470Y-45447539D01*
X37519473Y-45447546D01*
X37611669Y-45607235D01*
X37628142Y-45675136D01*
X37605289Y-45741162D01*
X37550368Y-45784353D01*
X37480814Y-45790994D01*
X37445265Y-45778290D01*
X37377580Y-45741661D01*
X37377577Y-45741659D01*
X37377574Y-45741658D01*
X37377571Y-45741657D01*
X37377569Y-45741656D01*
X37164637Y-45668556D01*
X36942569Y-45631500D01*
X36717431Y-45631500D01*
X36495362Y-45668556D01*
X36282430Y-45741656D01*
X36282419Y-45741661D01*
X36084427Y-45848808D01*
X36084422Y-45848812D01*
X35906761Y-45987092D01*
X35906756Y-45987097D01*
X35754284Y-46152723D01*
X35754276Y-46152734D01*
X35631140Y-46341207D01*
X35540703Y-46547386D01*
X35539036Y-46552242D01*
X35537553Y-46551732D01*
X35505595Y-46605819D01*
X35443172Y-46637207D01*
X35373689Y-46629864D01*
X35319207Y-46586121D01*
X35309935Y-46570489D01*
X35229245Y-46408443D01*
X35106391Y-46245757D01*
X34955739Y-46108421D01*
X34782413Y-46001101D01*
X34782412Y-46001100D01*
X34665000Y-45955615D01*
X34665000Y-46657894D01*
X34597007Y-46589901D01*
X34482993Y-46524075D01*
X34355826Y-46490000D01*
X34224174Y-46490000D01*
X34097007Y-46524075D01*
X33982993Y-46589901D01*
X33915000Y-46657894D01*
X33915000Y-45955615D01*
X33797587Y-46001100D01*
X33797586Y-46001101D01*
X33624260Y-46108421D01*
X33473608Y-46245757D01*
X33350754Y-46408443D01*
X33270064Y-46570489D01*
X33222561Y-46621726D01*
X33154898Y-46639147D01*
X33088557Y-46617221D01*
X33044603Y-46562910D01*
X33041043Y-46552214D01*
X33040964Y-46552242D01*
X33039297Y-46547391D01*
X33039296Y-46547384D01*
X33030443Y-46527201D01*
X33020000Y-46477393D01*
X33020000Y-44066000D01*
X33039685Y-43998961D01*
X33092489Y-43953206D01*
X33144000Y-43942000D01*
X33724685Y-43942000D01*
X33753790Y-43946609D01*
X33753953Y-43945843D01*
X33947111Y-43986900D01*
X34138085Y-43986900D01*
X34331243Y-43945843D01*
X34331405Y-43946609D01*
X34360511Y-43942000D01*
X35052000Y-43942000D01*
X35052000Y-36446000D01*
X35071685Y-36378961D01*
X35124489Y-36333206D01*
X35176000Y-36322000D01*
X43180000Y-36322000D01*
X43180000Y-30604000D01*
X43199685Y-30536961D01*
X43252489Y-30491206D01*
X43304000Y-30480000D01*
X46612000Y-30480000D01*
X46679039Y-30499685D01*
G37*
G04 #@! TD.AperFunction*
M02*
